<?xml version="1.0" encoding="UTF-8" standalone="no"?>
<svg
   xmlns:dc="http://purl.org/dc/elements/1.1/"
   xmlns:cc="http://creativecommons.org/ns#"
   xmlns:rdf="http://www.w3.org/1999/02/22-rdf-syntax-ns#"
   xmlns:svg="http://www.w3.org/2000/svg"
   xmlns="http://www.w3.org/2000/svg"
   xmlns:sodipodi="http://sodipodi.sourceforge.net/DTD/sodipodi-0.dtd"
   xmlns:inkscape="http://www.inkscape.org/namespaces/inkscape"
   style="font-style:normal;font-weight:normal;font-size:12px;font-family:Dialog;color-interpolation:auto;fill:#000000;fill-opacity:1;stroke:#000000;stroke-width:1;stroke-linecap:square;stroke-linejoin:miter;stroke-miterlimit:10;stroke-dasharray:none;stroke-dashoffset:0;stroke-opacity:1;color-rendering:auto;image-rendering:auto;shape-rendering:auto;text-rendering:auto"
   width="482.24561"
   height="403.03119"
   version="1.1"
   id="svg571"
   sodipodi:docname="LF_noise_vs_pump_amp.svg"
   inkscape:version="0.92.3 (2405546, 2018-03-11)">
  <metadata
     id="metadata575">
    <rdf:RDF>
      <cc:Work
         rdf:about="">
        <dc:format>image/svg+xml</dc:format>
        <dc:type
           rdf:resource="http://purl.org/dc/dcmitype/StillImage" />
      </cc:Work>
    </rdf:RDF>
  </metadata>
  <sodipodi:namedview
     pagecolor="#ffffff"
     bordercolor="#666666"
     borderopacity="1"
     objecttolerance="10"
     gridtolerance="10"
     guidetolerance="10"
     inkscape:pageopacity="0"
     inkscape:pageshadow="2"
     inkscape:window-width="1600"
     inkscape:window-height="1137"
     id="namedview573"
     showgrid="false"
     inkscape:zoom="1.5893067"
     inkscape:cx="238.13159"
     inkscape:cy="207.125"
     inkscape:window-x="-8"
     inkscape:window-y="-8"
     inkscape:window-maximized="1"
     inkscape:current-layer="svg571" />
  <!--Generated by the Batik Graphics2D SVG Generator-->
  <defs
     id="genericDefs">
    <defs
       id="defs1">
      <clipPath
         id="clipPath1"
         clipPathUnits="userSpaceOnUse">
        <path
           id="path3"
           d="M 0,0 H 560 V 420 H 0 Z"
           inkscape:connector-curvature="0" />
      </clipPath>
    </defs>
  </defs>
  <g
     id="g5874"
     transform="translate(-31.0938,-14.0938)">
    <g
       style="color-interpolation:linearRGB;fill:#1a1a1a;fill-opacity:0.25100002;stroke:#1a1a1a;stroke-width:0.66670001;stroke-linecap:butt;stroke-linejoin:bevel;stroke-miterlimit:1;stroke-dasharray:1, 3;stroke-opacity:0.25100002;color-rendering:optimizeQuality;image-rendering:optimizeQuality;text-rendering:geometricPrecision"
       id="g71">
      <line
         y2="31"
         style="fill:none"
         x1="85.055603"
         x2="85.055603"
         y1="370"
         id="line17" />
      <line
         y2="31"
         style="fill:none"
         x1="97.111099"
         x2="97.111099"
         y1="370"
         id="line19" />
      <line
         y2="31"
         style="fill:none"
         x1="109.1667"
         x2="109.1667"
         y1="370"
         id="line21" />
      <line
         y2="31"
         style="fill:none"
         x1="133.2778"
         x2="133.2778"
         y1="370"
         id="line23" />
      <line
         y2="31"
         style="fill:none"
         x1="145.3333"
         x2="145.3333"
         y1="370"
         id="line25" />
      <line
         y2="31"
         style="fill:none"
         x1="157.3889"
         x2="157.3889"
         y1="370"
         id="line27" />
      <line
         y2="31"
         style="fill:none"
         x1="181.5"
         x2="181.5"
         y1="370"
         id="line29" />
      <line
         y2="31"
         style="fill:none"
         x1="193.5556"
         x2="193.5556"
         y1="370"
         id="line31" />
      <line
         y2="31"
         style="fill:none"
         x1="205.6111"
         x2="205.6111"
         y1="370"
         id="line33" />
      <line
         y2="31"
         style="fill:none"
         x1="229.7222"
         x2="229.7222"
         y1="370"
         id="line35" />
      <line
         y2="31"
         style="fill:none"
         x1="241.7778"
         x2="241.7778"
         y1="370"
         id="line37" />
      <line
         y2="31"
         style="fill:none"
         x1="253.8333"
         x2="253.8333"
         y1="370"
         id="line39" />
      <line
         y2="31"
         style="fill:none"
         x1="277.9444"
         x2="277.9444"
         y1="370"
         id="line41" />
      <line
         y2="31"
         style="fill:none"
         x1="290"
         x2="290"
         y1="370"
         id="line43" />
      <line
         y2="31"
         style="fill:none"
         x1="302.0556"
         x2="302.0556"
         y1="370"
         id="line45" />
      <line
         y2="31"
         style="fill:none"
         x1="326.16669"
         x2="326.16669"
         y1="370"
         id="line47" />
      <line
         y2="31"
         style="fill:none"
         x1="338.2222"
         x2="338.2222"
         y1="370"
         id="line49" />
      <line
         y2="31"
         style="fill:none"
         x1="350.2778"
         x2="350.2778"
         y1="370"
         id="line51" />
      <line
         y2="31"
         style="fill:none"
         x1="374.38889"
         x2="374.38889"
         y1="370"
         id="line53" />
      <line
         y2="31"
         style="fill:none"
         x1="386.4444"
         x2="386.4444"
         y1="370"
         id="line55" />
      <line
         y2="31"
         style="fill:none"
         x1="398.5"
         x2="398.5"
         y1="370"
         id="line57" />
      <line
         y2="31"
         style="fill:none"
         x1="422.61111"
         x2="422.61111"
         y1="370"
         id="line59" />
      <line
         y2="31"
         style="fill:none"
         x1="434.66669"
         x2="434.66669"
         y1="370"
         id="line61" />
      <line
         y2="31"
         style="fill:none"
         x1="446.7222"
         x2="446.7222"
         y1="370"
         id="line63" />
      <line
         y2="31"
         style="fill:none"
         x1="470.83331"
         x2="470.83331"
         y1="370"
         id="line65" />
      <line
         y2="31"
         style="fill:none"
         x1="482.88889"
         x2="482.88889"
         y1="370"
         id="line67" />
      <line
         y2="31"
         style="fill:none"
         x1="494.9444"
         x2="494.9444"
         y1="370"
         id="line69" />
    </g>
    <g
       style="color-interpolation:linearRGB;fill:#262626;fill-opacity:0.14900004;stroke:#262626;stroke-width:0.66670001;stroke-linecap:butt;stroke-linejoin:round;stroke-opacity:0.14900004;color-rendering:optimizeQuality;image-rendering:optimizeQuality;text-rendering:geometricPrecision"
       id="g93">
      <line
         y2="31"
         style="fill:none"
         x1="73"
         x2="73"
         y1="370"
         id="line73" />
      <line
         y2="31"
         style="fill:none"
         x1="121.2222"
         x2="121.2222"
         y1="370"
         id="line75" />
      <line
         y2="31"
         style="fill:none"
         x1="169.4444"
         x2="169.4444"
         y1="370"
         id="line77" />
      <line
         y2="31"
         style="fill:none"
         x1="217.6667"
         x2="217.6667"
         y1="370"
         id="line79" />
      <line
         y2="31"
         style="fill:none"
         x1="265.88889"
         x2="265.88889"
         y1="370"
         id="line81" />
      <line
         y2="31"
         style="fill:none"
         x1="314.11111"
         x2="314.11111"
         y1="370"
         id="line83" />
      <line
         y2="31"
         style="fill:none"
         x1="362.33331"
         x2="362.33331"
         y1="370"
         id="line85" />
      <line
         y2="31"
         style="fill:none"
         x1="410.5556"
         x2="410.5556"
         y1="370"
         id="line87" />
      <line
         y2="31"
         style="fill:none"
         x1="458.7778"
         x2="458.7778"
         y1="370"
         id="line89" />
      <line
         y2="31"
         style="fill:none"
         x1="507"
         x2="507"
         y1="370"
         id="line91" />
    </g>
    <g
       style="color-interpolation:linearRGB;fill:#1a1a1a;fill-opacity:0.25100002;stroke:#1a1a1a;stroke-width:0.66670001;stroke-linecap:butt;stroke-linejoin:bevel;stroke-miterlimit:1;stroke-dasharray:1, 3;stroke-opacity:0.25100002;color-rendering:optimizeQuality;image-rendering:optimizeQuality;text-rendering:geometricPrecision"
       id="g137">
      <line
         y2="357.89291"
         style="fill:none"
         x1="507"
         x2="73"
         y1="357.89291"
         id="line95" />
      <line
         y2="345.78571"
         style="fill:none"
         x1="507"
         x2="73"
         y1="345.78571"
         id="line97" />
      <line
         y2="333.67859"
         style="fill:none"
         x1="507"
         x2="73"
         y1="333.67859"
         id="line99" />
      <line
         y2="309.46429"
         style="fill:none"
         x1="507"
         x2="73"
         y1="309.46429"
         id="line101" />
      <line
         y2="297.35709"
         style="fill:none"
         x1="507"
         x2="73"
         y1="297.35709"
         id="line103" />
      <line
         y2="285.25"
         style="fill:none"
         x1="507"
         x2="73"
         y1="285.25"
         id="line105" />
      <line
         y2="261.03571"
         style="fill:none"
         x1="507"
         x2="73"
         y1="261.03571"
         id="line107" />
      <line
         y2="248.9286"
         style="fill:none"
         x1="507"
         x2="73"
         y1="248.9286"
         id="line109" />
      <line
         y2="236.8214"
         style="fill:none"
         x1="507"
         x2="73"
         y1="236.8214"
         id="line111" />
      <line
         y2="212.6071"
         style="fill:none"
         x1="507"
         x2="73"
         y1="212.6071"
         id="line113" />
      <line
         y2="200.5"
         style="fill:none"
         x1="507"
         x2="73"
         y1="200.5"
         id="line115" />
      <line
         y2="188.3929"
         style="fill:none"
         x1="507"
         x2="73"
         y1="188.3929"
         id="line117" />
      <line
         y2="164.1786"
         style="fill:none"
         x1="507"
         x2="73"
         y1="164.1786"
         id="line119" />
      <line
         y2="152.0714"
         style="fill:none"
         x1="507"
         x2="73"
         y1="152.0714"
         id="line121" />
      <line
         y2="139.96429"
         style="fill:none"
         x1="507"
         x2="73"
         y1="139.96429"
         id="line123" />
      <line
         y2="115.75"
         style="fill:none"
         x1="507"
         x2="73"
         y1="115.75"
         id="line125" />
      <line
         y2="103.6429"
         style="fill:none"
         x1="507"
         x2="73"
         y1="103.6429"
         id="line127" />
      <line
         y2="91.535698"
         style="fill:none"
         x1="507"
         x2="73"
         y1="91.535698"
         id="line129" />
      <line
         y2="67.321404"
         style="fill:none"
         x1="507"
         x2="73"
         y1="67.321404"
         id="line131" />
      <line
         y2="55.214298"
         style="fill:none"
         x1="507"
         x2="73"
         y1="55.214298"
         id="line133" />
      <line
         y2="43.107101"
         style="fill:none"
         x1="507"
         x2="73"
         y1="43.107101"
         id="line135" />
    </g>
    <g
       style="color-interpolation:linearRGB;fill:#262626;fill-opacity:0.14900004;stroke:#262626;stroke-width:0.66670001;stroke-linecap:butt;stroke-linejoin:round;stroke-opacity:0.14900004;color-rendering:optimizeQuality;image-rendering:optimizeQuality;text-rendering:geometricPrecision"
       id="g199">
      <line
         y2="370"
         style="fill:none"
         x1="507"
         x2="73"
         y1="370"
         id="line139" />
      <line
         y2="321.57141"
         style="fill:none"
         x1="507"
         x2="73"
         y1="321.57141"
         id="line141" />
      <line
         y2="273.14291"
         style="fill:none"
         x1="507"
         x2="73"
         y1="273.14291"
         id="line143" />
      <line
         y2="224.71429"
         style="fill:none"
         x1="507"
         x2="73"
         y1="224.71429"
         id="line145" />
      <line
         y2="176.28571"
         style="fill:none"
         x1="507"
         x2="73"
         y1="176.28571"
         id="line147" />
      <line
         y2="127.8571"
         style="fill:none"
         x1="507"
         x2="73"
         y1="127.8571"
         id="line149" />
      <line
         y2="79.428596"
         style="fill:none"
         x1="507"
         x2="73"
         y1="79.428596"
         id="line151" />
      <line
         y2="31"
         style="fill:none"
         x1="507"
         x2="73"
         y1="31"
         id="line153" />
      <line
         x1="73"
         x2="507"
         y1="370"
         style="fill:none;fill-opacity:1;stroke-linecap:square;stroke-opacity:1"
         y2="370"
         id="line155" />
      <line
         x1="73"
         x2="507"
         y1="31"
         style="fill:none;fill-opacity:1;stroke-linecap:square;stroke-opacity:1"
         y2="31"
         id="line157" />
      <line
         x1="73"
         x2="73"
         y1="370"
         style="fill:none;fill-opacity:1;stroke-linecap:square;stroke-opacity:1"
         y2="365.66"
         id="line159" />
      <line
         x1="121.2222"
         x2="121.2222"
         y1="370"
         style="fill:none;fill-opacity:1;stroke-linecap:square;stroke-opacity:1"
         y2="365.66"
         id="line161" />
      <line
         x1="169.4444"
         x2="169.4444"
         y1="370"
         style="fill:none;fill-opacity:1;stroke-linecap:square;stroke-opacity:1"
         y2="365.66"
         id="line163" />
      <line
         x1="217.6667"
         x2="217.6667"
         y1="370"
         style="fill:none;fill-opacity:1;stroke-linecap:square;stroke-opacity:1"
         y2="365.66"
         id="line165" />
      <line
         x1="265.88889"
         x2="265.88889"
         y1="370"
         style="fill:none;fill-opacity:1;stroke-linecap:square;stroke-opacity:1"
         y2="365.66"
         id="line167" />
      <line
         x1="314.11111"
         x2="314.11111"
         y1="370"
         style="fill:none;fill-opacity:1;stroke-linecap:square;stroke-opacity:1"
         y2="365.66"
         id="line169" />
      <line
         x1="362.33331"
         x2="362.33331"
         y1="370"
         style="fill:none;fill-opacity:1;stroke-linecap:square;stroke-opacity:1"
         y2="365.66"
         id="line171" />
      <line
         x1="410.5556"
         x2="410.5556"
         y1="370"
         style="fill:none;fill-opacity:1;stroke-linecap:square;stroke-opacity:1"
         y2="365.66"
         id="line173" />
      <line
         x1="458.7778"
         x2="458.7778"
         y1="370"
         style="fill:none;fill-opacity:1;stroke-linecap:square;stroke-opacity:1"
         y2="365.66"
         id="line175" />
      <line
         x1="507"
         x2="507"
         y1="370"
         style="fill:none;fill-opacity:1;stroke-linecap:square;stroke-opacity:1"
         y2="365.66"
         id="line177" />
      <line
         x1="73"
         x2="73"
         y1="31"
         style="fill:none;fill-opacity:1;stroke-linecap:square;stroke-opacity:1"
         y2="35.34"
         id="line179" />
      <line
         x1="121.2222"
         x2="121.2222"
         y1="31"
         style="fill:none;fill-opacity:1;stroke-linecap:square;stroke-opacity:1"
         y2="35.34"
         id="line181" />
      <line
         x1="169.4444"
         x2="169.4444"
         y1="31"
         style="fill:none;fill-opacity:1;stroke-linecap:square;stroke-opacity:1"
         y2="35.34"
         id="line183" />
      <line
         x1="217.6667"
         x2="217.6667"
         y1="31"
         style="fill:none;fill-opacity:1;stroke-linecap:square;stroke-opacity:1"
         y2="35.34"
         id="line185" />
      <line
         x1="265.88889"
         x2="265.88889"
         y1="31"
         style="fill:none;fill-opacity:1;stroke-linecap:square;stroke-opacity:1"
         y2="35.34"
         id="line187" />
      <line
         x1="314.11111"
         x2="314.11111"
         y1="31"
         style="fill:none;fill-opacity:1;stroke-linecap:square;stroke-opacity:1"
         y2="35.34"
         id="line189" />
      <line
         x1="362.33331"
         x2="362.33331"
         y1="31"
         style="fill:none;fill-opacity:1;stroke-linecap:square;stroke-opacity:1"
         y2="35.34"
         id="line191" />
      <line
         x1="410.5556"
         x2="410.5556"
         y1="31"
         style="fill:none;fill-opacity:1;stroke-linecap:square;stroke-opacity:1"
         y2="35.34"
         id="line193" />
      <line
         x1="458.7778"
         x2="458.7778"
         y1="31"
         style="fill:none;fill-opacity:1;stroke-linecap:square;stroke-opacity:1"
         y2="35.34"
         id="line195" />
      <line
         x1="507"
         x2="507"
         y1="31"
         style="fill:none;fill-opacity:1;stroke-linecap:square;stroke-opacity:1"
         y2="35.34"
         id="line197" />
    </g>
    <g
       transform="translate(73,375.3333)"
       style="font-size:13px;font-family:SansSerif;color-interpolation:linearRGB;fill:#262626;stroke:#262626;color-rendering:optimizeQuality;image-rendering:optimizeQuality;text-rendering:geometricPrecision"
       id="g203">
      <path
         style="stroke:none"
         d="m -3.4531,9.4062 q 0,-1.6406 0.3359,-2.6484 0.336,-1.0078 1.0078,-1.5547 0.6719,-0.5469 1.6875,-0.5469 0.75,0 1.3125,0.3047 0.5625,0.3047 0.9297,0.8672 0.3672,0.5625 0.5781,1.3828 0.211,0.8203 0.211,2.1953 0,1.6407 -0.336,2.6485 -0.3359,1.0078 -1.0078,1.5547 -0.6718,0.5468 -1.6875,0.5468 -1.3437,0 -2.125,-0.9687 -0.9062,-1.1563 -0.9062,-3.7813 z m 1.1719,0 q 0,2.2969 0.5312,3.0547 0.5312,0.7579 1.3281,0.7579 0.7813,0 1.3203,-0.7579 0.5391,-0.7578 0.5391,-3.0547 0,-2.2968 -0.5391,-3.0468 -0.539,-0.75 -1.3359,-0.75 -0.7813,0 -1.2656,0.6562 -0.5781,0.8594 -0.5781,3.1406 z"
         id="path201"
         inkscape:connector-curvature="0" />
    </g>
    <g
       transform="translate(121.2222,375.3333)"
       style="font-size:13px;font-family:SansSerif;color-interpolation:linearRGB;fill:#262626;stroke:#262626;color-rendering:optimizeQuality;image-rendering:optimizeQuality;text-rendering:geometricPrecision"
       id="g207">
      <path
         style="stroke:none"
         d="M -2.6562,14 H -3.7969 V 6.7188 q -0.4219,0.3906 -1.0859,0.789 -0.6641,0.3984 -1.1953,0.586 V 6.9844 q 0.9531,-0.4375 1.6719,-1.0782 0.7187,-0.6406 1.0156,-1.25 h 0.7344 z M 0.2769,9.4062 q 0,-1.6406 0.3359,-2.6484 Q 0.9487,5.75 1.6206,5.2031 2.2925,4.6562 3.3081,4.6562 q 0.75,0 1.3125,0.3047 0.5625,0.3047 0.9297,0.8672 0.3672,0.5625 0.5781,1.3828 0.211,0.8203 0.211,2.1953 0,1.6407 -0.336,2.6485 -0.3359,1.0078 -1.0078,1.5547 -0.6719,0.5468 -1.6875,0.5468 -1.3437,0 -2.125,-0.9687 Q 0.2769,12.0312 0.2769,9.4062 Z m 1.1718,0 q 0,2.2969 0.5313,3.0547 0.5312,0.7579 1.3281,0.7579 0.7813,0 1.3203,-0.7579 0.5391,-0.7578 0.5391,-3.0547 0,-2.2968 -0.5391,-3.0468 -0.539,-0.75 -1.3359,-0.75 -0.7813,0 -1.2656,0.6562 Q 1.4487,7.125 1.4487,9.4062 Z"
         id="path205"
         inkscape:connector-curvature="0" />
    </g>
    <g
       transform="translate(169.4444,375.3333)"
       style="font-size:13px;font-family:SansSerif;color-interpolation:linearRGB;fill:#262626;stroke:#262626;color-rendering:optimizeQuality;image-rendering:optimizeQuality;text-rendering:geometricPrecision"
       id="g211">
      <path
         style="stroke:none"
         d="M -0.9531,12.9062 V 14 h -6.1563 q -0.0156,-0.4062 0.1406,-0.7969 0.2344,-0.625 0.75,-1.2343 0.5157,-0.6094 1.5,-1.4063 1.5157,-1.25 2.0469,-1.9766 0.5313,-0.7265 0.5313,-1.3671 0,-0.6876 -0.4844,-1.1485 -0.4844,-0.4609 -1.2656,-0.4609 -0.8282,0 -1.3203,0.4922 -0.4922,0.4922 -0.5079,1.3672 l -1.1718,-0.125 q 0.125,-1.3126 0.9062,-2 0.7813,-0.6876 2.1094,-0.6876 1.3438,0 2.125,0.7422 0.7812,0.7422 0.7812,1.836 0,0.5625 -0.2265,1.1015 -0.2266,0.5391 -0.7578,1.1407 -0.5313,0.6015 -1.7657,1.6328 -1.0312,0.8594 -1.3203,1.1718 -0.289,0.3126 -0.4765,0.625 z m 1.23,-3.5 q 0,-1.6406 0.3359,-2.6484 Q 0.9487,5.75 1.6206,5.2031 2.2925,4.6562 3.3081,4.6562 q 0.75,0 1.3125,0.3047 0.5625,0.3047 0.9297,0.8672 0.3672,0.5625 0.5781,1.3828 0.211,0.8203 0.211,2.1953 0,1.6407 -0.336,2.6485 -0.3359,1.0078 -1.0078,1.5547 -0.6719,0.5468 -1.6875,0.5468 -1.3437,0 -2.125,-0.9687 Q 0.2769,12.0312 0.2769,9.4062 Z m 1.1718,0 q 0,2.2969 0.5313,3.0547 0.5312,0.7579 1.3281,0.7579 0.7813,0 1.3203,-0.7579 0.5391,-0.7578 0.5391,-3.0547 0,-2.2968 -0.5391,-3.0468 -0.539,-0.75 -1.3359,-0.75 -0.7813,0 -1.2656,0.6562 Q 1.4487,7.125 1.4487,9.4062 Z"
         id="path209"
         inkscape:connector-curvature="0" />
    </g>
    <g
       transform="translate(217.6667,375.3333)"
       style="font-size:13px;font-family:SansSerif;color-interpolation:linearRGB;fill:#262626;stroke:#262626;color-rendering:optimizeQuality;image-rendering:optimizeQuality;text-rendering:geometricPrecision"
       id="g215">
      <path
         style="stroke:none"
         d="m -6.9531,11.5469 1.1406,-0.1563 q 0.2031,0.9688 0.6719,1.3985 0.4687,0.4297 1.1562,0.4297 0.7969,0 1.3516,-0.5547 0.5547,-0.5547 0.5547,-1.3829 0,-0.7968 -0.5078,-1.3046 -0.5079,-0.5078 -1.3047,-0.5078 -0.3282,0 -0.8125,0.125 l 0.125,-1 q 0.125,0.0156 0.1875,0.0156 0.7344,0 1.3203,-0.3828 0.5859,-0.3828 0.5859,-1.1797 0,-0.625 -0.4297,-1.0391 -0.4297,-0.414 -1.1015,-0.414 -0.6719,0 -1.1094,0.4218 -0.4375,0.4219 -0.5781,1.25 L -6.8438,7.0625 q 0.2188,-1.1406 0.961,-1.7734 0.7422,-0.6329 1.8359,-0.6329 0.7657,0 1.4063,0.3282 0.6406,0.3281 0.9844,0.8906 0.3437,0.5625 0.3437,1.2031 0,0.5938 -0.3281,1.0938 -0.3282,0.5 -0.9532,0.7812 0.8126,0.2031 1.2735,0.7969 0.4609,0.5938 0.4609,1.5 0,1.2188 -0.8906,2.0703 -0.8906,0.8516 -2.25,0.8516 -1.2188,0 -2.0312,-0.7344 -0.8126,-0.7344 -0.9219,-1.8906 z m 7.23,-2.1407 q 0,-1.6406 0.3359,-2.6484 Q 0.9487,5.75 1.6206,5.2031 2.2925,4.6562 3.3081,4.6562 q 0.75,0 1.3125,0.3047 0.5625,0.3047 0.9297,0.8672 0.3672,0.5625 0.5781,1.3828 0.211,0.8203 0.211,2.1953 0,1.6407 -0.336,2.6485 -0.3359,1.0078 -1.0078,1.5547 -0.6719,0.5468 -1.6875,0.5468 -1.3437,0 -2.125,-0.9687 Q 0.2769,12.0312 0.2769,9.4062 Z m 1.1718,0 q 0,2.2969 0.5313,3.0547 0.5312,0.7579 1.3281,0.7579 0.7813,0 1.3203,-0.7579 0.5391,-0.7578 0.5391,-3.0547 0,-2.2968 -0.5391,-3.0468 -0.539,-0.75 -1.3359,-0.75 -0.7813,0 -1.2656,0.6562 Q 1.4487,7.125 1.4487,9.4062 Z"
         id="path213"
         inkscape:connector-curvature="0" />
    </g>
    <g
       transform="translate(265.8889,375.3333)"
       style="font-size:13px;font-family:SansSerif;color-interpolation:linearRGB;fill:#262626;stroke:#262626;color-rendering:optimizeQuality;image-rendering:optimizeQuality;text-rendering:geometricPrecision"
       id="g219">
      <path
         style="stroke:none"
         d="m -3.2969,14 v -2.2344 h -4.0312 v -1.0468 l 4.2343,-6.0313 h 0.9376 v 6.0313 h 1.2656 v 1.0468 H -2.1562 V 14 Z m 0,-3.2812 V 6.5312 l -2.9219,4.1876 z M 0.2769,9.4062 q 0,-1.6406 0.3359,-2.6484 Q 0.9487,5.75 1.6206,5.2031 2.2925,4.6562 3.3081,4.6562 q 0.75,0 1.3125,0.3047 0.5625,0.3047 0.9297,0.8672 0.3672,0.5625 0.5781,1.3828 0.211,0.8203 0.211,2.1953 0,1.6407 -0.336,2.6485 -0.3359,1.0078 -1.0078,1.5547 -0.6719,0.5468 -1.6875,0.5468 -1.3437,0 -2.125,-0.9687 Q 0.2769,12.0312 0.2769,9.4062 Z m 1.1718,0 q 0,2.2969 0.5313,3.0547 0.5312,0.7579 1.3281,0.7579 0.7813,0 1.3203,-0.7579 0.5391,-0.7578 0.5391,-3.0547 0,-2.2968 -0.5391,-3.0468 -0.539,-0.75 -1.3359,-0.75 -0.7813,0 -1.2656,0.6562 Q 1.4487,7.125 1.4487,9.4062 Z"
         id="path217"
         inkscape:connector-curvature="0" />
    </g>
    <g
       transform="translate(314.1111,375.3333)"
       style="font-size:13px;font-family:SansSerif;color-interpolation:linearRGB;fill:#262626;stroke:#262626;color-rendering:optimizeQuality;image-rendering:optimizeQuality;text-rendering:geometricPrecision"
       id="g223">
      <path
         style="stroke:none"
         d="m -6.9531,11.5625 1.1875,-0.1094 q 0.1406,0.8907 0.625,1.3281 0.4844,0.4376 1.1718,0.4376 0.8282,0 1.3985,-0.625 Q -2,11.9688 -2,10.9531 -2,9.9688 -2.5469,9.4062 -3.0938,8.8438 -3.9844,8.8438 q -0.5625,0 -1.0078,0.25 -0.4453,0.25 -0.6953,0.6406 L -6.75,9.5938 -5.8594,4.8281 h 4.625 v 1.0781 h -3.7031 l -0.5,2.5 q 0.8281,-0.5781 1.75,-0.5781 1.2187,0 2.0547,0.8438 0.8359,0.8437 0.8359,2.1719 0,1.2656 -0.7343,2.1874 -0.8907,1.125 -2.4376,1.125 -1.2656,0 -2.0703,-0.7109 -0.8047,-0.7109 -0.914,-1.8828 z m 7.23,-2.1563 q 0,-1.6406 0.3359,-2.6484 Q 0.9487,5.75 1.6206,5.2031 2.2925,4.6562 3.3081,4.6562 q 0.75,0 1.3125,0.3047 0.5625,0.3047 0.9297,0.8672 0.3672,0.5625 0.5781,1.3828 0.211,0.8203 0.211,2.1953 0,1.6407 -0.336,2.6485 -0.3359,1.0078 -1.0078,1.5547 -0.6719,0.5468 -1.6875,0.5468 -1.3437,0 -2.125,-0.9687 Q 0.2769,12.0312 0.2769,9.4062 Z m 1.1718,0 q 0,2.2969 0.5313,3.0547 0.5312,0.7579 1.3281,0.7579 0.7813,0 1.3203,-0.7579 0.5391,-0.7578 0.5391,-3.0547 0,-2.2968 -0.5391,-3.0468 -0.539,-0.75 -1.3359,-0.75 -0.7813,0 -1.2656,0.6562 Q 1.4487,7.125 1.4487,9.4062 Z"
         id="path221"
         inkscape:connector-curvature="0" />
    </g>
    <g
       transform="translate(362.3333,375.3333)"
       style="font-size:13px;font-family:SansSerif;color-interpolation:linearRGB;fill:#262626;stroke:#262626;color-rendering:optimizeQuality;image-rendering:optimizeQuality;text-rendering:geometricPrecision"
       id="g227">
      <path
         style="stroke:none"
         d="M -1.0312,6.9688 -2.1719,7.0625 Q -2.3125,6.3906 -2.5938,6.0781 -3.0625,5.5938 -3.7344,5.5938 q -0.5468,0 -0.9687,0.3124 -0.5313,0.3907 -0.8438,1.1407 -0.3125,0.75 -0.3281,2.1562 0.4062,-0.625 1.0078,-0.9297 0.6016,-0.3046 1.2578,-0.3046 1.1406,0 1.9453,0.8359 0.8047,0.8359 0.8047,2.1797 0,0.875 -0.3828,1.625 -0.3828,0.75 -1.039,1.1484 -0.6563,0.3984 -1.5,0.3984 -1.4219,0 -2.3282,-1.0468 -0.9062,-1.0469 -0.9062,-3.4688 0,-2.6875 1,-3.9218 0.875,-1.0626 2.3437,-1.0626 1.0938,0 1.7969,0.6172 0.7031,0.6172 0.8438,1.6954 z m -4.6719,4.0156 q 0,0.5937 0.25,1.1328 0.25,0.539 0.7031,0.8203 0.4531,0.2813 0.9531,0.2813 0.7188,0 1.2422,-0.586 0.5235,-0.5859 0.5235,-1.5859 0,-0.9688 -0.5157,-1.5235 -0.5156,-0.5546 -1.2969,-0.5546 -0.7812,0 -1.3203,0.5546 -0.539,0.5547 -0.539,1.461 z m 5.98,-1.5782 q 0,-1.6406 0.3359,-2.6484 Q 0.9487,5.75 1.6206,5.2031 2.2925,4.6562 3.3081,4.6562 q 0.75,0 1.3125,0.3047 0.5625,0.3047 0.9297,0.8672 0.3672,0.5625 0.5781,1.3828 0.211,0.8203 0.211,2.1953 0,1.6407 -0.336,2.6485 -0.3359,1.0078 -1.0078,1.5547 -0.6719,0.5468 -1.6875,0.5468 -1.3437,0 -2.125,-0.9687 Q 0.2769,12.0312 0.2769,9.4062 Z m 1.1718,0 q 0,2.2969 0.5313,3.0547 0.5312,0.7579 1.3281,0.7579 0.7813,0 1.3203,-0.7579 0.5391,-0.7578 0.5391,-3.0547 0,-2.2968 -0.5391,-3.0468 -0.539,-0.75 -1.3359,-0.75 -0.7813,0 -1.2656,0.6562 Q 1.4487,7.125 1.4487,9.4062 Z"
         id="path225"
         inkscape:connector-curvature="0" />
    </g>
    <g
       transform="translate(410.5556,375.3333)"
       style="font-size:13px;font-family:SansSerif;color-interpolation:linearRGB;fill:#262626;stroke:#262626;color-rendering:optimizeQuality;image-rendering:optimizeQuality;text-rendering:geometricPrecision"
       id="g231">
      <path
         style="stroke:none"
         d="M -6.8906,5.9062 V 4.8125 h 6.0312 V 5.7031 Q -1.75,6.6562 -2.625,8.2188 -3.5,9.7812 -3.9688,11.4375 -4.3125,12.6094 -4.4062,14 h -1.1719 q 0.0156,-1.0938 0.4297,-2.6484 0.414,-1.5547 1.1796,-3 0.7657,-1.4454 1.6407,-2.4454 z m 7.1675,3.5 q 0,-1.6406 0.3359,-2.6484 Q 0.9487,5.75 1.6206,5.2031 2.2925,4.6562 3.3081,4.6562 q 0.75,0 1.3125,0.3047 0.5625,0.3047 0.9297,0.8672 0.3672,0.5625 0.5781,1.3828 0.211,0.8203 0.211,2.1953 0,1.6407 -0.336,2.6485 -0.3359,1.0078 -1.0078,1.5547 -0.6719,0.5468 -1.6875,0.5468 -1.3437,0 -2.125,-0.9687 Q 0.2769,12.0312 0.2769,9.4062 Z m 1.1718,0 q 0,2.2969 0.5313,3.0547 0.5312,0.7579 1.3281,0.7579 0.7813,0 1.3203,-0.7579 0.5391,-0.7578 0.5391,-3.0547 0,-2.2968 -0.5391,-3.0468 -0.539,-0.75 -1.3359,-0.75 -0.7813,0 -1.2656,0.6562 Q 1.4487,7.125 1.4487,9.4062 Z"
         id="path229"
         inkscape:connector-curvature="0" />
    </g>
    <g
       transform="translate(458.7778,375.3333)"
       style="font-size:13px;font-family:SansSerif;color-interpolation:linearRGB;fill:#262626;stroke:#262626;color-rendering:optimizeQuality;image-rendering:optimizeQuality;text-rendering:geometricPrecision"
       id="g235">
      <path
         style="stroke:none"
         d="M -5.2031,8.9531 Q -5.9062,8.6875 -6.25,8.2109 -6.5938,7.7344 -6.5938,7.0625 q 0,-1.0156 0.7266,-1.7109 0.7266,-0.6954 1.9453,-0.6954 1.2188,0 1.961,0.711 0.7421,0.7109 0.7421,1.7266 0,0.6406 -0.3437,1.1171 -0.3437,0.4766 -1.0313,0.7422 0.8594,0.2813 1.3047,0.9063 0.4453,0.625 0.4453,1.4844 0,1.1874 -0.8437,2 -0.8437,0.8124 -2.2187,0.8124 -1.375,0 -2.2188,-0.8124 -0.8438,-0.8126 -0.8438,-2.0313 0,-0.9063 0.461,-1.5234 0.4609,-0.6172 1.3047,-0.836 z M -5.4375,7.0156 q 0,0.6563 0.4297,1.0782 0.4297,0.4218 1.1016,0.4218 0.6718,0 1.0937,-0.414 0.4219,-0.4141 0.4219,-1.0235 0,-0.625 -0.4375,-1.0547 -0.4375,-0.4296 -1.0781,-0.4296 -0.6563,0 -1.0938,0.4218 -0.4375,0.4219 -0.4375,1 z m -0.3594,4.2969 q 0,0.4844 0.2344,0.9453 0.2344,0.461 0.6875,0.711 0.4531,0.25 0.9844,0.25 0.8125,0 1.3437,-0.5235 0.5313,-0.5234 0.5313,-1.3359 0,-0.8282 -0.5469,-1.3672 -0.5469,-0.5391 -1.375,-0.5391 -0.7969,0 -1.3281,0.5313 -0.5313,0.5312 -0.5313,1.3281 z M 0.2769,9.4062 q 0,-1.6406 0.3359,-2.6484 Q 0.9487,5.75 1.6206,5.2031 2.2925,4.6562 3.3081,4.6562 q 0.75,0 1.3125,0.3047 0.5625,0.3047 0.9297,0.8672 0.3672,0.5625 0.5781,1.3828 0.211,0.8203 0.211,2.1953 0,1.6407 -0.336,2.6485 -0.3359,1.0078 -1.0078,1.5547 -0.6719,0.5468 -1.6875,0.5468 -1.3437,0 -2.125,-0.9687 Q 0.2769,12.0312 0.2769,9.4062 Z m 1.1718,0 q 0,2.2969 0.5313,3.0547 0.5312,0.7579 1.3281,0.7579 0.7813,0 1.3203,-0.7579 0.5391,-0.7578 0.5391,-3.0547 0,-2.2968 -0.5391,-3.0468 -0.539,-0.75 -1.3359,-0.75 -0.7813,0 -1.2656,0.6562 Q 1.4487,7.125 1.4487,9.4062 Z"
         id="path233"
         inkscape:connector-curvature="0" />
    </g>
    <g
       transform="translate(507,375.3333)"
       style="font-size:13px;font-family:SansSerif;color-interpolation:linearRGB;fill:#262626;stroke:#262626;color-rendering:optimizeQuality;image-rendering:optimizeQuality;text-rendering:geometricPrecision"
       id="g239">
      <path
         style="stroke:none"
         d="M -6.7812,11.8438 -5.6875,11.75 q 0.1406,0.7656 0.5313,1.1172 0.3906,0.3516 1.0156,0.3516 0.5156,0 0.914,-0.2422 0.3985,-0.2422 0.6563,-0.6407 0.2578,-0.3984 0.4219,-1.0859 0.164,-0.6875 0.164,-1.4062 0,-0.0782 0,-0.2188 -0.3437,0.5469 -0.9375,0.8828 -0.5937,0.336 -1.2812,0.336 -1.1563,0 -1.9531,-0.836 -0.7969,-0.8359 -0.7969,-2.2109 0,-1.4219 0.8281,-2.2813 0.8281,-0.8594 2.0938,-0.8594 0.9062,0 1.6562,0.4922 0.75,0.4922 1.1406,1.3907 0.3906,0.8984 0.3906,2.6171 0,1.7813 -0.3828,2.836 -0.3828,1.0547 -1.1484,1.6094 -0.7656,0.5546 -1.7969,0.5546 -1.0937,0 -1.789,-0.6015 -0.6953,-0.6016 -0.8203,-1.7109 z m 4.6718,-4.1094 q 0,-0.9844 -0.5234,-1.5547 -0.5234,-0.5703 -1.2578,-0.5703 -0.7656,0 -1.3282,0.6172 -0.5624,0.6172 -0.5624,1.6172 0,0.875 0.5312,1.4296 0.5312,0.5547 1.3281,0.5547 0.7969,0 1.3047,-0.5547 0.5078,-0.5546 0.5078,-1.539 z m 2.3863,1.6718 q 0,-1.6406 0.3359,-2.6484 Q 0.9487,5.75 1.6206,5.2031 2.2925,4.6562 3.3081,4.6562 q 0.75,0 1.3125,0.3047 0.5625,0.3047 0.9297,0.8672 0.3672,0.5625 0.5781,1.3828 0.211,0.8203 0.211,2.1953 0,1.6407 -0.336,2.6485 -0.3359,1.0078 -1.0078,1.5547 -0.6719,0.5468 -1.6875,0.5468 -1.3437,0 -2.125,-0.9687 Q 0.2769,12.0312 0.2769,9.4062 Z m 1.1718,0 q 0,2.2969 0.5313,3.0547 0.5312,0.7579 1.3281,0.7579 0.7813,0 1.3203,-0.7579 0.5391,-0.7578 0.5391,-3.0547 0,-2.2968 -0.5391,-3.0468 -0.539,-0.75 -1.3359,-0.75 -0.7813,0 -1.2656,0.6562 Q 1.4487,7.125 1.4487,9.4062 Z"
         id="path237"
         inkscape:connector-curvature="0" />
    </g>
    <g
       transform="translate(257,410)"
       style="font-size:15px;font-family:SansSerif;color-interpolation:linearRGB;fill:#262626;stroke:#262626;color-rendering:optimizeQuality;image-rendering:optimizeQuality;text-rendering:geometricPrecision"
       id="g243">
      <path
         style="stroke:none"
         d="M 4.2188,0 0.0625,-10.7344 h 1.5469 l 2.7812,7.7969 Q 4.7344,-2 4.9531,-1.1719 q 0.25,-0.8906 0.5781,-1.7656 l 2.9063,-7.7969 H 9.8906 L 5.6875,0 Z"
         id="path241"
         inkscape:connector-curvature="0" />
    </g>
    <g
       transform="translate(268,417)"
       style="font-size:11px;font-family:SansSerif;color-interpolation:linearRGB;fill:#262626;stroke:#262626;color-rendering:optimizeQuality;image-rendering:optimizeQuality;text-rendering:geometricPrecision"
       id="g247">
      <path
         style="stroke:none"
         d="M 4.4531,-0.7031 Q 3.9062,-0.25 3.4141,-0.0625 2.9219,0.125 2.3438,0.125 1.4062,0.125 0.8984,-0.3359 0.3906,-0.7969 0.3906,-1.5 q 0,-0.4219 0.1953,-0.7656 0.1953,-0.3438 0.5,-0.5547 0.3047,-0.2109 0.6953,-0.3203 0.2813,-0.0782 0.8594,-0.1406 1.1719,-0.1407 1.7188,-0.3438 0.0156,-0.1875 0.0156,-0.25 0,-0.5938 -0.2812,-0.8281 Q 3.7344,-5.0312 3,-5.0312 q -0.6875,0 -1.0078,0.2343 -0.3203,0.2344 -0.4766,0.8438 l -0.9531,-0.125 q 0.125,-0.6094 0.4219,-0.9844 0.2968,-0.375 0.8594,-0.5703 0.5624,-0.1953 1.2968,-0.1953 0.7344,0 1.1875,0.1719 0.4531,0.1718 0.6641,0.4296 0.2109,0.2578 0.3047,0.6485 0.0469,0.25 0.0469,0.9062 v 1.2813 q 0,1.3437 0.0624,1.7031 Q 5.4688,-0.3281 5.6562,0 H 4.6406 Q 4.4844,-0.2969 4.4531,-0.7031 Z M 4.3594,-2.8594 Q 3.8438,-2.6406 2.7812,-2.5 q -0.5937,0.0938 -0.8359,0.1953 -0.2422,0.1016 -0.3828,0.3125 -0.1406,0.211 -0.1406,0.461 0,0.3906 0.2969,0.6484 0.2968,0.2578 0.8593,0.2578 0.5625,0 0.9922,-0.25 Q 4,-1.125 4.2188,-1.5469 4.3594,-1.875 4.3594,-2.5156 Z m 6.2114,0.7656 0.9375,0.125 q -0.1406,0.9844 -0.7891,1.5391 -0.6484,0.5547 -1.5703,0.5547 -1.1718,0 -1.8828,-0.7656 -0.7109,-0.7656 -0.7109,-2.1875 0,-0.9219 0.3047,-1.6172 0.3047,-0.6953 0.9297,-1.0391 0.625,-0.3437 1.3593,-0.3437 0.9219,0 1.5157,0.4687 0.5937,0.4688 0.7656,1.3282 l -0.9531,0.1406 q -0.125,-0.5625 -0.4688,-0.8516 -0.3437,-0.289 -0.8281,-0.289 -0.7188,0 -1.1797,0.5234 -0.4609,0.5234 -0.4609,1.6484 0,1.1563 0.4375,1.6719 0.4375,0.5156 1.1562,0.5156 0.5625,0 0.9453,-0.3437 0.3828,-0.3438 0.4922,-1.0782 z"
         id="path245"
         inkscape:connector-curvature="0" />
    </g>
    <g
       transform="translate(280,410)"
       style="font-size:15px;font-family:SansSerif;color-interpolation:linearRGB;fill:#262626;stroke:#262626;color-rendering:optimizeQuality;image-rendering:optimizeQuality;text-rendering:geometricPrecision"
       id="g251">
      <path
         style="stroke:none"
         d="m 5.1675,-9.2188 v -1.5156 H 6.48 v 1.5156 z M 5.1675,0 V -7.7812 H 6.48 V 0 Z m 3.3169,0 v -7.7812 h 1.1875 v 1.1093 q 0.8593,-1.2812 2.4843,-1.2812 0.7032,0 1.2891,0.25 0.5859,0.25 0.8828,0.664 0.2969,0.4141 0.4063,0.9766 0.0781,0.3594 0.0781,1.2813 V 0 h -1.3281 v -4.7344 q 0,-0.7968 -0.1485,-1.1953 -0.1484,-0.3984 -0.539,-0.6406 -0.3907,-0.2422 -0.9219,-0.2422 -0.8438,0 -1.4531,0.5313 Q 9.8125,-5.75 9.8125,-4.25 V 0 Z"
         id="path249"
         inkscape:connector-curvature="0" />
    </g>
    <g
       transform="translate(301,410)"
       style="font-size:15px;font-family:mwb_cmmi10;color-interpolation:linearRGB;fill:#262626;stroke:#262626;color-rendering:optimizeQuality;image-rendering:optimizeQuality;text-rendering:geometricPrecision"
       id="g255">
      <path
         style="stroke:none"
         d="m 0.4219,2.8125 q 0,-0.0781 0.0156,-0.1094 l 2.2031,-8.8593 q 0.0625,-0.2032 0.2344,-0.336 0.1719,-0.1328 0.3906,-0.1328 0.1875,0 0.3203,0.1094 0.1329,0.1094 0.1329,0.2968 0,0.0469 0,0.0782 0,0.0312 -0.0157,0.0468 l -0.8906,3.5157 q -0.1406,0.625 -0.1406,1.0781 0,0.5625 0.2656,0.9141 0.2656,0.3515 0.7969,0.3515 1.0937,0 1.9218,-1.3594 0,-0.0156 0.0079,-0.0234 0.0078,-0.0078 0.0078,-0.0234 L 6.75,-5.9844 q 0.0469,-0.2031 0.2344,-0.3437 0.1875,-0.1407 0.4062,-0.1407 0.1719,0 0.3047,0.1172 0.1328,0.1172 0.1328,0.3047 0,0.0938 -0.0156,0.125 L 6.7344,-1.6094 Q 6.625,-1.1719 6.625,-0.875 q 0,0.6406 0.4375,0.6406 0.4687,0 0.7109,-0.5781 0.2422,-0.5781 0.4141,-1.3906 0.0313,-0.0938 0.125,-0.0938 h 0.1719 q 0.0625,0 0.1015,0.0469 0.0391,0.0469 0.0391,0.1094 -0.2656,1.0468 -0.5781,1.6797 -0.3125,0.6328 -1.0157,0.6328 -0.4843,0 -0.875,-0.2891 -0.3906,-0.289 -0.5,-0.7734 -0.375,0.4687 -0.875,0.7656 -0.5,0.2969 -1.0624,0.2969 -0.9376,0 -1.4688,-0.4375 L 1.4844,2.7656 Q 1.4375,2.9688 1.2656,3.1016 1.0938,3.2344 0.875,3.2344 0.6875,3.2344 0.5547,3.125 0.4219,3.0156 0.4219,2.8125 Z"
         id="path253"
         inkscape:connector-curvature="0" />
    </g>
    <g
       transform="translate(311,410)"
       style="font-size:15px;font-family:SansSerif;color-interpolation:linearRGB;fill:#262626;stroke:#262626;color-rendering:optimizeQuality;image-rendering:optimizeQuality;text-rendering:geometricPrecision"
       id="g259">
      <path
         style="stroke:none"
         d="M 4.2188,0 0.0625,-10.7344 h 1.5469 l 2.7812,7.7969 Q 4.7344,-2 4.9531,-1.1719 q 0.25,-0.8906 0.5781,-1.7656 l 2.9063,-7.7969 H 9.8906 L 5.6875,0 Z"
         id="path257"
         inkscape:connector-curvature="0" />
    </g>
    <g
       style="color-interpolation:linearRGB;fill:#262626;stroke:#262626;stroke-width:0.66670001;stroke-linejoin:round;color-rendering:optimizeQuality;image-rendering:optimizeQuality;text-rendering:geometricPrecision"
       id="g297">
      <line
         y2="31"
         style="fill:none"
         x1="73"
         x2="73"
         y1="370"
         id="line261" />
      <line
         y2="31"
         style="fill:none"
         x1="507"
         x2="507"
         y1="370"
         id="line263" />
      <line
         y2="370"
         style="fill:none"
         x1="73"
         x2="77.339996"
         y1="370"
         id="line265" />
      <line
         y2="321.57141"
         style="fill:none"
         x1="73"
         x2="77.339996"
         y1="321.57141"
         id="line267" />
      <line
         y2="273.14291"
         style="fill:none"
         x1="73"
         x2="77.339996"
         y1="273.14291"
         id="line269" />
      <line
         y2="224.71429"
         style="fill:none"
         x1="73"
         x2="77.339996"
         y1="224.71429"
         id="line271" />
      <line
         y2="176.28571"
         style="fill:none"
         x1="73"
         x2="77.339996"
         y1="176.28571"
         id="line273" />
      <line
         y2="127.8571"
         style="fill:none"
         x1="73"
         x2="77.339996"
         y1="127.8571"
         id="line275" />
      <line
         y2="79.428596"
         style="fill:none"
         x1="73"
         x2="77.339996"
         y1="79.428596"
         id="line277" />
      <line
         y2="31"
         style="fill:none"
         x1="73"
         x2="77.339996"
         y1="31"
         id="line279" />
      <line
         y2="370"
         style="fill:none"
         x1="507"
         x2="502.66"
         y1="370"
         id="line281" />
      <line
         y2="321.57141"
         style="fill:none"
         x1="507"
         x2="502.66"
         y1="321.57141"
         id="line283" />
      <line
         y2="273.14291"
         style="fill:none"
         x1="507"
         x2="502.66"
         y1="273.14291"
         id="line285" />
      <line
         y2="224.71429"
         style="fill:none"
         x1="507"
         x2="502.66"
         y1="224.71429"
         id="line287" />
      <line
         y2="176.28571"
         style="fill:none"
         x1="507"
         x2="502.66"
         y1="176.28571"
         id="line289" />
      <line
         y2="127.8571"
         style="fill:none"
         x1="507"
         x2="502.66"
         y1="127.8571"
         id="line291" />
      <line
         y2="79.428596"
         style="fill:none"
         x1="507"
         x2="502.66"
         y1="79.428596"
         id="line293" />
      <line
         y2="31"
         style="fill:none"
         x1="507"
         x2="502.66"
         y1="31"
         id="line295" />
    </g>
    <g
       transform="translate(67.6667,370)"
       style="font-size:13px;font-family:SansSerif;color-interpolation:linearRGB;fill:#262626;stroke:#262626;color-rendering:optimizeQuality;image-rendering:optimizeQuality;text-rendering:geometricPrecision"
       id="g301">
      <path
         style="stroke:none"
         d="m -7.4531,0.9062 q 0,-1.6406 0.3359,-2.6484 0.336,-1.0078 1.0078,-1.5547 0.6719,-0.5469 1.6875,-0.5469 0.75,0 1.3125,0.3047 0.5625,0.3047 0.9297,0.8672 0.3672,0.5625 0.5781,1.3828 0.211,0.8203 0.211,2.1953 0,1.6407 -0.336,2.6485 -0.3359,1.0078 -1.0078,1.5547 -0.6718,0.5468 -1.6875,0.5468 -1.3437,0 -2.125,-0.9687 -0.9062,-1.1563 -0.9062,-3.7813 z m 1.1719,0 q 0,2.2969 0.5312,3.0547 0.5312,0.7579 1.3281,0.7579 0.7813,0 1.3203,-0.7579 0.5391,-0.7578 0.5391,-3.0547 0,-2.2968 -0.5391,-3.0468 -0.539,-0.75 -1.3359,-0.75 -0.7813,0 -1.2656,0.6562 -0.5781,0.8594 -0.5781,3.1406 z"
         id="path299"
         inkscape:connector-curvature="0" />
    </g>
    <g
       transform="translate(67.6667,321.5714)"
       style="font-size:13px;font-family:SansSerif;color-interpolation:linearRGB;fill:#262626;stroke:#262626;color-rendering:optimizeQuality;image-rendering:optimizeQuality;text-rendering:geometricPrecision"
       id="g305">
      <path
         style="stroke:none"
         d="m -3.1562,5.5 h -1.1407 v -7.2812 q -0.4219,0.3906 -1.0859,0.789 -0.6641,0.3984 -1.1953,0.586 v -1.1094 q 0.9531,-0.4375 1.6719,-1.0782 0.7187,-0.6406 1.0156,-1.25 h 0.7344 z"
         id="path303"
         inkscape:connector-curvature="0" />
    </g>
    <g
       transform="translate(67.6667,273.1429)"
       style="font-size:13px;font-family:SansSerif;color-interpolation:linearRGB;fill:#262626;stroke:#262626;color-rendering:optimizeQuality;image-rendering:optimizeQuality;text-rendering:geometricPrecision"
       id="g309">
      <path
         style="stroke:none"
         d="M -1.4531,4.4062 V 5.5 h -6.1563 q -0.0156,-0.4062 0.1406,-0.7969 0.2344,-0.625 0.75,-1.2343 0.5157,-0.6094 1.5,-1.4063 1.5157,-1.25 2.0469,-1.9766 0.5313,-0.7265 0.5313,-1.3671 0,-0.6876 -0.4844,-1.1485 -0.4844,-0.4609 -1.2656,-0.4609 -0.8282,0 -1.3203,0.4922 -0.4922,0.4922 -0.5079,1.3672 l -1.1718,-0.125 q 0.125,-1.3126 0.9062,-2 0.7813,-0.6876 2.1094,-0.6876 1.3438,0 2.125,0.7422 0.7812,0.7422 0.7812,1.836 0,0.5625 -0.2265,1.1015 -0.2266,0.5391 -0.7578,1.1407 -0.5313,0.6015 -1.7657,1.6328 -1.0312,0.8594 -1.3203,1.1718 -0.289,0.3126 -0.4765,0.625 z"
         id="path307"
         inkscape:connector-curvature="0" />
    </g>
    <g
       transform="translate(67.6667,224.7143)"
       style="font-size:13px;font-family:SansSerif;color-interpolation:linearRGB;fill:#262626;stroke:#262626;color-rendering:optimizeQuality;image-rendering:optimizeQuality;text-rendering:geometricPrecision"
       id="g313">
      <path
         style="stroke:none"
         d="m -7.4531,3.0469 1.1406,-0.1563 q 0.2031,0.9688 0.6719,1.3985 0.4687,0.4297 1.1562,0.4297 0.7969,0 1.3516,-0.5547 0.5547,-0.5547 0.5547,-1.3829 0,-0.7968 -0.5078,-1.3046 -0.5079,-0.5078 -1.3047,-0.5078 -0.3282,0 -0.8125,0.125 l 0.125,-1 q 0.125,0.0156 0.1875,0.0156 0.7344,0 1.3203,-0.3828 0.5859,-0.3828 0.5859,-1.1797 0,-0.625 -0.4297,-1.0391 -0.4297,-0.414 -1.1015,-0.414 -0.6719,0 -1.1094,0.4218 -0.4375,0.4219 -0.5781,1.25 l -1.1407,-0.2031 q 0.2188,-1.1406 0.961,-1.7734 0.7422,-0.6329 1.8359,-0.6329 0.7657,0 1.4063,0.3282 0.6406,0.3281 0.9844,0.8906 0.3437,0.5625 0.3437,1.2031 0,0.5938 -0.3281,1.0938 -0.3282,0.5 -0.9532,0.7812 0.8126,0.2031 1.2735,0.7969 0.4609,0.5938 0.4609,1.5 0,1.2188 -0.8906,2.0703 -0.8906,0.8516 -2.25,0.8516 -1.2188,0 -2.0312,-0.7344 -0.8126,-0.7344 -0.9219,-1.8906 z"
         id="path311"
         inkscape:connector-curvature="0" />
    </g>
    <g
       transform="translate(67.6667,176.2857)"
       style="font-size:13px;font-family:SansSerif;color-interpolation:linearRGB;fill:#262626;stroke:#262626;color-rendering:optimizeQuality;image-rendering:optimizeQuality;text-rendering:geometricPrecision"
       id="g317">
      <path
         style="stroke:none"
         d="M -3.7969,5.5 V 3.2656 H -7.8281 V 2.2188 l 4.2343,-6.0313 h 0.9376 v 6.0313 h 1.2656 V 3.2656 H -2.6562 V 5.5 Z m 0,-3.2812 v -4.1876 l -2.9219,4.1876 z"
         id="path315"
         inkscape:connector-curvature="0" />
    </g>
    <g
       transform="translate(67.6667,127.8571)"
       style="font-size:13px;font-family:SansSerif;color-interpolation:linearRGB;fill:#262626;stroke:#262626;color-rendering:optimizeQuality;image-rendering:optimizeQuality;text-rendering:geometricPrecision"
       id="g321">
      <path
         style="stroke:none"
         d="m -7.4531,3.0625 1.1875,-0.1094 q 0.1406,0.8907 0.625,1.3281 0.4844,0.4376 1.1718,0.4376 0.8282,0 1.3985,-0.625 Q -2.5,3.4688 -2.5,2.4531 -2.5,1.4688 -3.0469,0.9062 -3.5938,0.3438 -4.4844,0.3438 q -0.5625,0 -1.0078,0.25 -0.4453,0.25 -0.6953,0.6406 L -7.25,1.0938 -6.3594,-3.6719 h 4.625 v 1.0781 h -3.7031 l -0.5,2.5 q 0.8281,-0.5781 1.75,-0.5781 1.2187,0 2.0547,0.8438 0.8359,0.8437 0.8359,2.1719 0,1.2656 -0.7343,2.1874 -0.8907,1.125 -2.4376,1.125 -1.2656,0 -2.0703,-0.7109 -0.8047,-0.7109 -0.914,-1.8828 z"
         id="path319"
         inkscape:connector-curvature="0" />
    </g>
    <g
       transform="translate(67.6667,79.4286)"
       style="font-size:13px;font-family:SansSerif;color-interpolation:linearRGB;fill:#262626;stroke:#262626;color-rendering:optimizeQuality;image-rendering:optimizeQuality;text-rendering:geometricPrecision"
       id="g325">
      <path
         style="stroke:none"
         d="m -1.5312,-1.5312 -1.1407,0.0937 q -0.1406,-0.6719 -0.4219,-0.9844 -0.4687,-0.4843 -1.1406,-0.4843 -0.5468,0 -0.9687,0.3124 -0.5313,0.3907 -0.8438,1.1407 -0.3125,0.75 -0.3281,2.1562 0.4062,-0.625 1.0078,-0.9297 0.6016,-0.3046 1.2578,-0.3046 1.1406,0 1.9453,0.8359 0.8047,0.8359 0.8047,2.1797 0,0.875 -0.3828,1.625 -0.3828,0.75 -1.039,1.1484 -0.6563,0.3984 -1.5,0.3984 -1.4219,0 -2.3282,-1.0468 -0.9062,-1.0469 -0.9062,-3.4688 0,-2.6875 1,-3.9218 0.875,-1.0626 2.3437,-1.0626 1.0938,0 1.7969,0.6172 0.7031,0.6172 0.8438,1.6954 z m -4.6719,4.0156 q 0,0.5937 0.25,1.1328 0.25,0.539 0.7031,0.8203 0.4531,0.2813 0.9531,0.2813 0.7188,0 1.2422,-0.586 0.5235,-0.5859 0.5235,-1.5859 0,-0.9688 -0.5157,-1.5235 -0.5156,-0.5546 -1.2969,-0.5546 -0.7812,0 -1.3203,0.5546 -0.539,0.5547 -0.539,1.461 z"
         id="path323"
         inkscape:connector-curvature="0" />
    </g>
    <g
       transform="translate(67.6667,31)"
       style="font-size:13px;font-family:SansSerif;color-interpolation:linearRGB;fill:#262626;stroke:#262626;color-rendering:optimizeQuality;image-rendering:optimizeQuality;text-rendering:geometricPrecision"
       id="g329">
      <path
         style="stroke:none"
         d="m -7.3906,-2.5938 v -1.0937 h 6.0312 v 0.8906 Q -2.25,-1.8438 -3.125,-0.2812 -4,1.2812 -4.4688,2.9375 -4.8125,4.1094 -4.9062,5.5 h -1.1719 q 0.0156,-1.0938 0.4297,-2.6484 0.414,-1.5547 1.1796,-3 0.7657,-1.4454 1.6407,-2.4454 z"
         id="path327"
         inkscape:connector-curvature="0" />
    </g>
    <g
       transform="rotate(-90,170.5,124.5)"
       style="font-size:15px;font-family:mwb_cmr10;color-interpolation:linearRGB;fill:#262626;stroke:#262626;color-rendering:optimizeQuality;image-rendering:optimizeQuality;text-rendering:geometricPrecision"
       id="g333">
      <path
         style="stroke:none"
         d="m 0.8125,0 q -0.125,0 -0.125,-0.125 0.0156,0 0.0156,-0.0078 0,-0.0078 0,-0.0391 l 5.1563,-10.4062 q 0.0781,-0.1563 0.2812,-0.1563 h 0.2032 q 0.2031,0 0.2656,0.1563 l 5.1718,10.4062 q 0,0.0157 0.0079,0.0313 0.0078,0.0156 0.0078,0.0156 0,0.125 -0.125,0.125 z M 1.7969,-1.2031 H 9.7031 L 5.75,-9.1562 Z"
         id="path331"
         inkscape:connector-curvature="0" />
    </g>
    <g
       transform="rotate(-90,164,118)"
       style="font-size:15px;font-family:SansSerif;color-interpolation:linearRGB;fill:#262626;stroke:#262626;color-rendering:optimizeQuality;image-rendering:optimizeQuality;text-rendering:geometricPrecision"
       id="g337">
      <path
         style="stroke:none"
         d="m 4.8394,-3.4531 1.3437,-0.1094 q 0.0938,0.7969 0.4453,1.3125 0.3516,0.5156 1.0781,0.8359 0.7266,0.3203 1.6485,0.3203 0.8125,0 1.4375,-0.2421 0.625,-0.2422 0.9297,-0.6641 0.3047,-0.4219 0.3047,-0.9219 0,-0.5 -0.2969,-0.875 -0.2969,-0.375 -0.9688,-0.6406 -0.4375,-0.1563 -1.914,-0.5156 -1.4766,-0.3594 -2.0703,-0.6719 -0.7657,-0.4062 -1.1485,-1 -0.3828,-0.5938 -0.3828,-1.3438 0,-0.8124 0.4609,-1.5156 0.461,-0.7031 1.3516,-1.0703 0.8906,-0.3672 1.9688,-0.3672 1.2031,0 2.1093,0.3828 0.9063,0.3829 1.3985,1.1329 0.4922,0.75 0.539,1.6874 l -1.375,0.1094 q -0.1093,-1.0156 -0.7422,-1.539 -0.6328,-0.5235 -1.8671,-0.5235 -1.2813,0 -1.875,0.4766 -0.5938,0.4765 -0.5938,1.1328 0,0.5781 0.4219,0.9531 0.4062,0.375 2.1406,0.7656 1.7344,0.3907 2.375,0.6876 0.9375,0.4374 1.3828,1.1015 0.4453,0.6641 0.4453,1.5235 0,0.8593 -0.4922,1.6171 -0.4921,0.7579 -1.4062,1.1797 Q 10.5737,0.1875 9.4175,0.1875 7.9644,0.1875 6.98,-0.2422 5.9956,-0.6719 5.4331,-1.5234 4.8706,-2.375 4.8394,-3.4531 Z"
         id="path335"
         inkscape:connector-curvature="0" />
    </g>
    <g
       transform="rotate(-90,160,107)"
       style="font-size:11px;font-family:SansSerif;color-interpolation:linearRGB;fill:#262626;stroke:#262626;color-rendering:optimizeQuality;image-rendering:optimizeQuality;text-rendering:geometricPrecision"
       id="g341">
      <path
         style="stroke:none"
         d="M 1.0312,0 V -7.875 H 2.0625 V 0 Z M 4.0874,0 V -7.875 H 5.1187 V 0 Z"
         id="path339"
         inkscape:connector-curvature="0" />
    </g>
    <g
       transform="rotate(-90,153,107)"
       style="font-size:15px;font-family:SansSerif;color-interpolation:linearRGB;fill:#262626;stroke:#262626;color-rendering:optimizeQuality;image-rendering:optimizeQuality;text-rendering:geometricPrecision"
       id="g345">
      <path
         style="stroke:none"
         d="M 7.6831,3.1562 Q 6.5894,1.7812 5.8315,-0.0625 5.0737,-1.9062 5.0737,-3.8906 q 0,-1.7344 0.5625,-3.3438 0.6563,-1.8437 2.0469,-3.6875 H 8.6206 Q 7.73,-9.3906 7.4487,-8.75 q -0.4531,1.0156 -0.7031,2.1094 -0.3125,1.375 -0.3125,2.7656 0,3.5156 2.1875,7.0312 z M 14.627,0 v -6.75 h -1.1563 v -1.0312 h 1.1563 v -0.8282 q 0,-0.7812 0.1406,-1.1562 0.2031,-0.5156 0.6797,-0.836 0.4765,-0.3203 1.3359,-0.3203 0.5625,0 1.2344,0.1407 l -0.2031,1.1406 q -0.4063,-0.0782 -0.7657,-0.0782 -0.6093,0 -0.8593,0.2579 -0.25,0.2578 -0.25,0.9609 v 0.7188 h 1.5156 V -6.75 H 15.9395 V 0 Z m 14.9599,-6.3125 h -7.0937 v -1.2344 h 7.0937 z m 0,3.2656 h -7.0937 v -1.2343 h 7.0937 z m 5.6304,-2.25 q 0,-1.9062 0.3906,-3.0625 0.3906,-1.1562 1.1641,-1.789 0.7734,-0.6328 1.9453,-0.6328 0.8594,0 1.5156,0.3515 0.6563,0.3516 1.0781,1 0.4219,0.6485 0.6641,1.5938 0.2422,0.9453 0.2422,2.539 0,1.8907 -0.3906,3.0547 -0.3907,1.1641 -1.1641,1.7969 -0.7734,0.6328 -1.9453,0.6328 -1.5469,0 -2.4375,-1.125 -1.0625,-1.3281 -1.0625,-4.3594 z m 1.3594,0 q 0,2.6407 0.6171,3.5157 0.6172,0.875 1.5235,0.875 0.9062,0 1.5234,-0.875 0.6172,-0.875 0.6172,-3.5157 0,-2.6562 -0.6172,-3.5234 -0.6172,-0.8672 -1.539,-0.8672 -0.9063,0 -1.4532,0.7656 -0.6718,0.9844 -0.6718,3.625 z M 44.2627,0 v -1.5 h 1.5 V 0 q 0,0.8281 -0.2891,1.3359 -0.289,0.5079 -0.9297,0.7891 L 44.1846,1.5625 Q 44.5908,1.375 44.7939,1.0234 44.9971,0.6719 45.0127,0 Z M 55.4883,0 51.332,-10.7344 h 1.5469 l 2.7813,7.7969 q 0.3437,0.9375 0.5625,1.7656 0.25,-0.8906 0.5781,-1.7656 l 2.9062,-7.7969 h 1.4532 L 56.957,0 Z"
         id="path343"
         inkscape:connector-curvature="0" />
    </g>
    <g
       transform="rotate(-90,125.5,72.5)"
       style="font-size:11px;font-family:SansSerif;color-interpolation:linearRGB;fill:#262626;stroke:#262626;color-rendering:optimizeQuality;image-rendering:optimizeQuality;text-rendering:geometricPrecision"
       id="g349">
      <path
         style="stroke:none"
         d="M 4.4531,-0.7031 Q 3.9062,-0.25 3.4141,-0.0625 2.9219,0.125 2.3438,0.125 1.4062,0.125 0.8984,-0.3359 0.3906,-0.7969 0.3906,-1.5 q 0,-0.4219 0.1953,-0.7656 0.1953,-0.3438 0.5,-0.5547 0.3047,-0.2109 0.6953,-0.3203 0.2813,-0.0782 0.8594,-0.1406 1.1719,-0.1407 1.7188,-0.3438 0.0156,-0.1875 0.0156,-0.25 0,-0.5938 -0.2812,-0.8281 Q 3.7344,-5.0312 3,-5.0312 q -0.6875,0 -1.0078,0.2343 -0.3203,0.2344 -0.4766,0.8438 l -0.9531,-0.125 q 0.125,-0.6094 0.4219,-0.9844 0.2968,-0.375 0.8594,-0.5703 0.5624,-0.1953 1.2968,-0.1953 0.7344,0 1.1875,0.1719 0.4531,0.1718 0.6641,0.4296 0.2109,0.2578 0.3047,0.6485 0.0469,0.25 0.0469,0.9062 v 1.2813 q 0,1.3437 0.0624,1.7031 Q 5.4688,-0.3281 5.6562,0 H 4.6406 Q 4.4844,-0.2969 4.4531,-0.7031 Z M 4.3594,-2.8594 Q 3.8438,-2.6406 2.7812,-2.5 q -0.5937,0.0938 -0.8359,0.1953 -0.2422,0.1016 -0.3828,0.3125 -0.1406,0.211 -0.1406,0.461 0,0.3906 0.2969,0.6484 0.2968,0.2578 0.8593,0.2578 0.5625,0 0.9922,-0.25 Q 4,-1.125 4.2188,-1.5469 4.3594,-1.875 4.3594,-2.5156 Z m 6.2114,0.7656 0.9375,0.125 q -0.1406,0.9844 -0.7891,1.5391 -0.6484,0.5547 -1.5703,0.5547 -1.1718,0 -1.8828,-0.7656 -0.7109,-0.7656 -0.7109,-2.1875 0,-0.9219 0.3047,-1.6172 0.3047,-0.6953 0.9297,-1.0391 0.625,-0.3437 1.3593,-0.3437 0.9219,0 1.5157,0.4687 0.5937,0.4688 0.7656,1.3282 l -0.9531,0.1406 q -0.125,-0.5625 -0.4688,-0.8516 -0.3437,-0.289 -0.8281,-0.289 -0.7188,0 -1.1797,0.5234 -0.4609,0.5234 -0.4609,1.6484 0,1.1563 0.4375,1.6719 0.4375,0.5156 1.1562,0.5156 0.5625,0 0.9453,-0.3437 0.3828,-0.3438 0.4922,-1.0782 z"
         id="path347"
         inkscape:connector-curvature="0" />
    </g>
    <g
       transform="rotate(-90,116,70)"
       style="font-size:15px;font-family:SansSerif;color-interpolation:linearRGB;fill:#262626;stroke:#262626;color-rendering:optimizeQuality;image-rendering:optimizeQuality;text-rendering:geometricPrecision"
       id="g353">
      <path
         style="stroke:none"
         d="M 6.0269,3.1562 H 5.0737 q 2.1875,-3.5156 2.1875,-7.0312 0,-1.3906 -0.3125,-2.7344 -0.25,-1.1094 -0.6875,-2.1094 -0.2968,-0.6562 -1.1875,-2.2031 h 0.9532 q 1.375,1.8438 2.0312,3.6875 0.5625,1.6094 0.5625,3.3438 0,1.9844 -0.7578,3.8281 Q 7.105,1.7812 6.0269,3.1562 Z m 8.3032,-12.375 v -1.5156 h 1.3125 v 1.5156 z m 0,9.2188 v -7.7812 h 1.3125 V 0 Z m 3.3169,0 v -7.7812 h 1.1875 v 1.1093 q 0.8593,-1.2812 2.4843,-1.2812 0.7032,0 1.2891,0.25 0.5859,0.25 0.8828,0.664 0.2969,0.4141 0.4063,0.9766 0.0781,0.3594 0.0781,1.2813 V 0 H 22.647 v -4.7344 q 0,-0.7968 -0.1485,-1.1953 -0.1484,-0.3984 -0.539,-0.6406 -0.3907,-0.2422 -0.9219,-0.2422 -0.8438,0 -1.4531,0.5313 Q 18.9751,-5.75 18.9751,-4.25 V 0 Z m 11.5097,0 4.125,-10.7344 h 1.5157 L 39.2036,0 h -1.625 l -1.25,-3.25 H 31.8442 L 30.6567,0 Z m 3.0938,-4.4062 h 3.6406 l -1.125,-2.9844 q -0.5156,-1.3438 -0.7656,-2.2188 -0.2031,1.0313 -0.5781,2.0469 z"
         id="path351"
         inkscape:connector-curvature="0" />
    </g>
    <g
       transform="rotate(-90,92.5,53.5)"
       style="font-size:11px;font-family:SansSerif;color-interpolation:linearRGB;fill:#262626;stroke:#262626;color-rendering:optimizeQuality;image-rendering:optimizeQuality;text-rendering:geometricPrecision"
       id="g357">
      <path
         style="stroke:none"
         d="M 5.5312,-0.9219 V 0 H 0.3281 q 0,-0.3438 0.125,-0.6719 0.1875,-0.5312 0.625,-1.0469 0.4375,-0.5156 1.2657,-1.1874 1.2812,-1.0626 1.7343,-1.6719 0.4531,-0.6094 0.4531,-1.1563 0,-0.5781 -0.4062,-0.9765 -0.4062,-0.3985 -1.0781,-0.3985 -0.6875,0 -1.1094,0.4219 -0.4219,0.4219 -0.4219,1.1563 l -1,-0.0938 q 0.1094,-1.1094 0.7735,-1.6953 0.664,-0.5859 1.789,-0.5859 1.125,0 1.7891,0.625 0.664,0.625 0.664,1.5624 0,0.4688 -0.1953,0.9297 -0.1953,0.461 -0.6406,0.961 -0.4453,0.5 -1.4922,1.3906 -0.875,0.7187 -1.1172,0.9844 -0.2421,0.2656 -0.414,0.5312 z"
         id="path355"
         inkscape:connector-curvature="0" />
    </g>
    <g
       transform="rotate(-90,92.5,46.5)"
       style="font-size:15px;font-family:SansSerif;color-interpolation:linearRGB;fill:#262626;stroke:#262626;color-rendering:optimizeQuality;image-rendering:optimizeQuality;text-rendering:geometricPrecision"
       id="g361">
      <path
         style="stroke:none"
         d="m 1.3594,0 v -1.5 h 1.5 V 0 Z m 4.0112,0 v -10.7344 h 1.4219 v 4.4063 h 5.5781 v -4.4063 h 1.4219 V 0 H 12.3706 V -5.0625 H 6.7925 V 0 Z m 9.9263,0 V -1.0625 L 20.25,-6.75 q -0.8438,0.0469 -1.5,0.0469 h -3.1562 v -1.0781 h 6.3437 v 0.875 l -4.2031,4.9374 -0.8125,0.9063 q 0.8906,-0.0781 1.6562,-0.0781 h 3.5938 V 0 Z"
         id="path359"
         inkscape:connector-curvature="0" />
    </g>
    <g
       transform="rotate(-90,77.5,38.5)"
       style="font-size:11px;font-family:SansSerif;color-interpolation:linearRGB;fill:#262626;stroke:#262626;color-rendering:optimizeQuality;image-rendering:optimizeQuality;text-rendering:geometricPrecision"
       id="g365">
      <path
         style="stroke:none"
         d="m 0.3438,-2.3594 v -0.9687 h 2.9687 v 0.9687 z M 7.7568,0 H 6.7881 V -6.1562 Q 6.4443,-5.8281 5.8818,-5.4922 5.3193,-5.1562 4.8662,-5 v -0.9375 q 0.8125,-0.375 1.4141,-0.9141 0.6015,-0.539 0.8515,-1.0546 h 0.625 z"
         id="path363"
         inkscape:connector-curvature="0" />
    </g>
    <g
       transform="translate(73,28)"
       style="font-size:13px;font-family:mwb_cmsy10;color-interpolation:linearRGB;fill:#262626;stroke:#262626;color-rendering:optimizeQuality;image-rendering:optimizeQuality;text-rendering:geometricPrecision"
       id="g369">
      <path
         style="stroke:none"
         d="m 1.9062,-0.375 q 0,-0.0938 0.0626,-0.1875 L 4.6719,-3.25 1.9688,-5.9531 Q 1.9062,-6.0156 1.9062,-6.125 q 0,-0.0938 0.0782,-0.1797 0.0781,-0.0859 0.1875,-0.0859 0.0937,0 0.2031,0.0937 l 2.6875,2.6875 2.6719,-2.6875 q 0.1094,-0.0937 0.1875,-0.0937 0.1093,0 0.1875,0.0781 0.0781,0.0781 0.0781,0.1875 0,0.1094 -0.0625,0.1719 L 5.4219,-3.25 8.125,-0.5625 q 0.0625,0.0937 0.0625,0.1875 0,0.1094 -0.0781,0.1875 -0.0782,0.0781 -0.1875,0.0781 -0.0938,0 -0.1875,-0.0937 L 5.0625,-2.8906 2.375,-0.2031 q -0.1094,0.0937 -0.2031,0.0937 -0.1094,0 -0.1875,-0.0859 Q 1.9062,-0.2812 1.9062,-0.375 Z"
         id="path367"
         inkscape:connector-curvature="0" />
    </g>
    <g
       transform="translate(84,28)"
       style="font-size:13px;font-family:SansSerif;color-interpolation:linearRGB;fill:#262626;stroke:#262626;color-rendering:optimizeQuality;image-rendering:optimizeQuality;text-rendering:geometricPrecision"
       id="g373">
      <path
         style="stroke:none"
         d="M 4.8438,0 H 3.7031 v -7.2812 q -0.4219,0.3906 -1.0859,0.789 -0.6641,0.3984 -1.1953,0.586 v -1.1094 q 0.9531,-0.4375 1.6719,-1.0782 0.7187,-0.6406 1.0156,-1.25 h 0.7344 z m 2.9331,-4.5938 q 0,-1.6406 0.3359,-2.6484 0.3359,-1.0078 1.0078,-1.5547 0.6719,-0.5469 1.6875,-0.5469 0.75,0 1.3125,0.3047 0.5625,0.3047 0.9297,0.8672 0.3672,0.5625 0.5781,1.3828 0.211,0.8203 0.211,2.1953 0,1.6407 -0.336,2.6485 -0.3359,1.0078 -1.0078,1.5547 -0.6719,0.5468 -1.6875,0.5468 -1.3437,0 -2.125,-0.9687 -0.9062,-1.1563 -0.9062,-3.7813 z m 1.1718,0 q 0,2.2969 0.5313,3.0547 0.5312,0.7579 1.3281,0.7579 0.7813,0 1.3203,-0.7579 0.5391,-0.7578 0.5391,-3.0547 0,-2.2968 -0.5391,-3.0468 -0.539,-0.75 -1.3359,-0.75 -0.7813,0 -1.2656,0.6562 -0.5782,0.8594 -0.5782,3.1406 z"
         id="path371"
         inkscape:connector-curvature="0" />
    </g>
    <g
       transform="translate(99,22)"
       style="font-size:11px;font-family:SansSerif;color-interpolation:linearRGB;fill:#262626;stroke:#262626;color-rendering:optimizeQuality;image-rendering:optimizeQuality;text-rendering:geometricPrecision"
       id="g377">
      <path
         style="stroke:none"
         d="m 0.3438,-2.3594 v -0.9687 h 2.9687 v 0.9687 z m 8.8505,1.4375 V 0 H 3.9912 q 0,-0.3438 0.125,-0.6719 0.1875,-0.5312 0.625,-1.0469 0.4375,-0.5156 1.2656,-1.1874 1.2813,-1.0626 1.7344,-1.6719 0.4531,-0.6094 0.4531,-1.1563 0,-0.5781 -0.4062,-0.9765 -0.4063,-0.3985 -1.0781,-0.3985 -0.6875,0 -1.1094,0.4219 -0.4219,0.4219 -0.4219,1.1563 l -1,-0.0938 q 0.1094,-1.1094 0.7734,-1.6953 0.6641,-0.5859 1.7891,-0.5859 1.125,0 1.7891,0.625 0.664,0.625 0.664,1.5624 0,0.4688 -0.1953,0.9297 -0.1953,0.461 -0.6406,0.961 -0.4453,0.5 -1.4922,1.3906 -0.875,0.7187 -1.1172,0.9844 -0.2422,0.2656 -0.414,0.5312 z m 2.524,-3.3437 q -0.5938,-0.2188 -0.8829,-0.6328 -0.289,-0.4141 -0.289,-0.9766 0,-0.8594 0.6172,-1.4453 0.6172,-0.5859 1.6484,-0.5859 1.0313,0 1.6563,0.6015 0.625,0.6016 0.625,1.4609 0,0.5469 -0.2891,0.9532 -0.2891,0.4062 -0.8672,0.625 0.7188,0.2344 1.1016,0.7578 0.3828,0.5234 0.3828,1.2578 0,1.0156 -0.7188,1.7031 -0.7187,0.6875 -1.875,0.6875 -1.1718,0 -1.8828,-0.6953 -0.7109,-0.6953 -0.7109,-1.7265 0,-0.7657 0.3828,-1.2813 0.3828,-0.5156 1.1016,-0.7031 z m -0.1875,-1.6406 q 0,0.5624 0.3593,0.914 0.3594,0.3516 0.9375,0.3516 0.5625,0 0.9141,-0.3516 0.3516,-0.3516 0.3516,-0.8672 0,-0.5312 -0.3672,-0.8906 -0.3672,-0.3594 -0.9141,-0.3594 -0.5469,0 -0.9141,0.3516 -0.3671,0.3516 -0.3671,0.8516 z m -0.3125,3.6406 q 0,0.4062 0.1953,0.7968 0.1953,0.3907 0.5859,0.6016 0.3906,0.211 0.8281,0.211 0.7032,0 1.1485,-0.4454 0.4453,-0.4453 0.4453,-1.1328 0,-0.7031 -0.461,-1.1562 -0.4609,-0.4532 -1.164,-0.4532 -0.6719,0 -1.125,0.4454 -0.4531,0.4453 -0.4531,1.1328 z"
         id="path375"
         inkscape:connector-curvature="0" />
    </g>
    <g
       style="color-interpolation:linearRGB;fill:#ff0000;stroke:#ff0000;stroke-width:1.33329999;stroke-linecap:butt;stroke-linejoin:round;color-rendering:optimizeQuality;image-rendering:optimizeQuality;text-rendering:geometricPrecision"
       id="g451">
      <path
         d="m 73,370 4.3838,-0.0692 4.3839,-0.2074 4.3838,-0.3454 4.3839,-0.4831 4.3838,-0.6202 4.3838,-0.7566 4.3839,-0.8921 4.3838,-1.0266 4.3838,-1.16 4.3839,-1.2921 4.3838,-1.4226 4.3839,-1.5518 4.3838,-1.679 4.3838,-1.8044 4.3839,-1.928 4.3838,-2.0493 4.3839,-2.1683 4.3838,-2.285 4.3838,-2.3993 4.3839,-2.511 4.3838,-2.6199 4.3838,-2.7261 4.3839,-2.8294 4.3838,-2.9296 4.3838,-3.027 4.3839,-3.121 4.3838,-3.2119 4.3839,-3.2995 4.3838,-3.3838 4.3839,-3.4647 4.3838,-3.5422 4.3838,-3.6162 4.3839,-3.6867 4.3838,-3.7536 4.3838,-3.8171 4.3839,-3.8768 4.3838,-3.9331 4.3839,-3.9858 4.3838,-4.0349 4.3838,-4.0803 4.3839,-4.1224 4.3838,-4.1608 4.3838,-4.1958 4.3839,-4.2272 4.3838,-4.2554 4.3839,-4.28 4.3838,-4.3015 4.3839,-4.3195 4.3838,-4.3345"
         style="fill:none;fill-rule:evenodd"
         id="path379"
         inkscape:connector-curvature="0" />
      <path
         d="m 283.4243,240.5464 4.3838,-4.3345 4.3838,-4.3463 4.3838,-4.3549 4.3839,-4.3608 4.3838,-4.3636 4.3839,-4.3636 4.3838,-4.3609 4.3838,-4.3555 4.3839,-4.3478 4.3838,-4.3374 4.3839,-4.3248 4.3838,-4.31 4.3839,-4.293 4.3838,-4.274 4.3838,-4.2532 4.3838,-4.2306 4.3839,-4.2062 4.3838,-4.1804 4.3839,-4.1532 4.3838,-4.1246 4.3838,-4.0948 4.3839,-4.064 4.3838,-4.0322 4.3839,-3.9997 4.3838,-3.9663 4.3838,-3.9324 4.3839,-3.898 4.3838,-3.8632 4.3839,-3.8283 4.3838,-3.7931 4.3838,-3.7578 4.3839,-3.7228 4.3838,-3.6878 4.3839,-3.6531 4.3838,-3.6188 4.3838,-3.585 4.3839,-3.5517 4.3838,-3.519 4.3839,-3.4871 4.3838,-3.456 4.3838,-3.4258 4.3839,-3.3965 4.3838,-3.3682 4.3838,-3.3411 4.3839,-3.3151 4.3838,-3.2902 4.3839,-3.2666 4.3838,-3.2444 4.3838,-3.2234 4.3838,-3.2037 L 507,42.8993"
         style="fill:none;fill-rule:evenodd"
         id="path381"
         inkscape:connector-curvature="0" />
      <path
         d="M 502.6161,46.085 507,42.8993"
         style="fill:none;fill-rule:evenodd"
         id="path383"
         inkscape:connector-curvature="0" />
      <line
         x1="217.6667"
         x2="217.6667"
         y1="303.98389"
         style="fill:none;stroke:#0000ff"
         y2="302.16669"
         id="line385" />
      <line
         x1="235.3187"
         x2="235.3187"
         y1="286.7804"
         style="fill:none;stroke:#0000ff"
         y2="284.97629"
         id="line387" />
      <line
         x1="255.1245"
         x2="255.1245"
         y1="271.36081"
         style="fill:none;stroke:#0000ff"
         y2="268.79691"
         id="line389" />
      <line
         x1="277.34711"
         x2="277.34711"
         y1="251.33791"
         style="fill:none;stroke:#0000ff"
         y2="248.8974"
         id="line391" />
      <line
         x1="302.28119"
         x2="302.28119"
         y1="219.2002"
         style="fill:none;stroke:#0000ff"
         y2="217.34151"
         id="line393" />
      <line
         x1="330.25781"
         x2="330.25781"
         y1="190.8221"
         style="fill:none;stroke:#0000ff"
         y2="188.6794"
         id="line395" />
      <line
         x1="361.64789"
         x2="361.64789"
         y1="162.4268"
         style="fill:none;stroke:#0000ff"
         y2="159.68291"
         id="line397" />
      <line
         x1="396.86829"
         x2="396.86829"
         y1="138.56841"
         style="fill:none;stroke:#0000ff"
         y2="135.72321"
         id="line399" />
      <line
         x1="436.3862"
         x2="436.3862"
         y1="100.7224"
         style="fill:none;stroke:#0000ff"
         y2="98.332802"
         id="line401" />
      <line
         x1="480.7261"
         x2="480.7261"
         y1="59.800598"
         style="fill:none;stroke:#0000ff"
         y2="56.882301"
         id="line403" />
      <line
         x1="118.7476"
         x2="118.7476"
         y1="362.49329"
         style="fill:none;stroke:#0000ff"
         y2="359.2056"
         id="line405" />
      <line
         x1="214.04691"
         x2="221.2865"
         y1="303.98389"
         style="fill:none;stroke:#0000ff"
         y2="303.98389"
         id="line407" />
      <line
         x1="231.6989"
         x2="238.9384"
         y1="286.7804"
         style="fill:none;stroke:#0000ff"
         y2="286.7804"
         id="line409" />
      <line
         x1="251.50481"
         x2="258.74429"
         y1="271.36081"
         style="fill:none;stroke:#0000ff"
         y2="271.36081"
         id="line411" />
      <line
         x1="273.72729"
         x2="280.96689"
         y1="251.33791"
         style="fill:none;stroke:#0000ff"
         y2="251.33791"
         id="line413" />
      <line
         x1="298.66141"
         x2="305.901"
         y1="219.2002"
         style="fill:none;stroke:#0000ff"
         y2="219.2002"
         id="line415" />
      <line
         x1="326.638"
         x2="333.8775"
         y1="190.8221"
         style="fill:none;stroke:#0000ff"
         y2="190.8221"
         id="line417" />
      <line
         x1="358.0282"
         x2="365.2677"
         y1="162.4268"
         style="fill:none;stroke:#0000ff"
         y2="162.4268"
         id="line419" />
      <line
         x1="393.2485"
         x2="400.4881"
         y1="138.56841"
         style="fill:none;stroke:#0000ff"
         y2="138.56841"
         id="line421" />
      <line
         x1="432.76639"
         x2="440.00601"
         y1="100.7224"
         style="fill:none;stroke:#0000ff"
         y2="100.7224"
         id="line423" />
      <line
         x1="477.10629"
         x2="484.34579"
         y1="59.800598"
         style="fill:none;stroke:#0000ff"
         y2="59.800598"
         id="line425" />
      <line
         x1="115.1278"
         x2="122.3674"
         y1="362.49329"
         style="fill:none;stroke:#0000ff"
         y2="362.49329"
         id="line427" />
      <line
         x1="214.04691"
         x2="221.2865"
         y1="302.16669"
         style="fill:none;stroke:#0000ff"
         y2="302.16669"
         id="line429" />
      <line
         x1="231.6989"
         x2="238.9384"
         y1="284.97629"
         style="fill:none;stroke:#0000ff"
         y2="284.97629"
         id="line431" />
      <line
         x1="251.50481"
         x2="258.74429"
         y1="268.79691"
         style="fill:none;stroke:#0000ff"
         y2="268.79691"
         id="line433" />
      <line
         x1="273.72729"
         x2="280.96689"
         y1="248.8974"
         style="fill:none;stroke:#0000ff"
         y2="248.8974"
         id="line435" />
      <line
         x1="298.66141"
         x2="305.901"
         y1="217.34151"
         style="fill:none;stroke:#0000ff"
         y2="217.34151"
         id="line437" />
      <line
         x1="326.638"
         x2="333.8775"
         y1="188.6794"
         style="fill:none;stroke:#0000ff"
         y2="188.6794"
         id="line439" />
      <line
         x1="358.0282"
         x2="365.2677"
         y1="159.68291"
         style="fill:none;stroke:#0000ff"
         y2="159.68291"
         id="line441" />
      <line
         x1="393.2485"
         x2="400.4881"
         y1="135.72321"
         style="fill:none;stroke:#0000ff"
         y2="135.72321"
         id="line443" />
      <line
         x1="432.76639"
         x2="440.00601"
         y1="98.332802"
         style="fill:none;stroke:#0000ff"
         y2="98.332802"
         id="line445" />
      <line
         x1="477.10629"
         x2="484.34579"
         y1="56.882301"
         style="fill:none;stroke:#0000ff"
         y2="56.882301"
         id="line447" />
      <line
         x1="115.1278"
         x2="122.3674"
         y1="359.2056"
         style="fill:none;stroke:#0000ff"
         y2="359.2056"
         id="line449" />
    </g>
    <g
       style="color-interpolation:sRGB;fill:#0000ff;stroke:#0000ff;color-rendering:optimizeSpeed;image-rendering:optimizeSpeed;shape-rendering:crispEdges;text-rendering:optimizeSpeed"
       id="g455">
      <path
         style="stroke:none"
         d="m 219.5,303.5 -1,-1.7321 h -2 l -1,1.7321 1,1.7321 h 2 z"
         id="path453"
         inkscape:connector-curvature="0" />
    </g>
    <g
       style="color-interpolation:linearRGB;fill:#0000ff;stroke:#0000ff;stroke-width:1.33329999;stroke-linecap:butt;stroke-linejoin:round;color-rendering:optimizeQuality;image-rendering:optimizeQuality;text-rendering:geometricPrecision"
       id="g459">
      <path
         d="m 219.5,303.5 -0.5858,-1.4142 -1.4142,-0.5858 -1.4142,0.5858 -0.5858,1.4142 0.5858,1.4142 1.4142,0.5858 1.4142,-0.5858 z"
         style="fill:none;fill-rule:evenodd"
         id="path457"
         inkscape:connector-curvature="0" />
    </g>
    <g
       style="color-interpolation:sRGB;fill:#0000ff;stroke:#0000ff;color-rendering:optimizeSpeed;image-rendering:optimizeSpeed;shape-rendering:crispEdges;text-rendering:optimizeSpeed"
       id="g463">
      <path
         style="stroke:none"
         d="m 237.5,285.5 -1,-1.7321 h -2 l -1,1.7321 1,1.7321 h 2 z"
         id="path461"
         inkscape:connector-curvature="0" />
    </g>
    <g
       style="color-interpolation:linearRGB;fill:#0000ff;stroke:#0000ff;stroke-width:1.33329999;stroke-linecap:butt;stroke-linejoin:round;color-rendering:optimizeQuality;image-rendering:optimizeQuality;text-rendering:geometricPrecision"
       id="g467">
      <path
         d="m 237.5,285.5 -0.5858,-1.4142 -1.4142,-0.5858 -1.4142,0.5858 -0.5858,1.4142 0.5858,1.4142 1.4142,0.5858 1.4142,-0.5858 z"
         style="fill:none;fill-rule:evenodd"
         id="path465"
         inkscape:connector-curvature="0" />
    </g>
    <g
       style="color-interpolation:sRGB;fill:#0000ff;stroke:#0000ff;color-rendering:optimizeSpeed;image-rendering:optimizeSpeed;shape-rendering:crispEdges;text-rendering:optimizeSpeed"
       id="g471">
      <path
         style="stroke:none"
         d="m 257.5,270.5 -1,-1.7321 h -2 l -1,1.7321 1,1.7321 h 2 z"
         id="path469"
         inkscape:connector-curvature="0" />
    </g>
    <g
       style="color-interpolation:linearRGB;fill:#0000ff;stroke:#0000ff;stroke-width:1.33329999;stroke-linecap:butt;stroke-linejoin:round;color-rendering:optimizeQuality;image-rendering:optimizeQuality;text-rendering:geometricPrecision"
       id="g475">
      <path
         d="m 257.5,270.5 -0.5858,-1.4142 -1.4142,-0.5858 -1.4142,0.5858 -0.5858,1.4142 0.5858,1.4142 1.4142,0.5858 1.4142,-0.5858 z"
         style="fill:none;fill-rule:evenodd"
         id="path473"
         inkscape:connector-curvature="0" />
    </g>
    <g
       style="color-interpolation:sRGB;fill:#0000ff;stroke:#0000ff;color-rendering:optimizeSpeed;image-rendering:optimizeSpeed;shape-rendering:crispEdges;text-rendering:optimizeSpeed"
       id="g479">
      <path
         style="stroke:none"
         d="m 279.5,250.5 -1,-1.7321 h -2 l -1,1.7321 1,1.7321 h 2 z"
         id="path477"
         inkscape:connector-curvature="0" />
    </g>
    <g
       style="color-interpolation:linearRGB;fill:#0000ff;stroke:#0000ff;stroke-width:1.33329999;stroke-linecap:butt;stroke-linejoin:round;color-rendering:optimizeQuality;image-rendering:optimizeQuality;text-rendering:geometricPrecision"
       id="g483">
      <path
         d="m 279.5,250.5 -0.5858,-1.4142 -1.4142,-0.5858 -1.4142,0.5858 -0.5858,1.4142 0.5858,1.4142 1.4142,0.5858 1.4142,-0.5858 z"
         style="fill:none;fill-rule:evenodd"
         id="path481"
         inkscape:connector-curvature="0" />
    </g>
    <g
       style="color-interpolation:sRGB;fill:#0000ff;stroke:#0000ff;color-rendering:optimizeSpeed;image-rendering:optimizeSpeed;shape-rendering:crispEdges;text-rendering:optimizeSpeed"
       id="g487">
      <path
         style="stroke:none"
         d="m 304.5,218.5 -1,-1.7321 h -2 l -1,1.7321 1,1.7321 h 2 z"
         id="path485"
         inkscape:connector-curvature="0" />
    </g>
    <g
       style="color-interpolation:linearRGB;fill:#0000ff;stroke:#0000ff;stroke-width:1.33329999;stroke-linecap:butt;stroke-linejoin:round;color-rendering:optimizeQuality;image-rendering:optimizeQuality;text-rendering:geometricPrecision"
       id="g491">
      <path
         d="m 304.5,218.5 -0.5858,-1.4142 -1.4142,-0.5858 -1.4142,0.5858 -0.5858,1.4142 0.5858,1.4142 1.4142,0.5858 1.4142,-0.5858 z"
         style="fill:none;fill-rule:evenodd"
         id="path489"
         inkscape:connector-curvature="0" />
    </g>
    <g
       style="color-interpolation:sRGB;fill:#0000ff;stroke:#0000ff;color-rendering:optimizeSpeed;image-rendering:optimizeSpeed;shape-rendering:crispEdges;text-rendering:optimizeSpeed"
       id="g495">
      <path
         style="stroke:none"
         d="m 332.5,189.5 -1,-1.7321 h -2 l -1,1.7321 1,1.7321 h 2 z"
         id="path493"
         inkscape:connector-curvature="0" />
    </g>
    <g
       style="color-interpolation:linearRGB;fill:#0000ff;stroke:#0000ff;stroke-width:1.33329999;stroke-linecap:butt;stroke-linejoin:round;color-rendering:optimizeQuality;image-rendering:optimizeQuality;text-rendering:geometricPrecision"
       id="g499">
      <path
         d="m 332.5,189.5 -0.5858,-1.4142 -1.4142,-0.5858 -1.4142,0.5858 -0.5858,1.4142 0.5858,1.4142 1.4142,0.5858 1.4142,-0.5858 z"
         style="fill:none;fill-rule:evenodd"
         id="path497"
         inkscape:connector-curvature="0" />
    </g>
    <g
       style="color-interpolation:sRGB;fill:#0000ff;stroke:#0000ff;color-rendering:optimizeSpeed;image-rendering:optimizeSpeed;shape-rendering:crispEdges;text-rendering:optimizeSpeed"
       id="g503">
      <path
         style="stroke:none"
         d="m 363.5,161.5 -1,-1.7321 h -2 l -1,1.7321 1,1.7321 h 2 z"
         id="path501"
         inkscape:connector-curvature="0" />
    </g>
    <g
       style="color-interpolation:linearRGB;fill:#0000ff;stroke:#0000ff;stroke-width:1.33329999;stroke-linecap:butt;stroke-linejoin:round;color-rendering:optimizeQuality;image-rendering:optimizeQuality;text-rendering:geometricPrecision"
       id="g507">
      <path
         d="m 363.5,161.5 -0.5858,-1.4142 -1.4142,-0.5858 -1.4142,0.5858 -0.5858,1.4142 0.5858,1.4142 1.4142,0.5858 1.4142,-0.5858 z"
         style="fill:none;fill-rule:evenodd"
         id="path505"
         inkscape:connector-curvature="0" />
    </g>
    <g
       style="color-interpolation:sRGB;fill:#0000ff;stroke:#0000ff;color-rendering:optimizeSpeed;image-rendering:optimizeSpeed;shape-rendering:crispEdges;text-rendering:optimizeSpeed"
       id="g511">
      <path
         style="stroke:none"
         d="m 398.5,137.5 -1,-1.7321 h -2 l -1,1.7321 1,1.7321 h 2 z"
         id="path509"
         inkscape:connector-curvature="0" />
    </g>
    <g
       style="color-interpolation:linearRGB;fill:#0000ff;stroke:#0000ff;stroke-width:1.33329999;stroke-linecap:butt;stroke-linejoin:round;color-rendering:optimizeQuality;image-rendering:optimizeQuality;text-rendering:geometricPrecision"
       id="g515">
      <path
         d="m 398.5,137.5 -0.5858,-1.4142 -1.4142,-0.5858 -1.4142,0.5858 -0.5858,1.4142 0.5858,1.4142 1.4142,0.5858 1.4142,-0.5858 z"
         style="fill:none;fill-rule:evenodd"
         id="path513"
         inkscape:connector-curvature="0" />
    </g>
    <g
       style="color-interpolation:sRGB;fill:#0000ff;stroke:#0000ff;color-rendering:optimizeSpeed;image-rendering:optimizeSpeed;shape-rendering:crispEdges;text-rendering:optimizeSpeed"
       id="g519">
      <path
         style="stroke:none"
         d="m 438.5,99.5 -1,-1.732 h -2 l -1,1.732 1,1.732 h 2 z"
         id="path517"
         inkscape:connector-curvature="0" />
    </g>
    <g
       style="color-interpolation:linearRGB;fill:#0000ff;stroke:#0000ff;stroke-width:1.33329999;stroke-linecap:butt;stroke-linejoin:round;color-rendering:optimizeQuality;image-rendering:optimizeQuality;text-rendering:geometricPrecision"
       id="g523">
      <path
         d="M 438.5,99.5 437.9142,98.0858 436.5,97.5 435.0858,98.0858 434.5,99.5 l 0.5858,1.4142 1.4142,0.5858 1.4142,-0.5858 z"
         style="fill:none;fill-rule:evenodd"
         id="path521"
         inkscape:connector-curvature="0" />
    </g>
    <g
       style="color-interpolation:sRGB;fill:#0000ff;stroke:#0000ff;color-rendering:optimizeSpeed;image-rendering:optimizeSpeed;shape-rendering:crispEdges;text-rendering:optimizeSpeed"
       id="g527">
      <path
         style="stroke:none"
         d="m 482.5,58.5 -1,-1.7321 h -2 l -1,1.7321 1,1.7321 h 2 z"
         id="path525"
         inkscape:connector-curvature="0" />
    </g>
    <g
       style="color-interpolation:linearRGB;fill:#0000ff;stroke:#0000ff;stroke-width:1.33329999;stroke-linecap:butt;stroke-linejoin:round;color-rendering:optimizeQuality;image-rendering:optimizeQuality;text-rendering:geometricPrecision"
       id="g531">
      <path
         d="M 482.5,58.5 481.9142,57.0858 480.5,56.5 479.0858,57.0858 478.5,58.5 l 0.5858,1.4142 1.4142,0.5858 1.4142,-0.5858 z"
         style="fill:none;fill-rule:evenodd"
         id="path529"
         inkscape:connector-curvature="0" />
    </g>
    <g
       style="color-interpolation:sRGB;fill:#0000ff;stroke:#0000ff;color-rendering:optimizeSpeed;image-rendering:optimizeSpeed;shape-rendering:crispEdges;text-rendering:optimizeSpeed"
       id="g535">
      <path
         style="stroke:none"
         d="m 120.5,360.5 -1,-1.7321 h -2 l -1,1.7321 1,1.7321 h 2 z"
         id="path533"
         inkscape:connector-curvature="0" />
    </g>
    <g
       style="color-interpolation:linearRGB;fill:#0000ff;stroke:#0000ff;stroke-width:1.33329999;stroke-linecap:butt;stroke-linejoin:round;color-rendering:optimizeQuality;image-rendering:optimizeQuality;text-rendering:geometricPrecision"
       id="g539">
      <path
         d="m 120.5,360.5 -0.5858,-1.4142 -1.4142,-0.5858 -1.4142,0.5858 -0.5858,1.4142 0.5858,1.4142 1.4142,0.5858 1.4142,-0.5858 z"
         style="fill:none;fill-rule:evenodd"
         id="path537"
         inkscape:connector-curvature="0" />
    </g>
    <g
       style="color-interpolation:sRGB;fill:#ffffff;stroke:#ffffff;color-rendering:optimizeSpeed;image-rendering:optimizeSpeed;shape-rendering:crispEdges;text-rendering:optimizeSpeed"
       id="g543">
      <path
         style="stroke:none"
         d="M 101,94 V 56 h 115 v 38 z"
         id="path541"
         inkscape:connector-curvature="0" />
    </g>
    <g
       transform="translate(153,66.6667)"
       style="font-family:SansSerif;color-interpolation:linearRGB;color-rendering:optimizeQuality;image-rendering:optimizeQuality;text-rendering:geometricPrecision"
       id="g547">
      <path
         style="stroke:none"
         d="m 0.7969,5 v -6.2188 h 0.9375 v 0.875 Q 2.0312,-0.8125 2.5156,-1.0859 3,-1.3594 3.625,-1.3594 q 0.6875,0 1.1328,0.2813 0.4453,0.2812 0.6172,0.7969 0.75,-1.0782 1.9219,-1.0782 0.9375,0 1.4297,0.5078 0.4922,0.5078 0.4922,1.586 V 5 H 8.1719 V 1.0781 q 0,-0.625 -0.1016,-0.9062 -0.1015,-0.2813 -0.3672,-0.4531 -0.2656,-0.1719 -0.6406,-0.1719 -0.6563,0 -1.0859,0.4375 Q 5.5469,0.4219 5.5469,1.3906 V 5 H 4.4844 V 0.9531 q 0,-0.7031 -0.2578,-1.0547 -0.2578,-0.3515 -0.836,-0.3515 -0.4531,0 -0.8281,0.2343 Q 2.1875,0.0156 2.0156,0.4688 1.8438,0.9219 1.8438,1.7656 V 5 Z m 9.6054,-3.1094 q 0,-1.7344 0.9532,-2.5625 0.7968,-0.6875 1.9531,-0.6875 1.2812,0 2.1016,0.836 0.8203,0.8359 0.8203,2.3203 0,1.2031 -0.3594,1.8906 -0.3594,0.6875 -1.0547,1.0703 -0.6953,0.3828 -1.5078,0.3828 -1.2969,0 -2.1016,-0.8359 -0.8047,-0.8359 -0.8047,-2.4141 z m 1.0782,0 q 0,1.1875 0.5234,1.7813 0.5234,0.5937 1.3047,0.5937 0.7969,0 1.3125,-0.5937 0.5156,-0.5938 0.5156,-1.8125 0,-1.1563 -0.5234,-1.75 -0.5235,-0.5938 -1.3047,-0.5938 -0.7813,0 -1.3047,0.586 -0.5234,0.5859 -0.5234,1.789 z M 21.498,5 V 4.2188 q -0.5937,0.9218 -1.7343,0.9218 -0.75,0 -1.375,-0.414 -0.625,-0.4141 -0.9688,-1.1485 -0.3437,-0.7343 -0.3437,-1.6875 0,-0.9218 0.3125,-1.6875 0.3125,-0.7656 0.9375,-1.164 0.625,-0.3985 1.3906,-0.3985 0.5625,0 1,0.2344 0.4375,0.2344 0.7187,0.6094 v -3.0782 h 1.0469 V 5 Z M 18.1699,1.8906 q 0,1.2032 0.5,1.7891 0.5,0.5859 1.1875,0.5859 0.6875,0 1.1719,-0.5625 0.4844,-0.5625 0.4844,-1.7187 0,-1.2813 -0.4922,-1.875 -0.4922,-0.5938 -1.211,-0.5938 -0.7031,0 -1.1718,0.5703 -0.4688,0.5703 -0.4688,1.8047 z M 28.3906,3 29.4844,3.125 q -0.25,0.9531 -0.9532,1.4844 -0.7031,0.5312 -1.7812,0.5312 -1.3594,0 -2.1641,-0.8437 -0.8047,-0.8438 -0.8047,-2.3594 0,-1.5625 0.8126,-2.4297 0.8124,-0.8672 2.0937,-0.8672 1.25,0 2.0391,0.8438 0.789,0.8437 0.789,2.3906 0,0.0938 0,0.2812 H 24.875 q 0.0625,1.0313 0.5781,1.5704 0.5157,0.539 1.2969,0.539 0.5781,0 0.9922,-0.3047 Q 28.1562,3.6562 28.3906,3 Z M 24.9375,1.2969 h 3.4687 Q 28.3438,0.5 28.0156,0.1094 27.5,-0.5 26.7031,-0.5 q -0.7343,0 -1.2265,0.4844 -0.4922,0.4844 -0.5391,1.3125 z M 30.7832,5 v -8.5938 h 1.0625 V 5 Z"
         id="path545"
         inkscape:connector-curvature="0" />
    </g>
    <g
       style="color-interpolation:linearRGB;fill:#ff0000;stroke:#ff0000;stroke-width:1.33329999;stroke-linecap:butt;stroke-linejoin:round;color-rendering:optimizeQuality;image-rendering:optimizeQuality;text-rendering:geometricPrecision"
       id="g551">
      <line
         y2="66.666702"
         style="fill:none"
         x1="109"
         x2="149"
         y1="66.666702"
         id="line549" />
    </g>
    <g
       transform="translate(153,83.3333)"
       style="font-family:SansSerif;color-interpolation:linearRGB;color-rendering:optimizeQuality;image-rendering:optimizeQuality;text-rendering:geometricPrecision"
       id="g555">
      <path
         style="stroke:none"
         d="M 4.8281,5 V 4.2188 q -0.5937,0.9218 -1.7343,0.9218 -0.75,0 -1.375,-0.414 Q 1.0938,4.3125 0.75,3.5781 0.4062,2.8438 0.4062,1.8906 q 0,-0.9218 0.3126,-1.6875 0.3124,-0.7656 0.9374,-1.164 0.625,-0.3985 1.3907,-0.3985 0.5625,0 1,0.2344 0.4375,0.2344 0.7187,0.6094 V -3.5938 H 5.8125 V 5 Z M 1.5,1.8906 q 0,1.2032 0.5,1.7891 0.5,0.5859 1.1875,0.5859 0.6875,0 1.1719,-0.5625 0.4844,-0.5625 0.4844,-1.7187 0,-1.2813 -0.4922,-1.875 -0.4922,-0.5938 -1.211,-0.5938 -0.7031,0 -1.1718,0.5703 Q 1.5,0.6562 1.5,1.8906 Z m 10.0332,2.3438 q -0.5937,0.5 -1.1328,0.7031 -0.5391,0.2031 -1.1641,0.2031 -1.0312,0 -1.5781,-0.5 -0.5469,-0.5 -0.5469,-1.2812 0,-0.4532 0.2032,-0.836 Q 7.5176,2.1406 7.8613,1.9141 8.2051,1.6875 8.627,1.5781 8.9238,1.4844 9.5645,1.4062 q 1.2656,-0.1406 1.875,-0.3593 0,-0.2188 0,-0.2657 0,-0.6562 -0.2969,-0.9218 -0.4063,-0.3438 -1.2031,-0.3438 -0.7344,0 -1.0938,0.2578 Q 8.4863,0.0312 8.3145,0.6875 L 7.2832,0.5469 q 0.1406,-0.6563 0.4688,-1.0625 0.3281,-0.4063 0.9375,-0.625 0.6093,-0.2188 1.4062,-0.2188 0.7969,0 1.2969,0.1875 0.5,0.1875 0.7344,0.4688 0.2343,0.2812 0.3281,0.7187 0.0469,0.2656 0.0469,0.9688 v 1.4062 q 0,1.4688 0.0703,1.8594 0.0703,0.3906 0.2734,0.75 H 11.7363 Q 11.5801,4.6719 11.5332,4.2344 Z M 11.4395,1.875 Q 10.8613,2.1094 9.7207,2.2812 9.0645,2.375 8.7988,2.4922 8.5332,2.6094 8.3848,2.8281 q -0.1485,0.2188 -0.1485,0.5 0,0.4219 0.3203,0.7031 0.3204,0.2813 0.9297,0.2813 0.6094,0 1.086,-0.2656 0.4765,-0.2657 0.6953,-0.7344 0.1719,-0.3594 0.1719,-1.0469 z m 5.0019,2.1875 0.1563,0.9219 q -0.4532,0.0937 -0.7969,0.0937 -0.5781,0 -0.8906,-0.1797 Q 14.5977,4.7188 14.4648,4.4219 14.332,4.125 14.332,3.1719 v -3.5781 h -0.7656 v -0.8126 h 0.7656 v -1.5468 l 1.0469,-0.625 v 2.1718 h 1.0625 v 0.8126 h -1.0625 v 3.6406 q 0,0.4531 0.0547,0.5781 0.0547,0.125 0.1797,0.2031 0.125,0.0782 0.3594,0.0782 0.1875,0 0.4687,-0.0313 z m 5.0996,0.1719 q -0.5937,0.5 -1.1328,0.7031 -0.5391,0.2031 -1.1641,0.2031 -1.0312,0 -1.5781,-0.5 -0.5469,-0.5 -0.5469,-1.2812 0,-0.4532 0.2032,-0.836 0.2031,-0.3828 0.5468,-0.6093 0.3438,-0.2266 0.7657,-0.336 0.2968,-0.0937 0.9375,-0.1719 1.2656,-0.1406 1.875,-0.3593 0,-0.2188 0,-0.2657 0,-0.6562 -0.2969,-0.9218 -0.4063,-0.3438 -1.2031,-0.3438 -0.7344,0 -1.0938,0.2578 -0.3594,0.2578 -0.5312,0.9141 L 17.291,0.5469 q 0.1406,-0.6563 0.4688,-1.0625 0.3281,-0.4063 0.9375,-0.625 0.6093,-0.2188 1.4062,-0.2188 0.7969,0 1.2969,0.1875 0.5,0.1875 0.7344,0.4688 0.2343,0.2812 0.3281,0.7187 0.0469,0.2656 0.0469,0.9688 v 1.4062 q 0,1.4688 0.0703,1.8594 0.0703,0.3906 0.2734,0.75 H 21.7441 Q 21.5879,4.6719 21.541,4.2344 Z M 21.4473,1.875 q -0.5782,0.2344 -1.7188,0.4062 -0.6562,0.0938 -0.9219,0.211 -0.2656,0.1172 -0.414,0.3359 -0.1485,0.2188 -0.1485,0.5 0,0.4219 0.3204,0.7031 0.3203,0.2813 0.9296,0.2813 0.6094,0 1.086,-0.2656 0.4765,-0.2657 0.6953,-0.7344 0.1719,-0.3594 0.1719,-1.0469 z m 6.039,5.5156 v -8.6094 h 0.9532 v 0.7969 q 0.3437,-0.4687 0.7734,-0.7031 0.4297,-0.2344 1.0391,-0.2344 0.7968,0 1.4062,0.4063 0.6094,0.4062 0.9141,1.1562 0.3047,0.75 0.3047,1.6407 0,0.9531 -0.336,1.7187 -0.3359,0.7656 -0.9922,1.1719 -0.6562,0.4062 -1.375,0.4062 -0.5312,0 -0.9531,-0.2265 -0.4219,-0.2266 -0.6875,-0.5547 v 3.0312 z m 0.9532,-5.4687 q 0,1.2031 0.4843,1.7734 0.4844,0.5703 1.1719,0.5703 0.7031,0 1.2031,-0.5937 0.5,-0.5938 0.5,-1.8438 0,-1.1875 -0.4843,-1.7734 -0.4844,-0.5859 -1.1719,-0.5859 -0.6719,0 -1.1875,0.625 -0.5156,0.625 -0.5156,1.8281 z m 5.33,-0.0313 q 0,-1.7344 0.9532,-2.5625 0.7968,-0.6875 1.9531,-0.6875 1.2812,0 2.1015,0.836 0.8204,0.8359 0.8204,2.3203 0,1.2031 -0.3594,1.8906 -0.3594,0.6875 -1.0547,1.0703 -0.6953,0.3828 -1.5078,0.3828 -1.2969,0 -2.1016,-0.8359 -0.8047,-0.8359 -0.8047,-2.4141 z m 1.0782,0 q 0,1.1875 0.5234,1.7813 0.5234,0.5937 1.3047,0.5937 0.7969,0 1.3125,-0.5937 0.5156,-0.5938 0.5156,-1.8125 0,-1.1563 -0.5234,-1.75 -0.5235,-0.5938 -1.3047,-0.5938 -0.7813,0 -1.3047,0.586 -0.5234,0.5859 -0.5234,1.789 z M 40.834,-2.375 v -1.2188 h 1.0625 v 1.2188 z m 0,7.375 v -6.2188 h 1.0625 V 5 Z M 43.5,5 v -6.2188 h 0.9375 v 0.875 q 0.6875,-1.0156 1.9844,-1.0156 0.5625,0 1.039,0.2032 0.4766,0.2031 0.711,0.5312 0.2343,0.3281 0.3281,0.7656 0.0469,0.2969 0.0469,1.0313 V 5 H 47.5 V 1.2188 Q 47.5,0.5625 47.375,0.25 47.25,-0.0625 46.9375,-0.2578 46.625,-0.4531 46.2031,-0.4531 q -0.6719,0 -1.164,0.4297 -0.4922,0.4296 -0.4922,1.6172 V 5 Z m 8.9707,-0.9375 0.1563,0.9219 q -0.4532,0.0937 -0.7969,0.0937 -0.5781,0 -0.8906,-0.1797 Q 50.627,4.7188 50.4941,4.4219 50.3613,4.125 50.3613,3.1719 v -3.5781 h -0.7656 v -0.8126 h 0.7656 v -1.5468 l 1.0469,-0.625 v 2.1718 h 1.0625 v 0.8126 h -1.0625 v 3.6406 q 0,0.4531 0.0547,0.5781 0.0547,0.125 0.1797,0.2031 0.125,0.0782 0.3594,0.0782 0.1875,0 0.4687,-0.0313 z m 0.6152,-0.9219 1.0313,-0.1562 q 0.0937,0.625 0.4922,0.9531 0.3984,0.3281 1.1328,0.3281 0.7187,0 1.0703,-0.289 0.3516,-0.2891 0.3516,-0.6954 0,-0.3593 -0.3125,-0.5624 Q 56.6328,2.5781 55.7734,2.3594 54.6172,2.0625 54.1719,1.8516 53.7266,1.6406 53.4922,1.2656 53.2578,0.8906 53.2578,0.4219 q 0,-0.4063 0.1875,-0.7657 0.1875,-0.3593 0.5156,-0.5937 0.25,-0.1719 0.6719,-0.2969 0.4219,-0.125 0.9219,-0.125 0.7187,0 1.2734,0.211 0.5547,0.2109 0.8203,0.5703 0.2657,0.3593 0.3594,0.9531 L 56.9766,0.5156 Q 56.9141,0.0469 56.5781,-0.2266 56.2422,-0.5 55.6172,-0.5 q -0.7188,0 -1.0313,0.2422 -0.3125,0.2422 -0.3125,0.5703 0,0.2031 0.125,0.3594 0.1407,0.1719 0.4063,0.2812 0.1562,0.0625 0.9375,0.2657 1.125,0.3124 1.5625,0.5 0.4375,0.1874 0.6875,0.5468 0.25,0.3594 0.25,0.9063 0,0.5312 -0.3047,0.9922 -0.3047,0.4609 -0.8828,0.7187 -0.5781,0.2578 -1.3125,0.2578 -1.2188,0 -1.8516,-0.5078 Q 53.2578,4.125 53.0859,3.1406 Z"
         id="path553"
         inkscape:connector-curvature="0" />
    </g>
    <g
       style="color-interpolation:sRGB;fill:#0000ff;stroke:#0000ff;color-rendering:optimizeSpeed;image-rendering:optimizeSpeed;shape-rendering:crispEdges;text-rendering:optimizeSpeed"
       id="g559">
      <path
         style="stroke:none"
         d="m 131.5,83.5 -1,-1.732 h -2 l -1,1.732 1,1.732 h 2 z"
         id="path557"
         inkscape:connector-curvature="0" />
    </g>
    <g
       style="color-interpolation:linearRGB;fill:#0000ff;stroke:#0000ff;stroke-width:1.33329999;stroke-linecap:butt;stroke-linejoin:round;color-rendering:optimizeQuality;image-rendering:optimizeQuality;text-rendering:geometricPrecision"
       id="g563">
      <path
         d="M 131.5,83.5 130.9142,82.0858 129.5,81.5 128.0858,82.0858 127.5,83.5 l 0.5858,1.4142 1.4142,0.5858 1.4142,-0.5858 z"
         style="fill:none;fill-rule:evenodd"
         id="path561"
         inkscape:connector-curvature="0" />
    </g>
    <g
       style="color-interpolation:linearRGB;fill:#262626;stroke:#262626;stroke-width:0.66670001;stroke-linecap:butt;color-rendering:optimizeQuality;image-rendering:optimizeQuality;text-rendering:geometricPrecision"
       id="g567">
      <path
         d="M 101,94 V 56 h 115 v 38 z"
         style="fill:none;fill-rule:evenodd"
         id="path565"
         inkscape:connector-curvature="0" />
    </g>
  </g>
</svg>
