<?xml version="1.0" encoding="UTF-8" standalone="no"?>
<svg
   xmlns:dc="http://purl.org/dc/elements/1.1/"
   xmlns:cc="http://creativecommons.org/ns#"
   xmlns:rdf="http://www.w3.org/1999/02/22-rdf-syntax-ns#"
   xmlns:svg="http://www.w3.org/2000/svg"
   xmlns="http://www.w3.org/2000/svg"
   xmlns:sodipodi="http://sodipodi.sourceforge.net/DTD/sodipodi-0.dtd"
   xmlns:inkscape="http://www.inkscape.org/namespaces/inkscape"
   style="font-style:normal;font-weight:normal;font-size:12px;font-family:Dialog;color-interpolation:auto;fill:#000000;fill-opacity:1;stroke:#000000;stroke-width:1;stroke-linecap:square;stroke-linejoin:miter;stroke-miterlimit:10;stroke-dasharray:none;stroke-dashoffset:0;stroke-opacity:1;color-rendering:auto;image-rendering:auto;shape-rendering:auto;text-rendering:auto"
   width="485.97549"
   height="403.03119"
   version="1.1"
   id="svg555"
   sodipodi:docname="RF_noise_vs_pump_amp.svg"
   inkscape:version="0.92.3 (2405546, 2018-03-11)">
  <metadata
     id="metadata559">
    <rdf:RDF>
      <cc:Work
         rdf:about="">
        <dc:format>image/svg+xml</dc:format>
        <dc:type
           rdf:resource="http://purl.org/dc/dcmitype/StillImage" />
      </cc:Work>
    </rdf:RDF>
  </metadata>
  <sodipodi:namedview
     pagecolor="#ffffff"
     bordercolor="#666666"
     borderopacity="1"
     objecttolerance="10"
     gridtolerance="10"
     guidetolerance="10"
     inkscape:pageopacity="0"
     inkscape:pageshadow="2"
     inkscape:window-width="1600"
     inkscape:window-height="1137"
     id="namedview557"
     showgrid="false"
     inkscape:zoom="0.56190476"
     inkscape:cx="27.338403"
     inkscape:cy="207.125"
     inkscape:window-x="-8"
     inkscape:window-y="-8"
     inkscape:window-maximized="1"
     inkscape:current-layer="svg555" />
  <!--Generated by the Batik Graphics2D SVG Generator-->
  <defs
     id="genericDefs">
    <defs
       id="defs1">
      <clipPath
         id="clipPath1"
         clipPathUnits="userSpaceOnUse">
        <path
           id="path3"
           d="M 0,0 H 560 V 420 H 0 Z"
           inkscape:connector-curvature="0" />
      </clipPath>
    </defs>
  </defs>
  <g
     id="g5842"
     transform="translate(-31.0938,-14.0938)">
    <g
       style="color-interpolation:linearRGB;fill:#1a1a1a;fill-opacity:0.25100002;stroke:#1a1a1a;stroke-width:0.66670001;stroke-linecap:butt;stroke-linejoin:bevel;stroke-miterlimit:1;stroke-dasharray:1, 3;stroke-opacity:0.25100002;color-rendering:optimizeQuality;image-rendering:optimizeQuality;text-rendering:geometricPrecision"
       id="g77">
      <line
         y2="31"
         style="fill:none"
         x1="83.849998"
         x2="83.849998"
         y1="370"
         id="line17" />
      <line
         y2="31"
         style="fill:none"
         x1="94.699997"
         x2="94.699997"
         y1="370"
         id="line19" />
      <line
         y2="31"
         style="fill:none"
         x1="105.55"
         x2="105.55"
         y1="370"
         id="line21" />
      <line
         y2="31"
         style="fill:none"
         x1="127.25"
         x2="127.25"
         y1="370"
         id="line23" />
      <line
         y2="31"
         style="fill:none"
         x1="138.10001"
         x2="138.10001"
         y1="370"
         id="line25" />
      <line
         y2="31"
         style="fill:none"
         x1="148.95"
         x2="148.95"
         y1="370"
         id="line27" />
      <line
         y2="31"
         style="fill:none"
         x1="170.64999"
         x2="170.64999"
         y1="370"
         id="line29" />
      <line
         y2="31"
         style="fill:none"
         x1="181.5"
         x2="181.5"
         y1="370"
         id="line31" />
      <line
         y2="31"
         style="fill:none"
         x1="192.35001"
         x2="192.35001"
         y1="370"
         id="line33" />
      <line
         y2="31"
         style="fill:none"
         x1="214.05"
         x2="214.05"
         y1="370"
         id="line35" />
      <line
         y2="31"
         style="fill:none"
         x1="224.89999"
         x2="224.89999"
         y1="370"
         id="line37" />
      <line
         y2="31"
         style="fill:none"
         x1="235.75"
         x2="235.75"
         y1="370"
         id="line39" />
      <line
         y2="31"
         style="fill:none"
         x1="257.45001"
         x2="257.45001"
         y1="370"
         id="line41" />
      <line
         y2="31"
         style="fill:none"
         x1="268.29999"
         x2="268.29999"
         y1="370"
         id="line43" />
      <line
         y2="31"
         style="fill:none"
         x1="279.14999"
         x2="279.14999"
         y1="370"
         id="line45" />
      <line
         y2="31"
         style="fill:none"
         x1="300.85001"
         x2="300.85001"
         y1="370"
         id="line47" />
      <line
         y2="31"
         style="fill:none"
         x1="311.70001"
         x2="311.70001"
         y1="370"
         id="line49" />
      <line
         y2="31"
         style="fill:none"
         x1="322.54999"
         x2="322.54999"
         y1="370"
         id="line51" />
      <line
         y2="31"
         style="fill:none"
         x1="344.25"
         x2="344.25"
         y1="370"
         id="line53" />
      <line
         y2="31"
         style="fill:none"
         x1="355.10001"
         x2="355.10001"
         y1="370"
         id="line55" />
      <line
         y2="31"
         style="fill:none"
         x1="365.95001"
         x2="365.95001"
         y1="370"
         id="line57" />
      <line
         y2="31"
         style="fill:none"
         x1="387.64999"
         x2="387.64999"
         y1="370"
         id="line59" />
      <line
         y2="31"
         style="fill:none"
         x1="398.5"
         x2="398.5"
         y1="370"
         id="line61" />
      <line
         y2="31"
         style="fill:none"
         x1="409.35001"
         x2="409.35001"
         y1="370"
         id="line63" />
      <line
         y2="31"
         style="fill:none"
         x1="431.04999"
         x2="431.04999"
         y1="370"
         id="line65" />
      <line
         y2="31"
         style="fill:none"
         x1="441.89999"
         x2="441.89999"
         y1="370"
         id="line67" />
      <line
         y2="31"
         style="fill:none"
         x1="452.75"
         x2="452.75"
         y1="370"
         id="line69" />
      <line
         y2="31"
         style="fill:none"
         x1="474.45001"
         x2="474.45001"
         y1="370"
         id="line71" />
      <line
         y2="31"
         style="fill:none"
         x1="485.29999"
         x2="485.29999"
         y1="370"
         id="line73" />
      <line
         y2="31"
         style="fill:none"
         x1="496.14999"
         x2="496.14999"
         y1="370"
         id="line75" />
    </g>
    <g
       style="color-interpolation:linearRGB;fill:#262626;fill-opacity:0.14900004;stroke:#262626;stroke-width:0.66670001;stroke-linecap:butt;stroke-linejoin:round;stroke-opacity:0.14900004;color-rendering:optimizeQuality;image-rendering:optimizeQuality;text-rendering:geometricPrecision"
       id="g101">
      <line
         y2="31"
         style="fill:none"
         x1="73"
         x2="73"
         y1="370"
         id="line79" />
      <line
         y2="31"
         style="fill:none"
         x1="116.4"
         x2="116.4"
         y1="370"
         id="line81" />
      <line
         y2="31"
         style="fill:none"
         x1="159.8"
         x2="159.8"
         y1="370"
         id="line83" />
      <line
         y2="31"
         style="fill:none"
         x1="203.2"
         x2="203.2"
         y1="370"
         id="line85" />
      <line
         y2="31"
         style="fill:none"
         x1="246.60001"
         x2="246.60001"
         y1="370"
         id="line87" />
      <line
         y2="31"
         style="fill:none"
         x1="290"
         x2="290"
         y1="370"
         id="line89" />
      <line
         y2="31"
         style="fill:none"
         x1="333.39999"
         x2="333.39999"
         y1="370"
         id="line91" />
      <line
         y2="31"
         style="fill:none"
         x1="376.79999"
         x2="376.79999"
         y1="370"
         id="line93" />
      <line
         y2="31"
         style="fill:none"
         x1="420.20001"
         x2="420.20001"
         y1="370"
         id="line95" />
      <line
         y2="31"
         style="fill:none"
         x1="463.60001"
         x2="463.60001"
         y1="370"
         id="line97" />
      <line
         y2="31"
         style="fill:none"
         x1="507"
         x2="507"
         y1="370"
         id="line99" />
    </g>
    <g
       style="color-interpolation:linearRGB;fill:#1a1a1a;fill-opacity:0.25100002;stroke:#1a1a1a;stroke-width:0.66670001;stroke-linecap:butt;stroke-linejoin:bevel;stroke-miterlimit:1;stroke-dasharray:1, 3;stroke-opacity:0.25100002;color-rendering:optimizeQuality;image-rendering:optimizeQuality;text-rendering:geometricPrecision"
       id="g139">
      <line
         y2="355.875"
         style="fill:none"
         x1="507"
         x2="73"
         y1="355.875"
         id="line103" />
      <line
         y2="341.75"
         style="fill:none"
         x1="507"
         x2="73"
         y1="341.75"
         id="line105" />
      <line
         y2="327.625"
         style="fill:none"
         x1="507"
         x2="73"
         y1="327.625"
         id="line107" />
      <line
         y2="299.375"
         style="fill:none"
         x1="507"
         x2="73"
         y1="299.375"
         id="line109" />
      <line
         y2="285.25"
         style="fill:none"
         x1="507"
         x2="73"
         y1="285.25"
         id="line111" />
      <line
         y2="271.125"
         style="fill:none"
         x1="507"
         x2="73"
         y1="271.125"
         id="line113" />
      <line
         y2="242.875"
         style="fill:none"
         x1="507"
         x2="73"
         y1="242.875"
         id="line115" />
      <line
         y2="228.75"
         style="fill:none"
         x1="507"
         x2="73"
         y1="228.75"
         id="line117" />
      <line
         y2="214.625"
         style="fill:none"
         x1="507"
         x2="73"
         y1="214.625"
         id="line119" />
      <line
         y2="186.375"
         style="fill:none"
         x1="507"
         x2="73"
         y1="186.375"
         id="line121" />
      <line
         y2="172.25"
         style="fill:none"
         x1="507"
         x2="73"
         y1="172.25"
         id="line123" />
      <line
         y2="158.125"
         style="fill:none"
         x1="507"
         x2="73"
         y1="158.125"
         id="line125" />
      <line
         y2="129.875"
         style="fill:none"
         x1="507"
         x2="73"
         y1="129.875"
         id="line127" />
      <line
         y2="115.75"
         style="fill:none"
         x1="507"
         x2="73"
         y1="115.75"
         id="line129" />
      <line
         y2="101.625"
         style="fill:none"
         x1="507"
         x2="73"
         y1="101.625"
         id="line131" />
      <line
         y2="73.375"
         style="fill:none"
         x1="507"
         x2="73"
         y1="73.375"
         id="line133" />
      <line
         y2="59.25"
         style="fill:none"
         x1="507"
         x2="73"
         y1="59.25"
         id="line135" />
      <line
         y2="45.125"
         style="fill:none"
         x1="507"
         x2="73"
         y1="45.125"
         id="line137" />
    </g>
    <g
       style="color-interpolation:linearRGB;fill:#262626;fill-opacity:0.14900004;stroke:#262626;stroke-width:0.66670001;stroke-linecap:butt;stroke-linejoin:round;stroke-opacity:0.14900004;color-rendering:optimizeQuality;image-rendering:optimizeQuality;text-rendering:geometricPrecision"
       id="g203">
      <line
         y2="370"
         style="fill:none"
         x1="507"
         x2="73"
         y1="370"
         id="line141" />
      <line
         y2="313.5"
         style="fill:none"
         x1="507"
         x2="73"
         y1="313.5"
         id="line143" />
      <line
         y2="257"
         style="fill:none"
         x1="507"
         x2="73"
         y1="257"
         id="line145" />
      <line
         y2="200.5"
         style="fill:none"
         x1="507"
         x2="73"
         y1="200.5"
         id="line147" />
      <line
         y2="144"
         style="fill:none"
         x1="507"
         x2="73"
         y1="144"
         id="line149" />
      <line
         y2="87.5"
         style="fill:none"
         x1="507"
         x2="73"
         y1="87.5"
         id="line151" />
      <line
         y2="31"
         style="fill:none"
         x1="507"
         x2="73"
         y1="31"
         id="line153" />
      <line
         x1="73"
         x2="507"
         y1="370"
         style="fill:none;fill-opacity:1;stroke-linecap:square;stroke-opacity:1"
         y2="370"
         id="line155" />
      <line
         x1="73"
         x2="507"
         y1="31"
         style="fill:none;fill-opacity:1;stroke-linecap:square;stroke-opacity:1"
         y2="31"
         id="line157" />
      <line
         x1="73"
         x2="73"
         y1="370"
         style="fill:none;fill-opacity:1;stroke-linecap:square;stroke-opacity:1"
         y2="365.66"
         id="line159" />
      <line
         x1="116.4"
         x2="116.4"
         y1="370"
         style="fill:none;fill-opacity:1;stroke-linecap:square;stroke-opacity:1"
         y2="365.66"
         id="line161" />
      <line
         x1="159.8"
         x2="159.8"
         y1="370"
         style="fill:none;fill-opacity:1;stroke-linecap:square;stroke-opacity:1"
         y2="365.66"
         id="line163" />
      <line
         x1="203.2"
         x2="203.2"
         y1="370"
         style="fill:none;fill-opacity:1;stroke-linecap:square;stroke-opacity:1"
         y2="365.66"
         id="line165" />
      <line
         x1="246.60001"
         x2="246.60001"
         y1="370"
         style="fill:none;fill-opacity:1;stroke-linecap:square;stroke-opacity:1"
         y2="365.66"
         id="line167" />
      <line
         x1="290"
         x2="290"
         y1="370"
         style="fill:none;fill-opacity:1;stroke-linecap:square;stroke-opacity:1"
         y2="365.66"
         id="line169" />
      <line
         x1="333.39999"
         x2="333.39999"
         y1="370"
         style="fill:none;fill-opacity:1;stroke-linecap:square;stroke-opacity:1"
         y2="365.66"
         id="line171" />
      <line
         x1="376.79999"
         x2="376.79999"
         y1="370"
         style="fill:none;fill-opacity:1;stroke-linecap:square;stroke-opacity:1"
         y2="365.66"
         id="line173" />
      <line
         x1="420.20001"
         x2="420.20001"
         y1="370"
         style="fill:none;fill-opacity:1;stroke-linecap:square;stroke-opacity:1"
         y2="365.66"
         id="line175" />
      <line
         x1="463.60001"
         x2="463.60001"
         y1="370"
         style="fill:none;fill-opacity:1;stroke-linecap:square;stroke-opacity:1"
         y2="365.66"
         id="line177" />
      <line
         x1="507"
         x2="507"
         y1="370"
         style="fill:none;fill-opacity:1;stroke-linecap:square;stroke-opacity:1"
         y2="365.66"
         id="line179" />
      <line
         x1="73"
         x2="73"
         y1="31"
         style="fill:none;fill-opacity:1;stroke-linecap:square;stroke-opacity:1"
         y2="35.34"
         id="line181" />
      <line
         x1="116.4"
         x2="116.4"
         y1="31"
         style="fill:none;fill-opacity:1;stroke-linecap:square;stroke-opacity:1"
         y2="35.34"
         id="line183" />
      <line
         x1="159.8"
         x2="159.8"
         y1="31"
         style="fill:none;fill-opacity:1;stroke-linecap:square;stroke-opacity:1"
         y2="35.34"
         id="line185" />
      <line
         x1="203.2"
         x2="203.2"
         y1="31"
         style="fill:none;fill-opacity:1;stroke-linecap:square;stroke-opacity:1"
         y2="35.34"
         id="line187" />
      <line
         x1="246.60001"
         x2="246.60001"
         y1="31"
         style="fill:none;fill-opacity:1;stroke-linecap:square;stroke-opacity:1"
         y2="35.34"
         id="line189" />
      <line
         x1="290"
         x2="290"
         y1="31"
         style="fill:none;fill-opacity:1;stroke-linecap:square;stroke-opacity:1"
         y2="35.34"
         id="line191" />
      <line
         x1="333.39999"
         x2="333.39999"
         y1="31"
         style="fill:none;fill-opacity:1;stroke-linecap:square;stroke-opacity:1"
         y2="35.34"
         id="line193" />
      <line
         x1="376.79999"
         x2="376.79999"
         y1="31"
         style="fill:none;fill-opacity:1;stroke-linecap:square;stroke-opacity:1"
         y2="35.34"
         id="line195" />
      <line
         x1="420.20001"
         x2="420.20001"
         y1="31"
         style="fill:none;fill-opacity:1;stroke-linecap:square;stroke-opacity:1"
         y2="35.34"
         id="line197" />
      <line
         x1="463.60001"
         x2="463.60001"
         y1="31"
         style="fill:none;fill-opacity:1;stroke-linecap:square;stroke-opacity:1"
         y2="35.34"
         id="line199" />
      <line
         x1="507"
         x2="507"
         y1="31"
         style="fill:none;fill-opacity:1;stroke-linecap:square;stroke-opacity:1"
         y2="35.34"
         id="line201" />
    </g>
    <g
       transform="translate(73,375.3333)"
       style="font-size:13px;font-family:SansSerif;color-interpolation:linearRGB;fill:#262626;stroke:#262626;color-rendering:optimizeQuality;image-rendering:optimizeQuality;text-rendering:geometricPrecision"
       id="g207">
      <path
         style="stroke:none"
         d="m -3.4531,9.4062 q 0,-1.6406 0.3359,-2.6484 0.336,-1.0078 1.0078,-1.5547 0.6719,-0.5469 1.6875,-0.5469 0.75,0 1.3125,0.3047 0.5625,0.3047 0.9297,0.8672 0.3672,0.5625 0.5781,1.3828 0.211,0.8203 0.211,2.1953 0,1.6407 -0.336,2.6485 -0.3359,1.0078 -1.0078,1.5547 -0.6718,0.5468 -1.6875,0.5468 -1.3437,0 -2.125,-0.9687 -0.9062,-1.1563 -0.9062,-3.7813 z m 1.1719,0 q 0,2.2969 0.5312,3.0547 0.5312,0.7579 1.3281,0.7579 0.7813,0 1.3203,-0.7579 0.5391,-0.7578 0.5391,-3.0547 0,-2.2968 -0.5391,-3.0468 -0.539,-0.75 -1.3359,-0.75 -0.7813,0 -1.2656,0.6562 -0.5781,0.8594 -0.5781,3.1406 z"
         id="path205"
         inkscape:connector-curvature="0" />
    </g>
    <g
       transform="translate(116.4,375.3333)"
       style="font-size:13px;font-family:SansSerif;color-interpolation:linearRGB;fill:#262626;stroke:#262626;color-rendering:optimizeQuality;image-rendering:optimizeQuality;text-rendering:geometricPrecision"
       id="g211">
      <path
         style="stroke:none"
         d="M -2.6562,14 H -3.7969 V 6.7188 q -0.4219,0.3906 -1.0859,0.789 -0.6641,0.3984 -1.1953,0.586 V 6.9844 q 0.9531,-0.4375 1.6719,-1.0782 0.7187,-0.6406 1.0156,-1.25 h 0.7344 z M 0.2769,9.4062 q 0,-1.6406 0.3359,-2.6484 Q 0.9487,5.75 1.6206,5.2031 2.2925,4.6562 3.3081,4.6562 q 0.75,0 1.3125,0.3047 0.5625,0.3047 0.9297,0.8672 0.3672,0.5625 0.5781,1.3828 0.211,0.8203 0.211,2.1953 0,1.6407 -0.336,2.6485 -0.3359,1.0078 -1.0078,1.5547 -0.6719,0.5468 -1.6875,0.5468 -1.3437,0 -2.125,-0.9687 Q 0.2769,12.0312 0.2769,9.4062 Z m 1.1718,0 q 0,2.2969 0.5313,3.0547 0.5312,0.7579 1.3281,0.7579 0.7813,0 1.3203,-0.7579 0.5391,-0.7578 0.5391,-3.0547 0,-2.2968 -0.5391,-3.0468 -0.539,-0.75 -1.3359,-0.75 -0.7813,0 -1.2656,0.6562 Q 1.4487,7.125 1.4487,9.4062 Z"
         id="path209"
         inkscape:connector-curvature="0" />
    </g>
    <g
       transform="translate(159.8,375.3333)"
       style="font-size:13px;font-family:SansSerif;color-interpolation:linearRGB;fill:#262626;stroke:#262626;color-rendering:optimizeQuality;image-rendering:optimizeQuality;text-rendering:geometricPrecision"
       id="g215">
      <path
         style="stroke:none"
         d="M -0.9531,12.9062 V 14 h -6.1563 q -0.0156,-0.4062 0.1406,-0.7969 0.2344,-0.625 0.75,-1.2343 0.5157,-0.6094 1.5,-1.4063 1.5157,-1.25 2.0469,-1.9766 0.5313,-0.7265 0.5313,-1.3671 0,-0.6876 -0.4844,-1.1485 -0.4844,-0.4609 -1.2656,-0.4609 -0.8282,0 -1.3203,0.4922 -0.4922,0.4922 -0.5079,1.3672 l -1.1718,-0.125 q 0.125,-1.3126 0.9062,-2 0.7813,-0.6876 2.1094,-0.6876 1.3438,0 2.125,0.7422 0.7812,0.7422 0.7812,1.836 0,0.5625 -0.2265,1.1015 -0.2266,0.5391 -0.7578,1.1407 -0.5313,0.6015 -1.7657,1.6328 -1.0312,0.8594 -1.3203,1.1718 -0.289,0.3126 -0.4765,0.625 z m 1.23,-3.5 q 0,-1.6406 0.3359,-2.6484 Q 0.9487,5.75 1.6206,5.2031 2.2925,4.6562 3.3081,4.6562 q 0.75,0 1.3125,0.3047 0.5625,0.3047 0.9297,0.8672 0.3672,0.5625 0.5781,1.3828 0.211,0.8203 0.211,2.1953 0,1.6407 -0.336,2.6485 -0.3359,1.0078 -1.0078,1.5547 -0.6719,0.5468 -1.6875,0.5468 -1.3437,0 -2.125,-0.9687 Q 0.2769,12.0312 0.2769,9.4062 Z m 1.1718,0 q 0,2.2969 0.5313,3.0547 0.5312,0.7579 1.3281,0.7579 0.7813,0 1.3203,-0.7579 0.5391,-0.7578 0.5391,-3.0547 0,-2.2968 -0.5391,-3.0468 -0.539,-0.75 -1.3359,-0.75 -0.7813,0 -1.2656,0.6562 Q 1.4487,7.125 1.4487,9.4062 Z"
         id="path213"
         inkscape:connector-curvature="0" />
    </g>
    <g
       transform="translate(203.2,375.3333)"
       style="font-size:13px;font-family:SansSerif;color-interpolation:linearRGB;fill:#262626;stroke:#262626;color-rendering:optimizeQuality;image-rendering:optimizeQuality;text-rendering:geometricPrecision"
       id="g219">
      <path
         style="stroke:none"
         d="m -6.9531,11.5469 1.1406,-0.1563 q 0.2031,0.9688 0.6719,1.3985 0.4687,0.4297 1.1562,0.4297 0.7969,0 1.3516,-0.5547 0.5547,-0.5547 0.5547,-1.3829 0,-0.7968 -0.5078,-1.3046 -0.5079,-0.5078 -1.3047,-0.5078 -0.3282,0 -0.8125,0.125 l 0.125,-1 q 0.125,0.0156 0.1875,0.0156 0.7344,0 1.3203,-0.3828 0.5859,-0.3828 0.5859,-1.1797 0,-0.625 -0.4297,-1.0391 -0.4297,-0.414 -1.1015,-0.414 -0.6719,0 -1.1094,0.4218 -0.4375,0.4219 -0.5781,1.25 L -6.8438,7.0625 q 0.2188,-1.1406 0.961,-1.7734 0.7422,-0.6329 1.8359,-0.6329 0.7657,0 1.4063,0.3282 0.6406,0.3281 0.9844,0.8906 0.3437,0.5625 0.3437,1.2031 0,0.5938 -0.3281,1.0938 -0.3282,0.5 -0.9532,0.7812 0.8126,0.2031 1.2735,0.7969 0.4609,0.5938 0.4609,1.5 0,1.2188 -0.8906,2.0703 -0.8906,0.8516 -2.25,0.8516 -1.2188,0 -2.0312,-0.7344 -0.8126,-0.7344 -0.9219,-1.8906 z m 7.23,-2.1407 q 0,-1.6406 0.3359,-2.6484 Q 0.9487,5.75 1.6206,5.2031 2.2925,4.6562 3.3081,4.6562 q 0.75,0 1.3125,0.3047 0.5625,0.3047 0.9297,0.8672 0.3672,0.5625 0.5781,1.3828 0.211,0.8203 0.211,2.1953 0,1.6407 -0.336,2.6485 -0.3359,1.0078 -1.0078,1.5547 -0.6719,0.5468 -1.6875,0.5468 -1.3437,0 -2.125,-0.9687 Q 0.2769,12.0312 0.2769,9.4062 Z m 1.1718,0 q 0,2.2969 0.5313,3.0547 0.5312,0.7579 1.3281,0.7579 0.7813,0 1.3203,-0.7579 0.5391,-0.7578 0.5391,-3.0547 0,-2.2968 -0.5391,-3.0468 -0.539,-0.75 -1.3359,-0.75 -0.7813,0 -1.2656,0.6562 Q 1.4487,7.125 1.4487,9.4062 Z"
         id="path217"
         inkscape:connector-curvature="0" />
    </g>
    <g
       transform="translate(246.6,375.3333)"
       style="font-size:13px;font-family:SansSerif;color-interpolation:linearRGB;fill:#262626;stroke:#262626;color-rendering:optimizeQuality;image-rendering:optimizeQuality;text-rendering:geometricPrecision"
       id="g223">
      <path
         style="stroke:none"
         d="m -3.2969,14 v -2.2344 h -4.0312 v -1.0468 l 4.2343,-6.0313 h 0.9376 v 6.0313 h 1.2656 v 1.0468 H -2.1562 V 14 Z m 0,-3.2812 V 6.5312 l -2.9219,4.1876 z M 0.2769,9.4062 q 0,-1.6406 0.3359,-2.6484 Q 0.9487,5.75 1.6206,5.2031 2.2925,4.6562 3.3081,4.6562 q 0.75,0 1.3125,0.3047 0.5625,0.3047 0.9297,0.8672 0.3672,0.5625 0.5781,1.3828 0.211,0.8203 0.211,2.1953 0,1.6407 -0.336,2.6485 -0.3359,1.0078 -1.0078,1.5547 -0.6719,0.5468 -1.6875,0.5468 -1.3437,0 -2.125,-0.9687 Q 0.2769,12.0312 0.2769,9.4062 Z m 1.1718,0 q 0,2.2969 0.5313,3.0547 0.5312,0.7579 1.3281,0.7579 0.7813,0 1.3203,-0.7579 0.5391,-0.7578 0.5391,-3.0547 0,-2.2968 -0.5391,-3.0468 -0.539,-0.75 -1.3359,-0.75 -0.7813,0 -1.2656,0.6562 Q 1.4487,7.125 1.4487,9.4062 Z"
         id="path221"
         inkscape:connector-curvature="0" />
    </g>
    <g
       transform="translate(290,375.3333)"
       style="font-size:13px;font-family:SansSerif;color-interpolation:linearRGB;fill:#262626;stroke:#262626;color-rendering:optimizeQuality;image-rendering:optimizeQuality;text-rendering:geometricPrecision"
       id="g227">
      <path
         style="stroke:none"
         d="m -6.9531,11.5625 1.1875,-0.1094 q 0.1406,0.8907 0.625,1.3281 0.4844,0.4376 1.1718,0.4376 0.8282,0 1.3985,-0.625 Q -2,11.9688 -2,10.9531 -2,9.9688 -2.5469,9.4062 -3.0938,8.8438 -3.9844,8.8438 q -0.5625,0 -1.0078,0.25 -0.4453,0.25 -0.6953,0.6406 L -6.75,9.5938 -5.8594,4.8281 h 4.625 v 1.0781 h -3.7031 l -0.5,2.5 q 0.8281,-0.5781 1.75,-0.5781 1.2187,0 2.0547,0.8438 0.8359,0.8437 0.8359,2.1719 0,1.2656 -0.7343,2.1874 -0.8907,1.125 -2.4376,1.125 -1.2656,0 -2.0703,-0.7109 -0.8047,-0.7109 -0.914,-1.8828 z m 7.23,-2.1563 q 0,-1.6406 0.3359,-2.6484 Q 0.9487,5.75 1.6206,5.2031 2.2925,4.6562 3.3081,4.6562 q 0.75,0 1.3125,0.3047 0.5625,0.3047 0.9297,0.8672 0.3672,0.5625 0.5781,1.3828 0.211,0.8203 0.211,2.1953 0,1.6407 -0.336,2.6485 -0.3359,1.0078 -1.0078,1.5547 -0.6719,0.5468 -1.6875,0.5468 -1.3437,0 -2.125,-0.9687 Q 0.2769,12.0312 0.2769,9.4062 Z m 1.1718,0 q 0,2.2969 0.5313,3.0547 0.5312,0.7579 1.3281,0.7579 0.7813,0 1.3203,-0.7579 0.5391,-0.7578 0.5391,-3.0547 0,-2.2968 -0.5391,-3.0468 -0.539,-0.75 -1.3359,-0.75 -0.7813,0 -1.2656,0.6562 Q 1.4487,7.125 1.4487,9.4062 Z"
         id="path225"
         inkscape:connector-curvature="0" />
    </g>
    <g
       transform="translate(333.4,375.3333)"
       style="font-size:13px;font-family:SansSerif;color-interpolation:linearRGB;fill:#262626;stroke:#262626;color-rendering:optimizeQuality;image-rendering:optimizeQuality;text-rendering:geometricPrecision"
       id="g231">
      <path
         style="stroke:none"
         d="M -1.0312,6.9688 -2.1719,7.0625 Q -2.3125,6.3906 -2.5938,6.0781 -3.0625,5.5938 -3.7344,5.5938 q -0.5468,0 -0.9687,0.3124 -0.5313,0.3907 -0.8438,1.1407 -0.3125,0.75 -0.3281,2.1562 0.4062,-0.625 1.0078,-0.9297 0.6016,-0.3046 1.2578,-0.3046 1.1406,0 1.9453,0.8359 0.8047,0.8359 0.8047,2.1797 0,0.875 -0.3828,1.625 -0.3828,0.75 -1.039,1.1484 -0.6563,0.3984 -1.5,0.3984 -1.4219,0 -2.3282,-1.0468 -0.9062,-1.0469 -0.9062,-3.4688 0,-2.6875 1,-3.9218 0.875,-1.0626 2.3437,-1.0626 1.0938,0 1.7969,0.6172 0.7031,0.6172 0.8438,1.6954 z m -4.6719,4.0156 q 0,0.5937 0.25,1.1328 0.25,0.539 0.7031,0.8203 0.4531,0.2813 0.9531,0.2813 0.7188,0 1.2422,-0.586 0.5235,-0.5859 0.5235,-1.5859 0,-0.9688 -0.5157,-1.5235 -0.5156,-0.5546 -1.2969,-0.5546 -0.7812,0 -1.3203,0.5546 -0.539,0.5547 -0.539,1.461 z m 5.98,-1.5782 q 0,-1.6406 0.3359,-2.6484 Q 0.9487,5.75 1.6206,5.2031 2.2925,4.6562 3.3081,4.6562 q 0.75,0 1.3125,0.3047 0.5625,0.3047 0.9297,0.8672 0.3672,0.5625 0.5781,1.3828 0.211,0.8203 0.211,2.1953 0,1.6407 -0.336,2.6485 -0.3359,1.0078 -1.0078,1.5547 -0.6719,0.5468 -1.6875,0.5468 -1.3437,0 -2.125,-0.9687 Q 0.2769,12.0312 0.2769,9.4062 Z m 1.1718,0 q 0,2.2969 0.5313,3.0547 0.5312,0.7579 1.3281,0.7579 0.7813,0 1.3203,-0.7579 0.5391,-0.7578 0.5391,-3.0547 0,-2.2968 -0.5391,-3.0468 -0.539,-0.75 -1.3359,-0.75 -0.7813,0 -1.2656,0.6562 Q 1.4487,7.125 1.4487,9.4062 Z"
         id="path229"
         inkscape:connector-curvature="0" />
    </g>
    <g
       transform="translate(376.8,375.3333)"
       style="font-size:13px;font-family:SansSerif;color-interpolation:linearRGB;fill:#262626;stroke:#262626;color-rendering:optimizeQuality;image-rendering:optimizeQuality;text-rendering:geometricPrecision"
       id="g235">
      <path
         style="stroke:none"
         d="M -6.8906,5.9062 V 4.8125 h 6.0312 V 5.7031 Q -1.75,6.6562 -2.625,8.2188 -3.5,9.7812 -3.9688,11.4375 -4.3125,12.6094 -4.4062,14 h -1.1719 q 0.0156,-1.0938 0.4297,-2.6484 0.414,-1.5547 1.1796,-3 0.7657,-1.4454 1.6407,-2.4454 z m 7.1675,3.5 q 0,-1.6406 0.3359,-2.6484 Q 0.9487,5.75 1.6206,5.2031 2.2925,4.6562 3.3081,4.6562 q 0.75,0 1.3125,0.3047 0.5625,0.3047 0.9297,0.8672 0.3672,0.5625 0.5781,1.3828 0.211,0.8203 0.211,2.1953 0,1.6407 -0.336,2.6485 -0.3359,1.0078 -1.0078,1.5547 -0.6719,0.5468 -1.6875,0.5468 -1.3437,0 -2.125,-0.9687 Q 0.2769,12.0312 0.2769,9.4062 Z m 1.1718,0 q 0,2.2969 0.5313,3.0547 0.5312,0.7579 1.3281,0.7579 0.7813,0 1.3203,-0.7579 0.5391,-0.7578 0.5391,-3.0547 0,-2.2968 -0.5391,-3.0468 -0.539,-0.75 -1.3359,-0.75 -0.7813,0 -1.2656,0.6562 Q 1.4487,7.125 1.4487,9.4062 Z"
         id="path233"
         inkscape:connector-curvature="0" />
    </g>
    <g
       transform="translate(420.2,375.3333)"
       style="font-size:13px;font-family:SansSerif;color-interpolation:linearRGB;fill:#262626;stroke:#262626;color-rendering:optimizeQuality;image-rendering:optimizeQuality;text-rendering:geometricPrecision"
       id="g239">
      <path
         style="stroke:none"
         d="M -5.2031,8.9531 Q -5.9062,8.6875 -6.25,8.2109 -6.5938,7.7344 -6.5938,7.0625 q 0,-1.0156 0.7266,-1.7109 0.7266,-0.6954 1.9453,-0.6954 1.2188,0 1.961,0.711 0.7421,0.7109 0.7421,1.7266 0,0.6406 -0.3437,1.1171 -0.3437,0.4766 -1.0313,0.7422 0.8594,0.2813 1.3047,0.9063 0.4453,0.625 0.4453,1.4844 0,1.1874 -0.8437,2 -0.8437,0.8124 -2.2187,0.8124 -1.375,0 -2.2188,-0.8124 -0.8438,-0.8126 -0.8438,-2.0313 0,-0.9063 0.461,-1.5234 0.4609,-0.6172 1.3047,-0.836 z M -5.4375,7.0156 q 0,0.6563 0.4297,1.0782 0.4297,0.4218 1.1016,0.4218 0.6718,0 1.0937,-0.414 0.4219,-0.4141 0.4219,-1.0235 0,-0.625 -0.4375,-1.0547 -0.4375,-0.4296 -1.0781,-0.4296 -0.6563,0 -1.0938,0.4218 -0.4375,0.4219 -0.4375,1 z m -0.3594,4.2969 q 0,0.4844 0.2344,0.9453 0.2344,0.461 0.6875,0.711 0.4531,0.25 0.9844,0.25 0.8125,0 1.3437,-0.5235 0.5313,-0.5234 0.5313,-1.3359 0,-0.8282 -0.5469,-1.3672 -0.5469,-0.5391 -1.375,-0.5391 -0.7969,0 -1.3281,0.5313 -0.5313,0.5312 -0.5313,1.3281 z M 0.2769,9.4062 q 0,-1.6406 0.3359,-2.6484 Q 0.9487,5.75 1.6206,5.2031 2.2925,4.6562 3.3081,4.6562 q 0.75,0 1.3125,0.3047 0.5625,0.3047 0.9297,0.8672 0.3672,0.5625 0.5781,1.3828 0.211,0.8203 0.211,2.1953 0,1.6407 -0.336,2.6485 -0.3359,1.0078 -1.0078,1.5547 -0.6719,0.5468 -1.6875,0.5468 -1.3437,0 -2.125,-0.9687 Q 0.2769,12.0312 0.2769,9.4062 Z m 1.1718,0 q 0,2.2969 0.5313,3.0547 0.5312,0.7579 1.3281,0.7579 0.7813,0 1.3203,-0.7579 0.5391,-0.7578 0.5391,-3.0547 0,-2.2968 -0.5391,-3.0468 -0.539,-0.75 -1.3359,-0.75 -0.7813,0 -1.2656,0.6562 Q 1.4487,7.125 1.4487,9.4062 Z"
         id="path237"
         inkscape:connector-curvature="0" />
    </g>
    <g
       transform="translate(463.6,375.3333)"
       style="font-size:13px;font-family:SansSerif;color-interpolation:linearRGB;fill:#262626;stroke:#262626;color-rendering:optimizeQuality;image-rendering:optimizeQuality;text-rendering:geometricPrecision"
       id="g243">
      <path
         style="stroke:none"
         d="M -6.7812,11.8438 -5.6875,11.75 q 0.1406,0.7656 0.5313,1.1172 0.3906,0.3516 1.0156,0.3516 0.5156,0 0.914,-0.2422 0.3985,-0.2422 0.6563,-0.6407 0.2578,-0.3984 0.4219,-1.0859 0.164,-0.6875 0.164,-1.4062 0,-0.0782 0,-0.2188 -0.3437,0.5469 -0.9375,0.8828 -0.5937,0.336 -1.2812,0.336 -1.1563,0 -1.9531,-0.836 -0.7969,-0.8359 -0.7969,-2.2109 0,-1.4219 0.8281,-2.2813 0.8281,-0.8594 2.0938,-0.8594 0.9062,0 1.6562,0.4922 0.75,0.4922 1.1406,1.3907 0.3906,0.8984 0.3906,2.6171 0,1.7813 -0.3828,2.836 -0.3828,1.0547 -1.1484,1.6094 -0.7656,0.5546 -1.7969,0.5546 -1.0937,0 -1.789,-0.6015 -0.6953,-0.6016 -0.8203,-1.7109 z m 4.6718,-4.1094 q 0,-0.9844 -0.5234,-1.5547 -0.5234,-0.5703 -1.2578,-0.5703 -0.7656,0 -1.3282,0.6172 -0.5624,0.6172 -0.5624,1.6172 0,0.875 0.5312,1.4296 0.5312,0.5547 1.3281,0.5547 0.7969,0 1.3047,-0.5547 0.5078,-0.5546 0.5078,-1.539 z m 2.3863,1.6718 q 0,-1.6406 0.3359,-2.6484 Q 0.9487,5.75 1.6206,5.2031 2.2925,4.6562 3.3081,4.6562 q 0.75,0 1.3125,0.3047 0.5625,0.3047 0.9297,0.8672 0.3672,0.5625 0.5781,1.3828 0.211,0.8203 0.211,2.1953 0,1.6407 -0.336,2.6485 -0.3359,1.0078 -1.0078,1.5547 -0.6719,0.5468 -1.6875,0.5468 -1.3437,0 -2.125,-0.9687 Q 0.2769,12.0312 0.2769,9.4062 Z m 1.1718,0 q 0,2.2969 0.5313,3.0547 0.5312,0.7579 1.3281,0.7579 0.7813,0 1.3203,-0.7579 0.5391,-0.7578 0.5391,-3.0547 0,-2.2968 -0.5391,-3.0468 -0.539,-0.75 -1.3359,-0.75 -0.7813,0 -1.2656,0.6562 Q 1.4487,7.125 1.4487,9.4062 Z"
         id="path241"
         inkscape:connector-curvature="0" />
    </g>
    <g
       transform="translate(507,375.3333)"
       style="font-size:13px;font-family:SansSerif;color-interpolation:linearRGB;fill:#262626;stroke:#262626;color-rendering:optimizeQuality;image-rendering:optimizeQuality;text-rendering:geometricPrecision"
       id="g247">
      <path
         style="stroke:none"
         d="M -6.1562,14 H -7.2969 V 6.7188 q -0.4219,0.3906 -1.0859,0.789 -0.6641,0.3984 -1.1953,0.586 V 6.9844 q 0.9531,-0.4375 1.6719,-1.0782 0.7187,-0.6406 1.0156,-1.25 h 0.7344 z m 2.9331,-4.5938 q 0,-1.6406 0.3359,-2.6484 0.3359,-1.0078 1.0078,-1.5547 0.6719,-0.5469 1.6875,-0.5469 0.75,0 1.3125,0.3047 0.5625,0.3047 0.9297,0.8672 0.3672,0.5625 0.5781,1.3828 0.211,0.8203 0.211,2.1953 0,1.6407 -0.336,2.6485 -0.3359,1.0078 -1.0078,1.5547 -0.6719,0.5468 -1.6875,0.5468 -1.3437,0 -2.125,-0.9687 -0.9062,-1.1563 -0.9062,-3.7813 z m 1.1718,0 q 0,2.2969 0.5313,3.0547 0.5312,0.7579 1.3281,0.7579 0.7813,0 1.3203,-0.7579 0.5391,-0.7578 0.5391,-3.0547 0,-2.2968 -0.5391,-3.0468 -0.539,-0.75 -1.3359,-0.75 -0.7813,0 -1.2656,0.6562 -0.5782,0.8594 -0.5782,3.1406 z m 6.0581,0 q 0,-1.6406 0.336,-2.6484 Q 4.6787,5.75 5.3506,5.2031 6.0225,4.6562 7.0381,4.6562 q 0.75,0 1.3125,0.3047 0.5625,0.3047 0.9297,0.8672 0.3672,0.5625 0.5781,1.3828 0.2109,0.8203 0.2109,2.1953 0,1.6407 -0.3359,2.6485 -0.3359,1.0078 -1.0078,1.5547 -0.6719,0.5468 -1.6875,0.5468 -1.3438,0 -2.125,-0.9687 Q 4.0068,12.0312 4.0068,9.4062 Z m 1.1719,0 q 0,2.2969 0.5313,3.0547 0.5312,0.7579 1.3281,0.7579 0.7812,0 1.3203,-0.7579 0.5391,-0.7578 0.5391,-3.0547 0,-2.2968 -0.5391,-3.0468 -0.5391,-0.75 -1.3359,-0.75 -0.7813,0 -1.2657,0.6562 Q 5.1787,7.125 5.1787,9.4062 Z"
         id="path245"
         inkscape:connector-curvature="0" />
    </g>
    <g
       transform="translate(257,410)"
       style="font-size:15px;font-family:SansSerif;color-interpolation:linearRGB;fill:#262626;stroke:#262626;color-rendering:optimizeQuality;image-rendering:optimizeQuality;text-rendering:geometricPrecision"
       id="g251">
      <path
         style="stroke:none"
         d="M 4.2188,0 0.0625,-10.7344 h 1.5469 l 2.7812,7.7969 Q 4.7344,-2 4.9531,-1.1719 q 0.25,-0.8906 0.5781,-1.7656 l 2.9063,-7.7969 H 9.8906 L 5.6875,0 Z"
         id="path249"
         inkscape:connector-curvature="0" />
    </g>
    <g
       transform="translate(268,417)"
       style="font-size:11px;font-family:SansSerif;color-interpolation:linearRGB;fill:#262626;stroke:#262626;color-rendering:optimizeQuality;image-rendering:optimizeQuality;text-rendering:geometricPrecision"
       id="g255">
      <path
         style="stroke:none"
         d="M 4.4531,-0.7031 Q 3.9062,-0.25 3.4141,-0.0625 2.9219,0.125 2.3438,0.125 1.4062,0.125 0.8984,-0.3359 0.3906,-0.7969 0.3906,-1.5 q 0,-0.4219 0.1953,-0.7656 0.1953,-0.3438 0.5,-0.5547 0.3047,-0.2109 0.6953,-0.3203 0.2813,-0.0782 0.8594,-0.1406 1.1719,-0.1407 1.7188,-0.3438 0.0156,-0.1875 0.0156,-0.25 0,-0.5938 -0.2812,-0.8281 Q 3.7344,-5.0312 3,-5.0312 q -0.6875,0 -1.0078,0.2343 -0.3203,0.2344 -0.4766,0.8438 l -0.9531,-0.125 q 0.125,-0.6094 0.4219,-0.9844 0.2968,-0.375 0.8594,-0.5703 0.5624,-0.1953 1.2968,-0.1953 0.7344,0 1.1875,0.1719 0.4531,0.1718 0.6641,0.4296 0.2109,0.2578 0.3047,0.6485 0.0469,0.25 0.0469,0.9062 v 1.2813 q 0,1.3437 0.0624,1.7031 Q 5.4688,-0.3281 5.6562,0 H 4.6406 Q 4.4844,-0.2969 4.4531,-0.7031 Z M 4.3594,-2.8594 Q 3.8438,-2.6406 2.7812,-2.5 q -0.5937,0.0938 -0.8359,0.1953 -0.2422,0.1016 -0.3828,0.3125 -0.1406,0.211 -0.1406,0.461 0,0.3906 0.2969,0.6484 0.2968,0.2578 0.8593,0.2578 0.5625,0 0.9922,-0.25 Q 4,-1.125 4.2188,-1.5469 4.3594,-1.875 4.3594,-2.5156 Z m 6.2114,0.7656 0.9375,0.125 q -0.1406,0.9844 -0.7891,1.5391 -0.6484,0.5547 -1.5703,0.5547 -1.1718,0 -1.8828,-0.7656 -0.7109,-0.7656 -0.7109,-2.1875 0,-0.9219 0.3047,-1.6172 0.3047,-0.6953 0.9297,-1.0391 0.625,-0.3437 1.3593,-0.3437 0.9219,0 1.5157,0.4687 0.5937,0.4688 0.7656,1.3282 l -0.9531,0.1406 q -0.125,-0.5625 -0.4688,-0.8516 -0.3437,-0.289 -0.8281,-0.289 -0.7188,0 -1.1797,0.5234 -0.4609,0.5234 -0.4609,1.6484 0,1.1563 0.4375,1.6719 0.4375,0.5156 1.1562,0.5156 0.5625,0 0.9453,-0.3437 0.3828,-0.3438 0.4922,-1.0782 z"
         id="path253"
         inkscape:connector-curvature="0" />
    </g>
    <g
       transform="translate(280,410)"
       style="font-size:15px;font-family:SansSerif;color-interpolation:linearRGB;fill:#262626;stroke:#262626;color-rendering:optimizeQuality;image-rendering:optimizeQuality;text-rendering:geometricPrecision"
       id="g259">
      <path
         style="stroke:none"
         d="m 5.1675,-9.2188 v -1.5156 H 6.48 v 1.5156 z M 5.1675,0 V -7.7812 H 6.48 V 0 Z m 3.3169,0 v -7.7812 h 1.1875 v 1.1093 q 0.8593,-1.2812 2.4843,-1.2812 0.7032,0 1.2891,0.25 0.5859,0.25 0.8828,0.664 0.2969,0.4141 0.4063,0.9766 0.0781,0.3594 0.0781,1.2813 V 0 h -1.3281 v -4.7344 q 0,-0.7968 -0.1485,-1.1953 -0.1484,-0.3984 -0.539,-0.6406 -0.3907,-0.2422 -0.9219,-0.2422 -0.8438,0 -1.4531,0.5313 Q 9.8125,-5.75 9.8125,-4.25 V 0 Z"
         id="path257"
         inkscape:connector-curvature="0" />
    </g>
    <g
       transform="translate(301,410)"
       style="font-size:15px;font-family:mwb_cmmi10;color-interpolation:linearRGB;fill:#262626;stroke:#262626;color-rendering:optimizeQuality;image-rendering:optimizeQuality;text-rendering:geometricPrecision"
       id="g263">
      <path
         style="stroke:none"
         d="m 0.4219,2.8125 q 0,-0.0781 0.0156,-0.1094 l 2.2031,-8.8593 q 0.0625,-0.2032 0.2344,-0.336 0.1719,-0.1328 0.3906,-0.1328 0.1875,0 0.3203,0.1094 0.1329,0.1094 0.1329,0.2968 0,0.0469 0,0.0782 0,0.0312 -0.0157,0.0468 l -0.8906,3.5157 q -0.1406,0.625 -0.1406,1.0781 0,0.5625 0.2656,0.9141 0.2656,0.3515 0.7969,0.3515 1.0937,0 1.9218,-1.3594 0,-0.0156 0.0079,-0.0234 0.0078,-0.0078 0.0078,-0.0234 L 6.75,-5.9844 q 0.0469,-0.2031 0.2344,-0.3437 0.1875,-0.1407 0.4062,-0.1407 0.1719,0 0.3047,0.1172 0.1328,0.1172 0.1328,0.3047 0,0.0938 -0.0156,0.125 L 6.7344,-1.6094 Q 6.625,-1.1719 6.625,-0.875 q 0,0.6406 0.4375,0.6406 0.4687,0 0.7109,-0.5781 0.2422,-0.5781 0.4141,-1.3906 0.0313,-0.0938 0.125,-0.0938 h 0.1719 q 0.0625,0 0.1015,0.0469 0.0391,0.0469 0.0391,0.1094 -0.2656,1.0468 -0.5781,1.6797 -0.3125,0.6328 -1.0157,0.6328 -0.4843,0 -0.875,-0.2891 -0.3906,-0.289 -0.5,-0.7734 -0.375,0.4687 -0.875,0.7656 -0.5,0.2969 -1.0624,0.2969 -0.9376,0 -1.4688,-0.4375 L 1.4844,2.7656 Q 1.4375,2.9688 1.2656,3.1016 1.0938,3.2344 0.875,3.2344 0.6875,3.2344 0.5547,3.125 0.4219,3.0156 0.4219,2.8125 Z"
         id="path261"
         inkscape:connector-curvature="0" />
    </g>
    <g
       transform="translate(311,410)"
       style="font-size:15px;font-family:SansSerif;color-interpolation:linearRGB;fill:#262626;stroke:#262626;color-rendering:optimizeQuality;image-rendering:optimizeQuality;text-rendering:geometricPrecision"
       id="g267">
      <path
         style="stroke:none"
         d="M 4.2188,0 0.0625,-10.7344 h 1.5469 l 2.7812,7.7969 Q 4.7344,-2 4.9531,-1.1719 q 0.25,-0.8906 0.5781,-1.7656 l 2.9063,-7.7969 H 9.8906 L 5.6875,0 Z"
         id="path265"
         inkscape:connector-curvature="0" />
    </g>
    <g
       style="color-interpolation:linearRGB;fill:#262626;stroke:#262626;stroke-width:0.66670001;stroke-linejoin:round;color-rendering:optimizeQuality;image-rendering:optimizeQuality;text-rendering:geometricPrecision"
       id="g301">
      <line
         y2="31"
         style="fill:none"
         x1="73"
         x2="73"
         y1="370"
         id="line269" />
      <line
         y2="31"
         style="fill:none"
         x1="507"
         x2="507"
         y1="370"
         id="line271" />
      <line
         y2="370"
         style="fill:none"
         x1="73"
         x2="77.339996"
         y1="370"
         id="line273" />
      <line
         y2="313.5"
         style="fill:none"
         x1="73"
         x2="77.339996"
         y1="313.5"
         id="line275" />
      <line
         y2="257"
         style="fill:none"
         x1="73"
         x2="77.339996"
         y1="257"
         id="line277" />
      <line
         y2="200.5"
         style="fill:none"
         x1="73"
         x2="77.339996"
         y1="200.5"
         id="line279" />
      <line
         y2="144"
         style="fill:none"
         x1="73"
         x2="77.339996"
         y1="144"
         id="line281" />
      <line
         y2="87.5"
         style="fill:none"
         x1="73"
         x2="77.339996"
         y1="87.5"
         id="line283" />
      <line
         y2="31"
         style="fill:none"
         x1="73"
         x2="77.339996"
         y1="31"
         id="line285" />
      <line
         y2="370"
         style="fill:none"
         x1="507"
         x2="502.66"
         y1="370"
         id="line287" />
      <line
         y2="313.5"
         style="fill:none"
         x1="507"
         x2="502.66"
         y1="313.5"
         id="line289" />
      <line
         y2="257"
         style="fill:none"
         x1="507"
         x2="502.66"
         y1="257"
         id="line291" />
      <line
         y2="200.5"
         style="fill:none"
         x1="507"
         x2="502.66"
         y1="200.5"
         id="line293" />
      <line
         y2="144"
         style="fill:none"
         x1="507"
         x2="502.66"
         y1="144"
         id="line295" />
      <line
         y2="87.5"
         style="fill:none"
         x1="507"
         x2="502.66"
         y1="87.5"
         id="line297" />
      <line
         y2="31"
         style="fill:none"
         x1="507"
         x2="502.66"
         y1="31"
         id="line299" />
    </g>
    <g
       transform="translate(67.6667,370)"
       style="font-size:13px;font-family:SansSerif;color-interpolation:linearRGB;fill:#262626;stroke:#262626;color-rendering:optimizeQuality;image-rendering:optimizeQuality;text-rendering:geometricPrecision"
       id="g305">
      <path
         style="stroke:none"
         d="m -7.4531,0.9062 q 0,-1.6406 0.3359,-2.6484 0.336,-1.0078 1.0078,-1.5547 0.6719,-0.5469 1.6875,-0.5469 0.75,0 1.3125,0.3047 0.5625,0.3047 0.9297,0.8672 0.3672,0.5625 0.5781,1.3828 0.211,0.8203 0.211,2.1953 0,1.6407 -0.336,2.6485 -0.3359,1.0078 -1.0078,1.5547 -0.6718,0.5468 -1.6875,0.5468 -1.3437,0 -2.125,-0.9687 -0.9062,-1.1563 -0.9062,-3.7813 z m 1.1719,0 q 0,2.2969 0.5312,3.0547 0.5312,0.7579 1.3281,0.7579 0.7813,0 1.3203,-0.7579 0.5391,-0.7578 0.5391,-3.0547 0,-2.2968 -0.5391,-3.0468 -0.539,-0.75 -1.3359,-0.75 -0.7813,0 -1.2656,0.6562 -0.5781,0.8594 -0.5781,3.1406 z"
         id="path303"
         inkscape:connector-curvature="0" />
    </g>
    <g
       transform="translate(67.6667,313.5)"
       style="font-size:13px;font-family:SansSerif;color-interpolation:linearRGB;fill:#262626;stroke:#262626;color-rendering:optimizeQuality;image-rendering:optimizeQuality;text-rendering:geometricPrecision"
       id="g309">
      <path
         style="stroke:none"
         d="m -3.1562,5.5 h -1.1407 v -7.2812 q -0.4219,0.3906 -1.0859,0.789 -0.6641,0.3984 -1.1953,0.586 v -1.1094 q 0.9531,-0.4375 1.6719,-1.0782 0.7187,-0.6406 1.0156,-1.25 h 0.7344 z"
         id="path307"
         inkscape:connector-curvature="0" />
    </g>
    <g
       transform="translate(67.6667,257)"
       style="font-size:13px;font-family:SansSerif;color-interpolation:linearRGB;fill:#262626;stroke:#262626;color-rendering:optimizeQuality;image-rendering:optimizeQuality;text-rendering:geometricPrecision"
       id="g313">
      <path
         style="stroke:none"
         d="M -1.4531,4.4062 V 5.5 h -6.1563 q -0.0156,-0.4062 0.1406,-0.7969 0.2344,-0.625 0.75,-1.2343 0.5157,-0.6094 1.5,-1.4063 1.5157,-1.25 2.0469,-1.9766 0.5313,-0.7265 0.5313,-1.3671 0,-0.6876 -0.4844,-1.1485 -0.4844,-0.4609 -1.2656,-0.4609 -0.8282,0 -1.3203,0.4922 -0.4922,0.4922 -0.5079,1.3672 l -1.1718,-0.125 q 0.125,-1.3126 0.9062,-2 0.7813,-0.6876 2.1094,-0.6876 1.3438,0 2.125,0.7422 0.7812,0.7422 0.7812,1.836 0,0.5625 -0.2265,1.1015 -0.2266,0.5391 -0.7578,1.1407 -0.5313,0.6015 -1.7657,1.6328 -1.0312,0.8594 -1.3203,1.1718 -0.289,0.3126 -0.4765,0.625 z"
         id="path311"
         inkscape:connector-curvature="0" />
    </g>
    <g
       transform="translate(67.6667,200.5)"
       style="font-size:13px;font-family:SansSerif;color-interpolation:linearRGB;fill:#262626;stroke:#262626;color-rendering:optimizeQuality;image-rendering:optimizeQuality;text-rendering:geometricPrecision"
       id="g317">
      <path
         style="stroke:none"
         d="m -7.4531,3.0469 1.1406,-0.1563 q 0.2031,0.9688 0.6719,1.3985 0.4687,0.4297 1.1562,0.4297 0.7969,0 1.3516,-0.5547 0.5547,-0.5547 0.5547,-1.3829 0,-0.7968 -0.5078,-1.3046 -0.5079,-0.5078 -1.3047,-0.5078 -0.3282,0 -0.8125,0.125 l 0.125,-1 q 0.125,0.0156 0.1875,0.0156 0.7344,0 1.3203,-0.3828 0.5859,-0.3828 0.5859,-1.1797 0,-0.625 -0.4297,-1.0391 -0.4297,-0.414 -1.1015,-0.414 -0.6719,0 -1.1094,0.4218 -0.4375,0.4219 -0.5781,1.25 l -1.1407,-0.2031 q 0.2188,-1.1406 0.961,-1.7734 0.7422,-0.6329 1.8359,-0.6329 0.7657,0 1.4063,0.3282 0.6406,0.3281 0.9844,0.8906 0.3437,0.5625 0.3437,1.2031 0,0.5938 -0.3281,1.0938 -0.3282,0.5 -0.9532,0.7812 0.8126,0.2031 1.2735,0.7969 0.4609,0.5938 0.4609,1.5 0,1.2188 -0.8906,2.0703 -0.8906,0.8516 -2.25,0.8516 -1.2188,0 -2.0312,-0.7344 -0.8126,-0.7344 -0.9219,-1.8906 z"
         id="path315"
         inkscape:connector-curvature="0" />
    </g>
    <g
       transform="translate(67.6667,144)"
       style="font-size:13px;font-family:SansSerif;color-interpolation:linearRGB;fill:#262626;stroke:#262626;color-rendering:optimizeQuality;image-rendering:optimizeQuality;text-rendering:geometricPrecision"
       id="g321">
      <path
         style="stroke:none"
         d="M -3.7969,5.5 V 3.2656 H -7.8281 V 2.2188 l 4.2343,-6.0313 h 0.9376 v 6.0313 h 1.2656 V 3.2656 H -2.6562 V 5.5 Z m 0,-3.2812 v -4.1876 l -2.9219,4.1876 z"
         id="path319"
         inkscape:connector-curvature="0" />
    </g>
    <g
       transform="translate(67.6667,87.5)"
       style="font-size:13px;font-family:SansSerif;color-interpolation:linearRGB;fill:#262626;stroke:#262626;color-rendering:optimizeQuality;image-rendering:optimizeQuality;text-rendering:geometricPrecision"
       id="g325">
      <path
         style="stroke:none"
         d="m -7.4531,3.0625 1.1875,-0.1094 q 0.1406,0.8907 0.625,1.3281 0.4844,0.4376 1.1718,0.4376 0.8282,0 1.3985,-0.625 Q -2.5,3.4688 -2.5,2.4531 -2.5,1.4688 -3.0469,0.9062 -3.5938,0.3438 -4.4844,0.3438 q -0.5625,0 -1.0078,0.25 -0.4453,0.25 -0.6953,0.6406 L -7.25,1.0938 -6.3594,-3.6719 h 4.625 v 1.0781 h -3.7031 l -0.5,2.5 q 0.8281,-0.5781 1.75,-0.5781 1.2187,0 2.0547,0.8438 0.8359,0.8437 0.8359,2.1719 0,1.2656 -0.7343,2.1874 -0.8907,1.125 -2.4376,1.125 -1.2656,0 -2.0703,-0.7109 -0.8047,-0.7109 -0.914,-1.8828 z"
         id="path323"
         inkscape:connector-curvature="0" />
    </g>
    <g
       transform="translate(67.6667,31)"
       style="font-size:13px;font-family:SansSerif;color-interpolation:linearRGB;fill:#262626;stroke:#262626;color-rendering:optimizeQuality;image-rendering:optimizeQuality;text-rendering:geometricPrecision"
       id="g329">
      <path
         style="stroke:none"
         d="m -1.5312,-1.5312 -1.1407,0.0937 q -0.1406,-0.6719 -0.4219,-0.9844 -0.4687,-0.4843 -1.1406,-0.4843 -0.5468,0 -0.9687,0.3124 -0.5313,0.3907 -0.8438,1.1407 -0.3125,0.75 -0.3281,2.1562 0.4062,-0.625 1.0078,-0.9297 0.6016,-0.3046 1.2578,-0.3046 1.1406,0 1.9453,0.8359 0.8047,0.8359 0.8047,2.1797 0,0.875 -0.3828,1.625 -0.3828,0.75 -1.039,1.1484 -0.6563,0.3984 -1.5,0.3984 -1.4219,0 -2.3282,-1.0468 -0.9062,-1.0469 -0.9062,-3.4688 0,-2.6875 1,-3.9218 0.875,-1.0626 2.3437,-1.0626 1.0938,0 1.7969,0.6172 0.7031,0.6172 0.8438,1.6954 z m -4.6719,4.0156 q 0,0.5937 0.25,1.1328 0.25,0.539 0.7031,0.8203 0.4531,0.2813 0.9531,0.2813 0.7188,0 1.2422,-0.586 0.5235,-0.5859 0.5235,-1.5859 0,-0.9688 -0.5157,-1.5235 -0.5156,-0.5546 -1.2969,-0.5546 -0.7812,0 -1.3203,0.5546 -0.539,0.5547 -0.539,1.461 z"
         id="path327"
         inkscape:connector-curvature="0" />
    </g>
    <g
       transform="rotate(-90,182,136)"
       style="font-size:15px;font-family:mwb_cmr10;color-interpolation:linearRGB;fill:#262626;stroke:#262626;color-rendering:optimizeQuality;image-rendering:optimizeQuality;text-rendering:geometricPrecision"
       id="g333">
      <path
         style="stroke:none"
         d="m 0.8125,0 q -0.125,0 -0.125,-0.125 0.0156,0 0.0156,-0.0078 0,-0.0078 0,-0.0391 l 5.1563,-10.4062 q 0.0781,-0.1563 0.2812,-0.1563 h 0.2032 q 0.2031,0 0.2656,0.1563 l 5.1718,10.4062 q 0,0.0157 0.0079,0.0313 0.0078,0.0156 0.0078,0.0156 0,0.125 -0.125,0.125 z M 1.7969,-1.2031 H 9.7031 L 5.75,-9.1562 Z"
         id="path331"
         inkscape:connector-curvature="0" />
    </g>
    <g
       transform="rotate(-90,175.5,129.5)"
       style="font-size:15px;font-family:SansSerif;color-interpolation:linearRGB;fill:#262626;stroke:#262626;color-rendering:optimizeQuality;image-rendering:optimizeQuality;text-rendering:geometricPrecision"
       id="g337">
      <path
         style="stroke:none"
         d="m 4.8394,-3.4531 1.3437,-0.1094 q 0.0938,0.7969 0.4453,1.3125 0.3516,0.5156 1.0781,0.8359 0.7266,0.3203 1.6485,0.3203 0.8125,0 1.4375,-0.2421 0.625,-0.2422 0.9297,-0.6641 0.3047,-0.4219 0.3047,-0.9219 0,-0.5 -0.2969,-0.875 -0.2969,-0.375 -0.9688,-0.6406 -0.4375,-0.1563 -1.914,-0.5156 -1.4766,-0.3594 -2.0703,-0.6719 -0.7657,-0.4062 -1.1485,-1 -0.3828,-0.5938 -0.3828,-1.3438 0,-0.8124 0.4609,-1.5156 0.461,-0.7031 1.3516,-1.0703 0.8906,-0.3672 1.9688,-0.3672 1.2031,0 2.1093,0.3828 0.9063,0.3829 1.3985,1.1329 0.4922,0.75 0.539,1.6874 l -1.375,0.1094 q -0.1093,-1.0156 -0.7422,-1.539 -0.6328,-0.5235 -1.8671,-0.5235 -1.2813,0 -1.875,0.4766 -0.5938,0.4765 -0.5938,1.1328 0,0.5781 0.4219,0.9531 0.4062,0.375 2.1406,0.7656 1.7344,0.3907 2.375,0.6876 0.9375,0.4374 1.3828,1.1015 0.4453,0.6641 0.4453,1.5235 0,0.8593 -0.4922,1.6171 -0.4921,0.7579 -1.4062,1.1797 Q 10.5737,0.1875 9.4175,0.1875 7.9644,0.1875 6.98,-0.2422 5.9956,-0.6719 5.4331,-1.5234 4.8706,-2.375 4.8394,-3.4531 Z"
         id="path335"
         inkscape:connector-curvature="0" />
    </g>
    <g
       transform="rotate(-90,171.5,118.5)"
       style="font-size:11px;font-family:SansSerif;color-interpolation:linearRGB;fill:#262626;stroke:#262626;color-rendering:optimizeQuality;image-rendering:optimizeQuality;text-rendering:geometricPrecision"
       id="g341">
      <path
         style="stroke:none"
         d="M 1.0312,0 V -7.875 H 2.0625 V 0 Z M 4.0874,0 V -7.875 H 5.1187 V 0 Z"
         id="path339"
         inkscape:connector-curvature="0" />
    </g>
    <g
       transform="rotate(-90,164.5,118.5)"
       style="font-size:15px;font-family:SansSerif;color-interpolation:linearRGB;fill:#262626;stroke:#262626;color-rendering:optimizeQuality;image-rendering:optimizeQuality;text-rendering:geometricPrecision"
       id="g345">
      <path
         style="stroke:none"
         d="M 7.6831,3.1562 Q 6.5894,1.7812 5.8315,-0.0625 5.0737,-1.9062 5.0737,-3.8906 q 0,-1.7344 0.5625,-3.3438 0.6563,-1.8437 2.0469,-3.6875 H 8.6206 Q 7.73,-9.3906 7.4487,-8.75 q -0.4531,1.0156 -0.7031,2.1094 -0.3125,1.375 -0.3125,2.7656 0,3.5156 2.1875,7.0312 z M 14.627,0 v -6.75 h -1.1563 v -1.0312 h 1.1563 v -0.8282 q 0,-0.7812 0.1406,-1.1562 0.2031,-0.5156 0.6797,-0.836 0.4765,-0.3203 1.3359,-0.3203 0.5625,0 1.2344,0.1407 l -0.2031,1.1406 q -0.4063,-0.0782 -0.7657,-0.0782 -0.6093,0 -0.8593,0.2579 -0.25,0.2578 -0.25,0.9609 v 0.7188 h 1.5156 V -6.75 H 15.9395 V 0 Z m 10.7924,-6.3125 h -7.0937 v -1.2344 h 7.0937 z m 0,3.2656 h -7.0937 v -1.2343 h 7.0937 z m 1.541,-6.2812 v -1.2657 h 6.9532 v 1.0157 q -1.0157,1.0937 -2.0235,2.9062 -1.0078,1.8125 -1.5547,3.7188 Q 29.9292,-1.6094 29.8198,0 h -1.3437 q 0.0156,-1.2656 0.4922,-3.0625 0.4765,-1.7969 1.3671,-3.4609 0.8907,-1.6641 1.8907,-2.8047 z M 35.959,0 v -1.5 h 1.5 V 0 Z m 3.5112,-9.3281 v -1.2657 h 6.9531 v 1.0157 q -1.0156,1.0937 -2.0234,2.9062 -1.0078,1.8125 -1.5547,3.7188 Q 42.439,-1.6094 42.3296,0 h -1.3438 q 0.0157,-1.2656 0.4922,-3.0625 0.4766,-1.7969 1.3672,-3.4609 0.8906,-1.6641 1.8906,-2.8047 z m 8.2642,6.5156 1.375,-0.125 q 0.1562,1.0156 0.7187,1.5234 0.5625,0.5079 1.3594,0.5079 0.9531,0 1.6094,-0.7188 0.6562,-0.7188 0.6562,-1.8906 0,-1.1406 -0.6328,-1.7891 -0.6328,-0.6484 -1.6641,-0.6484 -0.6406,0 -1.1484,0.289 Q 49.5,-5.375 49.2031,-4.9219 L 47.9688,-5.0781 49,-10.5938 h 5.3438 v 1.2657 h -4.2813 l -0.5781,2.875 q 0.9687,-0.6719 2.0312,-0.6719 1.4063,0 2.3672,0.9766 0.961,0.9765 0.961,2.5078 0,1.4531 -0.8438,2.5156 -1.0312,1.3125 -2.8125,1.3125 -1.4687,0 -2.3984,-0.8203 -0.9297,-0.8203 -1.0547,-2.1797 z m 18.0722,-1.4063 v -1.25 l 4.5469,-0.0156 V -1.5 q -1.0469,0.8438 -2.164,1.2656 -1.1172,0.4219 -2.2891,0.4219 -1.5781,0 -2.875,-0.6797 -1.2969,-0.6797 -1.9531,-1.9609 -0.6563,-1.2813 -0.6563,-2.8594 0,-1.5781 0.6563,-2.9375 0.6562,-1.3594 1.8906,-2.0156 1.2344,-0.6563 2.8281,-0.6563 1.1719,0 2.1094,0.375 0.9375,0.375 1.4766,1.0547 0.539,0.6797 0.8046,1.7578 l -1.2812,0.3438 q -0.2344,-0.8125 -0.5938,-1.2813 -0.3593,-0.4687 -1.0234,-0.75 -0.6641,-0.2812 -1.4766,-0.2812 -0.9843,0 -1.6953,0.2969 -0.7109,0.2968 -1.1406,0.7812 -0.4297,0.4844 -0.6797,1.0625 -0.4062,1 -0.4062,2.1563 0,1.4374 0.4922,2.4062 0.4921,0.9688 1.4375,1.4375 0.9453,0.4687 2.0078,0.4687 0.9218,0 1.8047,-0.3593 0.8828,-0.3594 1.3359,-0.7657 v -2 z M 72.4897,0 v -10.7344 h 1.4219 v 4.4063 h 5.5781 v -4.4063 h 1.4219 V 0 H 79.4897 V -5.0625 H 73.9116 V 0 Z M 82.416,0 V -1.0625 L 87.3691,-6.75 q -0.8437,0.0469 -1.5,0.0469 h -3.1562 v -1.0781 h 6.3437 v 0.875 l -4.2031,4.9374 -0.8125,0.9063 q 0.8906,-0.0781 1.6563,-0.0781 H 89.291 V 0 Z m 8.5313,0 v -1.5 h 1.5 V 0 q 0,0.8281 -0.2891,1.3359 -0.2891,0.5079 -0.9297,0.7891 L 90.8691,1.5625 Q 91.2754,1.375 91.4785,1.0234 91.6816,0.6719 91.6973,0 Z m 11.2256,0 -4.1563,-10.7344 h 1.5469 l 2.7812,7.7969 q 0.3438,0.9375 0.5625,1.7656 0.25,-0.8906 0.5782,-1.7656 l 2.9062,-7.7969 h 1.4531 L 103.6416,0 Z"
         id="path343"
         inkscape:connector-curvature="0" />
    </g>
    <g
       transform="rotate(-90,114,61)"
       style="font-size:11px;font-family:SansSerif;color-interpolation:linearRGB;fill:#262626;stroke:#262626;color-rendering:optimizeQuality;image-rendering:optimizeQuality;text-rendering:geometricPrecision"
       id="g349">
      <path
         style="stroke:none"
         d="M 4.4531,-0.7031 Q 3.9062,-0.25 3.4141,-0.0625 2.9219,0.125 2.3438,0.125 1.4062,0.125 0.8984,-0.3359 0.3906,-0.7969 0.3906,-1.5 q 0,-0.4219 0.1953,-0.7656 0.1953,-0.3438 0.5,-0.5547 0.3047,-0.2109 0.6953,-0.3203 0.2813,-0.0782 0.8594,-0.1406 1.1719,-0.1407 1.7188,-0.3438 0.0156,-0.1875 0.0156,-0.25 0,-0.5938 -0.2812,-0.8281 Q 3.7344,-5.0312 3,-5.0312 q -0.6875,0 -1.0078,0.2343 -0.3203,0.2344 -0.4766,0.8438 l -0.9531,-0.125 q 0.125,-0.6094 0.4219,-0.9844 0.2968,-0.375 0.8594,-0.5703 0.5624,-0.1953 1.2968,-0.1953 0.7344,0 1.1875,0.1719 0.4531,0.1718 0.6641,0.4296 0.2109,0.2578 0.3047,0.6485 0.0469,0.25 0.0469,0.9062 v 1.2813 q 0,1.3437 0.0624,1.7031 Q 5.4688,-0.3281 5.6562,0 H 4.6406 Q 4.4844,-0.2969 4.4531,-0.7031 Z M 4.3594,-2.8594 Q 3.8438,-2.6406 2.7812,-2.5 q -0.5937,0.0938 -0.8359,0.1953 -0.2422,0.1016 -0.3828,0.3125 -0.1406,0.211 -0.1406,0.461 0,0.3906 0.2969,0.6484 0.2968,0.2578 0.8593,0.2578 0.5625,0 0.9922,-0.25 Q 4,-1.125 4.2188,-1.5469 4.3594,-1.875 4.3594,-2.5156 Z m 6.2114,0.7656 0.9375,0.125 q -0.1406,0.9844 -0.7891,1.5391 -0.6484,0.5547 -1.5703,0.5547 -1.1718,0 -1.8828,-0.7656 -0.7109,-0.7656 -0.7109,-2.1875 0,-0.9219 0.3047,-1.6172 0.3047,-0.6953 0.9297,-1.0391 0.625,-0.3437 1.3593,-0.3437 0.9219,0 1.5157,0.4687 0.5937,0.4688 0.7656,1.3282 l -0.9531,0.1406 q -0.125,-0.5625 -0.4688,-0.8516 -0.3437,-0.289 -0.8281,-0.289 -0.7188,0 -1.1797,0.5234 -0.4609,0.5234 -0.4609,1.6484 0,1.1563 0.4375,1.6719 0.4375,0.5156 1.1562,0.5156 0.5625,0 0.9453,-0.3437 0.3828,-0.3438 0.4922,-1.0782 z"
         id="path347"
         inkscape:connector-curvature="0" />
    </g>
    <g
       transform="rotate(-90,104.5,58.5)"
       style="font-size:15px;font-family:SansSerif;color-interpolation:linearRGB;fill:#262626;stroke:#262626;color-rendering:optimizeQuality;image-rendering:optimizeQuality;text-rendering:geometricPrecision"
       id="g353">
      <path
         style="stroke:none"
         d="M 6.0269,3.1562 H 5.0737 q 2.1875,-3.5156 2.1875,-7.0312 0,-1.3906 -0.3125,-2.7344 -0.25,-1.1094 -0.6875,-2.1094 -0.2968,-0.6562 -1.1875,-2.2031 h 0.9532 q 1.375,1.8438 2.0312,3.6875 0.5625,1.6094 0.5625,3.3438 0,1.9844 -0.7578,3.8281 Q 7.105,1.7812 6.0269,3.1562 Z m 8.3032,-12.375 v -1.5156 h 1.3125 v 1.5156 z m 0,9.2188 v -7.7812 h 1.3125 V 0 Z m 3.3169,0 v -7.7812 h 1.1875 v 1.1093 q 0.8593,-1.2812 2.4843,-1.2812 0.7032,0 1.2891,0.25 0.5859,0.25 0.8828,0.664 0.2969,0.4141 0.4063,0.9766 0.0781,0.3594 0.0781,1.2813 V 0 H 22.647 v -4.7344 q 0,-0.7968 -0.1485,-1.1953 -0.1484,-0.3984 -0.539,-0.6406 -0.3907,-0.2422 -0.9219,-0.2422 -0.8438,0 -1.4531,0.5313 Q 18.9751,-5.75 18.9751,-4.25 V 0 Z m 11.5097,0 4.125,-10.7344 h 1.5157 L 39.2036,0 h -1.625 l -1.25,-3.25 H 31.8442 L 30.6567,0 Z m 3.0938,-4.4062 h 3.6406 l -1.125,-2.9844 q -0.5156,-1.3438 -0.7656,-2.2188 -0.2031,1.0313 -0.5781,2.0469 z"
         id="path351"
         inkscape:connector-curvature="0" />
    </g>
    <g
       transform="rotate(-90,81,42)"
       style="font-size:11px;font-family:SansSerif;color-interpolation:linearRGB;fill:#262626;stroke:#262626;color-rendering:optimizeQuality;image-rendering:optimizeQuality;text-rendering:geometricPrecision"
       id="g357">
      <path
         style="stroke:none"
         d="M 5.5312,-0.9219 V 0 H 0.3281 q 0,-0.3438 0.125,-0.6719 0.1875,-0.5312 0.625,-1.0469 0.4375,-0.5156 1.2657,-1.1874 1.2812,-1.0626 1.7343,-1.6719 0.4531,-0.6094 0.4531,-1.1563 0,-0.5781 -0.4062,-0.9765 -0.4062,-0.3985 -1.0781,-0.3985 -0.6875,0 -1.1094,0.4219 -0.4219,0.4219 -0.4219,1.1563 l -1,-0.0938 q 0.1094,-1.1094 0.7735,-1.6953 0.664,-0.5859 1.789,-0.5859 1.125,0 1.7891,0.625 0.664,0.625 0.664,1.5624 0,0.4688 -0.1953,0.9297 -0.1953,0.461 -0.6406,0.961 -0.4453,0.5 -1.4922,1.3906 -0.875,0.7187 -1.1172,0.9844 -0.2421,0.2656 -0.414,0.5312 z"
         id="path355"
         inkscape:connector-curvature="0" />
    </g>
    <g
       transform="rotate(-90,81,35)"
       style="font-size:15px;font-family:SansSerif;color-interpolation:linearRGB;fill:#262626;stroke:#262626;color-rendering:optimizeQuality;image-rendering:optimizeQuality;text-rendering:geometricPrecision"
       id="g361">
      <path
         style="stroke:none"
         d="m 1.3594,0 v -1.5 h 1.5 V 0 Z m 4.0112,0 v -10.7344 h 1.4219 v 4.4063 h 5.5781 v -4.4063 h 1.4219 V 0 H 12.3706 V -5.0625 H 6.7925 V 0 Z m 9.9263,0 V -1.0625 L 20.25,-6.75 q -0.8438,0.0469 -1.5,0.0469 h -3.1562 v -1.0781 h 6.3437 v 0.875 l -4.2031,4.9374 -0.8125,0.9063 q 0.8906,-0.0781 1.6562,-0.0781 h 3.5938 V 0 Z"
         id="path359"
         inkscape:connector-curvature="0" />
    </g>
    <g
       transform="rotate(-90,66,27)"
       style="font-size:11px;font-family:SansSerif;color-interpolation:linearRGB;fill:#262626;stroke:#262626;color-rendering:optimizeQuality;image-rendering:optimizeQuality;text-rendering:geometricPrecision"
       id="g365">
      <path
         style="stroke:none"
         d="m 0.3438,-2.3594 v -0.9687 h 2.9687 v 0.9687 z M 7.7568,0 H 6.7881 V -6.1562 Q 6.4443,-5.8281 5.8818,-5.4922 5.3193,-5.1562 4.8662,-5 v -0.9375 q 0.8125,-0.375 1.4141,-0.9141 0.6015,-0.539 0.8515,-1.0546 h 0.625 z"
         id="path363"
         inkscape:connector-curvature="0" />
    </g>
    <g
       transform="translate(73,28)"
       style="font-size:13px;font-family:mwb_cmsy10;color-interpolation:linearRGB;fill:#262626;stroke:#262626;color-rendering:optimizeQuality;image-rendering:optimizeQuality;text-rendering:geometricPrecision"
       id="g369">
      <path
         style="stroke:none"
         d="m 1.9062,-0.375 q 0,-0.0938 0.0626,-0.1875 L 4.6719,-3.25 1.9688,-5.9531 Q 1.9062,-6.0156 1.9062,-6.125 q 0,-0.0938 0.0782,-0.1797 0.0781,-0.0859 0.1875,-0.0859 0.0937,0 0.2031,0.0937 l 2.6875,2.6875 2.6719,-2.6875 q 0.1094,-0.0937 0.1875,-0.0937 0.1093,0 0.1875,0.0781 0.0781,0.0781 0.0781,0.1875 0,0.1094 -0.0625,0.1719 L 5.4219,-3.25 8.125,-0.5625 q 0.0625,0.0937 0.0625,0.1875 0,0.1094 -0.0781,0.1875 -0.0782,0.0781 -0.1875,0.0781 -0.0938,0 -0.1875,-0.0937 L 5.0625,-2.8906 2.375,-0.2031 q -0.1094,0.0937 -0.2031,0.0937 -0.1094,0 -0.1875,-0.0859 Q 1.9062,-0.2812 1.9062,-0.375 Z"
         id="path367"
         inkscape:connector-curvature="0" />
    </g>
    <g
       transform="translate(84,28)"
       style="font-size:13px;font-family:SansSerif;color-interpolation:linearRGB;fill:#262626;stroke:#262626;color-rendering:optimizeQuality;image-rendering:optimizeQuality;text-rendering:geometricPrecision"
       id="g373">
      <path
         style="stroke:none"
         d="M 4.8438,0 H 3.7031 v -7.2812 q -0.4219,0.3906 -1.0859,0.789 -0.6641,0.3984 -1.1953,0.586 v -1.1094 q 0.9531,-0.4375 1.6719,-1.0782 0.7187,-0.6406 1.0156,-1.25 h 0.7344 z m 2.9331,-4.5938 q 0,-1.6406 0.3359,-2.6484 0.3359,-1.0078 1.0078,-1.5547 0.6719,-0.5469 1.6875,-0.5469 0.75,0 1.3125,0.3047 0.5625,0.3047 0.9297,0.8672 0.3672,0.5625 0.5781,1.3828 0.211,0.8203 0.211,2.1953 0,1.6407 -0.336,2.6485 -0.3359,1.0078 -1.0078,1.5547 -0.6719,0.5468 -1.6875,0.5468 -1.3437,0 -2.125,-0.9687 -0.9062,-1.1563 -0.9062,-3.7813 z m 1.1718,0 q 0,2.2969 0.5313,3.0547 0.5312,0.7579 1.3281,0.7579 0.7813,0 1.3203,-0.7579 0.5391,-0.7578 0.5391,-3.0547 0,-2.2968 -0.5391,-3.0468 -0.539,-0.75 -1.3359,-0.75 -0.7813,0 -1.2656,0.6562 -0.5782,0.8594 -0.5782,3.1406 z"
         id="path371"
         inkscape:connector-curvature="0" />
    </g>
    <g
       transform="translate(99,22)"
       style="font-size:11px;font-family:SansSerif;color-interpolation:linearRGB;fill:#262626;stroke:#262626;color-rendering:optimizeQuality;image-rendering:optimizeQuality;text-rendering:geometricPrecision"
       id="g377">
      <path
         style="stroke:none"
         d="m 0.3438,-2.3594 v -0.9687 h 2.9687 v 0.9687 z m 8.8505,1.4375 V 0 H 3.9912 q 0,-0.3438 0.125,-0.6719 0.1875,-0.5312 0.625,-1.0469 0.4375,-0.5156 1.2656,-1.1874 1.2813,-1.0626 1.7344,-1.6719 0.4531,-0.6094 0.4531,-1.1563 0,-0.5781 -0.4062,-0.9765 -0.4063,-0.3985 -1.0781,-0.3985 -0.6875,0 -1.1094,0.4219 -0.4219,0.4219 -0.4219,1.1563 l -1,-0.0938 q 0.1094,-1.1094 0.7734,-1.6953 0.6641,-0.5859 1.7891,-0.5859 1.125,0 1.7891,0.625 0.664,0.625 0.664,1.5624 0,0.4688 -0.1953,0.9297 -0.1953,0.461 -0.6406,0.961 -0.4453,0.5 -1.4922,1.3906 -0.875,0.7187 -1.1172,0.9844 -0.2422,0.2656 -0.414,0.5312 z m 2.524,-3.3437 q -0.5938,-0.2188 -0.8829,-0.6328 -0.289,-0.4141 -0.289,-0.9766 0,-0.8594 0.6172,-1.4453 0.6172,-0.5859 1.6484,-0.5859 1.0313,0 1.6563,0.6015 0.625,0.6016 0.625,1.4609 0,0.5469 -0.2891,0.9532 -0.2891,0.4062 -0.8672,0.625 0.7188,0.2344 1.1016,0.7578 0.3828,0.5234 0.3828,1.2578 0,1.0156 -0.7188,1.7031 -0.7187,0.6875 -1.875,0.6875 -1.1718,0 -1.8828,-0.6953 -0.7109,-0.6953 -0.7109,-1.7265 0,-0.7657 0.3828,-1.2813 0.3828,-0.5156 1.1016,-0.7031 z m -0.1875,-1.6406 q 0,0.5624 0.3593,0.914 0.3594,0.3516 0.9375,0.3516 0.5625,0 0.9141,-0.3516 0.3516,-0.3516 0.3516,-0.8672 0,-0.5312 -0.3672,-0.8906 -0.3672,-0.3594 -0.9141,-0.3594 -0.5469,0 -0.9141,0.3516 -0.3671,0.3516 -0.3671,0.8516 z m -0.3125,3.6406 q 0,0.4062 0.1953,0.7968 0.1953,0.3907 0.5859,0.6016 0.3906,0.211 0.8281,0.211 0.7032,0 1.1485,-0.4454 0.4453,-0.4453 0.4453,-1.1328 0,-0.7031 -0.461,-1.1562 -0.4609,-0.4532 -1.164,-0.4532 -0.6719,0 -1.125,0.4454 -0.4531,0.4453 -0.4531,1.1328 z"
         id="path375"
         inkscape:connector-curvature="0" />
    </g>
    <g
       style="color-interpolation:linearRGB;fill:#ff0000;stroke:#ff0000;stroke-width:1.33329999;stroke-linecap:butt;stroke-linejoin:round;color-rendering:optimizeQuality;image-rendering:optimizeQuality;text-rendering:geometricPrecision"
       id="g443">
      <path
         d="M 72.9566,369.9994 73,370 l 8.68,-0.1147 8.68,-0.3442 8.68,-0.5732 8.68,-0.8019 8.68,-1.0299 8.68,-1.257 8.68,-1.4831 8.68,-1.7081 8.68,-1.9316 8.68,-2.1536 8.68,-2.3738 8.68,-2.5922 8.68,-2.8085 8.68,-3.0224 8.68,-3.2342 8.68,-3.4432 8.68,-3.6496 8.68,-3.8532 8.68,-4.0537 8.68,-4.2512 8.68,-4.4453 8.68,-4.6362 8.68,-4.8234 8.68,-5.0071 8.68,-5.1871 8.68,-5.3632 8.68,-5.5355 8.68,-5.7036 8.68,-5.8678 8.68,-6.0277 8.68,-6.1835 8.68,-6.3348 8.68,-6.4819 8.68,-6.6245 8.68,-6.7627 8.68,-6.8963 8.68,-7.0255 8.68,-7.1501 8.68,-7.27 8.68,-7.3855 8.68,-7.4963 8.68,-7.6025 8.68,-7.704 8.68,-7.801 8.68,-7.8935 8.68,-7.9812 8.68,-8.0645 8.68,-8.1432"
         style="fill:none;fill-rule:evenodd"
         id="path379"
         inkscape:connector-curvature="0" />
      <path
         d="m 480.96,150.066 8.68,-8.1432 8.68,-8.2174 8.68,-8.2873"
         style="fill:none;fill-rule:evenodd"
         id="path381"
         inkscape:connector-curvature="0" />
      <line
         x1="219.0842"
         x2="219.0842"
         y1="343.2562"
         style="fill:none;stroke:#000000"
         y2="332.71179"
         id="line383" />
      <line
         x1="236.90919"
         x2="236.90919"
         y1="335.98761"
         style="fill:none;stroke:#000000"
         y2="323.2626"
         id="line385" />
      <line
         x1="256.90909"
         x2="256.90909"
         y1="337.1409"
         style="fill:none;stroke:#000000"
         y2="295.57391"
         id="line387" />
      <line
         x1="279.34949"
         x2="279.34949"
         y1="313.3288"
         style="fill:none;stroke:#000000"
         y2="268.21469"
         id="line389" />
      <line
         x1="304.52789"
         x2="304.52789"
         y1="275.93881"
         style="fill:none;stroke:#000000"
         y2="212.8567"
         id="line391" />
      <line
         x1="332.77859"
         x2="332.77859"
         y1="296.6109"
         style="fill:none;stroke:#000000"
         y2="221.6469"
         id="line393" />
      <line
         x1="364.47629"
         x2="364.47629"
         y1="215.7641"
         style="fill:none;stroke:#000000"
         y2="132.21339"
         id="line395" />
      <line
         x1="400.0419"
         x2="400.0419"
         y1="210.6615"
         style="fill:none;stroke:#000000"
         y2="125.4924"
         id="line397" />
      <line
         x1="439.94699"
         x2="439.94699"
         y1="196.32291"
         style="fill:none;stroke:#000000"
         y2="114.3423"
         id="line399" />
      <line
         x1="484.72131"
         x2="484.72131"
         y1="115.922"
         style="fill:none;stroke:#000000"
         y2="58.092602"
         id="line401" />
      <line
         x1="216.4279"
         x2="221.7406"
         y1="343.2562"
         style="fill:none;stroke:#000000"
         y2="343.2562"
         id="line403" />
      <line
         x1="234.25281"
         x2="239.5656"
         y1="335.98761"
         style="fill:none;stroke:#000000"
         y2="335.98761"
         id="line405" />
      <line
         x1="254.25281"
         x2="259.56549"
         y1="337.1409"
         style="fill:none;stroke:#000000"
         y2="337.1409"
         id="line407" />
      <line
         x1="276.69312"
         x2="282.0058"
         y1="313.3288"
         style="fill:none;stroke:#000000"
         y2="313.3288"
         id="line409" />
      <line
         x1="301.87149"
         x2="307.1843"
         y1="275.93881"
         style="fill:none;stroke:#000000"
         y2="275.93881"
         id="line411" />
      <line
         x1="330.12219"
         x2="335.43491"
         y1="296.6109"
         style="fill:none;stroke:#000000"
         y2="296.6109"
         id="line413" />
      <line
         x1="361.82001"
         x2="367.13269"
         y1="215.7641"
         style="fill:none;stroke:#000000"
         y2="215.7641"
         id="line415" />
      <line
         x1="397.3855"
         x2="402.69821"
         y1="210.6615"
         style="fill:none;stroke:#000000"
         y2="210.6615"
         id="line417" />
      <line
         x1="437.29059"
         x2="442.60339"
         y1="196.32291"
         style="fill:none;stroke:#000000"
         y2="196.32291"
         id="line419" />
      <line
         x1="482.06491"
         x2="487.37769"
         y1="115.922"
         style="fill:none;stroke:#000000"
         y2="115.922"
         id="line421" />
      <line
         x1="216.4279"
         x2="221.7406"
         y1="332.71179"
         style="fill:none;stroke:#000000"
         y2="332.71179"
         id="line423" />
      <line
         x1="234.25281"
         x2="239.5656"
         y1="323.2626"
         style="fill:none;stroke:#000000"
         y2="323.2626"
         id="line425" />
      <line
         x1="254.25281"
         x2="259.56549"
         y1="295.57391"
         style="fill:none;stroke:#000000"
         y2="295.57391"
         id="line427" />
      <line
         x1="276.69312"
         x2="282.0058"
         y1="268.21469"
         style="fill:none;stroke:#000000"
         y2="268.21469"
         id="line429" />
      <line
         x1="301.87149"
         x2="307.1843"
         y1="212.8567"
         style="fill:none;stroke:#000000"
         y2="212.8567"
         id="line431" />
      <line
         x1="330.12219"
         x2="335.43491"
         y1="221.6469"
         style="fill:none;stroke:#000000"
         y2="221.6469"
         id="line433" />
      <line
         x1="361.82001"
         x2="367.13269"
         y1="132.21339"
         style="fill:none;stroke:#000000"
         y2="132.21339"
         id="line435" />
      <line
         x1="397.3855"
         x2="402.69821"
         y1="125.4924"
         style="fill:none;stroke:#000000"
         y2="125.4924"
         id="line437" />
      <line
         x1="437.29059"
         x2="442.60339"
         y1="114.3423"
         style="fill:none;stroke:#000000"
         y2="114.3423"
         id="line439" />
      <line
         x1="482.06491"
         x2="487.37769"
         y1="58.092602"
         style="fill:none;stroke:#000000"
         y2="58.092602"
         id="line441" />
    </g>
    <g
       style="color-interpolation:sRGB;fill:#0000ff;stroke:#0000ff;color-rendering:optimizeSpeed;image-rendering:optimizeSpeed;shape-rendering:crispEdges;text-rendering:optimizeSpeed"
       id="g447">
      <path
         style="stroke:none"
         d="m 223.5,337.5 -1.1716,-2.8284 -2.8284,-1.1716 -2.8284,1.1716 -1.1716,2.8284 1.1716,2.8284 2.8284,1.1716 2.8284,-1.1716 z"
         id="path445"
         inkscape:connector-curvature="0" />
    </g>
    <g
       style="color-interpolation:linearRGB;stroke-width:1.33329999;stroke-linecap:butt;stroke-linejoin:round;color-rendering:optimizeQuality;image-rendering:optimizeQuality;text-rendering:geometricPrecision"
       id="g451">
      <path
         d="m 223.5,337.5 -0.7639,-2.3511 -2,-1.4531 h -2.4722 l -2,1.4531 -0.7639,2.3511 0.7639,2.3511 2,1.4531 h 2.4722 l 2,-1.4531 z"
         style="fill:none;fill-rule:evenodd"
         id="path449"
         inkscape:connector-curvature="0" />
    </g>
    <g
       style="color-interpolation:sRGB;fill:#0000ff;stroke:#0000ff;color-rendering:optimizeSpeed;image-rendering:optimizeSpeed;shape-rendering:crispEdges;text-rendering:optimizeSpeed"
       id="g455">
      <path
         style="stroke:none"
         d="m 240.5,329.5 -1.1716,-2.8284 -2.8284,-1.1716 -2.8284,1.1716 -1.1716,2.8284 1.1716,2.8284 2.8284,1.1716 2.8284,-1.1716 z"
         id="path453"
         inkscape:connector-curvature="0" />
    </g>
    <g
       style="color-interpolation:linearRGB;stroke-width:1.33329999;stroke-linecap:butt;stroke-linejoin:round;color-rendering:optimizeQuality;image-rendering:optimizeQuality;text-rendering:geometricPrecision"
       id="g459">
      <path
         d="m 240.5,329.5 -0.7639,-2.3511 -2,-1.4531 h -2.4722 l -2,1.4531 -0.7639,2.3511 0.7639,2.3511 2,1.4531 h 2.4722 l 2,-1.4531 z"
         style="fill:none;fill-rule:evenodd"
         id="path457"
         inkscape:connector-curvature="0" />
    </g>
    <g
       style="color-interpolation:sRGB;fill:#0000ff;stroke:#0000ff;color-rendering:optimizeSpeed;image-rendering:optimizeSpeed;shape-rendering:crispEdges;text-rendering:optimizeSpeed"
       id="g463">
      <path
         style="stroke:none"
         d="m 260.5,316.5 -1.1716,-2.8284 -2.8284,-1.1716 -2.8284,1.1716 -1.1716,2.8284 1.1716,2.8284 2.8284,1.1716 2.8284,-1.1716 z"
         id="path461"
         inkscape:connector-curvature="0" />
    </g>
    <g
       style="color-interpolation:linearRGB;stroke-width:1.33329999;stroke-linecap:butt;stroke-linejoin:round;color-rendering:optimizeQuality;image-rendering:optimizeQuality;text-rendering:geometricPrecision"
       id="g467">
      <path
         d="m 260.5,316.5 -0.7639,-2.3511 -2,-1.4531 h -2.4722 l -2,1.4531 -0.7639,2.3511 0.7639,2.3511 2,1.4531 h 2.4722 l 2,-1.4531 z"
         style="fill:none;fill-rule:evenodd"
         id="path465"
         inkscape:connector-curvature="0" />
    </g>
    <g
       style="color-interpolation:sRGB;fill:#0000ff;stroke:#0000ff;color-rendering:optimizeSpeed;image-rendering:optimizeSpeed;shape-rendering:crispEdges;text-rendering:optimizeSpeed"
       id="g471">
      <path
         style="stroke:none"
         d="m 283.5,290.5 -1.1716,-2.8284 -2.8284,-1.1716 -2.8284,1.1716 -1.1716,2.8284 1.1716,2.8284 2.8284,1.1716 2.8284,-1.1716 z"
         id="path469"
         inkscape:connector-curvature="0" />
    </g>
    <g
       style="color-interpolation:linearRGB;stroke-width:1.33329999;stroke-linecap:butt;stroke-linejoin:round;color-rendering:optimizeQuality;image-rendering:optimizeQuality;text-rendering:geometricPrecision"
       id="g475">
      <path
         d="m 283.5,290.5 -0.7639,-2.3511 -2,-1.4531 h -2.4722 l -2,1.4531 -0.7639,2.3511 0.7639,2.3511 2,1.4531 h 2.4722 l 2,-1.4531 z"
         style="fill:none;fill-rule:evenodd"
         id="path473"
         inkscape:connector-curvature="0" />
    </g>
    <g
       style="color-interpolation:sRGB;fill:#0000ff;stroke:#0000ff;color-rendering:optimizeSpeed;image-rendering:optimizeSpeed;shape-rendering:crispEdges;text-rendering:optimizeSpeed"
       id="g479">
      <path
         style="stroke:none"
         d="m 308.5,244.5 -1.1716,-2.8284 -2.8284,-1.1716 -2.8284,1.1716 -1.1716,2.8284 1.1716,2.8284 2.8284,1.1716 2.8284,-1.1716 z"
         id="path477"
         inkscape:connector-curvature="0" />
    </g>
    <g
       style="color-interpolation:linearRGB;stroke-width:1.33329999;stroke-linecap:butt;stroke-linejoin:round;color-rendering:optimizeQuality;image-rendering:optimizeQuality;text-rendering:geometricPrecision"
       id="g483">
      <path
         d="m 308.5,244.5 -0.7639,-2.3511 -2,-1.4531 h -2.4722 l -2,1.4531 -0.7639,2.3511 0.7639,2.3511 2,1.4531 h 2.4722 l 2,-1.4531 z"
         style="fill:none;fill-rule:evenodd"
         id="path481"
         inkscape:connector-curvature="0" />
    </g>
    <g
       style="color-interpolation:sRGB;fill:#0000ff;stroke:#0000ff;color-rendering:optimizeSpeed;image-rendering:optimizeSpeed;shape-rendering:crispEdges;text-rendering:optimizeSpeed"
       id="g487">
      <path
         style="stroke:none"
         d="m 336.5,259.5 -1.1716,-2.8284 -2.8284,-1.1716 -2.8284,1.1716 -1.1716,2.8284 1.1716,2.8284 2.8284,1.1716 2.8284,-1.1716 z"
         id="path485"
         inkscape:connector-curvature="0" />
    </g>
    <g
       style="color-interpolation:linearRGB;stroke-width:1.33329999;stroke-linecap:butt;stroke-linejoin:round;color-rendering:optimizeQuality;image-rendering:optimizeQuality;text-rendering:geometricPrecision"
       id="g491">
      <path
         d="m 336.5,259.5 -0.7639,-2.3511 -2,-1.4531 h -2.4722 l -2,1.4531 -0.7639,2.3511 0.7639,2.3511 2,1.4531 h 2.4722 l 2,-1.4531 z"
         style="fill:none;fill-rule:evenodd"
         id="path489"
         inkscape:connector-curvature="0" />
    </g>
    <g
       style="color-interpolation:sRGB;fill:#0000ff;stroke:#0000ff;color-rendering:optimizeSpeed;image-rendering:optimizeSpeed;shape-rendering:crispEdges;text-rendering:optimizeSpeed"
       id="g495">
      <path
         style="stroke:none"
         d="m 368.5,173.5 -1.1716,-2.8284 -2.8284,-1.1716 -2.8284,1.1716 -1.1716,2.8284 1.1716,2.8284 2.8284,1.1716 2.8284,-1.1716 z"
         id="path493"
         inkscape:connector-curvature="0" />
    </g>
    <g
       style="color-interpolation:linearRGB;stroke-width:1.33329999;stroke-linecap:butt;stroke-linejoin:round;color-rendering:optimizeQuality;image-rendering:optimizeQuality;text-rendering:geometricPrecision"
       id="g499">
      <path
         d="m 368.5,173.5 -0.7639,-2.3511 -2,-1.4531 h -2.4722 l -2,1.4531 -0.7639,2.3511 0.7639,2.3511 2,1.4531 h 2.4722 l 2,-1.4531 z"
         style="fill:none;fill-rule:evenodd"
         id="path497"
         inkscape:connector-curvature="0" />
    </g>
    <g
       style="color-interpolation:sRGB;fill:#0000ff;stroke:#0000ff;color-rendering:optimizeSpeed;image-rendering:optimizeSpeed;shape-rendering:crispEdges;text-rendering:optimizeSpeed"
       id="g503">
      <path
         style="stroke:none"
         d="m 404.5,168.5 -1.1716,-2.8284 -2.8284,-1.1716 -2.8284,1.1716 -1.1716,2.8284 1.1716,2.8284 2.8284,1.1716 2.8284,-1.1716 z"
         id="path501"
         inkscape:connector-curvature="0" />
    </g>
    <g
       style="color-interpolation:linearRGB;stroke-width:1.33329999;stroke-linecap:butt;stroke-linejoin:round;color-rendering:optimizeQuality;image-rendering:optimizeQuality;text-rendering:geometricPrecision"
       id="g507">
      <path
         d="m 404.5,168.5 -0.7639,-2.3511 -2,-1.4531 h -2.4722 l -2,1.4531 -0.7639,2.3511 0.7639,2.3511 2,1.4531 h 2.4722 l 2,-1.4531 z"
         style="fill:none;fill-rule:evenodd"
         id="path505"
         inkscape:connector-curvature="0" />
    </g>
    <g
       style="color-interpolation:sRGB;fill:#0000ff;stroke:#0000ff;color-rendering:optimizeSpeed;image-rendering:optimizeSpeed;shape-rendering:crispEdges;text-rendering:optimizeSpeed"
       id="g511">
      <path
         style="stroke:none"
         d="m 443.5,155.5 -1.1716,-2.8284 -2.8284,-1.1716 -2.8284,1.1716 -1.1716,2.8284 1.1716,2.8284 2.8284,1.1716 2.8284,-1.1716 z"
         id="path509"
         inkscape:connector-curvature="0" />
    </g>
    <g
       style="color-interpolation:linearRGB;stroke-width:1.33329999;stroke-linecap:butt;stroke-linejoin:round;color-rendering:optimizeQuality;image-rendering:optimizeQuality;text-rendering:geometricPrecision"
       id="g515">
      <path
         d="m 443.5,155.5 -0.7639,-2.3511 -2,-1.4531 h -2.4722 l -2,1.4531 -0.7639,2.3511 0.7639,2.3511 2,1.4531 h 2.4722 l 2,-1.4531 z"
         style="fill:none;fill-rule:evenodd"
         id="path513"
         inkscape:connector-curvature="0" />
    </g>
    <g
       style="color-interpolation:sRGB;fill:#0000ff;stroke:#0000ff;color-rendering:optimizeSpeed;image-rendering:optimizeSpeed;shape-rendering:crispEdges;text-rendering:optimizeSpeed"
       id="g519">
      <path
         style="stroke:none"
         d="M 488.5,87.5 487.3284,84.6716 484.5,83.5 481.6716,84.6716 480.5,87.5 l 1.1716,2.8284 2.8284,1.1716 2.8284,-1.1716 z"
         id="path517"
         inkscape:connector-curvature="0" />
    </g>
    <g
       style="color-interpolation:linearRGB;stroke-width:1.33329999;stroke-linecap:butt;stroke-linejoin:round;color-rendering:optimizeQuality;image-rendering:optimizeQuality;text-rendering:geometricPrecision"
       id="g523">
      <path
         d="m 488.5,87.5 -0.7639,-2.3511 -2,-1.4531 h -2.4722 l -2,1.4531 -0.7639,2.3511 0.7639,2.3511 2,1.4531 h 2.4722 l 2,-1.4531 z"
         style="fill:none;fill-rule:evenodd"
         id="path521"
         inkscape:connector-curvature="0" />
    </g>
    <g
       style="color-interpolation:sRGB;fill:#ffffff;stroke:#ffffff;color-rendering:optimizeSpeed;image-rendering:optimizeSpeed;shape-rendering:crispEdges;text-rendering:optimizeSpeed"
       id="g527">
      <path
         style="stroke:none"
         d="M 88,79 V 41 h 169 v 38 z"
         id="path525"
         inkscape:connector-curvature="0" />
    </g>
    <g
       transform="translate(140,51.6667)"
       style="font-family:SansSerif;color-interpolation:linearRGB;color-rendering:optimizeQuality;image-rendering:optimizeQuality;text-rendering:geometricPrecision"
       id="g531">
      <path
         style="stroke:none"
         d="m 0.7969,5 v -6.2188 h 0.9375 v 0.875 q 0.6875,-1.0156 1.9844,-1.0156 0.5624,0 1.039,0.2032 0.4766,0.2031 0.711,0.5312 0.2343,0.3281 0.3281,0.7656 0.0469,0.2969 0.0469,1.0313 V 5 H 4.7969 V 1.2188 Q 4.7969,0.5625 4.6719,0.25 4.5469,-0.0625 4.2344,-0.2578 3.9219,-0.4531 3.5,-0.4531 q -0.6719,0 -1.1641,0.4297 Q 1.8438,0.4062 1.8438,1.5938 V 5 Z M 11.5488,5 V 4.0781 Q 10.8145,5.1406 9.5645,5.1406 9.0176,5.1406 8.541,4.9297 8.0645,4.7188 7.8301,4.3984 7.5957,4.0781 7.502,3.6094 7.4395,3.3125 7.4395,2.625 V -1.2188 H 8.502 v 3.4532 q 0,0.8125 0.0625,1.1094 0.0937,0.4062 0.414,0.6484 0.3203,0.2422 0.8047,0.2422 0.4688,0 0.8828,-0.2422 0.4141,-0.2422 0.5938,-0.6641 0.1797,-0.4219 0.1797,-1.2187 v -3.3282 h 1.0468 V 5 Z m 2.5957,0 v -6.2188 h 0.9375 v 0.875 q 0.2969,-0.4687 0.7813,-0.7421 0.4844,-0.2735 1.1094,-0.2735 0.6875,0 1.1328,0.2813 0.4453,0.2812 0.6172,0.7969 0.75,-1.0782 1.9218,-1.0782 0.9375,0 1.4297,0.5078 0.4922,0.5078 0.4922,1.586 V 5 H 21.5195 V 1.0781 q 0,-0.625 -0.1015,-0.9062 -0.1016,-0.2813 -0.3672,-0.4531 -0.2656,-0.1719 -0.6406,-0.1719 -0.6563,0 -1.086,0.4375 -0.4297,0.4375 -0.4297,1.4062 V 5 H 17.832 V 0.9531 q 0,-0.7031 -0.2578,-1.0547 -0.2578,-0.3515 -0.8359,-0.3515 -0.4531,0 -0.8281,0.2343 -0.375,0.2344 -0.5469,0.6876 -0.1719,0.4531 -0.1719,1.2968 V 5 Z m 14.2461,-2 1.0938,0.125 q -0.25,0.9531 -0.9532,1.4844 -0.7031,0.5312 -1.7812,0.5312 -1.3594,0 -2.1641,-0.8437 -0.8047,-0.8438 -0.8047,-2.3594 0,-1.5625 0.8126,-2.4297 0.8124,-0.8672 2.0937,-0.8672 1.25,0 2.0391,0.8438 0.789,0.8437 0.789,2.3906 0,0.0938 0,0.2812 H 24.875 q 0.0625,1.0313 0.5781,1.5704 0.5157,0.539 1.2969,0.539 0.5781,0 0.9922,-0.3047 Q 28.1562,3.6562 28.3906,3 Z M 24.9375,1.2969 h 3.4687 Q 28.3438,0.5 28.0156,0.1094 27.5,-0.5 26.7031,-0.5 q -0.7343,0 -1.2265,0.4844 -0.4922,0.4844 -0.5391,1.3125 z M 30.7988,5 v -6.2188 h 0.9532 v 0.9376 q 0.3593,-0.6563 0.664,-0.8672 0.3047,-0.211 0.6797,-0.211 0.5313,0 1.0781,0.3282 l -0.3593,0.9843 q -0.3907,-0.2343 -0.7657,-0.2343 -0.3593,0 -0.6328,0.2109 -0.2734,0.2109 -0.3828,0.5859 -0.1875,0.5625 -0.1875,1.2188 V 5 Z m 4.0117,-7.375 v -1.2188 h 1.0625 v 1.2188 z m 0,7.375 V -1.2188 H 35.873 V 5 Z m 6.7286,-2.2812 1.0312,0.1406 q -0.1719,1.0625 -0.875,1.6718 -0.7031,0.6094 -1.7187,0.6094 -1.2813,0 -2.0547,-0.8359 -0.7735,-0.8359 -0.7735,-2.3985 0,-1 0.336,-1.7578 0.3359,-0.7578 1.0156,-1.1328 0.6797,-0.375 1.4922,-0.375 1,0 1.6484,0.5078 0.6485,0.5078 0.836,1.461 L 41.4453,0.7656 Q 41.3047,0.1406 40.9297,-0.1797 40.5547,-0.5 40.0234,-0.5 q -0.7968,0 -1.2968,0.5703 -0.5,0.5703 -0.5,1.8047 0,1.2656 0.4843,1.8281 0.4844,0.5625 1.25,0.5625 0.625,0 1.0391,-0.375 0.4141,-0.375 0.5391,-1.1718 z m 6,1.5156 q -0.5938,0.5 -1.1329,0.7031 -0.539,0.2031 -1.164,0.2031 -1.0313,0 -1.5781,-0.5 -0.5469,-0.5 -0.5469,-1.2812 0,-0.4532 0.2031,-0.836 0.2031,-0.3828 0.5469,-0.6093 0.3437,-0.2266 0.7656,-0.336 0.2969,-0.0937 0.9375,-0.1719 1.2656,-0.1406 1.875,-0.3593 0,-0.2188 0,-0.2657 0,-0.6562 -0.2969,-0.9218 -0.4062,-0.3438 -1.2031,-0.3438 -0.7344,0 -1.0937,0.2578 -0.3594,0.2578 -0.5313,0.9141 L 43.2891,0.5469 q 0.1406,-0.6563 0.4687,-1.0625 0.3281,-0.4063 0.9375,-0.625 0.6094,-0.2188 1.4063,-0.2188 0.7968,0 1.2968,0.1875 0.5,0.1875 0.7344,0.4688 0.2344,0.2812 0.3281,0.7187 0.0469,0.2656 0.0469,0.9688 v 1.4062 q 0,1.4688 0.0703,1.8594 0.0703,0.3906 0.2735,0.75 H 47.7422 Q 47.5859,4.6719 47.5391,4.2344 Z M 47.4453,1.875 q -0.5781,0.2344 -1.7187,0.4062 -0.6563,0.0938 -0.9219,0.211 -0.2656,0.1172 -0.4141,0.3359 -0.1484,0.2188 -0.1484,0.5 0,0.4219 0.3203,0.7031 0.3203,0.2813 0.9297,0.2813 0.6094,0 1.0859,-0.2656 0.4766,-0.2657 0.6953,-0.7344 0.1719,-0.3594 0.1719,-1.0469 z M 50.1191,5 v -8.5938 h 1.0625 V 5 Z m 10.0938,-2.2812 1.0312,0.1406 q -0.1718,1.0625 -0.875,1.6718 -0.7031,0.6094 -1.7187,0.6094 -1.2813,0 -2.0547,-0.8359 -0.7734,-0.8359 -0.7734,-2.3985 0,-1 0.3359,-1.7578 0.3359,-0.7578 1.0156,-1.1328 0.6797,-0.375 1.4922,-0.375 1,0 1.6485,0.5078 0.6484,0.5078 0.8359,1.461 L 60.1191,0.7656 Q 59.9785,0.1406 59.6035,-0.1797 59.2285,-0.5 58.6973,-0.5 q -0.7969,0 -1.2969,0.5703 -0.5,0.5703 -0.5,1.8047 0,1.2656 0.4844,1.8281 0.4843,0.5625 1.25,0.5625 0.625,0 1.039,-0.375 0.4141,-0.375 0.5391,-1.1718 z m 6,1.5156 q -0.5938,0.5 -1.1328,0.7031 -0.5391,0.2031 -1.1641,0.2031 -1.0312,0 -1.5781,-0.5 -0.5469,-0.5 -0.5469,-1.2812 0,-0.4532 0.2031,-0.836 0.2032,-0.3828 0.5469,-0.6093 0.3438,-0.2266 0.7656,-0.336 0.2969,-0.0937 0.9375,-0.1719 1.2657,-0.1406 1.875,-0.3593 0,-0.2188 0,-0.2657 0,-0.6562 -0.2968,-0.9218 -0.4063,-0.3438 -1.2032,-0.3438 -0.7343,0 -1.0937,0.2578 -0.3594,0.2578 -0.5313,0.9141 L 61.9629,0.5469 q 0.1406,-0.6563 0.4687,-1.0625 0.3282,-0.4063 0.9375,-0.625 0.6094,-0.2188 1.4063,-0.2188 0.7969,0 1.2969,0.1875 0.5,0.1875 0.7343,0.4688 0.2344,0.2812 0.3282,0.7187 0.0468,0.2656 0.0468,0.9688 v 1.4062 q 0,1.4688 0.0704,1.8594 0.0703,0.3906 0.2734,0.75 H 66.416 Q 66.2598,4.6719 66.2129,4.2344 Z M 66.1191,1.875 q -0.5781,0.2344 -1.7187,0.4062 -0.6563,0.0938 -0.9219,0.211 -0.2656,0.1172 -0.414,0.3359 -0.1485,0.2188 -0.1485,0.5 0,0.4219 0.3203,0.7031 0.3203,0.2813 0.9297,0.2813 0.6094,0 1.086,-0.2656 0.4765,-0.2657 0.6953,-0.7344 0.1718,-0.3594 0.1718,-1.0469 z M 68.793,5 v -8.5938 h 1.0625 V 5 Z m 6.7597,-2.2812 1.0313,0.1406 q -0.1719,1.0625 -0.875,1.6718 -0.7031,0.6094 -1.7188,0.6094 -1.2812,0 -2.0547,-0.8359 -0.7734,-0.8359 -0.7734,-2.3985 0,-1 0.3359,-1.7578 0.336,-0.7578 1.0157,-1.1328 0.6797,-0.375 1.4922,-0.375 1,0 1.6484,0.5078 0.6484,0.5078 0.8359,1.461 L 75.459,0.7656 Q 75.3184,0.1406 74.9434,-0.1797 74.5684,-0.5 74.0371,-0.5 q -0.7969,0 -1.2969,0.5703 -0.5,0.5703 -0.5,1.8047 0,1.2656 0.4844,1.8281 0.4844,0.5625 1.25,0.5625 0.625,0 1.0391,-0.375 0.414,-0.375 0.539,-1.1718 z M 81.5684,5 V 4.0781 Q 80.834,5.1406 79.584,5.1406 79.0371,5.1406 78.5605,4.9297 78.084,4.7188 77.8496,4.3984 77.6152,4.0781 77.5215,3.6094 77.459,3.3125 77.459,2.625 v -3.8438 h 1.0625 v 3.4532 q 0,0.8125 0.0625,1.1094 0.0937,0.4062 0.414,0.6484 0.3204,0.2422 0.8047,0.2422 0.4688,0 0.8828,-0.2422 Q 81.0996,3.75 81.2793,3.3281 81.459,2.9062 81.459,2.1094 v -3.3282 h 1.0469 V 5 Z m 2.5644,0 v -8.5938 h 1.0625 V 5 Z m 6.7598,-0.7656 q -0.5938,0.5 -1.1328,0.7031 -0.5391,0.2031 -1.1641,0.2031 -1.0312,0 -1.5781,-0.5 -0.5469,-0.5 -0.5469,-1.2812 0,-0.4532 0.2031,-0.836 0.2032,-0.3828 0.5469,-0.6093 0.3438,-0.2266 0.7656,-0.336 0.2969,-0.0937 0.9375,-0.1719 1.2657,-0.1406 1.875,-0.3593 0,-0.2188 0,-0.2657 0,-0.6562 -0.2968,-0.9218 -0.4063,-0.3438 -1.2032,-0.3438 -0.7343,0 -1.0937,0.2578 -0.3594,0.2578 -0.5313,0.9141 L 86.6426,0.5469 q 0.1406,-0.6563 0.4687,-1.0625 0.3282,-0.4063 0.9375,-0.625 0.6094,-0.2188 1.4063,-0.2188 0.7969,0 1.2969,0.1875 0.5,0.1875 0.7343,0.4688 0.2344,0.2812 0.3282,0.7187 0.0468,0.2656 0.0468,0.9688 v 1.4062 q 0,1.4688 0.0703,1.8594 Q 92.002,4.6406 92.2051,5 H 91.0957 Q 90.9395,4.6719 90.8926,4.2344 Z M 90.7988,1.875 q -0.5781,0.2344 -1.7187,0.4062 -0.6563,0.0938 -0.9219,0.211 -0.2656,0.1172 -0.4141,0.3359 -0.1484,0.2188 -0.1484,0.5 0,0.4219 0.3203,0.7031 0.3203,0.2813 0.9297,0.2813 0.6094,0 1.0859,-0.2656 0.4766,-0.2657 0.6954,-0.7344 0.1718,-0.3594 0.1718,-1.0469 z m 5.002,2.1875 0.1562,0.9219 q -0.4531,0.0937 -0.7968,0.0937 -0.5782,0 -0.8907,-0.1797 Q 93.957,4.7188 93.8242,4.4219 93.6914,4.125 93.6914,3.1719 v -3.5781 h -0.7656 v -0.8126 h 0.7656 v -1.5468 l 1.0469,-0.625 v 2.1718 h 1.0625 v 0.8126 h -1.0625 v 3.6406 q 0,0.4531 0.0547,0.5781 0.0547,0.125 0.1797,0.2031 0.125,0.0782 0.3593,0.0782 0.1875,0 0.4688,-0.0313 z m 1.0371,-6.4375 v -1.2188 h 1.0625 v 1.2188 z m 0,7.375 v -6.2188 h 1.0625 V 5 Z m 2.2754,-3.1094 q 0,-1.7344 0.9531,-2.5625 0.7969,-0.6875 1.9531,-0.6875 1.2813,0 2.1016,0.836 0.8203,0.8359 0.8203,2.3203 0,1.2031 -0.3594,1.8906 -0.3593,0.6875 -1.0547,1.0703 -0.6953,0.3828 -1.5078,0.3828 -1.2968,0 -2.1015,-0.8359 -0.8047,-0.8359 -0.8047,-2.4141 z m 1.0781,0 q 0,1.1875 0.5234,1.7813 0.5235,0.5937 1.3047,0.5937 0.7969,0 1.3125,-0.5937 0.5157,-0.5938 0.5157,-1.8125 0,-1.1563 -0.5235,-1.75 -0.5234,-0.5938 -1.3047,-0.5938 -0.7812,0 -1.3047,0.586 -0.5234,0.5859 -0.5234,1.789 z M 106.1777,5 v -6.2188 h 0.9375 v 0.875 q 0.6875,-1.0156 1.9844,-1.0156 0.5625,0 1.0391,0.2032 0.4765,0.2031 0.7109,0.5312 0.2344,0.3281 0.3281,0.7656 0.0469,0.2969 0.0469,1.0313 V 5 h -1.0469 V 1.2188 q 0,-0.6563 -0.125,-0.9688 -0.125,-0.3125 -0.4375,-0.5078 -0.3125,-0.1953 -0.7343,-0.1953 -0.6719,0 -1.1641,0.4297 -0.4922,0.4296 -0.4922,1.6172 V 5 Z"
         id="path529"
         inkscape:connector-curvature="0" />
    </g>
    <g
       style="color-interpolation:linearRGB;fill:#ff0000;stroke:#ff0000;stroke-width:1.33329999;stroke-linecap:butt;stroke-linejoin:round;color-rendering:optimizeQuality;image-rendering:optimizeQuality;text-rendering:geometricPrecision"
       id="g535">
      <line
         y2="51.666698"
         style="fill:none"
         x1="96"
         x2="136"
         y1="51.666698"
         id="line533" />
    </g>
    <g
       transform="translate(140,68.3333)"
       style="font-family:SansSerif;color-interpolation:linearRGB;color-rendering:optimizeQuality;image-rendering:optimizeQuality;text-rendering:geometricPrecision"
       id="g539">
      <path
         style="stroke:none"
         d="M 4.8281,5 V 4.2188 q -0.5937,0.9218 -1.7343,0.9218 -0.75,0 -1.375,-0.414 Q 1.0938,4.3125 0.75,3.5781 0.4062,2.8438 0.4062,1.8906 q 0,-0.9218 0.3126,-1.6875 0.3124,-0.7656 0.9374,-1.164 0.625,-0.3985 1.3907,-0.3985 0.5625,0 1,0.2344 0.4375,0.2344 0.7187,0.6094 V -3.5938 H 5.8125 V 5 Z M 1.5,1.8906 q 0,1.2032 0.5,1.7891 0.5,0.5859 1.1875,0.5859 0.6875,0 1.1719,-0.5625 0.4844,-0.5625 0.4844,-1.7187 0,-1.2813 -0.4922,-1.875 -0.4922,-0.5938 -1.211,-0.5938 -0.7031,0 -1.1718,0.5703 Q 1.5,0.6562 1.5,1.8906 Z m 10.0332,2.3438 q -0.5937,0.5 -1.1328,0.7031 -0.5391,0.2031 -1.1641,0.2031 -1.0312,0 -1.5781,-0.5 -0.5469,-0.5 -0.5469,-1.2812 0,-0.4532 0.2032,-0.836 Q 7.5176,2.1406 7.8613,1.9141 8.2051,1.6875 8.627,1.5781 8.9238,1.4844 9.5645,1.4062 q 1.2656,-0.1406 1.875,-0.3593 0,-0.2188 0,-0.2657 0,-0.6562 -0.2969,-0.9218 -0.4063,-0.3438 -1.2031,-0.3438 -0.7344,0 -1.0938,0.2578 Q 8.4863,0.0312 8.3145,0.6875 L 7.2832,0.5469 q 0.1406,-0.6563 0.4688,-1.0625 0.3281,-0.4063 0.9375,-0.625 0.6093,-0.2188 1.4062,-0.2188 0.7969,0 1.2969,0.1875 0.5,0.1875 0.7344,0.4688 0.2343,0.2812 0.3281,0.7187 0.0469,0.2656 0.0469,0.9688 v 1.4062 q 0,1.4688 0.0703,1.8594 0.0703,0.3906 0.2734,0.75 H 11.7363 Q 11.5801,4.6719 11.5332,4.2344 Z M 11.4395,1.875 Q 10.8613,2.1094 9.7207,2.2812 9.0645,2.375 8.7988,2.4922 8.5332,2.6094 8.3848,2.8281 q -0.1485,0.2188 -0.1485,0.5 0,0.4219 0.3203,0.7031 0.3204,0.2813 0.9297,0.2813 0.6094,0 1.086,-0.2656 0.4765,-0.2657 0.6953,-0.7344 0.1719,-0.3594 0.1719,-1.0469 z m 5.0019,2.1875 0.1563,0.9219 q -0.4532,0.0937 -0.7969,0.0937 -0.5781,0 -0.8906,-0.1797 Q 14.5977,4.7188 14.4648,4.4219 14.332,4.125 14.332,3.1719 v -3.5781 h -0.7656 v -0.8126 h 0.7656 v -1.5468 l 1.0469,-0.625 v 2.1718 h 1.0625 v 0.8126 h -1.0625 v 3.6406 q 0,0.4531 0.0547,0.5781 0.0547,0.125 0.1797,0.2031 0.125,0.0782 0.3594,0.0782 0.1875,0 0.4687,-0.0313 z m 5.0996,0.1719 q -0.5937,0.5 -1.1328,0.7031 -0.5391,0.2031 -1.1641,0.2031 -1.0312,0 -1.5781,-0.5 -0.5469,-0.5 -0.5469,-1.2812 0,-0.4532 0.2032,-0.836 0.2031,-0.3828 0.5468,-0.6093 0.3438,-0.2266 0.7657,-0.336 0.2968,-0.0937 0.9375,-0.1719 1.2656,-0.1406 1.875,-0.3593 0,-0.2188 0,-0.2657 0,-0.6562 -0.2969,-0.9218 -0.4063,-0.3438 -1.2031,-0.3438 -0.7344,0 -1.0938,0.2578 -0.3594,0.2578 -0.5312,0.9141 L 17.291,0.5469 q 0.1406,-0.6563 0.4688,-1.0625 0.3281,-0.4063 0.9375,-0.625 0.6093,-0.2188 1.4062,-0.2188 0.7969,0 1.2969,0.1875 0.5,0.1875 0.7344,0.4688 0.2343,0.2812 0.3281,0.7187 0.0469,0.2656 0.0469,0.9688 v 1.4062 q 0,1.4688 0.0703,1.8594 0.0703,0.3906 0.2734,0.75 H 21.7441 Q 21.5879,4.6719 21.541,4.2344 Z M 21.4473,1.875 q -0.5782,0.2344 -1.7188,0.4062 -0.6562,0.0938 -0.9219,0.211 -0.2656,0.1172 -0.414,0.3359 -0.1485,0.2188 -0.1485,0.5 0,0.4219 0.3204,0.7031 0.3203,0.2813 0.9296,0.2813 0.6094,0 1.086,-0.2656 0.4765,-0.2657 0.6953,-0.7344 0.1719,-0.3594 0.1719,-1.0469 z m 6.039,5.5156 v -8.6094 h 0.9532 v 0.7969 q 0.3437,-0.4687 0.7734,-0.7031 0.4297,-0.2344 1.0391,-0.2344 0.7968,0 1.4062,0.4063 0.6094,0.4062 0.9141,1.1562 0.3047,0.75 0.3047,1.6407 0,0.9531 -0.336,1.7187 -0.3359,0.7656 -0.9922,1.1719 -0.6562,0.4062 -1.375,0.4062 -0.5312,0 -0.9531,-0.2265 -0.4219,-0.2266 -0.6875,-0.5547 v 3.0312 z m 0.9532,-5.4687 q 0,1.2031 0.4843,1.7734 0.4844,0.5703 1.1719,0.5703 0.7031,0 1.2031,-0.5937 0.5,-0.5938 0.5,-1.8438 0,-1.1875 -0.4843,-1.7734 -0.4844,-0.5859 -1.1719,-0.5859 -0.6719,0 -1.1875,0.625 -0.5156,0.625 -0.5156,1.8281 z m 5.33,-0.0313 q 0,-1.7344 0.9532,-2.5625 0.7968,-0.6875 1.9531,-0.6875 1.2812,0 2.1015,0.836 0.8204,0.8359 0.8204,2.3203 0,1.2031 -0.3594,1.8906 -0.3594,0.6875 -1.0547,1.0703 -0.6953,0.3828 -1.5078,0.3828 -1.2969,0 -2.1016,-0.8359 -0.8047,-0.8359 -0.8047,-2.4141 z m 1.0782,0 q 0,1.1875 0.5234,1.7813 0.5234,0.5937 1.3047,0.5937 0.7969,0 1.3125,-0.5937 0.5156,-0.5938 0.5156,-1.8125 0,-1.1563 -0.5234,-1.75 -0.5235,-0.5938 -1.3047,-0.5938 -0.7813,0 -1.3047,0.586 -0.5234,0.5859 -0.5234,1.789 z M 40.834,-2.375 v -1.2188 h 1.0625 v 1.2188 z m 0,7.375 v -6.2188 h 1.0625 V 5 Z M 43.5,5 v -6.2188 h 0.9375 v 0.875 q 0.6875,-1.0156 1.9844,-1.0156 0.5625,0 1.039,0.2032 0.4766,0.2031 0.711,0.5312 0.2343,0.3281 0.3281,0.7656 0.0469,0.2969 0.0469,1.0313 V 5 H 47.5 V 1.2188 Q 47.5,0.5625 47.375,0.25 47.25,-0.0625 46.9375,-0.2578 46.625,-0.4531 46.2031,-0.4531 q -0.6719,0 -1.164,0.4297 -0.4922,0.4296 -0.4922,1.6172 V 5 Z m 8.9707,-0.9375 0.1563,0.9219 q -0.4532,0.0937 -0.7969,0.0937 -0.5781,0 -0.8906,-0.1797 Q 50.627,4.7188 50.4941,4.4219 50.3613,4.125 50.3613,3.1719 v -3.5781 h -0.7656 v -0.8126 h 0.7656 v -1.5468 l 1.0469,-0.625 v 2.1718 h 1.0625 v 0.8126 h -1.0625 v 3.6406 q 0,0.4531 0.0547,0.5781 0.0547,0.125 0.1797,0.2031 0.125,0.0782 0.3594,0.0782 0.1875,0 0.4687,-0.0313 z m 0.6152,-0.9219 1.0313,-0.1562 q 0.0937,0.625 0.4922,0.9531 0.3984,0.3281 1.1328,0.3281 0.7187,0 1.0703,-0.289 0.3516,-0.2891 0.3516,-0.6954 0,-0.3593 -0.3125,-0.5624 Q 56.6328,2.5781 55.7734,2.3594 54.6172,2.0625 54.1719,1.8516 53.7266,1.6406 53.4922,1.2656 53.2578,0.8906 53.2578,0.4219 q 0,-0.4063 0.1875,-0.7657 0.1875,-0.3593 0.5156,-0.5937 0.25,-0.1719 0.6719,-0.2969 0.4219,-0.125 0.9219,-0.125 0.7187,0 1.2734,0.211 0.5547,0.2109 0.8203,0.5703 0.2657,0.3593 0.3594,0.9531 L 56.9766,0.5156 Q 56.9141,0.0469 56.5781,-0.2266 56.2422,-0.5 55.6172,-0.5 q -0.7188,0 -1.0313,0.2422 -0.3125,0.2422 -0.3125,0.5703 0,0.2031 0.125,0.3594 0.1407,0.1719 0.4063,0.2812 0.1562,0.0625 0.9375,0.2657 1.125,0.3124 1.5625,0.5 0.4375,0.1874 0.6875,0.5468 0.25,0.3594 0.25,0.9063 0,0.5312 -0.3047,0.9922 -0.3047,0.4609 -0.8828,0.7187 -0.5781,0.2578 -1.3125,0.2578 -1.2188,0 -1.8516,-0.5078 Q 53.2578,4.125 53.0859,3.1406 Z"
         id="path537"
         inkscape:connector-curvature="0" />
    </g>
    <g
       style="color-interpolation:sRGB;fill:#0000ff;stroke:#0000ff;color-rendering:optimizeSpeed;image-rendering:optimizeSpeed;shape-rendering:crispEdges;text-rendering:optimizeSpeed"
       id="g543">
      <path
         style="stroke:none"
         d="M 120.5,68.5 119.3284,65.6716 116.5,64.5 113.6716,65.6716 112.5,68.5 l 1.1716,2.8284 2.8284,1.1716 2.8284,-1.1716 z"
         id="path541"
         inkscape:connector-curvature="0" />
    </g>
    <g
       style="color-interpolation:linearRGB;stroke-width:1.33329999;stroke-linecap:butt;stroke-linejoin:round;color-rendering:optimizeQuality;image-rendering:optimizeQuality;text-rendering:geometricPrecision"
       id="g547">
      <path
         d="m 120.5,68.5 -0.7639,-2.3511 -2,-1.4531 h -2.4722 l -2,1.4531 -0.7639,2.3511 0.7639,2.3511 2,1.4531 h 2.4722 l 2,-1.4531 z"
         style="fill:none;fill-rule:evenodd"
         id="path545"
         inkscape:connector-curvature="0" />
    </g>
    <g
       style="color-interpolation:linearRGB;fill:#262626;stroke:#262626;stroke-width:0.66670001;stroke-linecap:butt;color-rendering:optimizeQuality;image-rendering:optimizeQuality;text-rendering:geometricPrecision"
       id="g551">
      <path
         d="M 88,79 V 41 h 169 v 38 z"
         style="fill:none;fill-rule:evenodd"
         id="path549"
         inkscape:connector-curvature="0" />
    </g>
  </g>
</svg>
