<?xml version="1.0" encoding="UTF-8" standalone="no"?>
<svg
   xmlns:dc="http://purl.org/dc/elements/1.1/"
   xmlns:cc="http://creativecommons.org/ns#"
   xmlns:rdf="http://www.w3.org/1999/02/22-rdf-syntax-ns#"
   xmlns:svg="http://www.w3.org/2000/svg"
   xmlns="http://www.w3.org/2000/svg"
   xmlns:sodipodi="http://sodipodi.sourceforge.net/DTD/sodipodi-0.dtd"
   xmlns:inkscape="http://www.inkscape.org/namespaces/inkscape"
   style="font-style:normal;font-weight:normal;font-size:12px;font-family:Dialog;color-interpolation:auto;fill:#000000;fill-opacity:1;stroke:#000000;stroke-width:1;stroke-linecap:square;stroke-linejoin:miter;stroke-miterlimit:10;stroke-dasharray:none;stroke-dashoffset:0;stroke-opacity:1;color-rendering:auto;image-rendering:auto;shape-rendering:auto;text-rendering:auto"
   width="487.13699"
   height="386.45834"
   version="1.1"
   id="svg329"
   sodipodi:docname="nu_1_D_vs_Vdc_for_several_Vqpc.svg"
   inkscape:version="0.92.3 (2405546, 2018-03-11)">
  <metadata
     id="metadata333">
    <rdf:RDF>
      <cc:Work
         rdf:about="">
        <dc:format>image/svg+xml</dc:format>
        <dc:type
           rdf:resource="http://purl.org/dc/dcmitype/StillImage" />
      </cc:Work>
    </rdf:RDF>
  </metadata>
  <sodipodi:namedview
     pagecolor="#ffffff"
     bordercolor="#666666"
     borderopacity="1"
     objecttolerance="10"
     gridtolerance="10"
     guidetolerance="10"
     inkscape:pageopacity="0"
     inkscape:pageshadow="2"
     inkscape:window-width="1920"
     inkscape:window-height="1017"
     id="namedview331"
     showgrid="false"
     inkscape:zoom="1.5893067"
     inkscape:cx="222.27834"
     inkscape:cy="218.91871"
     inkscape:window-x="1592"
     inkscape:window-y="-8"
     inkscape:window-maximized="1"
     inkscape:current-layer="svg329" />
  <!--Generated by the Batik Graphics2D SVG Generator-->
  <defs
     id="genericDefs">
    <defs
       id="defs1">
      <clipPath
         id="clipPath1"
         clipPathUnits="userSpaceOnUse">
        <path
           id="path3"
           d="M 0,0 H 560 V 420 H 0 Z"
           inkscape:connector-curvature="0" />
      </clipPath>
    </defs>
  </defs>
  <g
     id="g99"
     style="color-interpolation:linearRGB;fill:#262626;fill-opacity:0.14900004;stroke:#262626;stroke-width:0.66670001;stroke-linecap:butt;stroke-linejoin:round;stroke-opacity:0.14900004;color-rendering:optimizeQuality;image-rendering:optimizeQuality;text-rendering:geometricPrecision"
     transform="translate(-29.9323,-30.66665)">
    <line
       id="line17"
       y1="370"
       x2="73"
       x1="73"
       style="fill:none"
       y2="31" />
    <line
       id="line19"
       y1="370"
       x2="116.4"
       x1="116.4"
       style="fill:none"
       y2="31" />
    <line
       id="line21"
       y1="370"
       x2="159.8"
       x1="159.8"
       style="fill:none"
       y2="31" />
    <line
       id="line23"
       y1="370"
       x2="203.2"
       x1="203.2"
       style="fill:none"
       y2="31" />
    <line
       id="line25"
       y1="370"
       x2="246.60001"
       x1="246.60001"
       style="fill:none"
       y2="31" />
    <line
       id="line27"
       y1="370"
       x2="290"
       x1="290"
       style="fill:none"
       y2="31" />
    <line
       id="line29"
       y1="370"
       x2="333.39999"
       x1="333.39999"
       style="fill:none"
       y2="31" />
    <line
       id="line31"
       y1="370"
       x2="376.79999"
       x1="376.79999"
       style="fill:none"
       y2="31" />
    <line
       id="line33"
       y1="370"
       x2="420.20001"
       x1="420.20001"
       style="fill:none"
       y2="31" />
    <line
       id="line35"
       y1="370"
       x2="463.60001"
       x1="463.60001"
       style="fill:none"
       y2="31" />
    <line
       id="line37"
       y1="370"
       x2="507"
       x1="507"
       style="fill:none"
       y2="31" />
    <line
       id="line39"
       y1="341.75"
       x2="73"
       x1="507"
       style="fill:none"
       y2="341.75" />
    <line
       id="line41"
       y1="285.25"
       x2="73"
       x1="507"
       style="fill:none"
       y2="285.25" />
    <line
       id="line43"
       y1="228.75"
       x2="73"
       x1="507"
       style="fill:none"
       y2="228.75" />
    <line
       id="line45"
       y1="172.25"
       x2="73"
       x1="507"
       style="fill:none"
       y2="172.25" />
    <line
       id="line47"
       y1="115.75"
       x2="73"
       x1="507"
       style="fill:none"
       y2="115.75" />
    <line
       id="line49"
       y1="59.25"
       x2="73"
       x1="507"
       style="fill:none"
       y2="59.25" />
    <line
       id="line51"
       y2="370"
       style="fill:none;fill-opacity:1;stroke-linecap:square;stroke-opacity:1"
       y1="370"
       x2="507"
       x1="73" />
    <line
       id="line53"
       y2="31"
       style="fill:none;fill-opacity:1;stroke-linecap:square;stroke-opacity:1"
       y1="31"
       x2="507"
       x1="73" />
    <line
       id="line55"
       y2="365.66"
       style="fill:none;fill-opacity:1;stroke-linecap:square;stroke-opacity:1"
       y1="370"
       x2="73"
       x1="73" />
    <line
       id="line57"
       y2="365.66"
       style="fill:none;fill-opacity:1;stroke-linecap:square;stroke-opacity:1"
       y1="370"
       x2="116.4"
       x1="116.4" />
    <line
       id="line59"
       y2="365.66"
       style="fill:none;fill-opacity:1;stroke-linecap:square;stroke-opacity:1"
       y1="370"
       x2="159.8"
       x1="159.8" />
    <line
       id="line61"
       y2="365.66"
       style="fill:none;fill-opacity:1;stroke-linecap:square;stroke-opacity:1"
       y1="370"
       x2="203.2"
       x1="203.2" />
    <line
       id="line63"
       y2="365.66"
       style="fill:none;fill-opacity:1;stroke-linecap:square;stroke-opacity:1"
       y1="370"
       x2="246.60001"
       x1="246.60001" />
    <line
       id="line65"
       y2="365.66"
       style="fill:none;fill-opacity:1;stroke-linecap:square;stroke-opacity:1"
       y1="370"
       x2="290"
       x1="290" />
    <line
       id="line67"
       y2="365.66"
       style="fill:none;fill-opacity:1;stroke-linecap:square;stroke-opacity:1"
       y1="370"
       x2="333.39999"
       x1="333.39999" />
    <line
       id="line69"
       y2="365.66"
       style="fill:none;fill-opacity:1;stroke-linecap:square;stroke-opacity:1"
       y1="370"
       x2="376.79999"
       x1="376.79999" />
    <line
       id="line71"
       y2="365.66"
       style="fill:none;fill-opacity:1;stroke-linecap:square;stroke-opacity:1"
       y1="370"
       x2="420.20001"
       x1="420.20001" />
    <line
       id="line73"
       y2="365.66"
       style="fill:none;fill-opacity:1;stroke-linecap:square;stroke-opacity:1"
       y1="370"
       x2="463.60001"
       x1="463.60001" />
    <line
       id="line75"
       y2="365.66"
       style="fill:none;fill-opacity:1;stroke-linecap:square;stroke-opacity:1"
       y1="370"
       x2="507"
       x1="507" />
    <line
       id="line77"
       y2="35.34"
       style="fill:none;fill-opacity:1;stroke-linecap:square;stroke-opacity:1"
       y1="31"
       x2="73"
       x1="73" />
    <line
       id="line79"
       y2="35.34"
       style="fill:none;fill-opacity:1;stroke-linecap:square;stroke-opacity:1"
       y1="31"
       x2="116.4"
       x1="116.4" />
    <line
       id="line81"
       y2="35.34"
       style="fill:none;fill-opacity:1;stroke-linecap:square;stroke-opacity:1"
       y1="31"
       x2="159.8"
       x1="159.8" />
    <line
       id="line83"
       y2="35.34"
       style="fill:none;fill-opacity:1;stroke-linecap:square;stroke-opacity:1"
       y1="31"
       x2="203.2"
       x1="203.2" />
    <line
       id="line85"
       y2="35.34"
       style="fill:none;fill-opacity:1;stroke-linecap:square;stroke-opacity:1"
       y1="31"
       x2="246.60001"
       x1="246.60001" />
    <line
       id="line87"
       y2="35.34"
       style="fill:none;fill-opacity:1;stroke-linecap:square;stroke-opacity:1"
       y1="31"
       x2="290"
       x1="290" />
    <line
       id="line89"
       y2="35.34"
       style="fill:none;fill-opacity:1;stroke-linecap:square;stroke-opacity:1"
       y1="31"
       x2="333.39999"
       x1="333.39999" />
    <line
       id="line91"
       y2="35.34"
       style="fill:none;fill-opacity:1;stroke-linecap:square;stroke-opacity:1"
       y1="31"
       x2="376.79999"
       x1="376.79999" />
    <line
       id="line93"
       y2="35.34"
       style="fill:none;fill-opacity:1;stroke-linecap:square;stroke-opacity:1"
       y1="31"
       x2="420.20001"
       x1="420.20001" />
    <line
       id="line95"
       y2="35.34"
       style="fill:none;fill-opacity:1;stroke-linecap:square;stroke-opacity:1"
       y1="31"
       x2="463.60001"
       x1="463.60001" />
    <line
       id="line97"
       y2="35.34"
       style="fill:none;fill-opacity:1;stroke-linecap:square;stroke-opacity:1"
       y1="31"
       x2="507"
       x1="507" />
  </g>
  <g
     id="g103"
     style="font-size:13px;font-family:SansSerif;color-interpolation:linearRGB;fill:#262626;stroke:#262626;color-rendering:optimizeQuality;image-rendering:optimizeQuality;text-rendering:geometricPrecision"
     transform="translate(43.0677,344.66665)">
    <path
       inkscape:connector-curvature="0"
       id="path101"
       d="m -13.0938,11.2031 v -1.1406 h 3.5157 v 1.1406 z M -2.624,12.9062 V 14 h -6.1563 q -0.0156,-0.4062 0.1407,-0.7969 0.2343,-0.625 0.75,-1.2343 0.5156,-0.6094 1.5,-1.4063 1.5156,-1.25 2.0468,-1.9766 0.5313,-0.7265 0.5313,-1.3671 0,-0.6876 -0.4844,-1.1485 -0.4844,-0.4609 -1.2656,-0.4609 -0.8281,0 -1.3203,0.4922 -0.4922,0.4922 -0.5078,1.3672 l -1.1719,-0.125 q 0.125,-1.3126 0.9062,-2 0.7813,-0.6876 2.1094,-0.6876 1.3438,0 2.125,0.7422 0.7813,0.7422 0.7813,1.836 0,0.5625 -0.2266,1.1015 -0.2266,0.5391 -0.7578,1.1407 -0.5313,0.6015 -1.7656,1.6328 -1.0313,0.8594 -1.3204,1.1718 -0.289,0.3126 -0.4765,0.625 z m 1.23,-1.3437 1.1875,-0.1094 q 0.1406,0.8907 0.625,1.3281 0.4843,0.4376 1.1718,0.4376 0.8282,0 1.3985,-0.625 0.5703,-0.625 0.5703,-1.6407 0,-0.9843 -0.5469,-1.5469 -0.5469,-0.5624 -1.4375,-0.5624 -0.5625,0 -1.0078,0.25 -0.4453,0.25 -0.6953,0.6406 L -1.1909,9.5938 -0.3003,4.8281 h 4.625 V 5.9062 H 0.6216 l -0.5,2.5 q 0.8281,-0.5781 1.75,-0.5781 1.2187,0 2.0547,0.8438 0.8359,0.8437 0.8359,2.1719 0,1.2656 -0.7344,2.1874 -0.8906,1.125 -2.4375,1.125 -1.2656,0 -2.0703,-0.7109 -0.8047,-0.7109 -0.914,-1.8828 z M 5.8359,9.4062 q 0,-1.6406 0.336,-2.6484 Q 6.5078,5.75 7.1797,5.2031 7.8516,4.6562 8.8672,4.6562 q 0.75,0 1.3125,0.3047 0.5625,0.3047 0.9297,0.8672 0.3672,0.5625 0.5781,1.3828 0.2109,0.8203 0.2109,2.1953 0,1.6407 -0.3359,2.6485 -0.3359,1.0078 -1.0078,1.5547 -0.6719,0.5468 -1.6875,0.5468 -1.3438,0 -2.125,-0.9687 Q 5.8359,12.0312 5.8359,9.4062 Z m 1.1719,0 q 0,2.2969 0.5313,3.0547 0.5312,0.7579 1.3281,0.7579 0.7812,0 1.3203,-0.7579 0.5391,-0.7578 0.5391,-3.0547 0,-2.2968 -0.5391,-3.0468 -0.5391,-0.75 -1.3359,-0.75 -0.7813,0 -1.2657,0.6562 Q 7.0078,7.125 7.0078,9.4062 Z"
       style="stroke:none" />
  </g>
  <g
     id="g107"
     style="font-size:13px;font-family:SansSerif;color-interpolation:linearRGB;fill:#262626;stroke:#262626;color-rendering:optimizeQuality;image-rendering:optimizeQuality;text-rendering:geometricPrecision"
     transform="translate(86.4677,344.66665)">
    <path
       inkscape:connector-curvature="0"
       id="path105"
       d="m -13.0938,11.2031 v -1.1406 h 3.5157 v 1.1406 z M -2.624,12.9062 V 14 h -6.1563 q -0.0156,-0.4062 0.1407,-0.7969 0.2343,-0.625 0.75,-1.2343 0.5156,-0.6094 1.5,-1.4063 1.5156,-1.25 2.0468,-1.9766 0.5313,-0.7265 0.5313,-1.3671 0,-0.6876 -0.4844,-1.1485 -0.4844,-0.4609 -1.2656,-0.4609 -0.8281,0 -1.3203,0.4922 -0.4922,0.4922 -0.5078,1.3672 l -1.1719,-0.125 q 0.125,-1.3126 0.9062,-2 0.7813,-0.6876 2.1094,-0.6876 1.3438,0 2.125,0.7422 0.7813,0.7422 0.7813,1.836 0,0.5625 -0.2266,1.1015 -0.2266,0.5391 -0.7578,1.1407 -0.5313,0.6015 -1.7656,1.6328 -1.0313,0.8594 -1.3204,1.1718 -0.289,0.3126 -0.4765,0.625 z m 1.23,-3.5 q 0,-1.6406 0.3359,-2.6484 0.3359,-1.0078 1.0078,-1.5547 0.6719,-0.5469 1.6875,-0.5469 0.75,0 1.3125,0.3047 0.5625,0.3047 0.9297,0.8672 0.3672,0.5625 0.5781,1.3828 0.211,0.8203 0.211,2.1953 0,1.6407 -0.336,2.6485 -0.3359,1.0078 -1.0078,1.5547 -0.6719,0.5468 -1.6875,0.5468 -1.3437,0 -2.125,-0.9687 Q -1.394,12.0312 -1.394,9.4062 Z m 1.1718,0 q 0,2.2969 0.5313,3.0547 0.5312,0.7579 1.3281,0.7579 0.7813,0 1.3203,-0.7579 0.5391,-0.7578 0.5391,-3.0547 0,-2.2968 -0.5391,-3.0468 -0.539,-0.75 -1.3359,-0.75 -0.7813,0 -1.2656,0.6562 -0.5782,0.8594 -0.5782,3.1406 z m 6.0581,0 q 0,-1.6406 0.336,-2.6484 Q 6.5078,5.75 7.1797,5.2031 7.8516,4.6562 8.8672,4.6562 q 0.75,0 1.3125,0.3047 0.5625,0.3047 0.9297,0.8672 0.3672,0.5625 0.5781,1.3828 0.2109,0.8203 0.2109,2.1953 0,1.6407 -0.3359,2.6485 -0.3359,1.0078 -1.0078,1.5547 -0.6719,0.5468 -1.6875,0.5468 -1.3438,0 -2.125,-0.9687 Q 5.8359,12.0312 5.8359,9.4062 Z m 1.1719,0 q 0,2.2969 0.5313,3.0547 0.5312,0.7579 1.3281,0.7579 0.7812,0 1.3203,-0.7579 0.5391,-0.7578 0.5391,-3.0547 0,-2.2968 -0.5391,-3.0468 -0.5391,-0.75 -1.3359,-0.75 -0.7813,0 -1.2657,0.6562 Q 7.0078,7.125 7.0078,9.4062 Z"
       style="stroke:none" />
  </g>
  <g
     id="g111"
     style="font-size:13px;font-family:SansSerif;color-interpolation:linearRGB;fill:#262626;stroke:#262626;color-rendering:optimizeQuality;image-rendering:optimizeQuality;text-rendering:geometricPrecision"
     transform="translate(129.8677,344.66665)">
    <path
       inkscape:connector-curvature="0"
       id="path109"
       d="m -13.0938,11.2031 v -1.1406 h 3.5157 v 1.1406 z M -4.3271,14 H -5.4678 V 6.7188 q -0.4218,0.3906 -1.0859,0.789 -0.6641,0.3984 -1.1953,0.586 V 6.9844 q 0.9531,-0.4375 1.6719,-1.0782 0.7187,-0.6406 1.0156,-1.25 h 0.7344 z m 2.9331,-2.4375 1.1875,-0.1094 q 0.1406,0.8907 0.625,1.3281 0.4843,0.4376 1.1718,0.4376 0.8282,0 1.3985,-0.625 0.5703,-0.625 0.5703,-1.6407 0,-0.9843 -0.5469,-1.5469 -0.5469,-0.5624 -1.4375,-0.5624 -0.5625,0 -1.0078,0.25 -0.4453,0.25 -0.6953,0.6406 L -1.1909,9.5938 -0.3003,4.8281 h 4.625 V 5.9062 H 0.6216 l -0.5,2.5 q 0.8281,-0.5781 1.75,-0.5781 1.2187,0 2.0547,0.8438 0.8359,0.8437 0.8359,2.1719 0,1.2656 -0.7344,2.1874 -0.8906,1.125 -2.4375,1.125 -1.2656,0 -2.0703,-0.7109 -0.8047,-0.7109 -0.914,-1.8828 z M 5.8359,9.4062 q 0,-1.6406 0.336,-2.6484 Q 6.5078,5.75 7.1797,5.2031 7.8516,4.6562 8.8672,4.6562 q 0.75,0 1.3125,0.3047 0.5625,0.3047 0.9297,0.8672 0.3672,0.5625 0.5781,1.3828 0.2109,0.8203 0.2109,2.1953 0,1.6407 -0.3359,2.6485 -0.3359,1.0078 -1.0078,1.5547 -0.6719,0.5468 -1.6875,0.5468 -1.3438,0 -2.125,-0.9687 Q 5.8359,12.0312 5.8359,9.4062 Z m 1.1719,0 q 0,2.2969 0.5313,3.0547 0.5312,0.7579 1.3281,0.7579 0.7812,0 1.3203,-0.7579 0.5391,-0.7578 0.5391,-3.0547 0,-2.2968 -0.5391,-3.0468 -0.5391,-0.75 -1.3359,-0.75 -0.7813,0 -1.2657,0.6562 Q 7.0078,7.125 7.0078,9.4062 Z"
       style="stroke:none" />
  </g>
  <g
     id="g115"
     style="font-size:13px;font-family:SansSerif;color-interpolation:linearRGB;fill:#262626;stroke:#262626;color-rendering:optimizeQuality;image-rendering:optimizeQuality;text-rendering:geometricPrecision"
     transform="translate(173.2677,344.66665)">
    <path
       inkscape:connector-curvature="0"
       id="path113"
       d="m -13.0938,11.2031 v -1.1406 h 3.5157 v 1.1406 z M -4.3271,14 H -5.4678 V 6.7188 q -0.4218,0.3906 -1.0859,0.789 -0.6641,0.3984 -1.1953,0.586 V 6.9844 q 0.9531,-0.4375 1.6719,-1.0782 0.7187,-0.6406 1.0156,-1.25 h 0.7344 z M -1.394,9.4062 q 0,-1.6406 0.3359,-2.6484 0.3359,-1.0078 1.0078,-1.5547 0.6719,-0.5469 1.6875,-0.5469 0.75,0 1.3125,0.3047 0.5625,0.3047 0.9297,0.8672 0.3672,0.5625 0.5781,1.3828 0.211,0.8203 0.211,2.1953 0,1.6407 -0.336,2.6485 -0.3359,1.0078 -1.0078,1.5547 -0.6719,0.5468 -1.6875,0.5468 -1.3437,0 -2.125,-0.9687 Q -1.394,12.0312 -1.394,9.4062 Z m 1.1718,0 q 0,2.2969 0.5313,3.0547 0.5312,0.7579 1.3281,0.7579 0.7813,0 1.3203,-0.7579 0.5391,-0.7578 0.5391,-3.0547 0,-2.2968 -0.5391,-3.0468 -0.539,-0.75 -1.3359,-0.75 -0.7813,0 -1.2656,0.6562 -0.5782,0.8594 -0.5782,3.1406 z m 6.0581,0 q 0,-1.6406 0.336,-2.6484 Q 6.5078,5.75 7.1797,5.2031 7.8516,4.6562 8.8672,4.6562 q 0.75,0 1.3125,0.3047 0.5625,0.3047 0.9297,0.8672 0.3672,0.5625 0.5781,1.3828 0.2109,0.8203 0.2109,2.1953 0,1.6407 -0.3359,2.6485 -0.3359,1.0078 -1.0078,1.5547 -0.6719,0.5468 -1.6875,0.5468 -1.3438,0 -2.125,-0.9687 Q 5.8359,12.0312 5.8359,9.4062 Z m 1.1719,0 q 0,2.2969 0.5313,3.0547 0.5312,0.7579 1.3281,0.7579 0.7812,0 1.3203,-0.7579 0.5391,-0.7578 0.5391,-3.0547 0,-2.2968 -0.5391,-3.0468 -0.5391,-0.75 -1.3359,-0.75 -0.7813,0 -1.2657,0.6562 Q 7.0078,7.125 7.0078,9.4062 Z"
       style="stroke:none" />
  </g>
  <g
     id="g119"
     style="font-size:13px;font-family:SansSerif;color-interpolation:linearRGB;fill:#262626;stroke:#262626;color-rendering:optimizeQuality;image-rendering:optimizeQuality;text-rendering:geometricPrecision"
     transform="translate(216.6677,344.66665)">
    <path
       inkscape:connector-curvature="0"
       id="path117"
       d="m -9.0938,11.2031 v -1.1406 h 3.5157 v 1.1406 z m 4.4698,0.3594 1.1875,-0.1094 q 0.1406,0.8907 0.625,1.3281 0.4844,0.4376 1.1719,0.4376 0.8281,0 1.3984,-0.625 0.5703,-0.625 0.5703,-1.6407 0,-0.9843 -0.5469,-1.5469 -0.5468,-0.5624 -1.4375,-0.5624 -0.5625,0 -1.0078,0.25 -0.4453,0.25 -0.6953,0.6406 L -4.4209,9.5938 -3.5303,4.8281 h 4.625 v 1.0781 h -3.7031 l -0.5,2.5 q 0.8281,-0.5781 1.75,-0.5781 1.2188,0 2.0547,0.8438 0.8359,0.8437 0.8359,2.1719 0,1.2656 -0.7343,2.1874 -0.8907,1.125 -2.4375,1.125 -1.2657,0 -2.0704,-0.7109 -0.8046,-0.7109 -0.914,-1.8828 z M 2.606,9.4062 Q 2.606,7.7656 2.9419,6.7578 3.2778,5.75 3.9497,5.2031 4.6216,4.6562 5.6372,4.6562 q 0.75,0 1.3125,0.3047 0.5625,0.3047 0.9297,0.8672 0.3672,0.5625 0.5781,1.3828 0.211,0.8203 0.211,2.1953 0,1.6407 -0.336,2.6485 -0.3359,1.0078 -1.0078,1.5547 -0.6719,0.5468 -1.6875,0.5468 -1.3437,0 -2.125,-0.9687 Q 2.606,12.0312 2.606,9.4062 Z m 1.1718,0 q 0,2.2969 0.5313,3.0547 0.5312,0.7579 1.3281,0.7579 0.7813,0 1.3203,-0.7579 0.5391,-0.7578 0.5391,-3.0547 0,-2.2968 -0.5391,-3.0468 -0.539,-0.75 -1.3359,-0.75 -0.7813,0 -1.2656,0.6562 Q 3.7778,7.125 3.7778,9.4062 Z"
       style="stroke:none" />
  </g>
  <g
     id="g123"
     style="font-size:13px;font-family:SansSerif;color-interpolation:linearRGB;fill:#262626;stroke:#262626;color-rendering:optimizeQuality;image-rendering:optimizeQuality;text-rendering:geometricPrecision"
     transform="translate(260.0677,344.66665)">
    <path
       inkscape:connector-curvature="0"
       id="path121"
       d="m -3.4531,9.4062 q 0,-1.6406 0.3359,-2.6484 0.336,-1.0078 1.0078,-1.5547 0.6719,-0.5469 1.6875,-0.5469 0.75,0 1.3125,0.3047 0.5625,0.3047 0.9297,0.8672 0.3672,0.5625 0.5781,1.3828 0.211,0.8203 0.211,2.1953 0,1.6407 -0.336,2.6485 -0.3359,1.0078 -1.0078,1.5547 -0.6718,0.5468 -1.6875,0.5468 -1.3437,0 -2.125,-0.9687 -0.9062,-1.1563 -0.9062,-3.7813 z m 1.1719,0 q 0,2.2969 0.5312,3.0547 0.5312,0.7579 1.3281,0.7579 0.7813,0 1.3203,-0.7579 0.5391,-0.7578 0.5391,-3.0547 0,-2.2968 -0.5391,-3.0468 -0.539,-0.75 -1.3359,-0.75 -0.7813,0 -1.2656,0.6562 -0.5781,0.8594 -0.5781,3.1406 z"
       style="stroke:none" />
  </g>
  <g
     id="g127"
     style="font-size:13px;font-family:SansSerif;color-interpolation:linearRGB;fill:#262626;stroke:#262626;color-rendering:optimizeQuality;image-rendering:optimizeQuality;text-rendering:geometricPrecision"
     transform="translate(303.4677,344.66665)">
    <path
       inkscape:connector-curvature="0"
       id="path125"
       d="m -6.9531,11.5625 1.1875,-0.1094 q 0.1406,0.8907 0.625,1.3281 0.4844,0.4376 1.1718,0.4376 0.8282,0 1.3985,-0.625 Q -2,11.9688 -2,10.9531 -2,9.9688 -2.5469,9.4062 -3.0938,8.8438 -3.9844,8.8438 q -0.5625,0 -1.0078,0.25 -0.4453,0.25 -0.6953,0.6406 L -6.75,9.5938 -5.8594,4.8281 h 4.625 v 1.0781 h -3.7031 l -0.5,2.5 q 0.8281,-0.5781 1.75,-0.5781 1.2187,0 2.0547,0.8438 0.8359,0.8437 0.8359,2.1719 0,1.2656 -0.7343,2.1874 -0.8907,1.125 -2.4376,1.125 -1.2656,0 -2.0703,-0.7109 -0.8047,-0.7109 -0.914,-1.8828 z m 7.23,-2.1563 q 0,-1.6406 0.3359,-2.6484 Q 0.9487,5.75 1.6206,5.2031 2.2925,4.6562 3.3081,4.6562 q 0.75,0 1.3125,0.3047 0.5625,0.3047 0.9297,0.8672 0.3672,0.5625 0.5781,1.3828 0.211,0.8203 0.211,2.1953 0,1.6407 -0.336,2.6485 -0.3359,1.0078 -1.0078,1.5547 -0.6719,0.5468 -1.6875,0.5468 -1.3437,0 -2.125,-0.9687 Q 0.2769,12.0312 0.2769,9.4062 Z m 1.1718,0 q 0,2.2969 0.5313,3.0547 0.5312,0.7579 1.3281,0.7579 0.7813,0 1.3203,-0.7579 0.5391,-0.7578 0.5391,-3.0547 0,-2.2968 -0.5391,-3.0468 -0.539,-0.75 -1.3359,-0.75 -0.7813,0 -1.2656,0.6562 Q 1.4487,7.125 1.4487,9.4062 Z"
       style="stroke:none" />
  </g>
  <g
     id="g131"
     style="font-size:13px;font-family:SansSerif;color-interpolation:linearRGB;fill:#262626;stroke:#262626;color-rendering:optimizeQuality;image-rendering:optimizeQuality;text-rendering:geometricPrecision"
     transform="translate(346.8677,344.66665)">
    <path
       inkscape:connector-curvature="0"
       id="path129"
       d="M -6.1562,14 H -7.2969 V 6.7188 q -0.4219,0.3906 -1.0859,0.789 -0.6641,0.3984 -1.1953,0.586 V 6.9844 q 0.9531,-0.4375 1.6719,-1.0782 0.7187,-0.6406 1.0156,-1.25 h 0.7344 z m 2.9331,-4.5938 q 0,-1.6406 0.3359,-2.6484 0.3359,-1.0078 1.0078,-1.5547 0.6719,-0.5469 1.6875,-0.5469 0.75,0 1.3125,0.3047 0.5625,0.3047 0.9297,0.8672 0.3672,0.5625 0.5781,1.3828 0.211,0.8203 0.211,2.1953 0,1.6407 -0.336,2.6485 -0.3359,1.0078 -1.0078,1.5547 -0.6719,0.5468 -1.6875,0.5468 -1.3437,0 -2.125,-0.9687 -0.9062,-1.1563 -0.9062,-3.7813 z m 1.1718,0 q 0,2.2969 0.5313,3.0547 0.5312,0.7579 1.3281,0.7579 0.7813,0 1.3203,-0.7579 0.5391,-0.7578 0.5391,-3.0547 0,-2.2968 -0.5391,-3.0468 -0.539,-0.75 -1.3359,-0.75 -0.7813,0 -1.2656,0.6562 -0.5782,0.8594 -0.5782,3.1406 z m 6.0581,0 q 0,-1.6406 0.336,-2.6484 Q 4.6787,5.75 5.3506,5.2031 6.0225,4.6562 7.0381,4.6562 q 0.75,0 1.3125,0.3047 0.5625,0.3047 0.9297,0.8672 0.3672,0.5625 0.5781,1.3828 0.2109,0.8203 0.2109,2.1953 0,1.6407 -0.3359,2.6485 -0.3359,1.0078 -1.0078,1.5547 -0.6719,0.5468 -1.6875,0.5468 -1.3438,0 -2.125,-0.9687 Q 4.0068,12.0312 4.0068,9.4062 Z m 1.1719,0 q 0,2.2969 0.5313,3.0547 0.5312,0.7579 1.3281,0.7579 0.7812,0 1.3203,-0.7579 0.5391,-0.7578 0.5391,-3.0547 0,-2.2968 -0.5391,-3.0468 -0.5391,-0.75 -1.3359,-0.75 -0.7813,0 -1.2657,0.6562 Q 5.1787,7.125 5.1787,9.4062 Z"
       style="stroke:none" />
  </g>
  <g
     id="g135"
     style="font-size:13px;font-family:SansSerif;color-interpolation:linearRGB;fill:#262626;stroke:#262626;color-rendering:optimizeQuality;image-rendering:optimizeQuality;text-rendering:geometricPrecision"
     transform="translate(390.2677,344.66665)">
    <path
       inkscape:connector-curvature="0"
       id="path133"
       d="M -6.1562,14 H -7.2969 V 6.7188 q -0.4219,0.3906 -1.0859,0.789 -0.6641,0.3984 -1.1953,0.586 V 6.9844 q 0.9531,-0.4375 1.6719,-1.0782 0.7187,-0.6406 1.0156,-1.25 h 0.7344 z m 2.9331,-2.4375 1.1875,-0.1094 q 0.1406,0.8907 0.625,1.3281 0.4843,0.4376 1.1718,0.4376 0.8282,0 1.3985,-0.625 Q 1.73,11.9688 1.73,10.9531 1.73,9.9688 1.1831,9.4062 0.6362,8.8438 -0.2544,8.8438 q -0.5625,0 -1.0078,0.25 -0.4453,0.25 -0.6953,0.6406 L -3.02,9.5938 -2.1294,4.8281 h 4.625 v 1.0781 h -3.7031 l -0.5,2.5 q 0.8281,-0.5781 1.75,-0.5781 1.2187,0 2.0547,0.8438 0.8359,0.8437 0.8359,2.1719 0,1.2656 -0.7344,2.1874 -0.8906,1.125 -2.4375,1.125 -1.2656,0 -2.0703,-0.7109 -0.8047,-0.7109 -0.914,-1.8828 z M 4.0068,9.4062 q 0,-1.6406 0.336,-2.6484 Q 4.6787,5.75 5.3506,5.2031 6.0225,4.6562 7.0381,4.6562 q 0.75,0 1.3125,0.3047 0.5625,0.3047 0.9297,0.8672 0.3672,0.5625 0.5781,1.3828 0.2109,0.8203 0.2109,2.1953 0,1.6407 -0.3359,2.6485 -0.3359,1.0078 -1.0078,1.5547 -0.6719,0.5468 -1.6875,0.5468 -1.3438,0 -2.125,-0.9687 Q 4.0068,12.0312 4.0068,9.4062 Z m 1.1719,0 q 0,2.2969 0.5313,3.0547 0.5312,0.7579 1.3281,0.7579 0.7812,0 1.3203,-0.7579 0.5391,-0.7578 0.5391,-3.0547 0,-2.2968 -0.5391,-3.0468 -0.5391,-0.75 -1.3359,-0.75 -0.7813,0 -1.2657,0.6562 Q 5.1787,7.125 5.1787,9.4062 Z"
       style="stroke:none" />
  </g>
  <g
     id="g139"
     style="font-size:13px;font-family:SansSerif;color-interpolation:linearRGB;fill:#262626;stroke:#262626;color-rendering:optimizeQuality;image-rendering:optimizeQuality;text-rendering:geometricPrecision"
     transform="translate(433.6677,344.66665)">
    <path
       inkscape:connector-curvature="0"
       id="path137"
       d="M -4.4531,12.9062 V 14 h -6.1563 q -0.0156,-0.4062 0.1406,-0.7969 0.2344,-0.625 0.75,-1.2343 0.5157,-0.6094 1.5,-1.4063 1.5157,-1.25 2.0469,-1.9766 0.5313,-0.7265 0.5313,-1.3671 0,-0.6876 -0.4844,-1.1485 -0.4844,-0.4609 -1.2656,-0.4609 -0.8282,0 -1.3203,0.4922 -0.4922,0.4922 -0.5079,1.3672 l -1.1718,-0.125 q 0.125,-1.3126 0.9062,-2 0.7813,-0.6876 2.1094,-0.6876 1.3438,0 2.125,0.7422 0.7812,0.7422 0.7812,1.836 0,0.5625 -0.2265,1.1015 -0.2266,0.5391 -0.7578,1.1407 -0.5313,0.6015 -1.7657,1.6328 -1.0312,0.8594 -1.3203,1.1718 -0.289,0.3126 -0.4765,0.625 z m 1.23,-3.5 q 0,-1.6406 0.3359,-2.6484 0.3359,-1.0078 1.0078,-1.5547 0.6719,-0.5469 1.6875,-0.5469 0.75,0 1.3125,0.3047 0.5625,0.3047 0.9297,0.8672 0.3672,0.5625 0.5781,1.3828 0.211,0.8203 0.211,2.1953 0,1.6407 -0.336,2.6485 -0.3359,1.0078 -1.0078,1.5547 -0.6719,0.5468 -1.6875,0.5468 -1.3437,0 -2.125,-0.9687 -0.9062,-1.1563 -0.9062,-3.7813 z m 1.1718,0 q 0,2.2969 0.5313,3.0547 0.5312,0.7579 1.3281,0.7579 0.7813,0 1.3203,-0.7579 0.5391,-0.7578 0.5391,-3.0547 0,-2.2968 -0.5391,-3.0468 -0.539,-0.75 -1.3359,-0.75 -0.7813,0 -1.2656,0.6562 -0.5782,0.8594 -0.5782,3.1406 z m 6.0581,0 q 0,-1.6406 0.336,-2.6484 Q 4.6787,5.75 5.3506,5.2031 6.0225,4.6562 7.0381,4.6562 q 0.75,0 1.3125,0.3047 0.5625,0.3047 0.9297,0.8672 0.3672,0.5625 0.5781,1.3828 0.2109,0.8203 0.2109,2.1953 0,1.6407 -0.3359,2.6485 -0.3359,1.0078 -1.0078,1.5547 -0.6719,0.5468 -1.6875,0.5468 -1.3438,0 -2.125,-0.9687 Q 4.0068,12.0312 4.0068,9.4062 Z m 1.1719,0 q 0,2.2969 0.5313,3.0547 0.5312,0.7579 1.3281,0.7579 0.7812,0 1.3203,-0.7579 0.5391,-0.7578 0.5391,-3.0547 0,-2.2968 -0.5391,-3.0468 -0.5391,-0.75 -1.3359,-0.75 -0.7813,0 -1.2657,0.6562 Q 5.1787,7.125 5.1787,9.4062 Z"
       style="stroke:none" />
  </g>
  <g
     id="g143"
     style="font-size:13px;font-family:SansSerif;color-interpolation:linearRGB;fill:#262626;stroke:#262626;color-rendering:optimizeQuality;image-rendering:optimizeQuality;text-rendering:geometricPrecision"
     transform="translate(477.0677,344.66665)">
    <path
       inkscape:connector-curvature="0"
       id="path141"
       d="M -4.4531,12.9062 V 14 h -6.1563 q -0.0156,-0.4062 0.1406,-0.7969 0.2344,-0.625 0.75,-1.2343 0.5157,-0.6094 1.5,-1.4063 1.5157,-1.25 2.0469,-1.9766 0.5313,-0.7265 0.5313,-1.3671 0,-0.6876 -0.4844,-1.1485 -0.4844,-0.4609 -1.2656,-0.4609 -0.8282,0 -1.3203,0.4922 -0.4922,0.4922 -0.5079,1.3672 l -1.1718,-0.125 q 0.125,-1.3126 0.9062,-2 0.7813,-0.6876 2.1094,-0.6876 1.3438,0 2.125,0.7422 0.7812,0.7422 0.7812,1.836 0,0.5625 -0.2265,1.1015 -0.2266,0.5391 -0.7578,1.1407 -0.5313,0.6015 -1.7657,1.6328 -1.0312,0.8594 -1.3203,1.1718 -0.289,0.3126 -0.4765,0.625 z m 1.23,-1.3437 1.1875,-0.1094 q 0.1406,0.8907 0.625,1.3281 0.4843,0.4376 1.1718,0.4376 0.8282,0 1.3985,-0.625 Q 1.73,11.9688 1.73,10.9531 1.73,9.9688 1.1831,9.4062 0.6362,8.8438 -0.2544,8.8438 q -0.5625,0 -1.0078,0.25 -0.4453,0.25 -0.6953,0.6406 L -3.02,9.5938 -2.1294,4.8281 h 4.625 v 1.0781 h -3.7031 l -0.5,2.5 q 0.8281,-0.5781 1.75,-0.5781 1.2187,0 2.0547,0.8438 0.8359,0.8437 0.8359,2.1719 0,1.2656 -0.7344,2.1874 -0.8906,1.125 -2.4375,1.125 -1.2656,0 -2.0703,-0.7109 -0.8047,-0.7109 -0.914,-1.8828 z M 4.0068,9.4062 q 0,-1.6406 0.336,-2.6484 Q 4.6787,5.75 5.3506,5.2031 6.0225,4.6562 7.0381,4.6562 q 0.75,0 1.3125,0.3047 0.5625,0.3047 0.9297,0.8672 0.3672,0.5625 0.5781,1.3828 0.2109,0.8203 0.2109,2.1953 0,1.6407 -0.3359,2.6485 -0.3359,1.0078 -1.0078,1.5547 -0.6719,0.5468 -1.6875,0.5468 -1.3438,0 -2.125,-0.9687 Q 4.0068,12.0312 4.0068,9.4062 Z m 1.1719,0 q 0,2.2969 0.5313,3.0547 0.5312,0.7579 1.3281,0.7579 0.7812,0 1.3203,-0.7579 0.5391,-0.7578 0.5391,-3.0547 0,-2.2968 -0.5391,-3.0468 -0.5391,-0.75 -1.3359,-0.75 -0.7813,0 -1.2657,0.6562 Q 5.1787,7.125 5.1787,9.4062 Z"
       style="stroke:none" />
  </g>
  <g
     id="g147"
     style="font-size:15px;font-family:SansSerif;color-interpolation:linearRGB;fill:#262626;stroke:#262626;color-rendering:optimizeQuality;image-rendering:optimizeQuality;text-rendering:geometricPrecision"
     transform="translate(227.0677,379.33335)">
    <path
       inkscape:connector-curvature="0"
       id="path145"
       d="M 4.2188,0 0.0625,-10.7344 h 1.5469 l 2.7812,7.7969 Q 4.7344,-2 4.9531,-1.1719 q 0.25,-0.8906 0.5781,-1.7656 l 2.9063,-7.7969 H 9.8906 L 5.6875,0 Z"
       style="stroke:none" />
  </g>
  <g
     id="g151"
     style="font-size:11px;font-family:SansSerif;color-interpolation:linearRGB;fill:#262626;stroke:#262626;color-rendering:optimizeQuality;image-rendering:optimizeQuality;text-rendering:geometricPrecision"
     transform="translate(238.0677,386.33335)">
    <path
       inkscape:connector-curvature="0"
       id="path149"
       d="M 4.4219,0 V -0.7188 Q 3.8906,0.125 2.8281,0.125 2.1562,0.125 1.5781,-0.25 1,-0.625 0.6875,-1.2969 0.375,-1.9688 0.375,-2.8438 q 0,-0.8593 0.2891,-1.5546 0.289,-0.6954 0.8515,-1.0625 0.5625,-0.3672 1.2656,-0.3672 0.5157,0 0.9219,0.2187 0.4063,0.2188 0.6563,0.5625 V -7.875 H 5.3281 V 0 Z M 1.375,-2.8438 q 0,1.0938 0.4609,1.6329 0.461,0.539 1.086,0.539 0.6406,0 1.0781,-0.5156 0.4375,-0.5156 0.4375,-1.5781 0,-1.1719 -0.4453,-1.7188 -0.4453,-0.5468 -1.1172,-0.5468 -0.6406,0 -1.0703,0.5234 -0.4297,0.5234 -0.4297,1.664 z m 9.1958,0.75 0.9375,0.125 q -0.1406,0.9844 -0.7891,1.5391 -0.6484,0.5547 -1.5703,0.5547 -1.1718,0 -1.8828,-0.7656 -0.7109,-0.7656 -0.7109,-2.1875 0,-0.9219 0.3047,-1.6172 0.3047,-0.6953 0.9297,-1.0391 0.625,-0.3437 1.3593,-0.3437 0.9219,0 1.5157,0.4687 0.5937,0.4688 0.7656,1.3282 l -0.9531,0.1406 q -0.125,-0.5625 -0.4688,-0.8516 -0.3437,-0.289 -0.8281,-0.289 -0.7188,0 -1.1797,0.5234 -0.4609,0.5234 -0.4609,1.6484 0,1.1563 0.4375,1.6719 0.4375,0.5156 1.1562,0.5156 0.5625,0 0.9453,-0.3437 0.3828,-0.3438 0.4922,-1.0782 z"
       style="stroke:none" />
  </g>
  <g
     id="g155"
     style="font-size:15px;font-family:SansSerif;color-interpolation:linearRGB;fill:#262626;stroke:#262626;color-rendering:optimizeQuality;image-rendering:optimizeQuality;text-rendering:geometricPrecision"
     transform="translate(250.0677,379.33335)">
    <path
       inkscape:connector-curvature="0"
       id="path153"
       d="m 5.1675,-9.2188 v -1.5156 H 6.48 v 1.5156 z M 5.1675,0 V -7.7812 H 6.48 V 0 Z m 3.3169,0 v -7.7812 h 1.1875 v 1.1093 q 0.8593,-1.2812 2.4843,-1.2812 0.7032,0 1.2891,0.25 0.5859,0.25 0.8828,0.664 0.2969,0.4141 0.4063,0.9766 0.0781,0.3594 0.0781,1.2813 V 0 h -1.3281 v -4.7344 q 0,-0.7968 -0.1485,-1.1953 -0.1484,-0.3984 -0.539,-0.6406 -0.3907,-0.2422 -0.9219,-0.2422 -0.8438,0 -1.4531,0.5313 Q 9.8125,-5.75 9.8125,-4.25 V 0 Z"
       style="stroke:none" />
  </g>
  <g
     id="g159"
     style="font-size:15px;font-family:mwb_cmmi10;color-interpolation:linearRGB;fill:#262626;stroke:#262626;color-rendering:optimizeQuality;image-rendering:optimizeQuality;text-rendering:geometricPrecision"
     transform="translate(271.0677,379.33335)">
    <path
       inkscape:connector-curvature="0"
       id="path157"
       d="m 0.4219,2.8125 q 0,-0.0781 0.0156,-0.1094 l 2.2031,-8.8593 q 0.0625,-0.2032 0.2344,-0.336 0.1719,-0.1328 0.3906,-0.1328 0.1875,0 0.3203,0.1094 0.1329,0.1094 0.1329,0.2968 0,0.0469 0,0.0782 0,0.0312 -0.0157,0.0468 l -0.8906,3.5157 q -0.1406,0.625 -0.1406,1.0781 0,0.5625 0.2656,0.9141 0.2656,0.3515 0.7969,0.3515 1.0937,0 1.9218,-1.3594 0,-0.0156 0.0079,-0.0234 0.0078,-0.0078 0.0078,-0.0234 L 6.75,-5.9844 q 0.0469,-0.2031 0.2344,-0.3437 0.1875,-0.1407 0.4062,-0.1407 0.1719,0 0.3047,0.1172 0.1328,0.1172 0.1328,0.3047 0,0.0938 -0.0156,0.125 L 6.7344,-1.6094 Q 6.625,-1.1719 6.625,-0.875 q 0,0.6406 0.4375,0.6406 0.4687,0 0.7109,-0.5781 0.2422,-0.5781 0.4141,-1.3906 0.0313,-0.0938 0.125,-0.0938 h 0.1719 q 0.0625,0 0.1015,0.0469 0.0391,0.0469 0.0391,0.1094 -0.2656,1.0468 -0.5781,1.6797 -0.3125,0.6328 -1.0157,0.6328 -0.4843,0 -0.875,-0.2891 -0.3906,-0.289 -0.5,-0.7734 -0.375,0.4687 -0.875,0.7656 -0.5,0.2969 -1.0624,0.2969 -0.9376,0 -1.4688,-0.4375 L 1.4844,2.7656 Q 1.4375,2.9688 1.2656,3.1016 1.0938,3.2344 0.875,3.2344 0.6875,3.2344 0.5547,3.125 0.4219,3.0156 0.4219,2.8125 Z"
       style="stroke:none" />
  </g>
  <g
     id="g163"
     style="font-size:15px;font-family:SansSerif;color-interpolation:linearRGB;fill:#262626;stroke:#262626;color-rendering:optimizeQuality;image-rendering:optimizeQuality;text-rendering:geometricPrecision"
     transform="translate(281.0677,379.33335)">
    <path
       inkscape:connector-curvature="0"
       id="path161"
       d="M 4.2188,0 0.0625,-10.7344 h 1.5469 l 2.7812,7.7969 Q 4.7344,-2 4.9531,-1.1719 q 0.25,-0.8906 0.5781,-1.7656 l 2.9063,-7.7969 H 9.8906 L 5.6875,0 Z"
       style="stroke:none" />
  </g>
  <g
     id="g193"
     style="color-interpolation:linearRGB;fill:#262626;stroke:#262626;stroke-width:0.66670001;stroke-linejoin:round;color-rendering:optimizeQuality;image-rendering:optimizeQuality;text-rendering:geometricPrecision"
     transform="translate(-29.9323,-30.66665)">
    <line
       id="line165"
       y1="370"
       x2="73"
       x1="73"
       style="fill:none"
       y2="31" />
    <line
       id="line167"
       y1="370"
       x2="507"
       x1="507"
       style="fill:none"
       y2="31" />
    <line
       id="line169"
       y1="341.75"
       x2="77.339996"
       x1="73"
       style="fill:none"
       y2="341.75" />
    <line
       id="line171"
       y1="285.25"
       x2="77.339996"
       x1="73"
       style="fill:none"
       y2="285.25" />
    <line
       id="line173"
       y1="228.75"
       x2="77.339996"
       x1="73"
       style="fill:none"
       y2="228.75" />
    <line
       id="line175"
       y1="172.25"
       x2="77.339996"
       x1="73"
       style="fill:none"
       y2="172.25" />
    <line
       id="line177"
       y1="115.75"
       x2="77.339996"
       x1="73"
       style="fill:none"
       y2="115.75" />
    <line
       id="line179"
       y1="59.25"
       x2="77.339996"
       x1="73"
       style="fill:none"
       y2="59.25" />
    <line
       id="line181"
       y1="341.75"
       x2="502.66"
       x1="507"
       style="fill:none"
       y2="341.75" />
    <line
       id="line183"
       y1="285.25"
       x2="502.66"
       x1="507"
       style="fill:none"
       y2="285.25" />
    <line
       id="line185"
       y1="228.75"
       x2="502.66"
       x1="507"
       style="fill:none"
       y2="228.75" />
    <line
       id="line187"
       y1="172.25"
       x2="502.66"
       x1="507"
       style="fill:none"
       y2="172.25" />
    <line
       id="line189"
       y1="115.75"
       x2="502.66"
       x1="507"
       style="fill:none"
       y2="115.75" />
    <line
       id="line191"
       y1="59.25"
       x2="502.66"
       x1="507"
       style="fill:none"
       y2="59.25" />
  </g>
  <g
     id="g197"
     style="font-size:13px;font-family:SansSerif;color-interpolation:linearRGB;fill:#262626;stroke:#262626;color-rendering:optimizeQuality;image-rendering:optimizeQuality;text-rendering:geometricPrecision"
     transform="translate(37.7344,311.08335)">
    <path
       inkscape:connector-curvature="0"
       id="path195"
       d="m -7.4531,0.9062 q 0,-1.6406 0.3359,-2.6484 0.336,-1.0078 1.0078,-1.5547 0.6719,-0.5469 1.6875,-0.5469 0.75,0 1.3125,0.3047 0.5625,0.3047 0.9297,0.8672 0.3672,0.5625 0.5781,1.3828 0.211,0.8203 0.211,2.1953 0,1.6407 -0.336,2.6485 -0.3359,1.0078 -1.0078,1.5547 -0.6718,0.5468 -1.6875,0.5468 -1.3437,0 -2.125,-0.9687 -0.9062,-1.1563 -0.9062,-3.7813 z m 1.1719,0 q 0,2.2969 0.5312,3.0547 0.5312,0.7579 1.3281,0.7579 0.7813,0 1.3203,-0.7579 0.5391,-0.7578 0.5391,-3.0547 0,-2.2968 -0.5391,-3.0468 -0.539,-0.75 -1.3359,-0.75 -0.7813,0 -1.2656,0.6562 -0.5781,0.8594 -0.5781,3.1406 z"
       style="stroke:none" />
  </g>
  <g
     id="g201"
     style="font-size:13px;font-family:SansSerif;color-interpolation:linearRGB;fill:#262626;stroke:#262626;color-rendering:optimizeQuality;image-rendering:optimizeQuality;text-rendering:geometricPrecision"
     transform="translate(37.7344,254.58335)">
    <path
       inkscape:connector-curvature="0"
       id="path199"
       d="m -18.4531,0.9062 q 0,-1.6406 0.3359,-2.6484 0.336,-1.0078 1.0078,-1.5547 0.6719,-0.5469 1.6875,-0.5469 0.75,0 1.3125,0.3047 0.5625,0.3047 0.9297,0.8672 0.3672,0.5625 0.5781,1.3828 0.211,0.8203 0.211,2.1953 0,1.6407 -0.336,2.6485 -0.3359,1.0078 -1.0078,1.5547 -0.6718,0.5468 -1.6875,0.5468 -1.3437,0 -2.125,-0.9687 -0.9062,-1.1563 -0.9062,-3.7813 z m 1.1719,0 q 0,2.2969 0.5312,3.0547 0.5312,0.7579 1.3281,0.7579 0.7813,0 1.3203,-0.7579 0.5391,-0.7578 0.5391,-3.0547 0,-2.2968 -0.5391,-3.0468 -0.539,-0.75 -1.3359,-0.75 -0.7813,0 -1.2656,0.6562 -0.5781,0.8594 -0.5781,3.1406 z M -10.5825,5.5 V 4.2031 h 1.2969 V 5.5 Z M -1.6113,4.4062 V 5.5 h -6.1563 q -0.0156,-0.4062 0.1406,-0.7969 0.2344,-0.625 0.75,-1.2343 0.5157,-0.6094 1.5,-1.4063 1.5157,-1.25 2.0469,-1.9766 0.5313,-0.7265 0.5313,-1.3671 0,-0.6876 -0.4844,-1.1485 -0.4844,-0.4609 -1.2656,-0.4609 -0.8282,0 -1.3203,0.4922 -0.4922,0.4922 -0.5079,1.3672 l -1.1718,-0.125 q 0.125,-1.3126 0.9062,-2 0.7813,-0.6876 2.1094,-0.6876 1.3437,0 2.125,0.7422 0.7812,0.7422 0.7812,1.836 0,0.5625 -0.2265,1.1015 -0.2266,0.5391 -0.7578,1.1407 -0.5313,0.6015 -1.7657,1.6328 -1.0312,0.8594 -1.3203,1.1718 -0.289,0.3126 -0.4765,0.625 z"
       style="stroke:none" />
  </g>
  <g
     id="g205"
     style="font-size:13px;font-family:SansSerif;color-interpolation:linearRGB;fill:#262626;stroke:#262626;color-rendering:optimizeQuality;image-rendering:optimizeQuality;text-rendering:geometricPrecision"
     transform="translate(37.7344,198.08335)">
    <path
       inkscape:connector-curvature="0"
       id="path203"
       d="m -18.4531,0.9062 q 0,-1.6406 0.3359,-2.6484 0.336,-1.0078 1.0078,-1.5547 0.6719,-0.5469 1.6875,-0.5469 0.75,0 1.3125,0.3047 0.5625,0.3047 0.9297,0.8672 0.3672,0.5625 0.5781,1.3828 0.211,0.8203 0.211,2.1953 0,1.6407 -0.336,2.6485 -0.3359,1.0078 -1.0078,1.5547 -0.6718,0.5468 -1.6875,0.5468 -1.3437,0 -2.125,-0.9687 -0.9062,-1.1563 -0.9062,-3.7813 z m 1.1719,0 q 0,2.2969 0.5312,3.0547 0.5312,0.7579 1.3281,0.7579 0.7813,0 1.3203,-0.7579 0.5391,-0.7578 0.5391,-3.0547 0,-2.2968 -0.5391,-3.0468 -0.539,-0.75 -1.3359,-0.75 -0.7813,0 -1.2656,0.6562 -0.5781,0.8594 -0.5781,3.1406 z M -10.5825,5.5 V 4.2031 h 1.2969 V 5.5 Z m 6.6274,0 V 3.2656 H -7.9863 V 2.2188 l 4.2343,-6.0313 h 0.9375 v 6.0313 h 1.2657 V 3.2656 H -2.8145 V 5.5 Z m 0,-3.2812 V -1.9688 L -6.877,2.2188 Z"
       style="stroke:none" />
  </g>
  <g
     id="g209"
     style="font-size:13px;font-family:SansSerif;color-interpolation:linearRGB;fill:#262626;stroke:#262626;color-rendering:optimizeQuality;image-rendering:optimizeQuality;text-rendering:geometricPrecision"
     transform="translate(37.7344,141.58335)">
    <path
       inkscape:connector-curvature="0"
       id="path207"
       d="m -18.4531,0.9062 q 0,-1.6406 0.3359,-2.6484 0.336,-1.0078 1.0078,-1.5547 0.6719,-0.5469 1.6875,-0.5469 0.75,0 1.3125,0.3047 0.5625,0.3047 0.9297,0.8672 0.3672,0.5625 0.5781,1.3828 0.211,0.8203 0.211,2.1953 0,1.6407 -0.336,2.6485 -0.3359,1.0078 -1.0078,1.5547 -0.6718,0.5468 -1.6875,0.5468 -1.3437,0 -2.125,-0.9687 -0.9062,-1.1563 -0.9062,-3.7813 z m 1.1719,0 q 0,2.2969 0.5312,3.0547 0.5312,0.7579 1.3281,0.7579 0.7813,0 1.3203,-0.7579 0.5391,-0.7578 0.5391,-3.0547 0,-2.2968 -0.5391,-3.0468 -0.539,-0.75 -1.3359,-0.75 -0.7813,0 -1.2656,0.6562 -0.5781,0.8594 -0.5781,3.1406 z M -10.5825,5.5 V 4.2031 h 1.2969 V 5.5 Z m 8.893,-7.0312 -1.1406,0.0937 q -0.1406,-0.6719 -0.4219,-0.9844 -0.4687,-0.4843 -1.1406,-0.4843 -0.5469,0 -0.9687,0.3124 -0.5313,0.3907 -0.8438,1.1407 -0.3125,0.75 -0.3281,2.1562 0.4062,-0.625 1.0078,-0.9297 0.6016,-0.3046 1.2578,-0.3046 1.1406,0 1.9453,0.8359 0.8047,0.8359 0.8047,2.1797 0,0.875 -0.3828,1.625 -0.3828,0.75 -1.0391,1.1484 -0.6562,0.3984 -1.5,0.3984 -1.4218,0 -2.3281,-1.0468 -0.9062,-1.0469 -0.9062,-3.4688 0,-2.6875 1,-3.9218 0.875,-1.0626 2.3437,-1.0626 1.0938,0 1.7969,0.6172 0.7031,0.6172 0.8437,1.6954 z m -4.6718,4.0156 q 0,0.5937 0.25,1.1328 0.25,0.539 0.7031,0.8203 0.4531,0.2813 0.9531,0.2813 0.7188,0 1.2422,-0.586 0.5234,-0.5859 0.5234,-1.5859 0,-0.9688 -0.5156,-1.5235 -0.5156,-0.5546 -1.2969,-0.5546 -0.7812,0 -1.3203,0.5546 -0.539,0.5547 -0.539,1.461 z"
       style="stroke:none" />
  </g>
  <g
     id="g213"
     style="font-size:13px;font-family:SansSerif;color-interpolation:linearRGB;fill:#262626;stroke:#262626;color-rendering:optimizeQuality;image-rendering:optimizeQuality;text-rendering:geometricPrecision"
     transform="translate(37.7344,85.08335)">
    <path
       inkscape:connector-curvature="0"
       id="path211"
       d="m -18.4531,0.9062 q 0,-1.6406 0.3359,-2.6484 0.336,-1.0078 1.0078,-1.5547 0.6719,-0.5469 1.6875,-0.5469 0.75,0 1.3125,0.3047 0.5625,0.3047 0.9297,0.8672 0.3672,0.5625 0.5781,1.3828 0.211,0.8203 0.211,2.1953 0,1.6407 -0.336,2.6485 -0.3359,1.0078 -1.0078,1.5547 -0.6718,0.5468 -1.6875,0.5468 -1.3437,0 -2.125,-0.9687 -0.9062,-1.1563 -0.9062,-3.7813 z m 1.1719,0 q 0,2.2969 0.5312,3.0547 0.5312,0.7579 1.3281,0.7579 0.7813,0 1.3203,-0.7579 0.5391,-0.7578 0.5391,-3.0547 0,-2.2968 -0.5391,-3.0468 -0.539,-0.75 -1.3359,-0.75 -0.7813,0 -1.2656,0.6562 -0.5781,0.8594 -0.5781,3.1406 z M -10.5825,5.5 V 4.2031 h 1.2969 V 5.5 Z M -5.8613,0.4531 Q -6.5645,0.1875 -6.9082,-0.2891 -7.252,-0.7656 -7.252,-1.4375 q 0,-1.0156 0.7266,-1.7109 0.7266,-0.6954 1.9453,-0.6954 1.2188,0 1.961,0.711 0.7421,0.7109 0.7421,1.7266 0,0.6406 -0.3437,1.1171 -0.3438,0.4766 -1.0313,0.7422 0.8594,0.2813 1.3047,0.9063 0.4453,0.625 0.4453,1.4844 0,1.1874 -0.8437,2 -0.8438,0.8124 -2.2188,0.8124 -1.375,0 -2.2187,-0.8124 -0.8438,-0.8126 -0.8438,-2.0313 0,-0.9063 0.461,-1.5234 0.4609,-0.6172 1.3047,-0.836 z m -0.2344,-1.9375 q 0,0.6563 0.4297,1.0782 0.4297,0.4218 1.1015,0.4218 0.6719,0 1.0938,-0.414 0.4219,-0.4141 0.4219,-1.0235 0,-0.625 -0.4375,-1.0547 -0.4375,-0.4296 -1.0782,-0.4296 -0.6562,0 -1.0937,0.4218 -0.4375,0.4219 -0.4375,1 z m -0.3594,4.2969 q 0,0.4844 0.2344,0.9453 0.2344,0.461 0.6875,0.711 0.4531,0.25 0.9844,0.25 0.8125,0 1.3437,-0.5235 0.5313,-0.5234 0.5313,-1.3359 0,-0.8282 -0.5469,-1.3672 -0.5469,-0.5391 -1.375,-0.5391 -0.7969,0 -1.3281,0.5313 -0.5313,0.5312 -0.5313,1.3281 z"
       style="stroke:none" />
  </g>
  <g
     id="g217"
     style="font-size:13px;font-family:SansSerif;color-interpolation:linearRGB;fill:#262626;stroke:#262626;color-rendering:optimizeQuality;image-rendering:optimizeQuality;text-rendering:geometricPrecision"
     transform="translate(37.7344,28.58335)">
    <path
       inkscape:connector-curvature="0"
       id="path215"
       d="m -3.1562,5.5 h -1.1407 v -7.2812 q -0.4219,0.3906 -1.0859,0.789 -0.6641,0.3984 -1.1953,0.586 v -1.1094 q 0.9531,-0.4375 1.6719,-1.0782 0.7187,-0.6406 1.0156,-1.25 h 0.7344 z"
       style="stroke:none" />
  </g>
  <g
     id="g221"
     style="font-size:15px;font-family:SansSerif;color-interpolation:linearRGB;fill:#262626;stroke:#262626;color-rendering:optimizeQuality;image-rendering:optimizeQuality;text-rendering:geometricPrecision"
     transform="rotate(-90,92.283775,77.549375)">
    <path
       inkscape:connector-curvature="0"
       id="path219"
       d="m -46.125,-5.1719 0.1875,1.1563 q -0.5625,0.125 -1,0.125 -0.7187,0 -1.1172,-0.2344 -0.3984,-0.2344 -0.5547,-0.6016 -0.1562,-0.3672 -0.1562,-1.5546 V -10.75 h -0.9688 v -1.0312 h 0.9688 v -1.9219 l 1.3125,-0.7969 v 2.7188 h 1.3281 v 1.0312 h -1.3281 v 4.5469 q 0,0.5625 0.0703,0.7265 0.0703,0.1641 0.2266,0.2578 0.1562,0.0938 0.4374,0.0938 0.2344,0 0.5938,-0.0469 z M -44.8638,-4 v -7.7812 h 1.1875 v 1.1874 q 0.4532,-0.8281 0.8438,-1.0937 0.3906,-0.2656 0.8437,-0.2656 0.6719,0 1.3594,0.4219 l -0.4531,1.2187 q -0.4844,-0.2813 -0.9688,-0.2813 -0.4375,0 -0.7812,0.2579 -0.3438,0.2578 -0.4844,0.7265 -0.2187,0.7032 -0.2187,1.5313 V -4 Z m 10.0889,-0.9531 q -0.7344,0.6093 -1.4063,0.8672 -0.6718,0.2578 -1.4531,0.2578 -1.2812,0 -1.9687,-0.625 -0.6875,-0.625 -0.6875,-1.5938 0,-0.5781 0.2578,-1.0469 0.2578,-0.4687 0.6797,-0.7578 0.4218,-0.289 0.9531,-0.4296 0.375,-0.1094 1.1719,-0.2032 1.5937,-0.1875 2.3437,-0.4531 0.0156,-0.2656 0.0156,-0.3437 0,-0.8126 -0.375,-1.1407 -0.5156,-0.4375 -1.5,-0.4375 -0.9375,0 -1.3828,0.3203 -0.4453,0.3203 -0.6484,1.1485 l -1.2969,-0.1719 q 0.1719,-0.8281 0.5781,-1.3359 0.4063,-0.5078 1.1719,-0.7813 0.7656,-0.2734 1.7656,-0.2734 1,0 1.6172,0.2343 0.6172,0.2344 0.9141,0.586 0.2969,0.3516 0.4062,0.8984 0.0625,0.3438 0.0625,1.2188 v 1.75 q 0,1.8437 0.086,2.3281 0.0859,0.4844 0.3359,0.9375 h -1.375 q -0.2031,-0.4062 -0.2656,-0.9531 z m -0.1094,-2.9531 q -0.7187,0.2968 -2.1562,0.5 -0.8125,0.125 -1.1485,0.2656 -0.3359,0.1406 -0.5156,0.4218 -0.1797,0.2813 -0.1797,0.625 0,0.5313 0.3985,0.8829 0.3984,0.3515 1.164,0.3515 0.7656,0 1.3594,-0.3359 0.5937,-0.3359 0.875,-0.9141 0.2031,-0.4375 0.2031,-1.3125 z M -31.5107,-4 v -7.7812 h 1.1875 v 1.1093 q 0.8593,-1.2812 2.4843,-1.2812 0.7032,0 1.2891,0.25 0.5859,0.25 0.8828,0.664 0.2969,0.4141 0.4063,0.9766 0.0781,0.3594 0.0781,1.2813 V -4 h -1.3281 v -4.7344 q 0,-0.7968 -0.1485,-1.1953 -0.1484,-0.3984 -0.539,-0.6406 -0.3907,-0.2422 -0.9219,-0.2422 -0.8438,0 -1.4531,0.5313 -0.6094,0.5312 -0.6094,2.0312 V -4 Z m 7.8266,-2.3281 1.2969,-0.2031 q 0.1094,0.7812 0.6094,1.2031 0.5,0.4219 1.4062,0.4219 0.9063,0 1.3438,-0.3672 0.4375,-0.3672 0.4375,-0.8672 0,-0.4532 -0.3907,-0.7032 -0.2656,-0.1874 -1.3437,-0.4531 -1.4531,-0.3593 -2.0078,-0.6328 -0.5547,-0.2734 -0.8438,-0.7422 -0.289,-0.4687 -0.289,-1.0469 0,-0.5156 0.2343,-0.9609 0.2344,-0.4453 0.6407,-0.7265 0.3125,-0.2344 0.8437,-0.3907 0.5313,-0.1562 1.1406,-0.1562 0.9063,0 1.6016,0.2656 0.6953,0.2656 1.0234,0.7109 0.3282,0.4454 0.4532,1.211 l -1.2813,0.1718 q -0.0937,-0.6093 -0.5156,-0.9453 -0.4219,-0.3359 -1.1875,-0.3359 -0.9063,0 -1.2969,0.3047 -0.3906,0.3047 -0.3906,0.7109 0,0.25 0.1562,0.4532 0.1719,0.2187 0.5157,0.3593 0.1875,0.0625 1.1562,0.3281 1.4063,0.375 1.961,0.6094 0.5546,0.2344 0.8671,0.6953 0.3125,0.461 0.3125,1.1329 0,0.6562 -0.3828,1.2343 -0.3828,0.5781 -1.1093,0.8985 -0.7266,0.3203 -1.6485,0.3203 -1.5156,0 -2.3047,-0.625 -0.789,-0.625 -1.0078,-1.875 z M -15.6685,-4 v -7.7812 h 1.1875 v 1.0937 q 0.3594,-0.5781 0.9688,-0.9219 0.6094,-0.3437 1.3906,-0.3437 0.8594,0 1.4141,0.3593 0.5547,0.3594 0.7734,1 0.9219,-1.3593 2.4063,-1.3593 1.1562,0 1.7812,0.6406 0.625,0.6406 0.625,1.9687 V -4 h -1.3125 v -4.9062 q 0,-0.7813 -0.125,-1.1329 -0.125,-0.3515 -0.4687,-0.5625 -0.3438,-0.2109 -0.7969,-0.2109 -0.8125,0 -1.3594,0.5469 -0.5469,0.5468 -0.5469,1.75 V -4 h -1.3125 v -5.0469 q 0,-0.8906 -0.3203,-1.3281 -0.3203,-0.4375 -1.0547,-0.4375 -0.5625,0 -1.0312,0.2969 -0.4688,0.2968 -0.6797,0.8594 -0.2109,0.5624 -0.2109,1.625 V -4 Z m 12.5108,-9.2188 v -1.5156 h 1.3125 v 1.5156 z m 0,9.2188 v -7.7812 h 1.3125 V -4 Z m 2.8013,-2.3281 1.2968,-0.2031 q 0.1094,0.7812 0.6094,1.2031 0.5,0.4219 1.4063,0.4219 0.9062,0 1.3437,-0.3672 0.4375,-0.3672 0.4375,-0.8672 0,-0.4532 -0.3906,-0.7032 Q 4.0811,-7.0312 3.0029,-7.2969 1.5498,-7.6562 0.9951,-7.9297 0.4404,-8.2031 0.1514,-8.6719 q -0.2891,-0.4687 -0.2891,-1.0469 0,-0.5156 0.2344,-0.9609 0.2344,-0.4453 0.6406,-0.7265 0.3125,-0.2344 0.8438,-0.3907 0.5312,-0.1562 1.1406,-0.1562 0.9062,0 1.6015,0.2656 0.6954,0.2656 1.0235,0.7109 0.3281,0.4454 0.4531,1.211 l -1.2812,0.1718 q -0.0938,-0.6093 -0.5157,-0.9453 -0.4218,-0.3359 -1.1875,-0.3359 -0.9062,0 -1.2968,0.3047 -0.3907,0.3047 -0.3907,0.7109 0,0.25 0.1563,0.4532 0.1719,0.2187 0.5156,0.3593 0.1875,0.0625 1.1563,0.3281 1.4062,0.375 1.9609,0.6094 0.5547,0.2344 0.8672,0.6953 0.3125,0.461 0.3125,1.1329 0,0.6562 -0.3828,1.2343 -0.3828,0.5781 -1.1094,0.8985 -0.7266,0.3203 -1.6484,0.3203 -1.5157,0 -2.3047,-0.625 -0.7891,-0.625 -1.0078,-1.875 z m 7.5,0 1.2968,-0.2031 q 0.1094,0.7812 0.6094,1.2031 0.5,0.4219 1.4063,0.4219 0.9062,0 1.3437,-0.3672 0.4375,-0.3672 0.4375,-0.8672 0,-0.4532 -0.3906,-0.7032 Q 11.5811,-7.0312 10.5029,-7.2969 9.0498,-7.6562 8.4951,-7.9297 7.9404,-8.2031 7.6514,-8.6719 7.3623,-9.1406 7.3623,-9.7188 q 0,-0.5156 0.2344,-0.9609 0.2344,-0.4453 0.6406,-0.7265 0.3125,-0.2344 0.8438,-0.3907 0.5312,-0.1562 1.1406,-0.1562 0.9062,0 1.6015,0.2656 0.6954,0.2656 1.0235,0.7109 0.3281,0.4454 0.4531,1.211 l -1.2812,0.1718 q -0.0938,-0.6093 -0.5157,-0.9453 -0.4218,-0.3359 -1.1875,-0.3359 -0.9062,0 -1.2968,0.3047 -0.3907,0.3047 -0.3907,0.7109 0,0.25 0.1563,0.4532 0.1719,0.2187 0.5156,0.3593 0.1875,0.0625 1.1563,0.3281 1.4062,0.375 1.9609,0.6094 0.5547,0.2344 0.8672,0.6953 0.3125,0.461 0.3125,1.1329 0,0.6562 -0.3828,1.2343 -0.3828,0.5781 -1.1094,0.8985 -0.7266,0.3203 -1.6484,0.3203 -1.5157,0 -2.3047,-0.625 -0.7891,-0.625 -1.0078,-1.875 z m 8.0312,-6.8907 v -1.5156 h 1.3125 v 1.5156 z m 0,9.2188 v -7.7812 h 1.3125 V -4 Z m 2.8325,-3.8906 q 0,-2.1563 1.2031,-3.2032 1,-0.8593 2.4375,-0.8593 1.6094,0 2.625,1.0469 1.0157,1.0468 1.0157,2.9062 0,1.5 -0.4453,2.3594 -0.4454,0.8594 -1.3125,1.3359 -0.8672,0.4766 -1.8829,0.4766 -1.625,0 -2.6328,-1.0469 -1.0078,-1.0469 -1.0078,-3.0156 z m 1.3594,0 q 0,1.5 0.6484,2.2422 0.6485,0.7422 1.6328,0.7422 0.9844,0 1.6407,-0.75 0.6562,-0.75 0.6562,-2.2813 0,-1.4375 -0.6562,-2.1797 -0.6563,-0.7422 -1.6407,-0.7422 -0.9843,0 -1.6328,0.7344 -0.6484,0.7344 -0.6484,2.2344 z M 26.834,-4 v -7.7812 h 1.1875 v 1.1093 q 0.8594,-1.2812 2.4844,-1.2812 0.7031,0 1.289,0.25 0.586,0.25 0.8828,0.664 0.2969,0.4141 0.4063,0.9766 0.0781,0.3594 0.0781,1.2813 V -4 H 31.834 v -4.7344 q 0,-0.7968 -0.1485,-1.1953 -0.1484,-0.3984 -0.539,-0.6406 -0.3906,-0.2422 -0.9219,-0.2422 -0.8437,0 -1.4531,0.5313 Q 28.1621,-9.75 28.1621,-8.25 V -4 Z m 12.6816,0 v -10.7344 h 3.7032 q 1.25,0 1.9062,0.1563 0.9219,0.2031 1.5781,0.7656 0.8438,0.7187 1.2657,1.8359 0.4218,1.1172 0.4218,2.5547 0,1.2188 -0.2812,2.1641 -0.2813,0.9453 -0.7344,1.5625 -0.4531,0.6172 -0.9844,0.9765 -0.5312,0.3594 -1.2812,0.5391 Q 44.3594,-4 43.3906,-4 Z m 1.4219,-1.2656 h 2.2969 q 1.0625,0 1.664,-0.1953 0.6016,-0.1953 0.961,-0.5547 0.5,-0.5156 0.7812,-1.3672 0.2813,-0.8516 0.2813,-2.0703 0,-1.6875 -0.5469,-2.586 -0.5469,-0.8984 -1.3438,-1.2109 -0.5781,-0.2188 -1.8437,-0.2188 h -2.25 z"
       style="stroke:none" />
  </g>
  <g
     id="g325"
     style="color-interpolation:linearRGB;stroke-width:0.66670001;stroke-linecap:butt;stroke-linejoin:round;color-rendering:optimizeQuality;image-rendering:optimizeQuality;text-rendering:geometricPrecision"
     transform="translate(-29.9323,-30.66665)">
    <path
       inkscape:connector-curvature="0"
       id="path223"
       style="fill:none;fill-rule:evenodd"
       d="m 95.9302,59.25 h 19.407 19.407 19.407 19.4069 19.407 19.407 19.407 19.407 19.4069 19.407 19.407 19.407 19.4069 19.407 19.407 19.407 19.4069 19.407 19.407 19.407" />
    <path
       inkscape:connector-curvature="0"
       id="path225"
       style="fill:none;fill-rule:evenodd"
       d="m 95.9302,59.0493 19.407,-3.015 19.407,5.2504 19.407,2.2476 19.4069,-9.3182 19.407,5.5209 19.407,-4.5186 19.407,0.7837 19.407,3.3881 19.4069,0.081 19.407,-0.0057 19.407,0.3844 19.407,4.4518 19.4069,-4.9409 19.407,-0.467 19.407,1.3946 19.407,-0.1811 19.4069,3.2721 19.407,-2.9957 19.407,-3.7637 19.407,0.8934" />
    <path
       inkscape:connector-curvature="0"
       id="path227"
       style="fill:none;fill-rule:evenodd"
       d="m 95.9302,59.0599 19.407,-2.0322 19.407,3.4218 19.407,1.7257 19.4069,-6.1181 19.407,5.4905 19.407,-5.8543 19.407,1.6727 19.407,2.5046 19.4069,-0.9938 19.407,0.3415 19.407,-2.6173 19.407,4.7468 19.4069,-3.141 19.407,1.4842 19.407,-2.9992 19.407,2.7755 19.4069,3.2965 19.407,-4.6499 19.407,-0.5866 19.407,0.4006" />
    <path
       inkscape:connector-curvature="0"
       id="path229"
       style="fill:none;fill-rule:evenodd"
       d="m 95.9302,59.6142 19.407,-0.1585 19.407,2.2593 19.407,0.611 19.4069,-6.4992 19.407,3.0742 19.407,-4.4161 19.407,0.7479 19.407,4.2558 19.4069,0.3405 19.407,1.2448 19.407,-1.053 19.407,0.9537 19.4069,-1.3689 19.407,-0.7142 19.407,0.0614 19.407,2.2286 19.4069,-0.3842 19.407,-1.2828 19.407,-1.0506 19.407,-3.037" />
    <path
       inkscape:connector-curvature="0"
       id="path231"
       style="fill:none;fill-rule:evenodd"
       d="m 95.9302,64.4103 19.407,-7.86 19.407,6.3662 19.407,-1.3459 19.4069,-4.441 19.407,4.3562 19.407,-2.1399 19.407,-1.4207 19.407,1.4249 19.4069,0.7133 19.407,2.637 19.407,-4.0512 19.407,2.9176 19.4069,-0.4598 19.407,-1.2721 19.407,-0.8239 19.407,1.4506 19.4069,1.5182 19.407,-0.5152 19.407,-6.3602 19.407,2.8463" />
    <path
       inkscape:connector-curvature="0"
       id="path233"
       style="fill:none;fill-rule:evenodd"
       d="m 95.9302,64.5449 19.407,-6.9821 19.407,3.7373 19.407,3.4949 19.4069,-9.4154 19.407,4.2701 19.407,-3.5456 19.407,2.3569 19.407,1.755 19.4069,0.2253 19.407,1.327 19.407,-4.0155 19.407,4.6545 19.4069,-0.0976 19.407,-3.8139 19.407,2.0756 19.407,-1.2162 19.4069,3.3173 19.407,-0.6777 19.407,-3.1496 19.407,2.6105" />
    <path
       inkscape:connector-curvature="0"
       id="path235"
       style="fill:none;fill-rule:evenodd"
       d="m 95.9302,91.2619 19.407,-3.6234 19.407,2.4093 19.407,-2.4538 19.4069,-10.7978 19.407,3.675 19.407,-9.3125 19.407,-3.44 19.407,-0.5566 19.4069,2.4199 19.407,0.1173 19.407,-1.8709 19.407,2.7411 19.4069,0.276 19.407,4.0072 19.407,4.1047 19.407,0.8878 19.4069,5.8266 19.407,1.3089 19.407,1.643 19.407,-1.846" />
    <path
       inkscape:connector-curvature="0"
       id="path237"
       style="fill:none;fill-rule:evenodd"
       d="m 95.9302,103.5135 19.407,4.3252 19.407,-4.8806 19.407,-6.8052 19.4069,-15.72 19.407,-2.4567 19.407,-3.932 19.407,-7.906 19.407,-3.2893 19.4069,5.3318 19.407,-0.6228 19.407,-3.82 19.407,5.7318 19.4069,-1.5873 19.407,3.7718 19.407,6.4737 19.407,8.152 19.4069,9.0823 19.407,5.6176 19.407,-0.365 19.407,4.5575" />
    <path
       inkscape:connector-curvature="0"
       id="path239"
       style="fill:none;fill-rule:evenodd"
       d="m 95.9302,109.1531 19.407,1.0482 19.407,0.967 19.407,1.5477 19.4069,-10.579 19.407,-3.4883 19.407,-5.9776 19.407,-12.5782 19.407,-3.0536 19.4069,-0.3974 19.407,2.4565 19.407,-1.035 19.407,4.1317 19.4069,4.9887 19.407,4.1383 19.407,10.9838 19.407,1.6218 19.4069,4.8227 19.407,-1.2862 19.407,1.0185 19.407,-1.0033" />
    <path
       inkscape:connector-curvature="0"
       id="path241"
       style="fill:none;fill-rule:evenodd"
       d="m 95.9302,112.5335 19.407,0.5667 19.407,2.3446 19.407,1.8818 19.4069,-12.7269 19.407,3.5518 19.407,-11.2591 19.407,-6.7056 19.407,-1.2335 19.4069,-0.6044 19.407,0.871 19.407,-4.7903 19.407,7.6381 19.4069,2.3863 19.407,5.5526 19.407,4.1636 19.407,5.5611 19.4069,2.5866 19.407,0.6961 19.407,-3.6751 19.407,0.7798" />
    <path
       inkscape:connector-curvature="0"
       id="path243"
       style="fill:none;fill-rule:evenodd"
       d="m 95.9302,116.1 19.407,1.3263 19.407,1.5795 19.407,-1.7843 19.4069,-5.1598 19.407,1.7072 19.407,-3.4015 19.407,-10.0713 19.407,1.6647 19.4069,-2.5096 19.407,-0.7421 19.407,-2.4135 19.407,8.2622 19.4069,2.676 19.407,3.2906 19.407,2.411 19.407,2.0241 19.4069,2.8424 19.407,0.8503 19.407,-5.5659 19.407,2.2425" />
    <path
       inkscape:connector-curvature="0"
       id="path245"
       style="fill:none;fill-rule:evenodd"
       d="m 95.9302,121.0906 19.407,0.4732 19.407,-1.2259 19.407,1.621 19.4069,-7.223 19.407,1.9616 19.407,-5.4631 19.407,-4.2941 19.407,3.6833 19.4069,-6.9475 19.407,5.4006 19.407,-3.1879 19.407,2.6657 19.4069,3.8138 19.407,1.7957 19.407,3.0922 19.407,-4.0389 19.4069,4.2792 19.407,1.8546 19.407,-2.3378 19.407,0.4636" />
    <path
       inkscape:connector-curvature="0"
       id="path247"
       style="fill:none;fill-rule:evenodd"
       d="m 95.9302,123.9667 19.407,-1.3356 19.407,0.2245 19.407,2.0415 19.4069,-9.0184 19.407,5.0967 19.407,-7.2172 19.407,-9.0028 19.407,-0.4139 19.4069,-0.3897 19.407,-1.4027 19.407,0.7188 19.407,4.5186 19.4069,1.441 19.407,2.0417 19.407,6.1786 19.407,-1.1615 19.4069,5.2418 19.407,2.0312 19.407,-2.0501 19.407,0.7191" />
    <path
       inkscape:connector-curvature="0"
       id="path249"
       style="fill:none;fill-rule:evenodd"
       d="m 95.9302,130.1697 19.407,-2.7635 19.407,2.6587 19.407,2.447 19.4069,-9.7092 19.407,1.8121 19.407,-6.9065 19.407,-13.9542 19.407,1.2736 19.4069,-1.9316 19.407,-3.1805 19.407,-1.1804 19.407,5.6045 19.4069,6.5833 19.407,6.4948 19.407,6.2835 19.407,3.5414 19.4069,2.8625 19.407,-1.5507 19.407,1.9396 19.407,-1.922" />
    <path
       inkscape:connector-curvature="0"
       id="path251"
       style="fill:none;fill-rule:evenodd"
       d="m 95.9302,131.9011 19.407,4.9686 19.407,-0.4838 19.407,-2.7827 19.4069,-3.492 19.407,5.7917 19.407,-6.3996 19.407,-9.5882 19.407,2.5939 19.4069,0.3681 19.407,0.2943 19.407,0.2745 19.407,4.9751 19.4069,-0.652 19.407,4.5006 19.407,-0.6051 19.407,3.5218 19.4069,-1.3693 19.407,-0.6325 19.407,1.5894 19.407,1.4425" />
    <path
       inkscape:connector-curvature="0"
       id="path253"
       style="fill:none;fill-rule:evenodd"
       d="m 95.9302,137.0589 19.407,-0.7967 19.407,7.6244 19.407,-1.7513 19.4069,-5.9708 19.407,3.036 19.407,0.4732 19.407,-9.5206 19.407,8.9258 19.4069,-0.9792 19.407,-4.8818 19.407,5.0688 19.407,2.3216 19.4069,1.9455 19.407,-1.3227 19.407,2.9168 19.407,-4.8426 19.4069,0.9764 19.407,-2.4076 19.407,-0.5204 19.407,0.3104" />
    <path
       inkscape:connector-curvature="0"
       id="path255"
       style="fill:none;fill-rule:evenodd"
       d="m 95.9302,144.9275 19.407,1.4539 19.407,4.9722 19.407,-5.155 19.4069,-2.8863 19.407,7.4823 19.407,-6.1048 19.407,-5.4136 19.407,9.0994 19.4069,2.1901 19.407,-1.1547 19.407,1.5581 19.407,-0.2729 19.4069,-2.9822 19.407,1.9022 19.407,-0.227 19.407,0.0854 19.4069,0.3015 19.407,-5.3276 19.407,-2.1176 19.407,0.7979" />
    <path
       inkscape:connector-curvature="0"
       id="path257"
       style="fill:none;fill-rule:evenodd"
       d="m 95.9302,149.5639 19.407,-0.2775 19.407,3.7305 19.407,0.6969 19.4069,-5.6211 19.407,3.6609 19.407,0.84 19.407,-11.3755 19.407,16.8054 19.4069,-1.9959 19.407,4.7611 19.407,-3.0443 19.407,1.1908 19.4069,-3.2221 19.407,-3.52 19.407,1.6739 19.407,-0.5281 19.4069,-0.9946 19.407,-0.4653 19.407,-2.5972 19.407,-0.8236" />
    <path
       inkscape:connector-curvature="0"
       id="path259"
       style="fill:none;fill-rule:evenodd"
       d="m 95.9302,155.8332 19.407,2.5554 19.407,-2.0618 19.407,3.1424 19.4069,-7.8202 19.407,5.8731 19.407,-4.4938 19.407,-11.9769 19.407,14.0553 19.4069,-2.0828 19.407,3.0408 19.407,-1.2659 19.407,2.5016 19.4069,-2.0122 19.407,-1.1868 19.407,1.4613 19.407,1.2637 19.4069,1.1683 19.407,-1.7112 19.407,-1.1913 19.407,-0.3361" />
    <path
       inkscape:connector-curvature="0"
       id="path261"
       style="fill:none;fill-rule:evenodd"
       d="m 95.9302,155.9599 19.407,0.9447 19.407,2.2645 19.407,0.9779 19.4069,-3.2009 19.407,0.0378 19.407,-2.3872 19.407,-8.7792 19.407,3.3575 19.4069,5.7333 19.407,-2.1204 19.407,-0.6772 19.407,4.271 19.4069,0.1084 19.407,2.9385 19.407,-0.2288 19.407,-1.4034 19.4069,-2.188 19.407,0.008 19.407,0.6914 19.407,3.2124" />
    <path
       inkscape:connector-curvature="0"
       id="path263"
       style="fill:none;fill-rule:evenodd"
       d="m 95.9302,157.1314 19.407,-0.1755 19.407,2.3876 19.407,-3.7768 19.4069,-0.3487 19.407,5.1272 19.407,-5.2287 19.407,-12.2445 19.407,10.8516 19.4069,-0.42 19.407,-1.1893 19.407,-2.6223 19.407,4.4563 19.4069,3.1819 19.407,0.3719 19.407,-0.351 19.407,0.4854 19.4069,1.4056 19.407,-4.3422 19.407,2.3152 19.407,2.4571" />
    <path
       inkscape:connector-curvature="0"
       id="path265"
       style="fill:none;fill-rule:evenodd"
       d="m 95.9302,158.4751 19.407,3.2182 19.407,-1.8837 19.407,0.2405 19.4069,-4.7822 19.407,6.0838 19.407,-6.1705 19.407,-4.7944 19.407,9.9351 19.4069,-2.1871 19.407,1.8579 19.407,-3.1959 19.407,1.382 19.4069,-0.4884 19.407,1.624 19.407,-0.2882 19.407,0.0853 19.4069,3.2093 19.407,-0.6292 19.407,-3.4879 19.407,0.674" />
    <path
       inkscape:connector-curvature="0"
       id="path267"
       style="fill:none;fill-rule:evenodd"
       d="m 95.9302,162.8659 19.407,3.5204 19.407,-1.6354 19.407,3.3904 19.4069,-3.5121 19.407,3.5429 19.407,-6.7292 19.407,-10.2091 19.407,10.1268 19.4069,-1.2876 19.407,-1.1745 19.407,0.6057 19.407,2.7446 19.4069,0.6645 19.407,0.1472 19.407,2e-4 19.407,2.3131 19.4069,3.0016 19.407,-2.5002 19.407,-3.8156 19.407,2.0099" />
    <path
       inkscape:connector-curvature="0"
       id="path269"
       style="fill:none;fill-rule:evenodd"
       d="m 95.9302,165.7856 19.407,3.155 19.407,-3.1639 19.407,4.689 19.4069,-3.0113 19.407,2.0912 19.407,-3.2185 19.407,-9.7631 19.407,11.294 19.4069,-5.2083 19.407,2.0475 19.407,0.8465 19.407,2.4627 19.4069,-1.7614 19.407,-2.5054 19.407,6.0131 19.407,-0.8997 19.4069,2.6993 19.407,-3.3877 19.407,-0.6419 19.407,0.1251" />
    <path
       inkscape:connector-curvature="0"
       id="path271"
       style="fill:none;fill-rule:evenodd"
       d="m 95.9302,172.7607 19.407,-0.0334 19.407,-3.4133 19.407,7.088 19.4069,-6.5689 19.407,5.2295 19.407,-2.167 19.407,-12.8571 19.407,13.6957 19.4069,-0.4124 19.407,1.4536 19.407,-0.9124 19.407,1.2093 19.4069,-3.4603 19.407,-0.8861 19.407,-1.0017 19.407,4.8915 19.4069,-2.2091 19.407,0.7784 19.407,-5.41 19.407,5.4817" />
    <path
       inkscape:connector-curvature="0"
       id="path273"
       style="fill:none;fill-rule:evenodd"
       d="m 95.9302,172.8896 19.407,7.4555 19.407,0.4204 19.407,-2.164 19.4069,-1.5178 19.407,1.4609 19.407,-5.5889 19.407,-13.4814 19.407,11.5257 19.4069,0.007 19.407,-4.6659 19.407,2.6794 19.407,3.7905 19.4069,1.0411 19.407,0.8943 19.407,6.8811 19.407,-3.5919 19.4069,0.2383 19.407,2.0544 19.407,-2.0154 19.407,-1.6431" />
    <path
       inkscape:connector-curvature="0"
       id="path275"
       style="fill:none;fill-rule:evenodd"
       d="m 95.9302,180.9988 19.407,1.5829 19.407,3.1041 19.407,-2.4201 19.4069,-2.6511 19.407,-1.7501 19.407,-2.3668 19.407,-9.7476 19.407,14.6508 19.4069,1.6751 19.407,2.5669 19.407,-3.3179 19.407,-0.5406 19.4069,0.4284 19.407,-4.5153 19.407,3.9326 19.407,-0.9938 19.4069,2.0476 19.407,0.9773 19.407,-3.8788 19.407,1.9513" />
    <path
       inkscape:connector-curvature="0"
       id="path277"
       style="fill:none;fill-rule:evenodd"
       d="m 95.9302,193.4196 19.407,-2.8854 19.407,1.3565 19.407,1.6178 19.4069,-7.1577 19.407,5.5383 19.407,-3.5138 19.407,-16.5367 19.407,10.0256 19.4069,-0.0313 19.407,-0.2669 19.407,0.3545 19.407,1.1983 19.4069,2.2962 19.407,2.6417 19.407,-0.3725 19.407,4.8422 19.4069,1.4565 19.407,-3.2415 19.407,1.7376 19.407,-1.0138" />
    <path
       inkscape:connector-curvature="0"
       id="path279"
       style="fill:none;fill-rule:evenodd"
       d="m 95.9302,192.4216 19.407,2.9735 19.407,-6.3031 19.407,9.0385 19.4069,-5.381 19.407,4.2485 19.407,-3.225 19.407,-12.1276 19.407,8.6976 19.4069,-3.0411 19.407,2.1333 19.407,-1.1816 19.407,7.4325 19.4069,-3.1321 19.407,1.9798 19.407,0.334 19.407,0.9519 19.4069,0.1692 19.407,-4.5005 19.407,-0.3583 19.407,1.2217" />
    <path
       inkscape:connector-curvature="0"
       id="path281"
       style="fill:none;fill-rule:evenodd"
       d="m 95.9302,194.6585 19.407,2.1233 19.407,0.2812 19.407,2.5002 19.4069,-6.137 19.407,6.5294 19.407,-2.7518 19.407,-15.094 19.407,6.2455 19.4069,6.6763 19.407,-4.9029 19.407,3.8944 19.407,1.4326 19.4069,2.0088 19.407,-1.6846 19.407,5.2566 19.407,-3.0948 19.4069,-2.2645 19.407,0.5103 19.407,-1.2159 19.407,1.1763" />
    <path
       inkscape:connector-curvature="0"
       id="path283"
       style="fill:none;fill-rule:evenodd"
       d="m 95.9302,197.2956 19.407,1.5583 19.407,3.3441 19.407,4.8353 19.4069,-1.3351 19.407,2.1449 19.407,2.8309 19.407,-12.459 19.407,17.6261 19.4069,1.3504 19.407,2.1252 19.407,-4.1291 19.407,0.407 19.4069,-1.669 19.407,-3.5558 19.407,0.7123 19.407,-3.1386 19.4069,-1.289 19.407,-2.8334 19.407,-4.9749 19.407,2.5385" />
    <path
       inkscape:connector-curvature="0"
       id="path285"
       style="fill:none;fill-rule:evenodd"
       d="m 95.9302,201.8633 19.407,5.5245 19.407,-4.0899 19.407,9.4806 19.4069,-0.9178 19.407,8.0866 19.407,2.1762 19.407,-14.2736 19.407,17.0225 19.4069,3.4888 19.407,1.5719 19.407,1.3649 19.407,-1.8644 19.4069,-2.5216 19.407,-5.9576 19.407,-4.0327 19.407,-5.1533 19.4069,-2.2884 19.407,-4.678 19.407,-0.9164 19.407,-1.35" />
    <path
       inkscape:connector-curvature="0"
       id="path287"
       style="fill:none;fill-rule:evenodd"
       d="m 95.9302,208.6578 19.407,3.354 19.407,-1.2277 19.407,2.5039 19.4069,-0.6216 19.407,5.2839 19.407,0.3043 19.407,-12.5977 19.407,21.3699 19.4069,4.053 19.407,-0.7846 19.407,-1.7184 19.407,-4.0831 19.4069,0.2986 19.407,-2.6042 19.407,-1.0677 19.407,-8.1247 19.4069,0.9015 19.407,-2.6715 19.407,-1.3909 19.407,-3.9399" />
    <path
       inkscape:connector-curvature="0"
       id="path289"
       style="fill:none;fill-rule:evenodd"
       d="m 95.9302,212.4986 19.407,-0.688 19.407,-3.2212 19.407,6.7644 19.4069,-2.3466 19.407,7.4151 19.407,6.56 19.407,-2.8428 19.407,24.9382 19.4069,4.0205 19.407,-1.7931 19.407,6.5429 19.407,-8.4254 19.4069,-9.7447 19.407,-11.2445 19.407,-8.2662 19.407,-2.2895 19.4069,-1.6206 19.407,-3.9111 19.407,1.0004 19.407,1.1721" />
    <path
       inkscape:connector-curvature="0"
       id="path291"
       style="fill:none;fill-rule:evenodd"
       d="m 95.9302,211.2282 19.407,-3.8733 19.407,-0.1886 19.407,0.7433 19.4069,-5.3391 19.407,6.3493 19.407,15.8126 19.407,1.8058 19.407,39.1957 19.4069,4.608 19.407,5.183 19.407,-3.2259 19.407,-9.9257 19.4069,-14.1601 19.407,-21.5042 19.407,-7.326 19.407,-10.4474 19.4069,-1.9726 19.407,2.3612 19.407,-0.2387 19.407,0.0166" />
    <path
       inkscape:connector-curvature="0"
       id="path293"
       style="fill:none;fill-rule:evenodd"
       d="m 95.9302,217.9209 19.407,5.0724 19.407,0.36 19.407,-3.1689 19.4069,-2.0342 19.407,-1.6661 19.407,4.2555 19.407,-19.2617 19.407,15.5527 19.4069,3.6174 19.407,-5.9875 19.407,-0.0383 19.407,3.6348 19.4069,-3.6407 19.407,2.188 19.407,3.7404 19.407,1.2953 19.4069,-0.1433 19.407,0.2282 19.407,-0.7481 19.407,-0.1135" />
    <path
       inkscape:connector-curvature="0"
       id="path295"
       style="fill:none;fill-rule:evenodd"
       d="m 95.9302,229.8959 19.407,6.3833 19.407,0.0513 19.407,-2.9521 19.4069,-6.5035 19.407,0.9994 19.407,-0.0642 19.407,-9.7741 19.407,32.4486 19.4069,14.0998 19.407,-11.8128 19.407,-0.7329 19.407,-2.2369 19.4069,-10.7648 19.407,-16.0644 19.407,0.6701 19.407,6.0216 19.4069,4.068 19.407,5.3078 19.407,-4.9458 19.407,-0.3051" />
    <path
       inkscape:connector-curvature="0"
       id="path297"
       style="fill:none;fill-rule:evenodd"
       d="m 95.9302,244.8733 19.407,-0.9318 19.407,-4.9272 19.407,-0.4255 19.4069,-3.2951 19.407,7.0812 19.407,7.1682 19.407,-9.3943 19.407,33.1021 19.4069,3.5766 19.407,-8.5316 19.407,13.8202 19.407,-6.4533 19.4069,-13.2775 19.407,-19.9078 19.407,-2.0067 19.407,-5.0631 19.4069,3.1014 19.407,-2.6697 19.407,4.8977 19.407,3.6389" />
    <path
       inkscape:connector-curvature="0"
       id="path299"
       style="fill:none;fill-rule:evenodd"
       d="m 95.9302,235.8049 19.407,1.4449 19.407,1.996 19.407,5.4744 19.4069,4.5351 19.407,17.1671 19.407,16.2012 19.407,-8.7005 19.407,32.2222 19.4069,5.3375 19.407,-9.8203 19.407,10.3236 19.407,-3.6964 19.4069,-10.682 19.407,-12.0828 19.407,-17.3538 19.407,-14.4765 19.4069,-8.7471 19.407,-6.7015 19.407,-2.3022 19.407,1.2481" />
    <path
       inkscape:connector-curvature="0"
       id="path301"
       style="fill:none;fill-rule:evenodd"
       d="m 95.9302,234.8435 19.407,6.204 19.407,-1.9923 19.407,2.9291 19.4069,7.1733 19.407,13.7275 19.407,19.5674 19.407,-3.8713 19.407,32.8289 19.4069,1.0196 19.407,-7.5932 19.407,8.6366 19.407,-6.4084 19.4069,-4.8718 19.407,-16.8036 19.407,-13.0279 19.407,-13.7147 19.4069,-13.2229 19.407,-3.5085 19.407,-4.6749 19.407,0.0692" />
    <path
       inkscape:connector-curvature="0"
       id="path303"
       style="fill:none;fill-rule:evenodd"
       d="m 95.9302,242.4178 19.407,-2.6625 19.407,1.8121 19.407,1.313 19.4069,-3.6457 19.407,-1.8057 19.407,13.5713 19.407,-0.6172 19.407,21.901 19.4069,13.723 19.407,-21.6052 19.407,16.8354 19.407,-9.8614 19.4069,-3.0969 19.407,-11.5303 19.407,-4.4613 19.407,-10.3311 19.4069,-0.943 19.407,-0.8798 19.407,1.4878 19.407,-0.2925" />
    <path
       inkscape:connector-curvature="0"
       id="path305"
       style="fill:none;fill-rule:evenodd"
       d="m 95.9302,243.9136 19.407,3.8031 19.407,-5.2474 19.407,-0.5553 19.4069,-2.9842 19.407,-2.8499 19.407,8.0147 19.407,-5.3069 19.407,30.5686 19.4069,-3.4443 19.407,3.9331 19.407,10.1153 19.407,-11.9644 19.4069,-12.3341 19.407,-17.8897 19.407,-3.4069 19.407,2.4709 19.4069,3.376 19.407,4.1775 19.407,2.2892 19.407,-0.0494" />
    <path
       inkscape:connector-curvature="0"
       id="path307"
       style="fill:none;fill-rule:evenodd"
       d="m 95.9302,241.5017 19.407,4.4975 19.407,-1.5898 19.407,-1.0605 19.4069,-2.3326 19.407,2.5359 19.407,1.2712 19.407,-11.3398 19.407,13.6718 19.4069,0.002 19.407,3.9616 19.407,-4.7286 19.407,-4.3628 19.4069,2.1452 19.407,1.7304 19.407,-1.7543 19.407,2.118 19.4069,1.0438 19.407,-2.6189 19.407,0.4419 19.407,3.5292" />
    <path
       inkscape:connector-curvature="0"
       id="path309"
       style="fill:none;fill-rule:evenodd"
       d="m 95.9302,245.8359 19.407,-1.4426 19.407,-3.8274 19.407,3.3756 19.4069,1.6121 19.407,-1.5416 19.407,6.9897 19.407,-10.0134 19.407,21.3362 19.4069,4.2975 19.407,-3.202 19.407,-1.0242 19.407,-2.1616 19.4069,2.5747 19.407,-11.6356 19.407,-2.3518 19.407,-2.7738 19.4069,-3.4302 19.407,1.8273 19.407,-3.7158 19.407,3.4259" />
    <path
       inkscape:connector-curvature="0"
       id="path311"
       style="fill:none;fill-rule:evenodd"
       d="m 95.9302,250.7449 19.407,2.6306 19.407,-3.661 19.407,6.8592 19.4069,3.6398 19.407,6.9609 19.407,19.4188 19.407,4.1237 19.407,17.5486 19.4069,8.8492 19.407,-10.0398 19.407,9.8006 19.407,-6.6735 19.4069,-8.3751 19.407,-18.74 19.407,-11.6449 19.407,-7.5951 19.4069,-7.7903 19.407,-7.1679 19.407,-0.631 19.407,5.9243" />
    <path
       inkscape:connector-curvature="0"
       id="path313"
       style="fill:none;fill-rule:evenodd"
       d="m 95.9302,243.1195 19.407,-0.5285 19.407,1.5966 19.407,0.237 19.4069,5.2827 19.407,11.0934 19.407,12.1141 19.407,14.4772 19.407,10.3443 19.4069,2.8619 19.407,-10.924 19.407,12.3652 19.407,-3.6593 19.4069,-9.1988 19.407,-16.7217 19.407,-13.5089 19.407,-10.2184 19.4069,-6.2359 19.407,-0.1128 19.407,-0.2955 19.407,-1.5083" />
    <path
       inkscape:connector-curvature="0"
       id="path315"
       style="fill:none;fill-rule:evenodd"
       d="m 95.9302,245.1596 19.407,2.1203 19.407,7.4264 19.407,8.1622 19.4069,9.3538 19.407,11.7127 19.407,16.9866 19.407,10.5335 19.407,5.5896 19.4069,2.2538 19.407,2.0687 19.407,-2.9949 19.407,-4.0316 19.4069,-8.8521 19.407,-10.5903 19.407,-7.5221 19.407,-13.0718 19.4069,-9.8794 19.407,-6.2286 19.407,-2.8943 19.407,-5.7329" />
    <path
       inkscape:connector-curvature="0"
       id="path317"
       style="fill:none;fill-rule:evenodd"
       d="m 95.9302,289.6724 19.407,15.1791 19.407,5.0424 19.407,11.9737 19.4069,5.0028 19.407,5.7845 19.407,2.8592 19.407,1.9474 19.407,1.1223 19.4069,-0.7368 19.407,-1.4735 19.407,6.4295 19.407,-5.5065 19.4069,0.8731 19.407,-2.7688 19.407,0.2053 19.407,-5.5269 19.4069,-6.9253 19.407,-3.5519 19.407,-13.9254 19.407,-10.9671" />
    <path
       inkscape:connector-curvature="0"
       id="path319"
       style="fill:none;fill-rule:evenodd"
       d="m 95.9302,342.2182 19.407,0.7088 19.407,-2.9865 19.407,0.878 19.4069,0.7944 19.407,-0.7958 19.407,4.3031 19.407,-3.9331 19.407,1.1824 19.4069,-2.6322 19.407,0.1496 19.407,4.2159 19.407,-1.8966 19.4069,0.7781 19.407,-1.7607 19.407,-1.0287 19.407,3.5776 19.4069,-1.4894 19.407,-0.3995 19.407,-0.1283 19.407,-0.4943" />
    <path
       inkscape:connector-curvature="0"
       id="path321"
       style="fill:none;fill-rule:evenodd"
       d="m 95.9302,338.0353 19.407,4.577 19.407,-3.0558 19.407,1.452 19.4069,2.1267 19.407,-3.3487 19.407,6.7159 19.407,-1.872 19.407,-3.5413 19.4069,-0.1463 19.407,0.8971 19.407,1.4216 19.407,-2.212 19.4069,2.3707 19.407,-2.3453 19.407,-0.6054 19.407,0.9777 19.4069,0.579 19.407,-0.5133 19.407,-0.8465 19.407,0.8666" />
    <path
       inkscape:connector-curvature="0"
       id="path323"
       style="fill:none;fill-rule:evenodd"
       d="m 95.9302,341.75 h 19.407 19.407 19.407 19.4069 19.407 19.407 19.407 19.407 19.4069 19.407 19.407 19.407 19.4069 19.407 19.407 19.407 19.4069 19.407 19.407 19.407" />
  </g>
</svg>
