<?xml version="1.0" encoding="UTF-8" standalone="no"?>
<svg
   xmlns:dc="http://purl.org/dc/elements/1.1/"
   xmlns:cc="http://creativecommons.org/ns#"
   xmlns:rdf="http://www.w3.org/1999/02/22-rdf-syntax-ns#"
   xmlns:svg="http://www.w3.org/2000/svg"
   xmlns="http://www.w3.org/2000/svg"
   xmlns:sodipodi="http://sodipodi.sourceforge.net/DTD/sodipodi-0.dtd"
   xmlns:inkscape="http://www.inkscape.org/namespaces/inkscape"
   style="font-style:normal;font-weight:normal;font-size:12px;font-family:Dialog;color-interpolation:auto;fill:#000000;fill-opacity:1;stroke:#000000;stroke-width:1;stroke-linecap:square;stroke-linejoin:miter;stroke-miterlimit:10;stroke-dasharray:none;stroke-dashoffset:0;stroke-opacity:1;color-rendering:auto;image-rendering:auto;shape-rendering:auto;text-rendering:auto"
   width="474.86844"
   height="197.6667"
   version="1.1"
   id="svg649"
   sodipodi:docname="Th_result.svg"
   inkscape:version="0.92.3 (2405546, 2018-03-11)">
  <metadata
     id="metadata653">
    <rdf:RDF>
      <cc:Work
         rdf:about="">
        <dc:format>image/svg+xml</dc:format>
        <dc:type
           rdf:resource="http://purl.org/dc/dcmitype/StillImage" />
      </cc:Work>
    </rdf:RDF>
  </metadata>
  <sodipodi:namedview
     pagecolor="#ffffff"
     bordercolor="#666666"
     borderopacity="1"
     objecttolerance="10"
     gridtolerance="10"
     guidetolerance="10"
     inkscape:pageopacity="0"
     inkscape:pageshadow="2"
     inkscape:window-width="1600"
     inkscape:window-height="1137"
     id="namedview651"
     showgrid="false"
     inkscape:zoom="1.4606319"
     inkscape:cx="242.05199"
     inkscape:cy="0.3229"
     inkscape:window-x="-8"
     inkscape:window-y="-8"
     inkscape:window-maximized="1"
     inkscape:current-layer="svg649" />
  <!--Generated by the Batik Graphics2D SVG Generator-->
  <defs
     id="genericDefs">
    <defs
       id="defs1">
      <clipPath
         id="clipPath1"
         clipPathUnits="userSpaceOnUse">
        <path
           id="path3"
           d="M 0,0 H 553 V 457 H 0 Z"
           inkscape:connector-curvature="0" />
      </clipPath>
      <clipPath
         id="clipPath2"
         clipPathUnits="userSpaceOnUse">
        <path
           id="path6"
           d="M 82,83 H 0 V 0 h 82 z"
           inkscape:connector-curvature="0" />
      </clipPath>
      <clipPath
         id="clipPath3"
         clipPathUnits="userSpaceOnUse">
        <path
           id="path9"
           d="M 0,302 H 34 V 0 Z"
           inkscape:connector-curvature="0" />
      </clipPath>
      <clipPath
         id="clipPath4"
         clipPathUnits="userSpaceOnUse">
        <path
           id="path12"
           d="M 34,0 H 0 v 302 z"
           inkscape:connector-curvature="0" />
      </clipPath>
      <clipPath
         id="clipPath5"
         clipPathUnits="userSpaceOnUse">
        <path
           id="path15"
           d="M 82,82 H 0 V 0 h 82 z"
           inkscape:connector-curvature="0" />
      </clipPath>
    </defs>
  </defs>
  <g
     id="g6009"
     transform="translate(-22.0938,-31.1562)">
    <g
       id="g5787">
      <g
         id="g71"
         style="color-interpolation:linearRGB;fill:#262626;fill-opacity:0.14900004;stroke:#262626;stroke-width:0.66670001;stroke-linecap:butt;stroke-linejoin:round;stroke-opacity:0.14900004;color-rendering:optimizeQuality;image-rendering:optimizeQuality;text-rendering:geometricPrecision">
        <line
           id="line29"
           y1="186"
           x2="90.330002"
           x1="90.330002"
           style="fill:none"
           y2="35" />
        <line
           id="line31"
           y1="186"
           x2="129.16499"
           x1="129.16499"
           style="fill:none"
           y2="35" />
        <line
           id="line33"
           y1="186"
           x2="168"
           x1="168"
           style="fill:none"
           y2="35" />
        <line
           id="line35"
           y1="186"
           x2="206.83501"
           x1="206.83501"
           style="fill:none"
           y2="35" />
        <line
           id="line37"
           y1="186"
           x2="245.67"
           x1="245.67"
           style="fill:none"
           y2="35" />
        <line
           id="line39"
           y1="186"
           x2="79"
           x1="257"
           style="fill:none"
           y2="186" />
        <line
           id="line41"
           y1="135.6667"
           x2="79"
           x1="257"
           style="fill:none"
           y2="135.6667" />
        <line
           id="line43"
           y1="85.333298"
           x2="79"
           x1="257"
           style="fill:none"
           y2="85.333298" />
        <line
           id="line45"
           y1="35"
           x2="79"
           x1="257"
           style="fill:none"
           y2="35" />
        <line
           id="line47"
           y2="186"
           style="fill:none;fill-opacity:1;stroke-linecap:square;stroke-opacity:1"
           y1="186"
           x2="257"
           x1="79" />
        <line
           id="line49"
           y2="35"
           style="fill:none;fill-opacity:1;stroke-linecap:square;stroke-opacity:1"
           y1="35"
           x2="257"
           x1="79" />
        <line
           id="line51"
           y2="184.22"
           style="fill:none;fill-opacity:1;stroke-linecap:square;stroke-opacity:1"
           y1="186"
           x2="90.330002"
           x1="90.330002" />
        <line
           id="line53"
           y2="184.22"
           style="fill:none;fill-opacity:1;stroke-linecap:square;stroke-opacity:1"
           y1="186"
           x2="129.16499"
           x1="129.16499" />
        <line
           id="line55"
           y2="184.22"
           style="fill:none;fill-opacity:1;stroke-linecap:square;stroke-opacity:1"
           y1="186"
           x2="168"
           x1="168" />
        <line
           id="line57"
           y2="184.22"
           style="fill:none;fill-opacity:1;stroke-linecap:square;stroke-opacity:1"
           y1="186"
           x2="206.83501"
           x1="206.83501" />
        <line
           id="line59"
           y2="184.22"
           style="fill:none;fill-opacity:1;stroke-linecap:square;stroke-opacity:1"
           y1="186"
           x2="245.67"
           x1="245.67" />
        <line
           id="line61"
           y2="36.779999"
           style="fill:none;fill-opacity:1;stroke-linecap:square;stroke-opacity:1"
           y1="35"
           x2="90.330002"
           x1="90.330002" />
        <line
           id="line63"
           y2="36.779999"
           style="fill:none;fill-opacity:1;stroke-linecap:square;stroke-opacity:1"
           y1="35"
           x2="129.16499"
           x1="129.16499" />
        <line
           id="line65"
           y2="36.779999"
           style="fill:none;fill-opacity:1;stroke-linecap:square;stroke-opacity:1"
           y1="35"
           x2="168"
           x1="168" />
        <line
           id="line67"
           y2="36.779999"
           style="fill:none;fill-opacity:1;stroke-linecap:square;stroke-opacity:1"
           y1="35"
           x2="206.83501"
           x1="206.83501" />
        <line
           id="line69"
           y2="36.779999"
           style="fill:none;fill-opacity:1;stroke-linecap:square;stroke-opacity:1"
           y1="35"
           x2="245.67"
           x1="245.67" />
      </g>
      <g
         id="g75"
         style="font-size:13px;font-family:SansSerif;color-interpolation:linearRGB;fill:#262626;stroke:#262626;color-rendering:optimizeQuality;image-rendering:optimizeQuality;text-rendering:geometricPrecision"
         transform="translate(90.33,191.3333)">
        <path
           inkscape:connector-curvature="0"
           id="path73"
           d="m -13.0938,11.2031 v -1.1406 h 3.5157 v 1.1406 z M -4.3271,14 H -5.4678 V 6.7188 q -0.4218,0.3906 -1.0859,0.789 -0.6641,0.3984 -1.1953,0.586 V 6.9844 q 0.9531,-0.4375 1.6719,-1.0782 0.7187,-0.6406 1.0156,-1.25 h 0.7344 z M -1.394,9.4062 q 0,-1.6406 0.3359,-2.6484 0.3359,-1.0078 1.0078,-1.5547 0.6719,-0.5469 1.6875,-0.5469 0.75,0 1.3125,0.3047 0.5625,0.3047 0.9297,0.8672 0.3672,0.5625 0.5781,1.3828 0.211,0.8203 0.211,2.1953 0,1.6407 -0.336,2.6485 -0.3359,1.0078 -1.0078,1.5547 -0.6719,0.5468 -1.6875,0.5468 -1.3437,0 -2.125,-0.9687 Q -1.394,12.0312 -1.394,9.4062 Z m 1.1718,0 q 0,2.2969 0.5313,3.0547 0.5312,0.7579 1.3281,0.7579 0.7813,0 1.3203,-0.7579 0.5391,-0.7578 0.5391,-3.0547 0,-2.2968 -0.5391,-3.0468 -0.539,-0.75 -1.3359,-0.75 -0.7813,0 -1.2656,0.6562 -0.5782,0.8594 -0.5782,3.1406 z m 6.0581,0 q 0,-1.6406 0.336,-2.6484 Q 6.5078,5.75 7.1797,5.2031 7.8516,4.6562 8.8672,4.6562 q 0.75,0 1.3125,0.3047 0.5625,0.3047 0.9297,0.8672 0.3672,0.5625 0.5781,1.3828 0.2109,0.8203 0.2109,2.1953 0,1.6407 -0.3359,2.6485 -0.3359,1.0078 -1.0078,1.5547 -0.6719,0.5468 -1.6875,0.5468 -1.3438,0 -2.125,-0.9687 Q 5.8359,12.0312 5.8359,9.4062 Z m 1.1719,0 q 0,2.2969 0.5313,3.0547 0.5312,0.7579 1.3281,0.7579 0.7812,0 1.3203,-0.7579 0.5391,-0.7578 0.5391,-3.0547 0,-2.2968 -0.5391,-3.0468 -0.5391,-0.75 -1.3359,-0.75 -0.7813,0 -1.2657,0.6562 Q 7.0078,7.125 7.0078,9.4062 Z"
           style="stroke:none" />
      </g>
      <g
         id="g79"
         style="font-size:13px;font-family:SansSerif;color-interpolation:linearRGB;fill:#262626;stroke:#262626;color-rendering:optimizeQuality;image-rendering:optimizeQuality;text-rendering:geometricPrecision"
         transform="translate(129.165,191.3333)">
        <path
           inkscape:connector-curvature="0"
           id="path77"
           d="m -9.0938,11.2031 v -1.1406 h 3.5157 v 1.1406 z m 4.4698,0.3594 1.1875,-0.1094 q 0.1406,0.8907 0.625,1.3281 0.4844,0.4376 1.1719,0.4376 0.8281,0 1.3984,-0.625 0.5703,-0.625 0.5703,-1.6407 0,-0.9843 -0.5469,-1.5469 -0.5468,-0.5624 -1.4375,-0.5624 -0.5625,0 -1.0078,0.25 -0.4453,0.25 -0.6953,0.6406 L -4.4209,9.5938 -3.5303,4.8281 h 4.625 v 1.0781 h -3.7031 l -0.5,2.5 q 0.8281,-0.5781 1.75,-0.5781 1.2188,0 2.0547,0.8438 0.8359,0.8437 0.8359,2.1719 0,1.2656 -0.7343,2.1874 -0.8907,1.125 -2.4375,1.125 -1.2657,0 -2.0704,-0.7109 -0.8046,-0.7109 -0.914,-1.8828 z M 2.606,9.4062 Q 2.606,7.7656 2.9419,6.7578 3.2778,5.75 3.9497,5.2031 4.6216,4.6562 5.6372,4.6562 q 0.75,0 1.3125,0.3047 0.5625,0.3047 0.9297,0.8672 0.3672,0.5625 0.5781,1.3828 0.211,0.8203 0.211,2.1953 0,1.6407 -0.336,2.6485 -0.3359,1.0078 -1.0078,1.5547 -0.6719,0.5468 -1.6875,0.5468 -1.3437,0 -2.125,-0.9687 Q 2.606,12.0312 2.606,9.4062 Z m 1.1718,0 q 0,2.2969 0.5313,3.0547 0.5312,0.7579 1.3281,0.7579 0.7813,0 1.3203,-0.7579 0.5391,-0.7578 0.5391,-3.0547 0,-2.2968 -0.5391,-3.0468 -0.539,-0.75 -1.3359,-0.75 -0.7813,0 -1.2656,0.6562 Q 3.7778,7.125 3.7778,9.4062 Z"
           style="stroke:none" />
      </g>
      <g
         id="g83"
         style="font-size:13px;font-family:SansSerif;color-interpolation:linearRGB;fill:#262626;stroke:#262626;color-rendering:optimizeQuality;image-rendering:optimizeQuality;text-rendering:geometricPrecision"
         transform="translate(168,191.3333)">
        <path
           inkscape:connector-curvature="0"
           id="path81"
           d="m -3.4531,9.4062 q 0,-1.6406 0.3359,-2.6484 0.336,-1.0078 1.0078,-1.5547 0.6719,-0.5469 1.6875,-0.5469 0.75,0 1.3125,0.3047 0.5625,0.3047 0.9297,0.8672 0.3672,0.5625 0.5781,1.3828 0.211,0.8203 0.211,2.1953 0,1.6407 -0.336,2.6485 -0.3359,1.0078 -1.0078,1.5547 -0.6718,0.5468 -1.6875,0.5468 -1.3437,0 -2.125,-0.9687 -0.9062,-1.1563 -0.9062,-3.7813 z m 1.1719,0 q 0,2.2969 0.5312,3.0547 0.5312,0.7579 1.3281,0.7579 0.7813,0 1.3203,-0.7579 0.5391,-0.7578 0.5391,-3.0547 0,-2.2968 -0.5391,-3.0468 -0.539,-0.75 -1.3359,-0.75 -0.7813,0 -1.2656,0.6562 -0.5781,0.8594 -0.5781,3.1406 z"
           style="stroke:none" />
      </g>
      <g
         id="g87"
         style="font-size:13px;font-family:SansSerif;color-interpolation:linearRGB;fill:#262626;stroke:#262626;color-rendering:optimizeQuality;image-rendering:optimizeQuality;text-rendering:geometricPrecision"
         transform="translate(206.835,191.3333)">
        <path
           inkscape:connector-curvature="0"
           id="path85"
           d="m -6.9531,11.5625 1.1875,-0.1094 q 0.1406,0.8907 0.625,1.3281 0.4844,0.4376 1.1718,0.4376 0.8282,0 1.3985,-0.625 Q -2,11.9688 -2,10.9531 -2,9.9688 -2.5469,9.4062 -3.0938,8.8438 -3.9844,8.8438 q -0.5625,0 -1.0078,0.25 -0.4453,0.25 -0.6953,0.6406 L -6.75,9.5938 -5.8594,4.8281 h 4.625 v 1.0781 h -3.7031 l -0.5,2.5 q 0.8281,-0.5781 1.75,-0.5781 1.2187,0 2.0547,0.8438 0.8359,0.8437 0.8359,2.1719 0,1.2656 -0.7343,2.1874 -0.8907,1.125 -2.4376,1.125 -1.2656,0 -2.0703,-0.7109 -0.8047,-0.7109 -0.914,-1.8828 z m 7.23,-2.1563 q 0,-1.6406 0.3359,-2.6484 Q 0.9487,5.75 1.6206,5.2031 2.2925,4.6562 3.3081,4.6562 q 0.75,0 1.3125,0.3047 0.5625,0.3047 0.9297,0.8672 0.3672,0.5625 0.5781,1.3828 0.211,0.8203 0.211,2.1953 0,1.6407 -0.336,2.6485 -0.3359,1.0078 -1.0078,1.5547 -0.6719,0.5468 -1.6875,0.5468 -1.3437,0 -2.125,-0.9687 Q 0.2769,12.0312 0.2769,9.4062 Z m 1.1718,0 q 0,2.2969 0.5313,3.0547 0.5312,0.7579 1.3281,0.7579 0.7813,0 1.3203,-0.7579 0.5391,-0.7578 0.5391,-3.0547 0,-2.2968 -0.5391,-3.0468 -0.539,-0.75 -1.3359,-0.75 -0.7813,0 -1.2656,0.6562 Q 1.4487,7.125 1.4487,9.4062 Z"
           style="stroke:none" />
      </g>
      <g
         id="g91"
         style="font-size:13px;font-family:SansSerif;color-interpolation:linearRGB;fill:#262626;stroke:#262626;color-rendering:optimizeQuality;image-rendering:optimizeQuality;text-rendering:geometricPrecision"
         transform="translate(245.67,191.3333)">
        <path
           inkscape:connector-curvature="0"
           id="path89"
           d="M -6.1562,14 H -7.2969 V 6.7188 q -0.4219,0.3906 -1.0859,0.789 -0.6641,0.3984 -1.1953,0.586 V 6.9844 q 0.9531,-0.4375 1.6719,-1.0782 0.7187,-0.6406 1.0156,-1.25 h 0.7344 z m 2.9331,-4.5938 q 0,-1.6406 0.3359,-2.6484 0.3359,-1.0078 1.0078,-1.5547 0.6719,-0.5469 1.6875,-0.5469 0.75,0 1.3125,0.3047 0.5625,0.3047 0.9297,0.8672 0.3672,0.5625 0.5781,1.3828 0.211,0.8203 0.211,2.1953 0,1.6407 -0.336,2.6485 -0.3359,1.0078 -1.0078,1.5547 -0.6719,0.5468 -1.6875,0.5468 -1.3437,0 -2.125,-0.9687 -0.9062,-1.1563 -0.9062,-3.7813 z m 1.1718,0 q 0,2.2969 0.5313,3.0547 0.5312,0.7579 1.3281,0.7579 0.7813,0 1.3203,-0.7579 0.5391,-0.7578 0.5391,-3.0547 0,-2.2968 -0.5391,-3.0468 -0.539,-0.75 -1.3359,-0.75 -0.7813,0 -1.2656,0.6562 -0.5782,0.8594 -0.5782,3.1406 z m 6.0581,0 q 0,-1.6406 0.336,-2.6484 Q 4.6787,5.75 5.3506,5.2031 6.0225,4.6562 7.0381,4.6562 q 0.75,0 1.3125,0.3047 0.5625,0.3047 0.9297,0.8672 0.3672,0.5625 0.5781,1.3828 0.2109,0.8203 0.2109,2.1953 0,1.6407 -0.3359,2.6485 -0.3359,1.0078 -1.0078,1.5547 -0.6719,0.5468 -1.6875,0.5468 -1.3438,0 -2.125,-0.9687 Q 4.0068,12.0312 4.0068,9.4062 Z m 1.1719,0 q 0,2.2969 0.5313,3.0547 0.5312,0.7579 1.3281,0.7579 0.7812,0 1.3203,-0.7579 0.5391,-0.7578 0.5391,-3.0547 0,-2.2968 -0.5391,-3.0468 -0.5391,-0.75 -1.3359,-0.75 -0.7813,0 -1.2657,0.6562 Q 5.1787,7.125 5.1787,9.4062 Z"
           style="stroke:none" />
      </g>
      <g
         id="g95"
         style="font-size:15px;font-family:SansSerif;color-interpolation:linearRGB;fill:#262626;stroke:#262626;color-rendering:optimizeQuality;image-rendering:optimizeQuality;text-rendering:geometricPrecision"
         transform="translate(168.0001,209.6667)">
        <path
           inkscape:connector-curvature="0"
           id="path93"
           d="m -40.1875,13.5 1.3594,0.1562 q -0.3125,1.2032 -1.1875,1.8594 -0.875,0.6563 -2.2344,0.6563 -1.7031,0 -2.7031,-1.0469 -1,-1.0469 -1,-2.9531 0,-1.9531 1.0156,-3.0391 1.0156,-1.0859 2.625,-1.0859 1.5625,0 2.5469,1.0625 0.9844,1.0625 0.9844,2.9844 0,0.125 0,0.3593 h -5.8126 q 0.0782,1.2813 0.7266,1.961 0.6484,0.6797 1.6328,0.6797 0.7188,0 1.2344,-0.3829 0.5156,-0.3828 0.8125,-1.2109 z m -4.3281,-2.1406 h 4.3437 q -0.0937,-0.9844 -0.5,-1.4688 -0.625,-0.7656 -1.625,-0.7656 -0.9219,0 -1.539,0.6094 -0.6172,0.6094 -0.6797,1.625 z M -37.1733,16 V 8.2188 h 1.1875 v 1.1093 q 0.8593,-1.2812 2.4843,-1.2812 0.7032,0 1.2891,0.25 0.5859,0.25 0.8828,0.664 0.2969,0.4141 0.4063,0.9766 0.0781,0.3594 0.0781,1.2813 V 16 h -1.3281 v -4.7344 q 0,-0.7968 -0.1485,-1.1953 -0.1484,-0.3984 -0.539,-0.6406 -0.3907,-0.2422 -0.9219,-0.2422 -0.8438,0 -1.4531,0.5313 -0.6094,0.5312 -0.6094,2.0312 V 16 Z m 13.6704,-2.5 1.3593,0.1562 q -0.3125,1.2032 -1.1875,1.8594 -0.875,0.6563 -2.2343,0.6563 -1.7032,0 -2.7032,-1.0469 -1,-1.0469 -1,-2.9531 0,-1.9531 1.0157,-3.0391 1.0156,-1.0859 2.625,-1.0859 1.5625,0 2.5468,1.0625 0.9844,1.0625 0.9844,2.9844 0,0.125 0,0.3593 h -5.8125 q 0.0781,1.2813 0.7266,1.961 0.6484,0.6797 1.6328,0.6797 0.7187,0 1.2344,-0.3829 0.5156,-0.3828 0.8125,-1.2109 z m -4.3282,-2.1406 h 4.3438 q -0.0938,-0.9844 -0.5,-1.4688 -0.625,-0.7656 -1.625,-0.7656 -0.9219,0 -1.5391,0.6094 -0.6172,0.6094 -0.6797,1.625 z M -20.5044,16 V 8.2188 h 1.1875 v 1.1874 q 0.4531,-0.8281 0.8438,-1.0937 0.3906,-0.2656 0.8437,-0.2656 0.6719,0 1.3594,0.4219 l -0.4531,1.2187 q -0.4844,-0.2813 -0.9688,-0.2813 -0.4375,0 -0.7812,0.2579 -0.3438,0.2578 -0.4844,0.7265 -0.2188,0.7032 -0.2188,1.5313 V 16 Z m 4.7764,0.6406 1.2812,0.1875 q 0.0781,0.5938 0.4375,0.875 0.5,0.3594 1.3438,0.3594 0.9218,0 1.4218,-0.3672 0.5,-0.3672 0.6719,-1.0234 0.0938,-0.4063 0.0938,-1.6875 Q -11.3374,16 -12.6343,16 q -1.6094,0 -2.4844,-1.1562 -0.875,-1.1563 -0.875,-2.7813 0,-1.1094 0.4063,-2.0469 0.4062,-0.9375 1.1641,-1.4531 0.7578,-0.5156 1.8046,-0.5156 1.375,0 2.2657,1.1093 V 8.2188 h 1.2187 v 6.7187 q 0,1.8281 -0.375,2.5859 -0.375,0.7578 -1.1719,1.1954 -0.7968,0.4374 -1.9687,0.4374 -1.3906,0 -2.25,-0.625 -0.8594,-0.625 -0.8281,-1.8906 z m 1.0937,-4.6718 q 0,1.5312 0.6016,2.2343 0.6015,0.7031 1.5234,0.7031 0.9063,0 1.5235,-0.6953 0.6171,-0.6953 0.6171,-2.1953 0,-1.4218 -0.6328,-2.1484 -0.6328,-0.7266 -1.5234,-0.7266 -0.8906,0 -1.5,0.711 -0.6094,0.7109 -0.6094,2.1172 z M -7.1982,19 -7.3545,17.7656 q 0.4375,0.1094 0.75,0.1094 0.4531,0 0.7109,-0.1484 0.2579,-0.1485 0.4297,-0.4141 0.125,-0.1875 0.4063,-0.9687 0.0312,-0.1094 0.1094,-0.3282 L -7.9014,8.2188 h 1.4219 l 1.625,4.5 q 0.3125,0.8593 0.5625,1.8124 0.2344,-0.9062 0.5469,-1.7812 l 1.6562,-4.5312 h 1.3282 l -2.9688,7.9062 q -0.4687,1.2812 -0.7344,1.7656 -0.3593,0.6563 -0.8125,0.961 -0.4531,0.3046 -1.0781,0.3046 -0.375,0 -0.8437,-0.1562 z M 4.5317,6.7812 V 5.2656 h 1.3125 v 1.5156 z m 0,9.2188 V 8.2188 H 5.8442 V 16 Z m 3.3169,0 V 8.2188 h 1.1875 v 1.1093 q 0.8594,-1.2812 2.4844,-1.2812 0.7031,0 1.2891,0.25 0.5859,0.25 0.8828,0.664 0.2969,0.4141 0.4062,0.9766 0.0782,0.3594 0.0782,1.2813 V 16 h -1.3282 v -4.7344 q 0,-0.7968 -0.1484,-1.1953 Q 12.5518,9.6719 12.1611,9.4297 11.7705,9.1875 11.2393,9.1875 10.3955,9.1875 9.7861,9.7188 9.1768,10.25 9.1768,11.75 V 16 Z M 26.8271,8.2188 V 16 h -1.1718 v -0.9219 q -0.3907,0.5781 -0.7657,0.7969 -0.5,0.3125 -1.1875,0.3125 -0.6093,0 -1.0781,-0.25 -0.3437,-0.1719 -0.7812,-0.7187 v 3.7656 H 20.5459 V 8.2188 h 1.2969 v 3.2968 q 0,1.7969 0.1953,2.3282 0.1953,0.5312 0.625,0.8359 0.4297,0.3047 0.9765,0.3047 0.5938,0 1.0547,-0.3203 0.461,-0.3203 0.6485,-0.8282 0.1875,-0.5078 0.1875,-2.289 V 8.2188 Z m 7.502,5.2812 1.3594,0.1562 q -0.3125,1.2032 -1.1875,1.8594 -0.875,0.6563 -2.2344,0.6563 -1.7031,0 -2.7031,-1.0469 -1,-1.0469 -1,-2.9531 0,-1.9531 1.0156,-3.0391 1.0156,-1.0859 2.625,-1.0859 1.5625,0 2.5469,1.0625 0.9844,1.0625 0.9844,2.9844 0,0.125 0,0.3593 h -5.8125 q 0.0781,1.2813 0.7265,1.961 0.6485,0.6797 1.6328,0.6797 0.7188,0 1.2344,-0.3829 0.5156,-0.3828 0.8125,-1.2109 z M 30.001,11.3594 h 4.3437 q -0.0937,-0.9844 -0.5,-1.4688 -0.625,-0.7656 -1.625,-0.7656 -0.9218,0 -1.539,0.6094 -0.6172,0.6094 -0.6797,1.625 z M 40.5776,16 36.4214,5.2656 h 1.5469 l 2.7812,7.7969 q 0.3438,0.9375 0.5625,1.7656 0.25,-0.8906 0.5781,-1.7656 l 2.9063,-7.7969 h 1.4531 L 42.0464,16 Z"
           style="stroke:none" />
      </g>
      <g
         id="g117"
         style="color-interpolation:linearRGB;fill:#262626;stroke:#262626;stroke-width:0.66670001;stroke-linejoin:round;color-rendering:optimizeQuality;image-rendering:optimizeQuality;text-rendering:geometricPrecision">
        <line
           id="line97"
           y1="186"
           x2="79"
           x1="79"
           style="fill:none"
           y2="35" />
        <line
           id="line99"
           y1="186"
           x2="257"
           x1="257"
           style="fill:none"
           y2="35" />
        <line
           id="line101"
           y1="186"
           x2="80.779999"
           x1="79"
           style="fill:none"
           y2="186" />
        <line
           id="line103"
           y1="135.6667"
           x2="80.779999"
           x1="79"
           style="fill:none"
           y2="135.6667" />
        <line
           id="line105"
           y1="85.333298"
           x2="80.779999"
           x1="79"
           style="fill:none"
           y2="85.333298" />
        <line
           id="line107"
           y1="35"
           x2="80.779999"
           x1="79"
           style="fill:none"
           y2="35" />
        <line
           id="line109"
           y1="186"
           x2="255.22"
           x1="257"
           style="fill:none"
           y2="186" />
        <line
           id="line111"
           y1="135.6667"
           x2="255.22"
           x1="257"
           style="fill:none"
           y2="135.6667" />
        <line
           id="line113"
           y1="85.333298"
           x2="255.22"
           x1="257"
           style="fill:none"
           y2="85.333298" />
        <line
           id="line115"
           y1="35"
           x2="255.22"
           x1="257"
           style="fill:none"
           y2="35" />
      </g>
      <g
         id="g121"
         style="font-size:13px;font-family:SansSerif;color-interpolation:linearRGB;fill:#262626;stroke:#262626;color-rendering:optimizeQuality;image-rendering:optimizeQuality;text-rendering:geometricPrecision"
         transform="translate(73.6667,186)">
        <path
           inkscape:connector-curvature="0"
           id="path119"
           d="M -22.5938,2.7031 V 1.5625 h 3.5157 v 1.1406 z m 4.4698,-1.7969 q 0,-1.6406 0.3359,-2.6484 0.336,-1.0078 1.0078,-1.5547 0.6719,-0.5469 1.6875,-0.5469 0.75,0 1.3125,0.3047 0.5625,0.3047 0.9297,0.8672 0.3672,0.5625 0.5781,1.3828 0.211,0.8203 0.211,2.1953 0,1.6407 -0.336,2.6485 -0.3359,1.0078 -1.0078,1.5547 -0.6718,0.5468 -1.6875,0.5468 -1.3437,0 -2.125,-0.9687 -0.9062,-1.1563 -0.9062,-3.7813 z m 1.1719,0 q 0,2.2969 0.5312,3.0547 0.5313,0.7579 1.3281,0.7579 0.7813,0 1.3203,-0.7579 0.5391,-0.7578 0.5391,-3.0547 0,-2.2968 -0.5391,-3.0468 -0.539,-0.75 -1.3359,-0.75 -0.7812,0 -1.2656,0.6562 -0.5781,0.8594 -0.5781,3.1406 z M -10.2534,5.5 V 4.2031 h 1.2969 V 5.5 Z m 2.9712,-2.4375 1.1875,-0.1094 q 0.1406,0.8907 0.625,1.3281 0.4843,0.4376 1.1718,0.4376 0.8282,0 1.3985,-0.625 0.5703,-0.625 0.5703,-1.6407 0,-0.9843 -0.5469,-1.5469 -0.5469,-0.5624 -1.4375,-0.5624 -0.5625,0 -1.0078,0.25 -0.4453,0.25 -0.6953,0.6406 l -1.0625,-0.1406 0.8906,-4.7657 h 4.625 v 1.0781 h -3.7031 l -0.5,2.5 q 0.8281,-0.5781 1.75,-0.5781 1.2187,0 2.0547,0.8438 0.8359,0.8437 0.8359,2.1719 0,1.2656 -0.7344,2.1874 -0.8906,1.125 -2.4375,1.125 -1.2656,0 -2.0703,-0.7109 -0.8047,-0.7109 -0.914,-1.8828 z"
           style="stroke:none" />
      </g>
      <g
         id="g125"
         style="font-size:13px;font-family:SansSerif;color-interpolation:linearRGB;fill:#262626;stroke:#262626;color-rendering:optimizeQuality;image-rendering:optimizeQuality;text-rendering:geometricPrecision"
         transform="translate(73.6667,135.6667)">
        <path
           inkscape:connector-curvature="0"
           id="path123"
           d="m -7.4531,0.9062 q 0,-1.6406 0.3359,-2.6484 0.336,-1.0078 1.0078,-1.5547 0.6719,-0.5469 1.6875,-0.5469 0.75,0 1.3125,0.3047 0.5625,0.3047 0.9297,0.8672 0.3672,0.5625 0.5781,1.3828 0.211,0.8203 0.211,2.1953 0,1.6407 -0.336,2.6485 -0.3359,1.0078 -1.0078,1.5547 -0.6718,0.5468 -1.6875,0.5468 -1.3437,0 -2.125,-0.9687 -0.9062,-1.1563 -0.9062,-3.7813 z m 1.1719,0 q 0,2.2969 0.5312,3.0547 0.5312,0.7579 1.3281,0.7579 0.7813,0 1.3203,-0.7579 0.5391,-0.7578 0.5391,-3.0547 0,-2.2968 -0.5391,-3.0468 -0.539,-0.75 -1.3359,-0.75 -0.7813,0 -1.2656,0.6562 -0.5781,0.8594 -0.5781,3.1406 z"
           style="stroke:none" />
      </g>
      <g
         id="g129"
         style="font-size:13px;font-family:SansSerif;color-interpolation:linearRGB;fill:#262626;stroke:#262626;color-rendering:optimizeQuality;image-rendering:optimizeQuality;text-rendering:geometricPrecision"
         transform="translate(73.6667,85.3333)">
        <path
           inkscape:connector-curvature="0"
           id="path127"
           d="m -18.4531,0.9062 q 0,-1.6406 0.3359,-2.6484 0.336,-1.0078 1.0078,-1.5547 0.6719,-0.5469 1.6875,-0.5469 0.75,0 1.3125,0.3047 0.5625,0.3047 0.9297,0.8672 0.3672,0.5625 0.5781,1.3828 0.211,0.8203 0.211,2.1953 0,1.6407 -0.336,2.6485 -0.3359,1.0078 -1.0078,1.5547 -0.6718,0.5468 -1.6875,0.5468 -1.3437,0 -2.125,-0.9687 -0.9062,-1.1563 -0.9062,-3.7813 z m 1.1719,0 q 0,2.2969 0.5312,3.0547 0.5312,0.7579 1.3281,0.7579 0.7813,0 1.3203,-0.7579 0.5391,-0.7578 0.5391,-3.0547 0,-2.2968 -0.5391,-3.0468 -0.539,-0.75 -1.3359,-0.75 -0.7813,0 -1.2656,0.6562 -0.5781,0.8594 -0.5781,3.1406 z M -10.5825,5.5 V 4.2031 h 1.2969 V 5.5 Z m 2.9712,-2.4375 1.1875,-0.1094 q 0.1406,0.8907 0.625,1.3281 0.4843,0.4376 1.1718,0.4376 0.8282,0 1.3985,-0.625 0.5703,-0.625 0.5703,-1.6407 0,-0.9843 -0.5469,-1.5469 -0.5469,-0.5624 -1.4375,-0.5624 -0.5625,0 -1.0078,0.25 -0.4453,0.25 -0.6953,0.6406 l -1.0625,-0.1406 0.8906,-4.7657 h 4.625 v 1.0781 h -3.7031 l -0.5,2.5 q 0.8281,-0.5781 1.75,-0.5781 1.2187,0 2.0547,0.8438 0.8359,0.8437 0.8359,2.1719 0,1.2656 -0.7344,2.1874 -0.8906,1.125 -2.4375,1.125 -1.2656,0 -2.0703,-0.7109 -0.8047,-0.7109 -0.914,-1.8828 z"
           style="stroke:none" />
      </g>
      <g
         id="g133"
         style="font-size:13px;font-family:SansSerif;color-interpolation:linearRGB;fill:#262626;stroke:#262626;color-rendering:optimizeQuality;image-rendering:optimizeQuality;text-rendering:geometricPrecision"
         transform="translate(73.6667,35)">
        <path
           inkscape:connector-curvature="0"
           id="path131"
           d="m -3.1562,5.5 h -1.1407 v -7.2812 q -0.4219,0.3906 -1.0859,0.789 -0.6641,0.3984 -1.1953,0.586 v -1.1094 q 0.9531,-0.4375 1.6719,-1.0782 0.7187,-0.6406 1.0156,-1.25 h 0.7344 z"
           style="stroke:none" />
      </g>
      <g
         id="g137"
         style="font-size:15px;font-family:mwb_cmr10;color-interpolation:linearRGB;fill:#262626;stroke:#262626;color-rendering:optimizeQuality;image-rendering:optimizeQuality;text-rendering:geometricPrecision"
         transform="rotate(-90,94.5,57.5)">
        <path
           inkscape:connector-curvature="0"
           id="path135"
           d="m 0.8125,0 q -0.125,0 -0.125,-0.125 0.0156,0 0.0156,-0.0078 0,-0.0078 0,-0.0391 l 5.1563,-10.4062 q 0.0781,-0.1563 0.2812,-0.1563 h 0.2032 q 0.2031,0 0.2656,0.1563 l 5.1718,10.4062 q 0,0.0157 0.0079,0.0313 0.0078,0.0156 0.0078,0.0156 0,0.125 -0.125,0.125 z M 1.7969,-1.2031 H 9.7031 L 5.75,-9.1562 Z"
           style="stroke:none" />
      </g>
      <g
         id="g141"
         style="font-size:15px;font-family:SansSerif;color-interpolation:linearRGB;fill:#262626;stroke:#262626;color-rendering:optimizeQuality;image-rendering:optimizeQuality;text-rendering:geometricPrecision"
         transform="rotate(-90,88,51)">
        <path
           inkscape:connector-curvature="0"
           id="path139"
           d="m 4.8394,-3.4531 1.3437,-0.1094 q 0.0938,0.7969 0.4453,1.3125 0.3516,0.5156 1.0781,0.8359 0.7266,0.3203 1.6485,0.3203 0.8125,0 1.4375,-0.2421 0.625,-0.2422 0.9297,-0.6641 0.3047,-0.4219 0.3047,-0.9219 0,-0.5 -0.2969,-0.875 -0.2969,-0.375 -0.9688,-0.6406 -0.4375,-0.1563 -1.914,-0.5156 -1.4766,-0.3594 -2.0703,-0.6719 -0.7657,-0.4062 -1.1485,-1 -0.3828,-0.5938 -0.3828,-1.3438 0,-0.8124 0.4609,-1.5156 0.461,-0.7031 1.3516,-1.0703 0.8906,-0.3672 1.9688,-0.3672 1.2031,0 2.1093,0.3828 0.9063,0.3829 1.3985,1.1329 0.4922,0.75 0.539,1.6874 l -1.375,0.1094 q -0.1093,-1.0156 -0.7422,-1.539 -0.6328,-0.5235 -1.8671,-0.5235 -1.2813,0 -1.875,0.4766 -0.5938,0.4765 -0.5938,1.1328 0,0.5781 0.4219,0.9531 0.4062,0.375 2.1406,0.7656 1.7344,0.3907 2.375,0.6876 0.9375,0.4374 1.3828,1.1015 0.4453,0.6641 0.4453,1.5235 0,0.8593 -0.4922,1.6171 -0.4921,0.7579 -1.4062,1.1797 Q 10.5737,0.1875 9.4175,0.1875 7.9644,0.1875 6.98,-0.2422 5.9956,-0.6719 5.4331,-1.5234 4.8706,-2.375 4.8394,-3.4531 Z"
           style="stroke:none" />
      </g>
      <g
         id="g145"
         style="font-size:11px;font-family:SansSerif;color-interpolation:linearRGB;fill:#262626;stroke:#262626;color-rendering:optimizeQuality;image-rendering:optimizeQuality;text-rendering:geometricPrecision"
         transform="rotate(-90,84,40)">
        <path
           inkscape:connector-curvature="0"
           id="path143"
           d="m 2.8438,-0.8594 0.125,0.8438 Q 2.5625,0.0781 2.25,0.0781 1.7188,0.0781 1.4297,-0.0938 1.1406,-0.2656 1.0234,-0.5312 0.9062,-0.7969 0.9062,-1.6719 V -4.9531 H 0.1875 v -0.75 h 0.7187 v -1.4063 l 0.9532,-0.5937 v 2 h 0.9844 v 0.75 H 1.8594 v 3.3437 q 0,0.4063 0.0547,0.5235 0.0547,0.1171 0.1718,0.1875 0.1172,0.0703 0.3203,0.0703 0.1719,0 0.4376,-0.0313 z M 3.7749,0 v -7.875 h 0.9688 v 2.8281 q 0.6875,-0.7812 1.7187,-0.7812 0.625,0 1.0938,0.25 0.4687,0.25 0.6718,0.6875 0.2032,0.4375 0.2032,1.2812 V 0 H 7.4624 v -3.6094 q 0,-0.7344 -0.3125,-1.0625 Q 6.8374,-5 6.2593,-5 5.8218,-5 5.4468,-4.7812 5.0718,-4.5625 4.9077,-4.1797 4.7437,-3.7969 4.7437,-3.125 V 0 Z"
           style="stroke:none" />
      </g>
      <g
         id="g149"
         style="font-size:15px;font-family:SansSerif;color-interpolation:linearRGB;fill:#262626;stroke:#262626;color-rendering:optimizeQuality;image-rendering:optimizeQuality;text-rendering:geometricPrecision"
         transform="rotate(-90,75.5,38.5)">
        <path
           inkscape:connector-curvature="0"
           id="path147"
           d="M 7.6831,3.1562 Q 6.5894,1.7812 5.8315,-0.0625 5.0737,-1.9062 5.0737,-3.8906 q 0,-1.7344 0.5625,-3.3438 0.6563,-1.8437 2.0469,-3.6875 H 8.6206 Q 7.73,-9.3906 7.4487,-8.75 q -0.4531,1.0156 -0.7031,2.1094 -0.3125,1.375 -0.3125,2.7656 0,3.5156 2.1875,7.0312 z m 9.0264,-4.4218 V 0 H 9.6157 q -0.0156,-0.4688 0.1563,-0.9219 0.2656,-0.7187 0.8672,-1.4219 0.6015,-0.7031 1.7265,-1.625 1.75,-1.4374 2.3672,-2.2734 0.6172,-0.8359 0.6172,-1.5859 0,-0.7813 -0.5625,-1.3203 -0.5625,-0.5391 -1.4688,-0.5391 -0.9531,0 -1.5234,0.5703 -0.5703,0.5703 -0.5703,1.586 L 9.8657,-7.6719 q 0.1406,-1.5156 1.0469,-2.3125 0.9062,-0.7968 2.4375,-0.7968 1.5469,0 2.4453,0.8593 0.8984,0.8594 0.8984,2.125 0,0.6407 -0.2578,1.2657 -0.2578,0.625 -0.875,1.3124 -0.6172,0.6876 -2.039,1.8907 -1.1875,0.9843 -1.5235,1.3437 -0.3359,0.3594 -0.5547,0.7188 z m 7.1079,-1.2344 1.3594,0.1562 q -0.3125,1.2032 -1.1875,1.8594 -0.875,0.6563 -2.2344,0.6563 -1.7031,0 -2.7031,-1.0469 -1,-1.0469 -1,-2.9531 0,-1.9531 1.0156,-3.0391 1.0156,-1.0859 2.625,-1.0859 1.5625,0 2.5469,1.0625 0.9843,1.0625 0.9843,2.9844 0,0.125 0,0.3593 h -5.8125 q 0.0782,1.2813 0.7266,1.961 0.6484,0.6797 1.6328,0.6797 0.7188,0 1.2344,-0.3829 0.5156,-0.3828 0.8125,-1.2109 z m -4.3281,-2.1406 h 4.3437 q -0.0937,-0.9844 -0.5,-1.4688 -0.625,-0.7656 -1.625,-0.7656 -0.9219,0 -1.5391,0.6094 -0.6171,0.6094 -0.6796,1.625 z"
           style="stroke:none" />
      </g>
      <g
         id="g153"
         style="font-size:11px;font-family:SansSerif;color-interpolation:linearRGB;fill:#262626;stroke:#262626;color-rendering:optimizeQuality;image-rendering:optimizeQuality;text-rendering:geometricPrecision"
         transform="rotate(-90,59,29)">
        <path
           inkscape:connector-curvature="0"
           id="path151"
           d="M 5.5312,-0.9219 V 0 H 0.3281 q 0,-0.3438 0.125,-0.6719 0.1875,-0.5312 0.625,-1.0469 0.4375,-0.5156 1.2657,-1.1874 1.2812,-1.0626 1.7343,-1.6719 0.4531,-0.6094 0.4531,-1.1563 0,-0.5781 -0.4062,-0.9765 -0.4062,-0.3985 -1.0781,-0.3985 -0.6875,0 -1.1094,0.4219 -0.4219,0.4219 -0.4219,1.1563 l -1,-0.0938 q 0.1094,-1.1094 0.7735,-1.6953 0.664,-0.5859 1.789,-0.5859 1.125,0 1.7891,0.625 0.664,0.625 0.664,1.5624 0,0.4688 -0.1953,0.9297 -0.1953,0.461 -0.6406,0.961 -0.4453,0.5 -1.4922,1.3906 -0.875,0.7187 -1.1172,0.9844 -0.2421,0.2656 -0.414,0.5312 z"
           style="stroke:none" />
      </g>
      <g
         id="g157"
         style="font-size:15px;font-family:mwb_cmmi10;color-interpolation:linearRGB;fill:#262626;stroke:#262626;color-rendering:optimizeQuality;image-rendering:optimizeQuality;text-rendering:geometricPrecision"
         transform="rotate(-90,59,22)">
        <path
           inkscape:connector-curvature="0"
           id="path155"
           d="M 0.9375,0 Q 0.7656,0 0.7656,-0.2031 l 1.2813,-5.0938 q 0.0625,-0.25 0.0625,-0.4062 0,-0.2344 -0.9688,-0.2344 -0.1562,0 -0.1562,-0.2031 Q 1,-6.1719 1.0234,-6.2656 1.0469,-6.3594 1.0859,-6.4141 1.125,-6.4688 1.2031,-6.4688 L 3.2188,-6.625 q 0.1874,0 0.1874,0.1875 l -1.4687,5.875 q 1.1875,-0.3906 2.1875,-1.2344 1,-0.8437 1.6875,-1.9843 0.6875,-1.1407 1,-2.375 0.0625,-0.2032 0.2344,-0.336 0.1719,-0.1328 0.3906,-0.1328 0.2031,0 0.3281,0.1172 0.125,0.1172 0.125,0.3047 0,0.25 -0.1953,0.7422 Q 7.5,-4.9688 7.2969,-4.5781 6.7031,-3.4062 5.7344,-2.4219 5.1094,-1.7969 4.4062,-1.3203 3.7031,-0.8438 2.9297,-0.5156 2.1562,-0.1875 1.2969,0 Z"
           style="stroke:none" />
      </g>
      <g
         id="g161"
         style="font-size:15px;font-family:SansSerif;color-interpolation:linearRGB;fill:#262626;stroke:#262626;color-rendering:optimizeQuality;image-rendering:optimizeQuality;text-rendering:geometricPrecision"
         transform="rotate(-90,55,18)">
        <path
           inkscape:connector-curvature="0"
           id="path159"
           d="M 1.8594,3.1562 H 0.9062 q 2.1876,-3.5156 2.1876,-7.0312 0,-1.3906 -0.3126,-2.7344 -0.25,-1.1094 -0.6874,-2.1094 -0.2969,-0.6562 -1.1876,-2.2031 h 0.9532 q 1.375,1.8438 2.0312,3.6875 0.5625,1.6094 0.5625,3.3438 0,1.9844 -0.7578,3.8281 -0.7578,1.8437 -1.8359,3.2187 z"
           style="stroke:none" />
      </g>
      <g
         id="g167"
         style="color-interpolation:linearRGB;fill:#ff0000;stroke:#ff0000;stroke-width:1.33329999;stroke-linecap:butt;stroke-linejoin:round;color-rendering:optimizeQuality;image-rendering:optimizeQuality;text-rendering:geometricPrecision">
        <path
           inkscape:connector-curvature="0"
           id="path163"
           style="fill:none;fill-rule:evenodd"
           d="m 254.8293,135.6666 h -2.1708 -2.1707 l -2.1707,-10e-5 h -2.1708 l -2.1707,-1e-4 -2.1707,-2e-4 -2.1708,-4e-4 -2.1707,-5e-4 -2.1707,-8e-4 -2.1708,-0.001 -2.1707,-0.002 -2.1707,-0.004 -2.1707,-0.006 -2.1708,-0.009 -2.1707,-0.0149 -2.1707,-0.0237 -2.1708,-0.0374 -2.1707,-0.0586 -2.1707,-0.0912 -2.1708,-0.1405 -2.1707,-0.2145 -2.1707,-0.3238 -2.1708,-0.4825 -2.1707,-0.7092 -2.1707,-1.0258 -2.1708,-1.4573 -2.1707,-2.0295 -2.1707,-2.7641 -2.1707,-3.6722 -2.1708,-4.7451 -2.1707,-5.9441 -2.1707,-7.1906 -2.1708,-8.3605 -2.1707,-9.2872 -2.1707,-9.7773 -2.1708,-9.6407 -2.1707,-8.7347 -2.1707,-7.0107 -2.1708,-4.5517 L 168,45.776 l -2.1707,1.5787 -2.1708,4.5517 -2.1707,7.0107 -2.1707,8.7347 -2.1708,9.6407 -2.1707,9.7773 -2.1707,9.2872 -2.1708,8.3605 -2.1707,7.1906" />
        <path
           inkscape:connector-curvature="0"
           id="path165"
           style="fill:none;fill-rule:evenodd"
           d="m 150.6341,104.717 -2.1707,7.1906 -2.1707,5.9441 -2.1708,4.7451 -2.1707,3.6722 -2.1707,2.7641 -2.1707,2.0295 -2.1708,1.4573 -2.1707,1.0258 -2.1707,0.7092 -2.1708,0.4825 -2.1707,0.3238 -2.1707,0.2145 -2.1708,0.1405 -2.1707,0.0912 -2.1707,0.0586 -2.1708,0.0374 -2.1707,0.0237 -2.1707,0.0149 -2.1708,0.009 -2.1707,0.006 -2.1707,0.004 -2.1708,0.002 -2.1707,10e-4 -2.1707,8e-4 -2.1707,5e-4 -2.1708,4e-4 -2.1707,2e-4 -2.1707,1e-4 h -2.1708 l -2.1707,1e-4 h -2.1707 -2.1708" />
      </g>
    </g>
    <g
       transform="translate(239.6289,-217)"
       id="g5862">
      <g
         id="g323"
         style="color-interpolation:sRGB;fill:#ffffff;stroke:#ffffff;color-rendering:optimizeSpeed;image-rendering:optimizeSpeed;shape-rendering:crispEdges;text-rendering:optimizeSpeed">
        <path
           inkscape:connector-curvature="0"
           id="path321"
           d="M 79,403 H 257 V 252 H 79 Z"
           style="stroke:none" />
      </g>
      <g
         id="g369"
         style="color-interpolation:linearRGB;fill:#262626;fill-opacity:0.14900004;stroke:#262626;stroke-width:0.66670001;stroke-linecap:butt;stroke-linejoin:round;stroke-opacity:0.14900004;color-rendering:optimizeQuality;image-rendering:optimizeQuality;text-rendering:geometricPrecision">
        <line
           id="line325"
           y1="403"
           x2="89.371101"
           x1="89.371101"
           style="fill:none"
           y2="252" />
        <line
           id="line327"
           y1="403"
           x2="128.68559"
           x1="128.68559"
           style="fill:none"
           y2="252" />
        <line
           id="line329"
           y1="403"
           x2="168"
           x1="168"
           style="fill:none"
           y2="252" />
        <line
           id="line331"
           y1="403"
           x2="207.31441"
           x1="207.31441"
           style="fill:none"
           y2="252" />
        <line
           id="line333"
           y1="403"
           x2="246.62891"
           x1="246.62891"
           style="fill:none"
           y2="252" />
        <line
           id="line335"
           y1="403"
           x2="79"
           x1="257"
           style="fill:none"
           y2="403" />
        <line
           id="line337"
           y1="365.25"
           x2="79"
           x1="257"
           style="fill:none"
           y2="365.25" />
        <line
           id="line339"
           y1="327.5"
           x2="79"
           x1="257"
           style="fill:none"
           y2="327.5" />
        <line
           id="line341"
           y1="289.75"
           x2="79"
           x1="257"
           style="fill:none"
           y2="289.75" />
        <line
           id="line343"
           y1="252"
           x2="79"
           x1="257"
           style="fill:none"
           y2="252" />
        <line
           id="line345"
           y2="403"
           style="fill:none;fill-opacity:1;stroke-linecap:square;stroke-opacity:1"
           y1="403"
           x2="257"
           x1="79" />
        <line
           id="line347"
           y2="252"
           style="fill:none;fill-opacity:1;stroke-linecap:square;stroke-opacity:1"
           y1="252"
           x2="257"
           x1="79" />
        <line
           id="line349"
           y2="401.22"
           style="fill:none;fill-opacity:1;stroke-linecap:square;stroke-opacity:1"
           y1="403"
           x2="89.371101"
           x1="89.371101" />
        <line
           id="line351"
           y2="401.22"
           style="fill:none;fill-opacity:1;stroke-linecap:square;stroke-opacity:1"
           y1="403"
           x2="128.68559"
           x1="128.68559" />
        <line
           id="line353"
           y2="401.22"
           style="fill:none;fill-opacity:1;stroke-linecap:square;stroke-opacity:1"
           y1="403"
           x2="168"
           x1="168" />
        <line
           id="line355"
           y2="401.22"
           style="fill:none;fill-opacity:1;stroke-linecap:square;stroke-opacity:1"
           y1="403"
           x2="207.31441"
           x1="207.31441" />
        <line
           id="line357"
           y2="401.22"
           style="fill:none;fill-opacity:1;stroke-linecap:square;stroke-opacity:1"
           y1="403"
           x2="246.62891"
           x1="246.62891" />
        <line
           id="line359"
           y2="253.78"
           style="fill:none;fill-opacity:1;stroke-linecap:square;stroke-opacity:1"
           y1="252"
           x2="89.371101"
           x1="89.371101" />
        <line
           id="line361"
           y2="253.78"
           style="fill:none;fill-opacity:1;stroke-linecap:square;stroke-opacity:1"
           y1="252"
           x2="128.68559"
           x1="128.68559" />
        <line
           id="line363"
           y2="253.78"
           style="fill:none;fill-opacity:1;stroke-linecap:square;stroke-opacity:1"
           y1="252"
           x2="168"
           x1="168" />
        <line
           id="line365"
           y2="253.78"
           style="fill:none;fill-opacity:1;stroke-linecap:square;stroke-opacity:1"
           y1="252"
           x2="207.31441"
           x1="207.31441" />
        <line
           id="line367"
           y2="253.78"
           style="fill:none;fill-opacity:1;stroke-linecap:square;stroke-opacity:1"
           y1="252"
           x2="246.62891"
           x1="246.62891" />
      </g>
      <g
         id="g373"
         style="font-size:13px;font-family:SansSerif;color-interpolation:linearRGB;fill:#262626;stroke:#262626;color-rendering:optimizeQuality;image-rendering:optimizeQuality;text-rendering:geometricPrecision"
         transform="translate(89.3711,408.3333)">
        <path
           inkscape:connector-curvature="0"
           id="path371"
           d="m -13.0938,11.2031 v -1.1406 h 3.5157 v 1.1406 z M -4.3271,14 H -5.4678 V 6.7188 q -0.4218,0.3906 -1.0859,0.789 -0.6641,0.3984 -1.1953,0.586 V 6.9844 q 0.9531,-0.4375 1.6719,-1.0782 0.7187,-0.6406 1.0156,-1.25 h 0.7344 z M -1.394,9.4062 q 0,-1.6406 0.3359,-2.6484 0.3359,-1.0078 1.0078,-1.5547 0.6719,-0.5469 1.6875,-0.5469 0.75,0 1.3125,0.3047 0.5625,0.3047 0.9297,0.8672 0.3672,0.5625 0.5781,1.3828 0.211,0.8203 0.211,2.1953 0,1.6407 -0.336,2.6485 -0.3359,1.0078 -1.0078,1.5547 -0.6719,0.5468 -1.6875,0.5468 -1.3437,0 -2.125,-0.9687 Q -1.394,12.0312 -1.394,9.4062 Z m 1.1718,0 q 0,2.2969 0.5313,3.0547 0.5312,0.7579 1.3281,0.7579 0.7813,0 1.3203,-0.7579 0.5391,-0.7578 0.5391,-3.0547 0,-2.2968 -0.5391,-3.0468 -0.539,-0.75 -1.3359,-0.75 -0.7813,0 -1.2656,0.6562 -0.5782,0.8594 -0.5782,3.1406 z m 6.0581,0 q 0,-1.6406 0.336,-2.6484 Q 6.5078,5.75 7.1797,5.2031 7.8516,4.6562 8.8672,4.6562 q 0.75,0 1.3125,0.3047 0.5625,0.3047 0.9297,0.8672 0.3672,0.5625 0.5781,1.3828 0.2109,0.8203 0.2109,2.1953 0,1.6407 -0.3359,2.6485 -0.3359,1.0078 -1.0078,1.5547 -0.6719,0.5468 -1.6875,0.5468 -1.3438,0 -2.125,-0.9687 Q 5.8359,12.0312 5.8359,9.4062 Z m 1.1719,0 q 0,2.2969 0.5313,3.0547 0.5312,0.7579 1.3281,0.7579 0.7812,0 1.3203,-0.7579 0.5391,-0.7578 0.5391,-3.0547 0,-2.2968 -0.5391,-3.0468 -0.5391,-0.75 -1.3359,-0.75 -0.7813,0 -1.2657,0.6562 Q 7.0078,7.125 7.0078,9.4062 Z"
           style="stroke:none" />
      </g>
      <g
         id="g377"
         style="font-size:13px;font-family:SansSerif;color-interpolation:linearRGB;fill:#262626;stroke:#262626;color-rendering:optimizeQuality;image-rendering:optimizeQuality;text-rendering:geometricPrecision"
         transform="translate(128.6856,408.3333)">
        <path
           inkscape:connector-curvature="0"
           id="path375"
           d="m -9.0938,11.2031 v -1.1406 h 3.5157 v 1.1406 z m 4.4698,0.3594 1.1875,-0.1094 q 0.1406,0.8907 0.625,1.3281 0.4844,0.4376 1.1719,0.4376 0.8281,0 1.3984,-0.625 0.5703,-0.625 0.5703,-1.6407 0,-0.9843 -0.5469,-1.5469 -0.5468,-0.5624 -1.4375,-0.5624 -0.5625,0 -1.0078,0.25 -0.4453,0.25 -0.6953,0.6406 L -4.4209,9.5938 -3.5303,4.8281 h 4.625 v 1.0781 h -3.7031 l -0.5,2.5 q 0.8281,-0.5781 1.75,-0.5781 1.2188,0 2.0547,0.8438 0.8359,0.8437 0.8359,2.1719 0,1.2656 -0.7343,2.1874 -0.8907,1.125 -2.4375,1.125 -1.2657,0 -2.0704,-0.7109 -0.8046,-0.7109 -0.914,-1.8828 z M 2.606,9.4062 Q 2.606,7.7656 2.9419,6.7578 3.2778,5.75 3.9497,5.2031 4.6216,4.6562 5.6372,4.6562 q 0.75,0 1.3125,0.3047 0.5625,0.3047 0.9297,0.8672 0.3672,0.5625 0.5781,1.3828 0.211,0.8203 0.211,2.1953 0,1.6407 -0.336,2.6485 -0.3359,1.0078 -1.0078,1.5547 -0.6719,0.5468 -1.6875,0.5468 -1.3437,0 -2.125,-0.9687 Q 2.606,12.0312 2.606,9.4062 Z m 1.1718,0 q 0,2.2969 0.5313,3.0547 0.5312,0.7579 1.3281,0.7579 0.7813,0 1.3203,-0.7579 0.5391,-0.7578 0.5391,-3.0547 0,-2.2968 -0.5391,-3.0468 -0.539,-0.75 -1.3359,-0.75 -0.7813,0 -1.2656,0.6562 Q 3.7778,7.125 3.7778,9.4062 Z"
           style="stroke:none" />
      </g>
      <g
         id="g381"
         style="font-size:13px;font-family:SansSerif;color-interpolation:linearRGB;fill:#262626;stroke:#262626;color-rendering:optimizeQuality;image-rendering:optimizeQuality;text-rendering:geometricPrecision"
         transform="translate(168,408.3333)">
        <path
           inkscape:connector-curvature="0"
           id="path379"
           d="m -3.4531,9.4062 q 0,-1.6406 0.3359,-2.6484 0.336,-1.0078 1.0078,-1.5547 0.6719,-0.5469 1.6875,-0.5469 0.75,0 1.3125,0.3047 0.5625,0.3047 0.9297,0.8672 0.3672,0.5625 0.5781,1.3828 0.211,0.8203 0.211,2.1953 0,1.6407 -0.336,2.6485 -0.3359,1.0078 -1.0078,1.5547 -0.6718,0.5468 -1.6875,0.5468 -1.3437,0 -2.125,-0.9687 -0.9062,-1.1563 -0.9062,-3.7813 z m 1.1719,0 q 0,2.2969 0.5312,3.0547 0.5312,0.7579 1.3281,0.7579 0.7813,0 1.3203,-0.7579 0.5391,-0.7578 0.5391,-3.0547 0,-2.2968 -0.5391,-3.0468 -0.539,-0.75 -1.3359,-0.75 -0.7813,0 -1.2656,0.6562 -0.5781,0.8594 -0.5781,3.1406 z"
           style="stroke:none" />
      </g>
      <g
         id="g385"
         style="font-size:13px;font-family:SansSerif;color-interpolation:linearRGB;fill:#262626;stroke:#262626;color-rendering:optimizeQuality;image-rendering:optimizeQuality;text-rendering:geometricPrecision"
         transform="translate(207.3144,408.3333)">
        <path
           inkscape:connector-curvature="0"
           id="path383"
           d="m -6.9531,11.5625 1.1875,-0.1094 q 0.1406,0.8907 0.625,1.3281 0.4844,0.4376 1.1718,0.4376 0.8282,0 1.3985,-0.625 Q -2,11.9688 -2,10.9531 -2,9.9688 -2.5469,9.4062 -3.0938,8.8438 -3.9844,8.8438 q -0.5625,0 -1.0078,0.25 -0.4453,0.25 -0.6953,0.6406 L -6.75,9.5938 -5.8594,4.8281 h 4.625 v 1.0781 h -3.7031 l -0.5,2.5 q 0.8281,-0.5781 1.75,-0.5781 1.2187,0 2.0547,0.8438 0.8359,0.8437 0.8359,2.1719 0,1.2656 -0.7343,2.1874 -0.8907,1.125 -2.4376,1.125 -1.2656,0 -2.0703,-0.7109 -0.8047,-0.7109 -0.914,-1.8828 z m 7.23,-2.1563 q 0,-1.6406 0.3359,-2.6484 Q 0.9487,5.75 1.6206,5.2031 2.2925,4.6562 3.3081,4.6562 q 0.75,0 1.3125,0.3047 0.5625,0.3047 0.9297,0.8672 0.3672,0.5625 0.5781,1.3828 0.211,0.8203 0.211,2.1953 0,1.6407 -0.336,2.6485 -0.3359,1.0078 -1.0078,1.5547 -0.6719,0.5468 -1.6875,0.5468 -1.3437,0 -2.125,-0.9687 Q 0.2769,12.0312 0.2769,9.4062 Z m 1.1718,0 q 0,2.2969 0.5313,3.0547 0.5312,0.7579 1.3281,0.7579 0.7813,0 1.3203,-0.7579 0.5391,-0.7578 0.5391,-3.0547 0,-2.2968 -0.5391,-3.0468 -0.539,-0.75 -1.3359,-0.75 -0.7813,0 -1.2656,0.6562 Q 1.4487,7.125 1.4487,9.4062 Z"
           style="stroke:none" />
      </g>
      <g
         id="g389"
         style="font-size:13px;font-family:SansSerif;color-interpolation:linearRGB;fill:#262626;stroke:#262626;color-rendering:optimizeQuality;image-rendering:optimizeQuality;text-rendering:geometricPrecision"
         transform="translate(246.6289,408.3333)">
        <path
           inkscape:connector-curvature="0"
           id="path387"
           d="M -6.1562,14 H -7.2969 V 6.7188 q -0.4219,0.3906 -1.0859,0.789 -0.6641,0.3984 -1.1953,0.586 V 6.9844 q 0.9531,-0.4375 1.6719,-1.0782 0.7187,-0.6406 1.0156,-1.25 h 0.7344 z m 2.9331,-4.5938 q 0,-1.6406 0.3359,-2.6484 0.3359,-1.0078 1.0078,-1.5547 0.6719,-0.5469 1.6875,-0.5469 0.75,0 1.3125,0.3047 0.5625,0.3047 0.9297,0.8672 0.3672,0.5625 0.5781,1.3828 0.211,0.8203 0.211,2.1953 0,1.6407 -0.336,2.6485 -0.3359,1.0078 -1.0078,1.5547 -0.6719,0.5468 -1.6875,0.5468 -1.3437,0 -2.125,-0.9687 -0.9062,-1.1563 -0.9062,-3.7813 z m 1.1718,0 q 0,2.2969 0.5313,3.0547 0.5312,0.7579 1.3281,0.7579 0.7813,0 1.3203,-0.7579 0.5391,-0.7578 0.5391,-3.0547 0,-2.2968 -0.5391,-3.0468 -0.539,-0.75 -1.3359,-0.75 -0.7813,0 -1.2656,0.6562 -0.5782,0.8594 -0.5782,3.1406 z m 6.0581,0 q 0,-1.6406 0.336,-2.6484 Q 4.6787,5.75 5.3506,5.2031 6.0225,4.6562 7.0381,4.6562 q 0.75,0 1.3125,0.3047 0.5625,0.3047 0.9297,0.8672 0.3672,0.5625 0.5781,1.3828 0.2109,0.8203 0.2109,2.1953 0,1.6407 -0.3359,2.6485 -0.3359,1.0078 -1.0078,1.5547 -0.6719,0.5468 -1.6875,0.5468 -1.3438,0 -2.125,-0.9687 Q 4.0068,12.0312 4.0068,9.4062 Z m 1.1719,0 q 0,2.2969 0.5313,3.0547 0.5312,0.7579 1.3281,0.7579 0.7812,0 1.3203,-0.7579 0.5391,-0.7578 0.5391,-3.0547 0,-2.2968 -0.5391,-3.0468 -0.5391,-0.75 -1.3359,-0.75 -0.7813,0 -1.2657,0.6562 Q 5.1787,7.125 5.1787,9.4062 Z"
           style="stroke:none" />
      </g>
      <g
         id="g393"
         style="font-size:15px;font-family:SansSerif;color-interpolation:linearRGB;fill:#262626;stroke:#262626;color-rendering:optimizeQuality;image-rendering:optimizeQuality;text-rendering:geometricPrecision"
         transform="translate(168.0001,426.6667)">
        <path
           inkscape:connector-curvature="0"
           id="path391"
           d="m -40.1875,13.5 1.3594,0.1562 q -0.3125,1.2032 -1.1875,1.8594 -0.875,0.6563 -2.2344,0.6563 -1.7031,0 -2.7031,-1.0469 -1,-1.0469 -1,-2.9531 0,-1.9531 1.0156,-3.0391 1.0156,-1.0859 2.625,-1.0859 1.5625,0 2.5469,1.0625 0.9844,1.0625 0.9844,2.9844 0,0.125 0,0.3593 h -5.8126 q 0.0782,1.2813 0.7266,1.961 0.6484,0.6797 1.6328,0.6797 0.7188,0 1.2344,-0.3829 0.5156,-0.3828 0.8125,-1.2109 z m -4.3281,-2.1406 h 4.3437 q -0.0937,-0.9844 -0.5,-1.4688 -0.625,-0.7656 -1.625,-0.7656 -0.9219,0 -1.539,0.6094 -0.6172,0.6094 -0.6797,1.625 z M -37.1733,16 V 8.2188 h 1.1875 v 1.1093 q 0.8593,-1.2812 2.4843,-1.2812 0.7032,0 1.2891,0.25 0.5859,0.25 0.8828,0.664 0.2969,0.4141 0.4063,0.9766 0.0781,0.3594 0.0781,1.2813 V 16 h -1.3281 v -4.7344 q 0,-0.7968 -0.1485,-1.1953 -0.1484,-0.3984 -0.539,-0.6406 -0.3907,-0.2422 -0.9219,-0.2422 -0.8438,0 -1.4531,0.5313 -0.6094,0.5312 -0.6094,2.0312 V 16 Z m 13.6704,-2.5 1.3593,0.1562 q -0.3125,1.2032 -1.1875,1.8594 -0.875,0.6563 -2.2343,0.6563 -1.7032,0 -2.7032,-1.0469 -1,-1.0469 -1,-2.9531 0,-1.9531 1.0157,-3.0391 1.0156,-1.0859 2.625,-1.0859 1.5625,0 2.5468,1.0625 0.9844,1.0625 0.9844,2.9844 0,0.125 0,0.3593 h -5.8125 q 0.0781,1.2813 0.7266,1.961 0.6484,0.6797 1.6328,0.6797 0.7187,0 1.2344,-0.3829 0.5156,-0.3828 0.8125,-1.2109 z m -4.3282,-2.1406 h 4.3438 q -0.0938,-0.9844 -0.5,-1.4688 -0.625,-0.7656 -1.625,-0.7656 -0.9219,0 -1.5391,0.6094 -0.6172,0.6094 -0.6797,1.625 z M -20.5044,16 V 8.2188 h 1.1875 v 1.1874 q 0.4531,-0.8281 0.8438,-1.0937 0.3906,-0.2656 0.8437,-0.2656 0.6719,0 1.3594,0.4219 l -0.4531,1.2187 q -0.4844,-0.2813 -0.9688,-0.2813 -0.4375,0 -0.7812,0.2579 -0.3438,0.2578 -0.4844,0.7265 -0.2188,0.7032 -0.2188,1.5313 V 16 Z m 4.7764,0.6406 1.2812,0.1875 q 0.0781,0.5938 0.4375,0.875 0.5,0.3594 1.3438,0.3594 0.9218,0 1.4218,-0.3672 0.5,-0.3672 0.6719,-1.0234 0.0938,-0.4063 0.0938,-1.6875 Q -11.3374,16 -12.6343,16 q -1.6094,0 -2.4844,-1.1562 -0.875,-1.1563 -0.875,-2.7813 0,-1.1094 0.4063,-2.0469 0.4062,-0.9375 1.1641,-1.4531 0.7578,-0.5156 1.8046,-0.5156 1.375,0 2.2657,1.1093 V 8.2188 h 1.2187 v 6.7187 q 0,1.8281 -0.375,2.5859 -0.375,0.7578 -1.1719,1.1954 -0.7968,0.4374 -1.9687,0.4374 -1.3906,0 -2.25,-0.625 -0.8594,-0.625 -0.8281,-1.8906 z m 1.0937,-4.6718 q 0,1.5312 0.6016,2.2343 0.6015,0.7031 1.5234,0.7031 0.9063,0 1.5235,-0.6953 0.6171,-0.6953 0.6171,-2.1953 0,-1.4218 -0.6328,-2.1484 -0.6328,-0.7266 -1.5234,-0.7266 -0.8906,0 -1.5,0.711 -0.6094,0.7109 -0.6094,2.1172 z M -7.1982,19 -7.3545,17.7656 q 0.4375,0.1094 0.75,0.1094 0.4531,0 0.7109,-0.1484 0.2579,-0.1485 0.4297,-0.4141 0.125,-0.1875 0.4063,-0.9687 0.0312,-0.1094 0.1094,-0.3282 L -7.9014,8.2188 h 1.4219 l 1.625,4.5 q 0.3125,0.8593 0.5625,1.8124 0.2344,-0.9062 0.5469,-1.7812 l 1.6562,-4.5312 h 1.3282 l -2.9688,7.9062 q -0.4687,1.2812 -0.7344,1.7656 -0.3593,0.6563 -0.8125,0.961 -0.4531,0.3046 -1.0781,0.3046 -0.375,0 -0.8437,-0.1562 z M 4.5317,6.7812 V 5.2656 h 1.3125 v 1.5156 z m 0,9.2188 V 8.2188 H 5.8442 V 16 Z m 3.3169,0 V 8.2188 h 1.1875 v 1.1093 q 0.8594,-1.2812 2.4844,-1.2812 0.7031,0 1.2891,0.25 0.5859,0.25 0.8828,0.664 0.2969,0.4141 0.4062,0.9766 0.0782,0.3594 0.0782,1.2813 V 16 h -1.3282 v -4.7344 q 0,-0.7968 -0.1484,-1.1953 Q 12.5518,9.6719 12.1611,9.4297 11.7705,9.1875 11.2393,9.1875 10.3955,9.1875 9.7861,9.7188 9.1768,10.25 9.1768,11.75 V 16 Z M 26.8271,8.2188 V 16 h -1.1718 v -0.9219 q -0.3907,0.5781 -0.7657,0.7969 -0.5,0.3125 -1.1875,0.3125 -0.6093,0 -1.0781,-0.25 -0.3437,-0.1719 -0.7812,-0.7187 v 3.7656 H 20.5459 V 8.2188 h 1.2969 v 3.2968 q 0,1.7969 0.1953,2.3282 0.1953,0.5312 0.625,0.8359 0.4297,0.3047 0.9765,0.3047 0.5938,0 1.0547,-0.3203 0.461,-0.3203 0.6485,-0.8282 0.1875,-0.5078 0.1875,-2.289 V 8.2188 Z m 7.502,5.2812 1.3594,0.1562 q -0.3125,1.2032 -1.1875,1.8594 -0.875,0.6563 -2.2344,0.6563 -1.7031,0 -2.7031,-1.0469 -1,-1.0469 -1,-2.9531 0,-1.9531 1.0156,-3.0391 1.0156,-1.0859 2.625,-1.0859 1.5625,0 2.5469,1.0625 0.9844,1.0625 0.9844,2.9844 0,0.125 0,0.3593 h -5.8125 q 0.0781,1.2813 0.7265,1.961 0.6485,0.6797 1.6328,0.6797 0.7188,0 1.2344,-0.3829 0.5156,-0.3828 0.8125,-1.2109 z M 30.001,11.3594 h 4.3437 q -0.0937,-0.9844 -0.5,-1.4688 -0.625,-0.7656 -1.625,-0.7656 -0.9218,0 -1.539,0.6094 -0.6172,0.6094 -0.6797,1.625 z M 40.5776,16 36.4214,5.2656 h 1.5469 l 2.7812,7.7969 q 0.3438,0.9375 0.5625,1.7656 0.25,-0.8906 0.5781,-1.7656 l 2.9063,-7.7969 h 1.4531 L 42.0464,16 Z"
           style="stroke:none" />
      </g>
      <g
         id="g419"
         style="color-interpolation:linearRGB;fill:#262626;stroke:#262626;stroke-width:0.66670001;stroke-linejoin:round;color-rendering:optimizeQuality;image-rendering:optimizeQuality;text-rendering:geometricPrecision">
        <line
           id="line395"
           y1="403"
           x2="79"
           x1="79"
           style="fill:none"
           y2="252" />
        <line
           id="line397"
           y1="403"
           x2="257"
           x1="257"
           style="fill:none"
           y2="252" />
        <line
           id="line399"
           y1="403"
           x2="80.779999"
           x1="79"
           style="fill:none"
           y2="403" />
        <line
           id="line401"
           y1="365.25"
           x2="80.779999"
           x1="79"
           style="fill:none"
           y2="365.25" />
        <line
           id="line403"
           y1="327.5"
           x2="80.779999"
           x1="79"
           style="fill:none"
           y2="327.5" />
        <line
           id="line405"
           y1="289.75"
           x2="80.779999"
           x1="79"
           style="fill:none"
           y2="289.75" />
        <line
           id="line407"
           y1="252"
           x2="80.779999"
           x1="79"
           style="fill:none"
           y2="252" />
        <line
           id="line409"
           y1="403"
           x2="255.22"
           x1="257"
           style="fill:none"
           y2="403" />
        <line
           id="line411"
           y1="365.25"
           x2="255.22"
           x1="257"
           style="fill:none"
           y2="365.25" />
        <line
           id="line413"
           y1="327.5"
           x2="255.22"
           x1="257"
           style="fill:none"
           y2="327.5" />
        <line
           id="line415"
           y1="289.75"
           x2="255.22"
           x1="257"
           style="fill:none"
           y2="289.75" />
        <line
           id="line417"
           y1="252"
           x2="255.22"
           x1="257"
           style="fill:none"
           y2="252" />
      </g>
      <g
         id="g423"
         style="font-size:13px;font-family:SansSerif;color-interpolation:linearRGB;fill:#262626;stroke:#262626;color-rendering:optimizeQuality;image-rendering:optimizeQuality;text-rendering:geometricPrecision"
         transform="translate(73.6667,403)">
        <path
           inkscape:connector-curvature="0"
           id="path421"
           d="M -22.5938,2.7031 V 1.5625 h 3.5157 v 1.1406 z m 4.4698,-1.7969 q 0,-1.6406 0.3359,-2.6484 0.336,-1.0078 1.0078,-1.5547 0.6719,-0.5469 1.6875,-0.5469 0.75,0 1.3125,0.3047 0.5625,0.3047 0.9297,0.8672 0.3672,0.5625 0.5781,1.3828 0.211,0.8203 0.211,2.1953 0,1.6407 -0.336,2.6485 -0.3359,1.0078 -1.0078,1.5547 -0.6718,0.5468 -1.6875,0.5468 -1.3437,0 -2.125,-0.9687 -0.9062,-1.1563 -0.9062,-3.7813 z m 1.1719,0 q 0,2.2969 0.5312,3.0547 0.5313,0.7579 1.3281,0.7579 0.7813,0 1.3203,-0.7579 0.5391,-0.7578 0.5391,-3.0547 0,-2.2968 -0.5391,-3.0468 -0.539,-0.75 -1.3359,-0.75 -0.7812,0 -1.2656,0.6562 -0.5781,0.8594 -0.5781,3.1406 z M -10.2534,5.5 V 4.2031 h 1.2969 V 5.5 Z m 6.6274,0 V 3.2656 H -7.6572 V 2.2188 l 4.2343,-6.0313 h 0.9375 v 6.0313 h 1.2657 V 3.2656 H -2.4854 V 5.5 Z m 0,-3.2812 v -4.1876 l -2.9219,4.1876 z"
           style="stroke:none" />
      </g>
      <g
         id="g427"
         style="font-size:13px;font-family:SansSerif;color-interpolation:linearRGB;fill:#262626;stroke:#262626;color-rendering:optimizeQuality;image-rendering:optimizeQuality;text-rendering:geometricPrecision"
         transform="translate(73.6667,365.25)">
        <path
           inkscape:connector-curvature="0"
           id="path425"
           d="M -22.5938,2.7031 V 1.5625 h 3.5157 v 1.1406 z m 4.4698,-1.7969 q 0,-1.6406 0.3359,-2.6484 0.336,-1.0078 1.0078,-1.5547 0.6719,-0.5469 1.6875,-0.5469 0.75,0 1.3125,0.3047 0.5625,0.3047 0.9297,0.8672 0.3672,0.5625 0.5781,1.3828 0.211,0.8203 0.211,2.1953 0,1.6407 -0.336,2.6485 -0.3359,1.0078 -1.0078,1.5547 -0.6718,0.5468 -1.6875,0.5468 -1.3437,0 -2.125,-0.9687 -0.9062,-1.1563 -0.9062,-3.7813 z m 1.1719,0 q 0,2.2969 0.5312,3.0547 0.5313,0.7579 1.3281,0.7579 0.7813,0 1.3203,-0.7579 0.5391,-0.7578 0.5391,-3.0547 0,-2.2968 -0.5391,-3.0468 -0.539,-0.75 -1.3359,-0.75 -0.7812,0 -1.2656,0.6562 -0.5781,0.8594 -0.5781,3.1406 z M -10.2534,5.5 V 4.2031 h 1.2969 V 5.5 Z M -1.2822,4.4062 V 5.5 h -6.1563 q -0.0156,-0.4062 0.1406,-0.7969 0.2344,-0.625 0.75,-1.2343 0.5157,-0.6094 1.5,-1.4063 1.5157,-1.25 2.0469,-1.9766 0.5313,-0.7265 0.5313,-1.3671 0,-0.6876 -0.4844,-1.1485 -0.4844,-0.4609 -1.2656,-0.4609 -0.8282,0 -1.3203,0.4922 -0.4922,0.4922 -0.5079,1.3672 l -1.1718,-0.125 q 0.125,-1.3126 0.9062,-2 0.7813,-0.6876 2.1094,-0.6876 1.3437,0 2.125,0.7422 0.7812,0.7422 0.7812,1.836 0,0.5625 -0.2265,1.1015 -0.2266,0.5391 -0.7578,1.1407 -0.5313,0.6015 -1.7657,1.6328 -1.0312,0.8594 -1.3203,1.1718 -0.289,0.3126 -0.4765,0.625 z"
           style="stroke:none" />
      </g>
      <g
         id="g431"
         style="font-size:13px;font-family:SansSerif;color-interpolation:linearRGB;fill:#262626;stroke:#262626;color-rendering:optimizeQuality;image-rendering:optimizeQuality;text-rendering:geometricPrecision"
         transform="translate(73.6667,327.5)">
        <path
           inkscape:connector-curvature="0"
           id="path429"
           d="m -7.4531,0.9062 q 0,-1.6406 0.3359,-2.6484 0.336,-1.0078 1.0078,-1.5547 0.6719,-0.5469 1.6875,-0.5469 0.75,0 1.3125,0.3047 0.5625,0.3047 0.9297,0.8672 0.3672,0.5625 0.5781,1.3828 0.211,0.8203 0.211,2.1953 0,1.6407 -0.336,2.6485 -0.3359,1.0078 -1.0078,1.5547 -0.6718,0.5468 -1.6875,0.5468 -1.3437,0 -2.125,-0.9687 -0.9062,-1.1563 -0.9062,-3.7813 z m 1.1719,0 q 0,2.2969 0.5312,3.0547 0.5312,0.7579 1.3281,0.7579 0.7813,0 1.3203,-0.7579 0.5391,-0.7578 0.5391,-3.0547 0,-2.2968 -0.5391,-3.0468 -0.539,-0.75 -1.3359,-0.75 -0.7813,0 -1.2656,0.6562 -0.5781,0.8594 -0.5781,3.1406 z"
           style="stroke:none" />
      </g>
      <g
         id="g435"
         style="font-size:13px;font-family:SansSerif;color-interpolation:linearRGB;fill:#262626;stroke:#262626;color-rendering:optimizeQuality;image-rendering:optimizeQuality;text-rendering:geometricPrecision"
         transform="translate(73.6667,289.75)">
        <path
           inkscape:connector-curvature="0"
           id="path433"
           d="m -18.4531,0.9062 q 0,-1.6406 0.3359,-2.6484 0.336,-1.0078 1.0078,-1.5547 0.6719,-0.5469 1.6875,-0.5469 0.75,0 1.3125,0.3047 0.5625,0.3047 0.9297,0.8672 0.3672,0.5625 0.5781,1.3828 0.211,0.8203 0.211,2.1953 0,1.6407 -0.336,2.6485 -0.3359,1.0078 -1.0078,1.5547 -0.6718,0.5468 -1.6875,0.5468 -1.3437,0 -2.125,-0.9687 -0.9062,-1.1563 -0.9062,-3.7813 z m 1.1719,0 q 0,2.2969 0.5312,3.0547 0.5312,0.7579 1.3281,0.7579 0.7813,0 1.3203,-0.7579 0.5391,-0.7578 0.5391,-3.0547 0,-2.2968 -0.5391,-3.0468 -0.539,-0.75 -1.3359,-0.75 -0.7813,0 -1.2656,0.6562 -0.5781,0.8594 -0.5781,3.1406 z M -10.5825,5.5 V 4.2031 h 1.2969 V 5.5 Z M -1.6113,4.4062 V 5.5 h -6.1563 q -0.0156,-0.4062 0.1406,-0.7969 0.2344,-0.625 0.75,-1.2343 0.5157,-0.6094 1.5,-1.4063 1.5157,-1.25 2.0469,-1.9766 0.5313,-0.7265 0.5313,-1.3671 0,-0.6876 -0.4844,-1.1485 -0.4844,-0.4609 -1.2656,-0.4609 -0.8282,0 -1.3203,0.4922 -0.4922,0.4922 -0.5079,1.3672 l -1.1718,-0.125 q 0.125,-1.3126 0.9062,-2 0.7813,-0.6876 2.1094,-0.6876 1.3437,0 2.125,0.7422 0.7812,0.7422 0.7812,1.836 0,0.5625 -0.2265,1.1015 -0.2266,0.5391 -0.7578,1.1407 -0.5313,0.6015 -1.7657,1.6328 -1.0312,0.8594 -1.3203,1.1718 -0.289,0.3126 -0.4765,0.625 z"
           style="stroke:none" />
      </g>
      <g
         id="g439"
         style="font-size:13px;font-family:SansSerif;color-interpolation:linearRGB;fill:#262626;stroke:#262626;color-rendering:optimizeQuality;image-rendering:optimizeQuality;text-rendering:geometricPrecision"
         transform="translate(73.6667,252)">
        <path
           inkscape:connector-curvature="0"
           id="path437"
           d="m -18.4531,0.9062 q 0,-1.6406 0.3359,-2.6484 0.336,-1.0078 1.0078,-1.5547 0.6719,-0.5469 1.6875,-0.5469 0.75,0 1.3125,0.3047 0.5625,0.3047 0.9297,0.8672 0.3672,0.5625 0.5781,1.3828 0.211,0.8203 0.211,2.1953 0,1.6407 -0.336,2.6485 -0.3359,1.0078 -1.0078,1.5547 -0.6718,0.5468 -1.6875,0.5468 -1.3437,0 -2.125,-0.9687 -0.9062,-1.1563 -0.9062,-3.7813 z m 1.1719,0 q 0,2.2969 0.5312,3.0547 0.5312,0.7579 1.3281,0.7579 0.7813,0 1.3203,-0.7579 0.5391,-0.7578 0.5391,-3.0547 0,-2.2968 -0.5391,-3.0468 -0.539,-0.75 -1.3359,-0.75 -0.7813,0 -1.2656,0.6562 -0.5781,0.8594 -0.5781,3.1406 z M -10.5825,5.5 V 4.2031 h 1.2969 V 5.5 Z m 6.6274,0 V 3.2656 H -7.9863 V 2.2188 l 4.2343,-6.0313 h 0.9375 v 6.0313 h 1.2657 V 3.2656 H -2.8145 V 5.5 Z m 0,-3.2812 V -1.9688 L -6.877,2.2188 Z"
           style="stroke:none" />
      </g>
      <g
         id="g443"
         style="font-size:15px;font-family:mwb_cmr10;color-interpolation:linearRGB;fill:#262626;stroke:#262626;color-rendering:optimizeQuality;image-rendering:optimizeQuality;text-rendering:geometricPrecision"
         transform="rotate(-90,192.5,155.5)">
        <path
           inkscape:connector-curvature="0"
           id="path441"
           d="m 0.8125,0 q -0.125,0 -0.125,-0.125 0.0156,0 0.0156,-0.0078 0,-0.0078 0,-0.0391 l 5.1563,-10.4062 q 0.0781,-0.1563 0.2812,-0.1563 h 0.2032 q 0.2031,0 0.2656,0.1563 l 5.1718,10.4062 q 0,0.0157 0.0079,0.0313 0.0078,0.0156 0.0078,0.0156 0,0.125 -0.125,0.125 z M 1.7969,-1.2031 H 9.7031 L 5.75,-9.1562 Z"
           style="stroke:none" />
      </g>
      <g
         id="g447"
         style="font-size:15px;font-family:SansSerif;color-interpolation:linearRGB;fill:#262626;stroke:#262626;color-rendering:optimizeQuality;image-rendering:optimizeQuality;text-rendering:geometricPrecision"
         transform="rotate(-90,186,149)">
        <path
           inkscape:connector-curvature="0"
           id="path445"
           d="M 7.1987,0 4.355,-10.7344 h 1.4531 l 1.6406,7.0313 q 0.25,1.1093 0.4532,2.2031 0.4062,-1.7188 0.4843,-1.9844 l 2.0313,-7.25 h 1.7187 l 1.5313,5.4375 q 0.5781,2.0157 0.8437,3.7969 0.2032,-1.0156 0.5313,-2.3438 l 1.6875,-6.8906 h 1.4219 L 15.2144,0 h -1.375 l -2.2657,-8.1875 q -0.2812,-1.0156 -0.3281,-1.25 -0.1719,0.7344 -0.3125,1.25 L 8.6519,0 Z"
           style="stroke:none" />
      </g>
      <g
         id="g451"
         style="font-size:11px;font-family:SansSerif;color-interpolation:linearRGB;fill:#262626;stroke:#262626;color-rendering:optimizeQuality;image-rendering:optimizeQuality;text-rendering:geometricPrecision"
         transform="rotate(-90,180,136)">
        <path
           inkscape:connector-curvature="0"
           id="path449"
           d="m 2.8438,-0.8594 0.125,0.8438 Q 2.5625,0.0781 2.25,0.0781 1.7188,0.0781 1.4297,-0.0938 1.1406,-0.2656 1.0234,-0.5312 0.9062,-0.7969 0.9062,-1.6719 V -4.9531 H 0.1875 v -0.75 h 0.7187 v -1.4063 l 0.9532,-0.5937 v 2 h 0.9844 v 0.75 H 1.8594 v 3.3437 q 0,0.4063 0.0547,0.5235 0.0547,0.1171 0.1718,0.1875 0.1172,0.0703 0.3203,0.0703 0.1719,0 0.4376,-0.0313 z M 3.7749,0 v -7.875 h 0.9688 v 2.8281 q 0.6875,-0.7812 1.7187,-0.7812 0.625,0 1.0938,0.25 0.4687,0.25 0.6718,0.6875 0.2032,0.4375 0.2032,1.2812 V 0 H 7.4624 v -3.6094 q 0,-0.7344 -0.3125,-1.0625 Q 6.8374,-5 6.2593,-5 5.8218,-5 5.4468,-4.7812 5.0718,-4.5625 4.9077,-4.1797 4.7437,-3.7969 4.7437,-3.125 V 0 Z"
           style="stroke:none" />
      </g>
      <g
         id="g465"
         style="color-interpolation:linearRGB;fill:#ff0000;stroke:#ff0000;stroke-width:1.33329999;stroke-linecap:butt;stroke-linejoin:round;color-rendering:optimizeQuality;image-rendering:optimizeQuality;text-rendering:geometricPrecision">
        <path
           inkscape:connector-curvature="0"
           id="path453"
           style="fill:none;fill-rule:evenodd"
           d="m 78.9822,327.5 h 0.256 0.6776 0.6776 0.6775 0.6776 0.6776 0.6775 0.6776 0.6776 0.6776 0.6775 0.6776 0.6776 0.6775 0.6776 0.6776 0.6776 0.6775 0.6776 0.6776 l 0.6775,10e-5 h 0.6776 0.6776 0.6775 0.6776 0.6776 l 0.6776,1e-4 h 0.6775 0.6776 0.6776 l 0.6775,10e-5 h 0.6776 l 0.6776,1e-4 0.6776,10e-5 h 0.6775 l 0.6776,1e-4 0.6776,2e-4 0.6775,10e-5 0.6776,10e-5 0.6776,2e-4 0.6775,3e-4 0.6776,2e-4 0.6776,3e-4 0.6776,4e-4 0.6775,4e-4 0.6776,6e-4 0.6776,6e-4 0.6776,7e-4 0.6775,8e-4" />
        <path
           inkscape:connector-curvature="0"
           id="path455"
           style="fill:none;fill-rule:evenodd"
           d="m 111.0841,327.5047 0.6775,8e-4 0.6776,0.001 0.6776,10e-4 0.6775,0.001 0.6776,0.002 0.6776,0.002 0.6775,0.002 0.6776,0.003 0.6776,0.003 0.6776,0.004 0.6775,0.004 0.6776,0.005 0.6776,0.006 0.6775,0.007 0.6776,0.008 0.6776,0.01 0.6776,0.0118 0.6775,0.0138 0.6776,0.0162 0.6776,0.0191 0.6775,0.0224 0.6776,0.0262 0.6776,0.0307 0.6775,0.036 0.6776,0.042 0.6776,0.0491 0.6776,0.0572 0.6775,0.0667 0.6776,0.0776 0.6776,0.0902 0.6775,0.1046 0.6776,0.1212 0.6776,0.1401 0.6776,0.1617 0.6775,0.1862 0.6776,0.214 0.6776,0.2455 0.6775,0.2808 0.6776,0.3205 0.6776,0.3648 0.6776,0.4139 0.6775,0.4684 0.6776,0.5283 0.6776,0.5937 0.6775,0.6652 0.6776,0.7424 0.6776,0.8253 0.6776,0.9137 0.6775,1.0073 0.6776,1.1051 0.6776,1.2064" />
        <path
           inkscape:connector-curvature="0"
           id="path457"
           style="fill:none;fill-rule:evenodd"
           d="m 144.9626,337.5277 0.6776,1.2064 0.6775,1.31 0.6776,1.4143 0.6776,1.5177 0.6775,1.6182 0.6776,1.7137 0.6776,1.8017 0.6776,1.879 0.6775,1.9428 0.6776,1.9892 0.6776,2.014 0.6775,2.013 0.6776,1.9815 0.6776,1.9152 0.6776,1.8099 0.6775,1.6621 0.6776,1.4691 0.6776,1.2285 0.6775,0.9394 0.6776,0.6015 0.6776,0.2152 0.6776,-0.2176 0.6775,-0.6936 0.6776,-1.2078 0.6776,-1.7528 0.6775,-2.3186 0.6776,-2.8917 0.6776,-3.4567 0.6776,-3.9949 0.6775,-4.4865 0.6776,-4.9108 0.6776,-5.2491 0.6775,-5.4845 L 168,327.5 l 0.6776,-5.6055 0.6775,-5.4845 0.6776,-5.2491 0.6776,-4.9108 0.6775,-4.4865 0.6776,-3.9949 0.6776,-3.4567 0.6776,-2.8917 0.6775,-2.3186 0.6776,-1.7528 0.6776,-1.2078 0.6775,-0.6936 0.6776,-0.2176 0.6776,0.2152 0.6776,0.6015 0.6775,0.9394 0.6776,1.2285" />
        <path
           inkscape:connector-curvature="0"
           id="path459"
           style="fill:none;fill-rule:evenodd"
           d="m 178.8411,286.986 0.6776,1.2285 0.6776,1.4691 0.6775,1.6621 0.6776,1.8099 0.6776,1.9152 0.6776,1.9815 0.6775,2.013 0.6776,2.014 0.6776,1.9892 0.6775,1.9428 0.6776,1.879 0.6776,1.8017 0.6776,1.7137 0.6775,1.6182 0.6776,1.5177 0.6776,1.4143 0.6775,1.31 0.6776,1.2064 0.6776,1.1051 0.6775,1.0073 0.6776,0.9137 0.6776,0.8253 0.6776,0.7424 0.6775,0.6652 0.6776,0.5937 0.6776,0.5283 0.6775,0.4684 0.6776,0.4139 0.6776,0.3648 0.6776,0.3205 0.6775,0.2808 0.6776,0.2455 0.6776,0.214 0.6775,0.1862 0.6776,0.1617 0.6776,0.1401 0.6776,0.1212 0.6775,0.1046 0.6776,0.0902 0.6776,0.0776 0.6775,0.0667 0.6776,0.0572 0.6776,0.0491 0.6776,0.042 0.6775,0.036 0.6776,0.0307 0.6776,0.0262 0.6775,0.0224 0.6776,0.0191 0.6776,0.0162 0.6775,0.0138" />
        <path
           inkscape:connector-curvature="0"
           id="path461"
           style="fill:none;fill-rule:evenodd"
           d="m 212.7197,327.4084 0.6775,0.0138 0.6776,0.0118 0.6776,0.01 0.6776,0.008 0.6775,0.007 0.6776,0.006 0.6776,0.005 0.6775,0.004 0.6776,0.004 0.6776,0.003 0.6776,0.003 0.6775,0.002 0.6776,0.002 0.6776,0.002 0.6775,10e-4 0.6776,0.001 0.6776,10e-4 0.6776,8e-4 0.6775,7e-4 0.6776,6e-4 0.6776,6e-4 0.6775,4e-4 0.6776,4e-4 0.6776,3e-4 0.6776,2e-4 0.6775,3e-4 0.6776,2e-4 0.6776,10e-5 0.6775,1e-4 0.6776,2e-4 0.6776,10e-5 h 0.6775 l 0.6776,1e-4 0.6776,10e-5 h 0.6775 l 0.6776,10e-5 h 0.6776 0.6776 0.6775 l 0.6776,1e-4 h 0.6776 0.6776 0.6775 0.6776 0.6776 l 0.6775,10e-5 h 0.6776 0.6776 0.6775 0.6776 0.6776" />
        <path
           inkscape:connector-curvature="0"
           id="path463"
           style="fill:none;fill-rule:evenodd"
           d="m 246.5982,327.5 h 0.6776 0.6776 0.6775 0.6776 0.6776 0.6776 0.6775 0.6776 0.6776 0.6775 0.6776 0.6776 0.6775 0.6776 0.6776 0.256" />
      </g>
    </g>
  </g>
</svg>
