<?xml version="1.0" encoding="UTF-8" standalone="no"?>
<svg
   xmlns:dc="http://purl.org/dc/elements/1.1/"
   xmlns:cc="http://creativecommons.org/ns#"
   xmlns:rdf="http://www.w3.org/1999/02/22-rdf-syntax-ns#"
   xmlns:svg="http://www.w3.org/2000/svg"
   xmlns="http://www.w3.org/2000/svg"
   xmlns:sodipodi="http://sodipodi.sourceforge.net/DTD/sodipodi-0.dtd"
   xmlns:inkscape="http://www.inkscape.org/namespaces/inkscape"
   style="font-style:normal;font-weight:normal;font-size:12px;font-family:Dialog;color-interpolation:auto;fill:#000000;fill-opacity:1;stroke:#000000;stroke-width:1;stroke-linecap:square;stroke-linejoin:miter;stroke-miterlimit:10;stroke-dasharray:none;stroke-dashoffset:0;stroke-opacity:1;color-rendering:auto;image-rendering:auto;shape-rendering:auto;text-rendering:auto"
   width="487.13699"
   height="386.45834"
   version="1.1"
   id="svg349"
   sodipodi:docname="nu_2_3_D_vs_Vdc_for_several_Vqpc.svg"
   inkscape:version="0.92.3 (2405546, 2018-03-11)">
  <metadata
     id="metadata353">
    <rdf:RDF>
      <cc:Work
         rdf:about="">
        <dc:format>image/svg+xml</dc:format>
        <dc:type
           rdf:resource="http://purl.org/dc/dcmitype/StillImage" />
      </cc:Work>
    </rdf:RDF>
  </metadata>
  <sodipodi:namedview
     pagecolor="#ffffff"
     bordercolor="#666666"
     borderopacity="1"
     objecttolerance="10"
     gridtolerance="10"
     guidetolerance="10"
     inkscape:pageopacity="0"
     inkscape:pageshadow="2"
     inkscape:window-width="1920"
     inkscape:window-height="1017"
     id="namedview351"
     showgrid="false"
     inkscape:zoom="1.5893067"
     inkscape:cx="189.54651"
     inkscape:cy="207.125"
     inkscape:window-x="1592"
     inkscape:window-y="-8"
     inkscape:window-maximized="1"
     inkscape:current-layer="svg349" />
  <!--Generated by the Batik Graphics2D SVG Generator-->
  <defs
     id="genericDefs">
    <defs
       id="defs1">
      <clipPath
         id="clipPath1"
         clipPathUnits="userSpaceOnUse">
        <path
           id="path3"
           d="M 0,0 H 560 V 420 H 0 Z"
           inkscape:connector-curvature="0" />
      </clipPath>
    </defs>
  </defs>
  <g
     id="g99"
     style="color-interpolation:linearRGB;fill:#262626;fill-opacity:0.14900004;stroke:#262626;stroke-width:0.66670001;stroke-linecap:butt;stroke-linejoin:round;stroke-opacity:0.14900004;color-rendering:optimizeQuality;image-rendering:optimizeQuality;text-rendering:geometricPrecision"
     transform="translate(-29.9323,-30.66665)">
    <line
       id="line17"
       y1="370"
       x2="73"
       x1="73"
       style="fill:none"
       y2="31" />
    <line
       id="line19"
       y1="370"
       x2="116.4"
       x1="116.4"
       style="fill:none"
       y2="31" />
    <line
       id="line21"
       y1="370"
       x2="159.8"
       x1="159.8"
       style="fill:none"
       y2="31" />
    <line
       id="line23"
       y1="370"
       x2="203.2"
       x1="203.2"
       style="fill:none"
       y2="31" />
    <line
       id="line25"
       y1="370"
       x2="246.60001"
       x1="246.60001"
       style="fill:none"
       y2="31" />
    <line
       id="line27"
       y1="370"
       x2="290"
       x1="290"
       style="fill:none"
       y2="31" />
    <line
       id="line29"
       y1="370"
       x2="333.39999"
       x1="333.39999"
       style="fill:none"
       y2="31" />
    <line
       id="line31"
       y1="370"
       x2="376.79999"
       x1="376.79999"
       style="fill:none"
       y2="31" />
    <line
       id="line33"
       y1="370"
       x2="420.20001"
       x1="420.20001"
       style="fill:none"
       y2="31" />
    <line
       id="line35"
       y1="370"
       x2="463.60001"
       x1="463.60001"
       style="fill:none"
       y2="31" />
    <line
       id="line37"
       y1="370"
       x2="507"
       x1="507"
       style="fill:none"
       y2="31" />
    <line
       id="line39"
       y1="341.75"
       x2="73"
       x1="507"
       style="fill:none"
       y2="341.75" />
    <line
       id="line41"
       y1="285.25"
       x2="73"
       x1="507"
       style="fill:none"
       y2="285.25" />
    <line
       id="line43"
       y1="228.75"
       x2="73"
       x1="507"
       style="fill:none"
       y2="228.75" />
    <line
       id="line45"
       y1="172.25"
       x2="73"
       x1="507"
       style="fill:none"
       y2="172.25" />
    <line
       id="line47"
       y1="115.75"
       x2="73"
       x1="507"
       style="fill:none"
       y2="115.75" />
    <line
       id="line49"
       y1="59.25"
       x2="73"
       x1="507"
       style="fill:none"
       y2="59.25" />
    <line
       id="line51"
       y2="370"
       style="fill:none;fill-opacity:1;stroke-linecap:square;stroke-opacity:1"
       y1="370"
       x2="507"
       x1="73" />
    <line
       id="line53"
       y2="31"
       style="fill:none;fill-opacity:1;stroke-linecap:square;stroke-opacity:1"
       y1="31"
       x2="507"
       x1="73" />
    <line
       id="line55"
       y2="365.66"
       style="fill:none;fill-opacity:1;stroke-linecap:square;stroke-opacity:1"
       y1="370"
       x2="73"
       x1="73" />
    <line
       id="line57"
       y2="365.66"
       style="fill:none;fill-opacity:1;stroke-linecap:square;stroke-opacity:1"
       y1="370"
       x2="116.4"
       x1="116.4" />
    <line
       id="line59"
       y2="365.66"
       style="fill:none;fill-opacity:1;stroke-linecap:square;stroke-opacity:1"
       y1="370"
       x2="159.8"
       x1="159.8" />
    <line
       id="line61"
       y2="365.66"
       style="fill:none;fill-opacity:1;stroke-linecap:square;stroke-opacity:1"
       y1="370"
       x2="203.2"
       x1="203.2" />
    <line
       id="line63"
       y2="365.66"
       style="fill:none;fill-opacity:1;stroke-linecap:square;stroke-opacity:1"
       y1="370"
       x2="246.60001"
       x1="246.60001" />
    <line
       id="line65"
       y2="365.66"
       style="fill:none;fill-opacity:1;stroke-linecap:square;stroke-opacity:1"
       y1="370"
       x2="290"
       x1="290" />
    <line
       id="line67"
       y2="365.66"
       style="fill:none;fill-opacity:1;stroke-linecap:square;stroke-opacity:1"
       y1="370"
       x2="333.39999"
       x1="333.39999" />
    <line
       id="line69"
       y2="365.66"
       style="fill:none;fill-opacity:1;stroke-linecap:square;stroke-opacity:1"
       y1="370"
       x2="376.79999"
       x1="376.79999" />
    <line
       id="line71"
       y2="365.66"
       style="fill:none;fill-opacity:1;stroke-linecap:square;stroke-opacity:1"
       y1="370"
       x2="420.20001"
       x1="420.20001" />
    <line
       id="line73"
       y2="365.66"
       style="fill:none;fill-opacity:1;stroke-linecap:square;stroke-opacity:1"
       y1="370"
       x2="463.60001"
       x1="463.60001" />
    <line
       id="line75"
       y2="365.66"
       style="fill:none;fill-opacity:1;stroke-linecap:square;stroke-opacity:1"
       y1="370"
       x2="507"
       x1="507" />
    <line
       id="line77"
       y2="35.34"
       style="fill:none;fill-opacity:1;stroke-linecap:square;stroke-opacity:1"
       y1="31"
       x2="73"
       x1="73" />
    <line
       id="line79"
       y2="35.34"
       style="fill:none;fill-opacity:1;stroke-linecap:square;stroke-opacity:1"
       y1="31"
       x2="116.4"
       x1="116.4" />
    <line
       id="line81"
       y2="35.34"
       style="fill:none;fill-opacity:1;stroke-linecap:square;stroke-opacity:1"
       y1="31"
       x2="159.8"
       x1="159.8" />
    <line
       id="line83"
       y2="35.34"
       style="fill:none;fill-opacity:1;stroke-linecap:square;stroke-opacity:1"
       y1="31"
       x2="203.2"
       x1="203.2" />
    <line
       id="line85"
       y2="35.34"
       style="fill:none;fill-opacity:1;stroke-linecap:square;stroke-opacity:1"
       y1="31"
       x2="246.60001"
       x1="246.60001" />
    <line
       id="line87"
       y2="35.34"
       style="fill:none;fill-opacity:1;stroke-linecap:square;stroke-opacity:1"
       y1="31"
       x2="290"
       x1="290" />
    <line
       id="line89"
       y2="35.34"
       style="fill:none;fill-opacity:1;stroke-linecap:square;stroke-opacity:1"
       y1="31"
       x2="333.39999"
       x1="333.39999" />
    <line
       id="line91"
       y2="35.34"
       style="fill:none;fill-opacity:1;stroke-linecap:square;stroke-opacity:1"
       y1="31"
       x2="376.79999"
       x1="376.79999" />
    <line
       id="line93"
       y2="35.34"
       style="fill:none;fill-opacity:1;stroke-linecap:square;stroke-opacity:1"
       y1="31"
       x2="420.20001"
       x1="420.20001" />
    <line
       id="line95"
       y2="35.34"
       style="fill:none;fill-opacity:1;stroke-linecap:square;stroke-opacity:1"
       y1="31"
       x2="463.60001"
       x1="463.60001" />
    <line
       id="line97"
       y2="35.34"
       style="fill:none;fill-opacity:1;stroke-linecap:square;stroke-opacity:1"
       y1="31"
       x2="507"
       x1="507" />
  </g>
  <g
     id="g103"
     style="font-size:13px;font-family:SansSerif;color-interpolation:linearRGB;fill:#262626;stroke:#262626;color-rendering:optimizeQuality;image-rendering:optimizeQuality;text-rendering:geometricPrecision"
     transform="translate(43.0677,344.66665)">
    <path
       inkscape:connector-curvature="0"
       id="path101"
       d="m -13.0938,11.2031 v -1.1406 h 3.5157 v 1.1406 z m 4.4698,0.3594 1.1875,-0.1094 q 0.1406,0.8907 0.625,1.3281 0.4844,0.4376 1.1719,0.4376 0.8281,0 1.3984,-0.625 0.5703,-0.625 0.5703,-1.6407 0,-0.9843 -0.5469,-1.5469 -0.5468,-0.5624 -1.4375,-0.5624 -0.5625,0 -1.0078,0.25 -0.4453,0.25 -0.6953,0.6406 L -8.4209,9.5938 -7.5303,4.8281 h 4.625 v 1.0781 h -3.7031 l -0.5,2.5 q 0.8281,-0.5781 1.75,-0.5781 1.2188,0 2.0547,0.8438 0.8359,0.8437 0.8359,2.1719 0,1.2656 -0.7343,2.1874 -0.8907,1.125 -2.4375,1.125 -1.2657,0 -2.0704,-0.7109 -0.8046,-0.7109 -0.914,-1.8828 z m 7.23,-2.1563 q 0,-1.6406 0.3359,-2.6484 0.3359,-1.0078 1.0078,-1.5547 0.6719,-0.5469 1.6875,-0.5469 0.75,0 1.3125,0.3047 0.5625,0.3047 0.9297,0.8672 0.3672,0.5625 0.5781,1.3828 0.211,0.8203 0.211,2.1953 0,1.6407 -0.336,2.6485 -0.3359,1.0078 -1.0078,1.5547 -0.6719,0.5468 -1.6875,0.5468 -1.3437,0 -2.125,-0.9687 Q -1.394,12.0312 -1.394,9.4062 Z m 1.1718,0 q 0,2.2969 0.5313,3.0547 0.5312,0.7579 1.3281,0.7579 0.7813,0 1.3203,-0.7579 0.5391,-0.7578 0.5391,-3.0547 0,-2.2968 -0.5391,-3.0468 -0.539,-0.75 -1.3359,-0.75 -0.7813,0 -1.2656,0.6562 -0.5782,0.8594 -0.5782,3.1406 z m 6.0581,0 q 0,-1.6406 0.336,-2.6484 Q 6.5078,5.75 7.1797,5.2031 7.8516,4.6562 8.8672,4.6562 q 0.75,0 1.3125,0.3047 0.5625,0.3047 0.9297,0.8672 0.3672,0.5625 0.5781,1.3828 0.2109,0.8203 0.2109,2.1953 0,1.6407 -0.3359,2.6485 -0.3359,1.0078 -1.0078,1.5547 -0.6719,0.5468 -1.6875,0.5468 -1.3438,0 -2.125,-0.9687 Q 5.8359,12.0312 5.8359,9.4062 Z m 1.1719,0 q 0,2.2969 0.5313,3.0547 0.5312,0.7579 1.3281,0.7579 0.7812,0 1.3203,-0.7579 0.5391,-0.7578 0.5391,-3.0547 0,-2.2968 -0.5391,-3.0468 -0.5391,-0.75 -1.3359,-0.75 -0.7813,0 -1.2657,0.6562 Q 7.0078,7.125 7.0078,9.4062 Z"
       style="stroke:none" />
  </g>
  <g
     id="g107"
     style="font-size:13px;font-family:SansSerif;color-interpolation:linearRGB;fill:#262626;stroke:#262626;color-rendering:optimizeQuality;image-rendering:optimizeQuality;text-rendering:geometricPrecision"
     transform="translate(86.4677,344.66665)">
    <path
       inkscape:connector-curvature="0"
       id="path105"
       d="m -13.0938,11.2031 v -1.1406 h 3.5157 v 1.1406 z M -4.9678,14 V 11.7656 H -8.999 v -1.0468 l 4.2344,-6.0313 h 0.9375 v 6.0313 h 1.2656 v 1.0468 H -3.8271 V 14 Z m 0,-3.2812 V 6.5312 l -2.9218,4.1876 z M -1.394,9.4062 q 0,-1.6406 0.3359,-2.6484 0.3359,-1.0078 1.0078,-1.5547 0.6719,-0.5469 1.6875,-0.5469 0.75,0 1.3125,0.3047 0.5625,0.3047 0.9297,0.8672 0.3672,0.5625 0.5781,1.3828 0.211,0.8203 0.211,2.1953 0,1.6407 -0.336,2.6485 -0.3359,1.0078 -1.0078,1.5547 -0.6719,0.5468 -1.6875,0.5468 -1.3437,0 -2.125,-0.9687 Q -1.394,12.0312 -1.394,9.4062 Z m 1.1718,0 q 0,2.2969 0.5313,3.0547 0.5312,0.7579 1.3281,0.7579 0.7813,0 1.3203,-0.7579 0.5391,-0.7578 0.5391,-3.0547 0,-2.2968 -0.5391,-3.0468 -0.539,-0.75 -1.3359,-0.75 -0.7813,0 -1.2656,0.6562 -0.5782,0.8594 -0.5782,3.1406 z m 6.0581,0 q 0,-1.6406 0.336,-2.6484 Q 6.5078,5.75 7.1797,5.2031 7.8516,4.6562 8.8672,4.6562 q 0.75,0 1.3125,0.3047 0.5625,0.3047 0.9297,0.8672 0.3672,0.5625 0.5781,1.3828 0.2109,0.8203 0.2109,2.1953 0,1.6407 -0.3359,2.6485 -0.3359,1.0078 -1.0078,1.5547 -0.6719,0.5468 -1.6875,0.5468 -1.3438,0 -2.125,-0.9687 Q 5.8359,12.0312 5.8359,9.4062 Z m 1.1719,0 q 0,2.2969 0.5313,3.0547 0.5312,0.7579 1.3281,0.7579 0.7812,0 1.3203,-0.7579 0.5391,-0.7578 0.5391,-3.0547 0,-2.2968 -0.5391,-3.0468 -0.5391,-0.75 -1.3359,-0.75 -0.7813,0 -1.2657,0.6562 Q 7.0078,7.125 7.0078,9.4062 Z"
       style="stroke:none" />
  </g>
  <g
     id="g111"
     style="font-size:13px;font-family:SansSerif;color-interpolation:linearRGB;fill:#262626;stroke:#262626;color-rendering:optimizeQuality;image-rendering:optimizeQuality;text-rendering:geometricPrecision"
     transform="translate(129.8677,344.66665)">
    <path
       inkscape:connector-curvature="0"
       id="path109"
       d="m -13.0938,11.2031 v -1.1406 h 3.5157 v 1.1406 z m 4.4698,0.3438 1.1406,-0.1563 q 0.2031,0.9688 0.6719,1.3985 0.4687,0.4297 1.1562,0.4297 0.7969,0 1.3516,-0.5547 0.5547,-0.5547 0.5547,-1.3829 0,-0.7968 -0.5078,-1.3046 -0.5078,-0.5078 -1.3047,-0.5078 -0.3281,0 -0.8125,0.125 l 0.125,-1 q 0.125,0.0156 0.1875,0.0156 0.7344,0 1.3203,-0.3828 0.5859,-0.3828 0.5859,-1.1797 0,-0.625 -0.4297,-1.0391 -0.4296,-0.414 -1.1015,-0.414 -0.6719,0 -1.1094,0.4218 -0.4375,0.4219 -0.5781,1.25 L -8.5146,7.0625 q 0.2187,-1.1406 0.9609,-1.7734 0.7422,-0.6329 1.8359,-0.6329 0.7657,0 1.4063,0.3282 0.6406,0.3281 0.9844,0.8906 0.3437,0.5625 0.3437,1.2031 0,0.5938 -0.3281,1.0938 -0.3281,0.5 -0.9531,0.7812 0.8125,0.2031 1.2734,0.7969 0.4609,0.5938 0.4609,1.5 0,1.2188 -0.8906,2.0703 -0.8906,0.8516 -2.25,0.8516 -1.2187,0 -2.0312,-0.7344 -0.8125,-0.7344 -0.9219,-1.8906 z m 7.23,-2.1407 q 0,-1.6406 0.3359,-2.6484 0.3359,-1.0078 1.0078,-1.5547 0.6719,-0.5469 1.6875,-0.5469 0.75,0 1.3125,0.3047 0.5625,0.3047 0.9297,0.8672 0.3672,0.5625 0.5781,1.3828 0.211,0.8203 0.211,2.1953 0,1.6407 -0.336,2.6485 -0.3359,1.0078 -1.0078,1.5547 -0.6719,0.5468 -1.6875,0.5468 -1.3437,0 -2.125,-0.9687 Q -1.394,12.0312 -1.394,9.4062 Z m 1.1718,0 q 0,2.2969 0.5313,3.0547 0.5312,0.7579 1.3281,0.7579 0.7813,0 1.3203,-0.7579 0.5391,-0.7578 0.5391,-3.0547 0,-2.2968 -0.5391,-3.0468 -0.539,-0.75 -1.3359,-0.75 -0.7813,0 -1.2656,0.6562 -0.5782,0.8594 -0.5782,3.1406 z m 6.0581,0 q 0,-1.6406 0.336,-2.6484 Q 6.5078,5.75 7.1797,5.2031 7.8516,4.6562 8.8672,4.6562 q 0.75,0 1.3125,0.3047 0.5625,0.3047 0.9297,0.8672 0.3672,0.5625 0.5781,1.3828 0.2109,0.8203 0.2109,2.1953 0,1.6407 -0.3359,2.6485 -0.3359,1.0078 -1.0078,1.5547 -0.6719,0.5468 -1.6875,0.5468 -1.3438,0 -2.125,-0.9687 Q 5.8359,12.0312 5.8359,9.4062 Z m 1.1719,0 q 0,2.2969 0.5313,3.0547 0.5312,0.7579 1.3281,0.7579 0.7812,0 1.3203,-0.7579 0.5391,-0.7578 0.5391,-3.0547 0,-2.2968 -0.5391,-3.0468 -0.5391,-0.75 -1.3359,-0.75 -0.7813,0 -1.2657,0.6562 Q 7.0078,7.125 7.0078,9.4062 Z"
       style="stroke:none" />
  </g>
  <g
     id="g115"
     style="font-size:13px;font-family:SansSerif;color-interpolation:linearRGB;fill:#262626;stroke:#262626;color-rendering:optimizeQuality;image-rendering:optimizeQuality;text-rendering:geometricPrecision"
     transform="translate(173.2677,344.66665)">
    <path
       inkscape:connector-curvature="0"
       id="path113"
       d="m -13.0938,11.2031 v -1.1406 h 3.5157 v 1.1406 z M -2.624,12.9062 V 14 h -6.1563 q -0.0156,-0.4062 0.1407,-0.7969 0.2343,-0.625 0.75,-1.2343 0.5156,-0.6094 1.5,-1.4063 1.5156,-1.25 2.0468,-1.9766 0.5313,-0.7265 0.5313,-1.3671 0,-0.6876 -0.4844,-1.1485 -0.4844,-0.4609 -1.2656,-0.4609 -0.8281,0 -1.3203,0.4922 -0.4922,0.4922 -0.5078,1.3672 l -1.1719,-0.125 q 0.125,-1.3126 0.9062,-2 0.7813,-0.6876 2.1094,-0.6876 1.3438,0 2.125,0.7422 0.7813,0.7422 0.7813,1.836 0,0.5625 -0.2266,1.1015 -0.2266,0.5391 -0.7578,1.1407 -0.5313,0.6015 -1.7656,1.6328 -1.0313,0.8594 -1.3204,1.1718 -0.289,0.3126 -0.4765,0.625 z m 1.23,-3.5 q 0,-1.6406 0.3359,-2.6484 0.3359,-1.0078 1.0078,-1.5547 0.6719,-0.5469 1.6875,-0.5469 0.75,0 1.3125,0.3047 0.5625,0.3047 0.9297,0.8672 0.3672,0.5625 0.5781,1.3828 0.211,0.8203 0.211,2.1953 0,1.6407 -0.336,2.6485 -0.3359,1.0078 -1.0078,1.5547 -0.6719,0.5468 -1.6875,0.5468 -1.3437,0 -2.125,-0.9687 Q -1.394,12.0312 -1.394,9.4062 Z m 1.1718,0 q 0,2.2969 0.5313,3.0547 0.5312,0.7579 1.3281,0.7579 0.7813,0 1.3203,-0.7579 0.5391,-0.7578 0.5391,-3.0547 0,-2.2968 -0.5391,-3.0468 -0.539,-0.75 -1.3359,-0.75 -0.7813,0 -1.2656,0.6562 -0.5782,0.8594 -0.5782,3.1406 z m 6.0581,0 q 0,-1.6406 0.336,-2.6484 Q 6.5078,5.75 7.1797,5.2031 7.8516,4.6562 8.8672,4.6562 q 0.75,0 1.3125,0.3047 0.5625,0.3047 0.9297,0.8672 0.3672,0.5625 0.5781,1.3828 0.2109,0.8203 0.2109,2.1953 0,1.6407 -0.3359,2.6485 -0.3359,1.0078 -1.0078,1.5547 -0.6719,0.5468 -1.6875,0.5468 -1.3438,0 -2.125,-0.9687 Q 5.8359,12.0312 5.8359,9.4062 Z m 1.1719,0 q 0,2.2969 0.5313,3.0547 0.5312,0.7579 1.3281,0.7579 0.7812,0 1.3203,-0.7579 0.5391,-0.7578 0.5391,-3.0547 0,-2.2968 -0.5391,-3.0468 -0.5391,-0.75 -1.3359,-0.75 -0.7813,0 -1.2657,0.6562 Q 7.0078,7.125 7.0078,9.4062 Z"
       style="stroke:none" />
  </g>
  <g
     id="g119"
     style="font-size:13px;font-family:SansSerif;color-interpolation:linearRGB;fill:#262626;stroke:#262626;color-rendering:optimizeQuality;image-rendering:optimizeQuality;text-rendering:geometricPrecision"
     transform="translate(216.6677,344.66665)">
    <path
       inkscape:connector-curvature="0"
       id="path117"
       d="m -13.0938,11.2031 v -1.1406 h 3.5157 v 1.1406 z M -4.3271,14 H -5.4678 V 6.7188 q -0.4218,0.3906 -1.0859,0.789 -0.6641,0.3984 -1.1953,0.586 V 6.9844 q 0.9531,-0.4375 1.6719,-1.0782 0.7187,-0.6406 1.0156,-1.25 h 0.7344 z M -1.394,9.4062 q 0,-1.6406 0.3359,-2.6484 0.3359,-1.0078 1.0078,-1.5547 0.6719,-0.5469 1.6875,-0.5469 0.75,0 1.3125,0.3047 0.5625,0.3047 0.9297,0.8672 0.3672,0.5625 0.5781,1.3828 0.211,0.8203 0.211,2.1953 0,1.6407 -0.336,2.6485 -0.3359,1.0078 -1.0078,1.5547 -0.6719,0.5468 -1.6875,0.5468 -1.3437,0 -2.125,-0.9687 Q -1.394,12.0312 -1.394,9.4062 Z m 1.1718,0 q 0,2.2969 0.5313,3.0547 0.5312,0.7579 1.3281,0.7579 0.7813,0 1.3203,-0.7579 0.5391,-0.7578 0.5391,-3.0547 0,-2.2968 -0.5391,-3.0468 -0.539,-0.75 -1.3359,-0.75 -0.7813,0 -1.2656,0.6562 -0.5782,0.8594 -0.5782,3.1406 z m 6.0581,0 q 0,-1.6406 0.336,-2.6484 Q 6.5078,5.75 7.1797,5.2031 7.8516,4.6562 8.8672,4.6562 q 0.75,0 1.3125,0.3047 0.5625,0.3047 0.9297,0.8672 0.3672,0.5625 0.5781,1.3828 0.2109,0.8203 0.2109,2.1953 0,1.6407 -0.3359,2.6485 -0.3359,1.0078 -1.0078,1.5547 -0.6719,0.5468 -1.6875,0.5468 -1.3438,0 -2.125,-0.9687 Q 5.8359,12.0312 5.8359,9.4062 Z m 1.1719,0 q 0,2.2969 0.5313,3.0547 0.5312,0.7579 1.3281,0.7579 0.7812,0 1.3203,-0.7579 0.5391,-0.7578 0.5391,-3.0547 0,-2.2968 -0.5391,-3.0468 -0.5391,-0.75 -1.3359,-0.75 -0.7813,0 -1.2657,0.6562 Q 7.0078,7.125 7.0078,9.4062 Z"
       style="stroke:none" />
  </g>
  <g
     id="g123"
     style="font-size:13px;font-family:SansSerif;color-interpolation:linearRGB;fill:#262626;stroke:#262626;color-rendering:optimizeQuality;image-rendering:optimizeQuality;text-rendering:geometricPrecision"
     transform="translate(260.0677,344.66665)">
    <path
       inkscape:connector-curvature="0"
       id="path121"
       d="m -3.4531,9.4062 q 0,-1.6406 0.3359,-2.6484 0.336,-1.0078 1.0078,-1.5547 0.6719,-0.5469 1.6875,-0.5469 0.75,0 1.3125,0.3047 0.5625,0.3047 0.9297,0.8672 0.3672,0.5625 0.5781,1.3828 0.211,0.8203 0.211,2.1953 0,1.6407 -0.336,2.6485 -0.3359,1.0078 -1.0078,1.5547 -0.6718,0.5468 -1.6875,0.5468 -1.3437,0 -2.125,-0.9687 -0.9062,-1.1563 -0.9062,-3.7813 z m 1.1719,0 q 0,2.2969 0.5312,3.0547 0.5312,0.7579 1.3281,0.7579 0.7813,0 1.3203,-0.7579 0.5391,-0.7578 0.5391,-3.0547 0,-2.2968 -0.5391,-3.0468 -0.539,-0.75 -1.3359,-0.75 -0.7813,0 -1.2656,0.6562 -0.5781,0.8594 -0.5781,3.1406 z"
       style="stroke:none" />
  </g>
  <g
     id="g127"
     style="font-size:13px;font-family:SansSerif;color-interpolation:linearRGB;fill:#262626;stroke:#262626;color-rendering:optimizeQuality;image-rendering:optimizeQuality;text-rendering:geometricPrecision"
     transform="translate(303.4677,344.66665)">
    <path
       inkscape:connector-curvature="0"
       id="path125"
       d="M -6.1562,14 H -7.2969 V 6.7188 q -0.4219,0.3906 -1.0859,0.789 -0.6641,0.3984 -1.1953,0.586 V 6.9844 q 0.9531,-0.4375 1.6719,-1.0782 0.7187,-0.6406 1.0156,-1.25 h 0.7344 z m 2.9331,-4.5938 q 0,-1.6406 0.3359,-2.6484 0.3359,-1.0078 1.0078,-1.5547 0.6719,-0.5469 1.6875,-0.5469 0.75,0 1.3125,0.3047 0.5625,0.3047 0.9297,0.8672 0.3672,0.5625 0.5781,1.3828 0.211,0.8203 0.211,2.1953 0,1.6407 -0.336,2.6485 -0.3359,1.0078 -1.0078,1.5547 -0.6719,0.5468 -1.6875,0.5468 -1.3437,0 -2.125,-0.9687 -0.9062,-1.1563 -0.9062,-3.7813 z m 1.1718,0 q 0,2.2969 0.5313,3.0547 0.5312,0.7579 1.3281,0.7579 0.7813,0 1.3203,-0.7579 0.5391,-0.7578 0.5391,-3.0547 0,-2.2968 -0.5391,-3.0468 -0.539,-0.75 -1.3359,-0.75 -0.7813,0 -1.2656,0.6562 -0.5782,0.8594 -0.5782,3.1406 z m 6.0581,0 q 0,-1.6406 0.336,-2.6484 Q 4.6787,5.75 5.3506,5.2031 6.0225,4.6562 7.0381,4.6562 q 0.75,0 1.3125,0.3047 0.5625,0.3047 0.9297,0.8672 0.3672,0.5625 0.5781,1.3828 0.2109,0.8203 0.2109,2.1953 0,1.6407 -0.3359,2.6485 -0.3359,1.0078 -1.0078,1.5547 -0.6719,0.5468 -1.6875,0.5468 -1.3438,0 -2.125,-0.9687 Q 4.0068,12.0312 4.0068,9.4062 Z m 1.1719,0 q 0,2.2969 0.5313,3.0547 0.5312,0.7579 1.3281,0.7579 0.7812,0 1.3203,-0.7579 0.5391,-0.7578 0.5391,-3.0547 0,-2.2968 -0.5391,-3.0468 -0.5391,-0.75 -1.3359,-0.75 -0.7813,0 -1.2657,0.6562 Q 5.1787,7.125 5.1787,9.4062 Z"
       style="stroke:none" />
  </g>
  <g
     id="g131"
     style="font-size:13px;font-family:SansSerif;color-interpolation:linearRGB;fill:#262626;stroke:#262626;color-rendering:optimizeQuality;image-rendering:optimizeQuality;text-rendering:geometricPrecision"
     transform="translate(346.8677,344.66665)">
    <path
       inkscape:connector-curvature="0"
       id="path129"
       d="M -4.4531,12.9062 V 14 h -6.1563 q -0.0156,-0.4062 0.1406,-0.7969 0.2344,-0.625 0.75,-1.2343 0.5157,-0.6094 1.5,-1.4063 1.5157,-1.25 2.0469,-1.9766 0.5313,-0.7265 0.5313,-1.3671 0,-0.6876 -0.4844,-1.1485 -0.4844,-0.4609 -1.2656,-0.4609 -0.8282,0 -1.3203,0.4922 -0.4922,0.4922 -0.5079,1.3672 l -1.1718,-0.125 q 0.125,-1.3126 0.9062,-2 0.7813,-0.6876 2.1094,-0.6876 1.3438,0 2.125,0.7422 0.7812,0.7422 0.7812,1.836 0,0.5625 -0.2265,1.1015 -0.2266,0.5391 -0.7578,1.1407 -0.5313,0.6015 -1.7657,1.6328 -1.0312,0.8594 -1.3203,1.1718 -0.289,0.3126 -0.4765,0.625 z m 1.23,-3.5 q 0,-1.6406 0.3359,-2.6484 0.3359,-1.0078 1.0078,-1.5547 0.6719,-0.5469 1.6875,-0.5469 0.75,0 1.3125,0.3047 0.5625,0.3047 0.9297,0.8672 0.3672,0.5625 0.5781,1.3828 0.211,0.8203 0.211,2.1953 0,1.6407 -0.336,2.6485 -0.3359,1.0078 -1.0078,1.5547 -0.6719,0.5468 -1.6875,0.5468 -1.3437,0 -2.125,-0.9687 -0.9062,-1.1563 -0.9062,-3.7813 z m 1.1718,0 q 0,2.2969 0.5313,3.0547 0.5312,0.7579 1.3281,0.7579 0.7813,0 1.3203,-0.7579 0.5391,-0.7578 0.5391,-3.0547 0,-2.2968 -0.5391,-3.0468 -0.539,-0.75 -1.3359,-0.75 -0.7813,0 -1.2656,0.6562 -0.5782,0.8594 -0.5782,3.1406 z m 6.0581,0 q 0,-1.6406 0.336,-2.6484 Q 4.6787,5.75 5.3506,5.2031 6.0225,4.6562 7.0381,4.6562 q 0.75,0 1.3125,0.3047 0.5625,0.3047 0.9297,0.8672 0.3672,0.5625 0.5781,1.3828 0.2109,0.8203 0.2109,2.1953 0,1.6407 -0.3359,2.6485 -0.3359,1.0078 -1.0078,1.5547 -0.6719,0.5468 -1.6875,0.5468 -1.3438,0 -2.125,-0.9687 Q 4.0068,12.0312 4.0068,9.4062 Z m 1.1719,0 q 0,2.2969 0.5313,3.0547 0.5312,0.7579 1.3281,0.7579 0.7812,0 1.3203,-0.7579 0.5391,-0.7578 0.5391,-3.0547 0,-2.2968 -0.5391,-3.0468 -0.5391,-0.75 -1.3359,-0.75 -0.7813,0 -1.2657,0.6562 Q 5.1787,7.125 5.1787,9.4062 Z"
       style="stroke:none" />
  </g>
  <g
     id="g135"
     style="font-size:13px;font-family:SansSerif;color-interpolation:linearRGB;fill:#262626;stroke:#262626;color-rendering:optimizeQuality;image-rendering:optimizeQuality;text-rendering:geometricPrecision"
     transform="translate(390.2677,344.66665)">
    <path
       inkscape:connector-curvature="0"
       id="path133"
       d="m -10.4531,11.5469 1.1406,-0.1563 q 0.2031,0.9688 0.6719,1.3985 0.4687,0.4297 1.1562,0.4297 0.7969,0 1.3516,-0.5547 0.5547,-0.5547 0.5547,-1.3829 0,-0.7968 -0.5078,-1.3046 -0.5079,-0.5078 -1.3047,-0.5078 -0.3282,0 -0.8125,0.125 l 0.125,-1 q 0.125,0.0156 0.1875,0.0156 0.7344,0 1.3203,-0.3828 0.5859,-0.3828 0.5859,-1.1797 0,-0.625 -0.4297,-1.0391 -0.4297,-0.414 -1.1015,-0.414 -0.6719,0 -1.1094,0.4218 -0.4375,0.4219 -0.5781,1.25 l -1.1407,-0.2031 q 0.2188,-1.1406 0.961,-1.7734 0.7422,-0.6329 1.8359,-0.6329 0.7657,0 1.4063,0.3282 0.6406,0.3281 0.9844,0.8906 0.3437,0.5625 0.3437,1.2031 0,0.5938 -0.3281,1.0938 -0.3282,0.5 -0.9532,0.7812 0.8126,0.2031 1.2735,0.7969 0.4609,0.5938 0.4609,1.5 0,1.2188 -0.8906,2.0703 -0.8906,0.8516 -2.25,0.8516 -1.2188,0 -2.0312,-0.7344 -0.8126,-0.7344 -0.9219,-1.8906 z m 7.23,-2.1407 q 0,-1.6406 0.3359,-2.6484 0.3359,-1.0078 1.0078,-1.5547 0.6719,-0.5469 1.6875,-0.5469 0.75,0 1.3125,0.3047 0.5625,0.3047 0.9297,0.8672 0.3672,0.5625 0.5781,1.3828 0.211,0.8203 0.211,2.1953 0,1.6407 -0.336,2.6485 -0.3359,1.0078 -1.0078,1.5547 -0.6719,0.5468 -1.6875,0.5468 -1.3437,0 -2.125,-0.9687 -0.9062,-1.1563 -0.9062,-3.7813 z m 1.1718,0 q 0,2.2969 0.5313,3.0547 0.5312,0.7579 1.3281,0.7579 0.7813,0 1.3203,-0.7579 0.5391,-0.7578 0.5391,-3.0547 0,-2.2968 -0.5391,-3.0468 -0.539,-0.75 -1.3359,-0.75 -0.7813,0 -1.2656,0.6562 -0.5782,0.8594 -0.5782,3.1406 z m 6.0581,0 q 0,-1.6406 0.336,-2.6484 Q 4.6787,5.75 5.3506,5.2031 6.0225,4.6562 7.0381,4.6562 q 0.75,0 1.3125,0.3047 0.5625,0.3047 0.9297,0.8672 0.3672,0.5625 0.5781,1.3828 0.2109,0.8203 0.2109,2.1953 0,1.6407 -0.3359,2.6485 -0.3359,1.0078 -1.0078,1.5547 -0.6719,0.5468 -1.6875,0.5468 -1.3438,0 -2.125,-0.9687 Q 4.0068,12.0312 4.0068,9.4062 Z m 1.1719,0 q 0,2.2969 0.5313,3.0547 0.5312,0.7579 1.3281,0.7579 0.7812,0 1.3203,-0.7579 0.5391,-0.7578 0.5391,-3.0547 0,-2.2968 -0.5391,-3.0468 -0.5391,-0.75 -1.3359,-0.75 -0.7813,0 -1.2657,0.6562 Q 5.1787,7.125 5.1787,9.4062 Z"
       style="stroke:none" />
  </g>
  <g
     id="g139"
     style="font-size:13px;font-family:SansSerif;color-interpolation:linearRGB;fill:#262626;stroke:#262626;color-rendering:optimizeQuality;image-rendering:optimizeQuality;text-rendering:geometricPrecision"
     transform="translate(433.6677,344.66665)">
    <path
       inkscape:connector-curvature="0"
       id="path137"
       d="m -6.7969,14 v -2.2344 h -4.0312 v -1.0468 l 4.2343,-6.0313 h 0.9376 v 6.0313 h 1.2656 v 1.0468 H -5.6562 V 14 Z m 0,-3.2812 V 6.5312 l -2.9219,4.1876 z m 3.5738,-1.3126 q 0,-1.6406 0.3359,-2.6484 0.3359,-1.0078 1.0078,-1.5547 0.6719,-0.5469 1.6875,-0.5469 0.75,0 1.3125,0.3047 0.5625,0.3047 0.9297,0.8672 0.3672,0.5625 0.5781,1.3828 0.211,0.8203 0.211,2.1953 0,1.6407 -0.336,2.6485 -0.3359,1.0078 -1.0078,1.5547 -0.6719,0.5468 -1.6875,0.5468 -1.3437,0 -2.125,-0.9687 -0.9062,-1.1563 -0.9062,-3.7813 z m 1.1718,0 q 0,2.2969 0.5313,3.0547 0.5312,0.7579 1.3281,0.7579 0.7813,0 1.3203,-0.7579 0.5391,-0.7578 0.5391,-3.0547 0,-2.2968 -0.5391,-3.0468 -0.539,-0.75 -1.3359,-0.75 -0.7813,0 -1.2656,0.6562 -0.5782,0.8594 -0.5782,3.1406 z m 6.0581,0 q 0,-1.6406 0.336,-2.6484 Q 4.6787,5.75 5.3506,5.2031 6.0225,4.6562 7.0381,4.6562 q 0.75,0 1.3125,0.3047 0.5625,0.3047 0.9297,0.8672 0.3672,0.5625 0.5781,1.3828 0.2109,0.8203 0.2109,2.1953 0,1.6407 -0.3359,2.6485 -0.3359,1.0078 -1.0078,1.5547 -0.6719,0.5468 -1.6875,0.5468 -1.3438,0 -2.125,-0.9687 Q 4.0068,12.0312 4.0068,9.4062 Z m 1.1719,0 q 0,2.2969 0.5313,3.0547 0.5312,0.7579 1.3281,0.7579 0.7812,0 1.3203,-0.7579 0.5391,-0.7578 0.5391,-3.0547 0,-2.2968 -0.5391,-3.0468 -0.5391,-0.75 -1.3359,-0.75 -0.7813,0 -1.2657,0.6562 Q 5.1787,7.125 5.1787,9.4062 Z"
       style="stroke:none" />
  </g>
  <g
     id="g143"
     style="font-size:13px;font-family:SansSerif;color-interpolation:linearRGB;fill:#262626;stroke:#262626;color-rendering:optimizeQuality;image-rendering:optimizeQuality;text-rendering:geometricPrecision"
     transform="translate(477.0677,344.66665)">
    <path
       inkscape:connector-curvature="0"
       id="path141"
       d="m -10.4531,11.5625 1.1875,-0.1094 q 0.1406,0.8907 0.625,1.3281 0.4844,0.4376 1.1718,0.4376 0.8282,0 1.3985,-0.625 0.5703,-0.625 0.5703,-1.6407 0,-0.9843 -0.5469,-1.5469 -0.5469,-0.5624 -1.4375,-0.5624 -0.5625,0 -1.0078,0.25 -0.4453,0.25 -0.6953,0.6406 L -10.25,9.5938 -9.3594,4.8281 h 4.625 v 1.0781 h -3.7031 l -0.5,2.5 q 0.8281,-0.5781 1.75,-0.5781 1.2187,0 2.0547,0.8438 0.8359,0.8437 0.8359,2.1719 0,1.2656 -0.7343,2.1874 -0.8907,1.125 -2.4376,1.125 -1.2656,0 -2.0703,-0.7109 -0.8047,-0.7109 -0.914,-1.8828 z m 7.23,-2.1563 q 0,-1.6406 0.3359,-2.6484 0.3359,-1.0078 1.0078,-1.5547 0.6719,-0.5469 1.6875,-0.5469 0.75,0 1.3125,0.3047 0.5625,0.3047 0.9297,0.8672 0.3672,0.5625 0.5781,1.3828 0.211,0.8203 0.211,2.1953 0,1.6407 -0.336,2.6485 -0.3359,1.0078 -1.0078,1.5547 -0.6719,0.5468 -1.6875,0.5468 -1.3437,0 -2.125,-0.9687 -0.9062,-1.1563 -0.9062,-3.7813 z m 1.1718,0 q 0,2.2969 0.5313,3.0547 0.5312,0.7579 1.3281,0.7579 0.7813,0 1.3203,-0.7579 0.5391,-0.7578 0.5391,-3.0547 0,-2.2968 -0.5391,-3.0468 -0.539,-0.75 -1.3359,-0.75 -0.7813,0 -1.2656,0.6562 -0.5782,0.8594 -0.5782,3.1406 z m 6.0581,0 q 0,-1.6406 0.336,-2.6484 Q 4.6787,5.75 5.3506,5.2031 6.0225,4.6562 7.0381,4.6562 q 0.75,0 1.3125,0.3047 0.5625,0.3047 0.9297,0.8672 0.3672,0.5625 0.5781,1.3828 0.2109,0.8203 0.2109,2.1953 0,1.6407 -0.3359,2.6485 -0.3359,1.0078 -1.0078,1.5547 -0.6719,0.5468 -1.6875,0.5468 -1.3438,0 -2.125,-0.9687 Q 4.0068,12.0312 4.0068,9.4062 Z m 1.1719,0 q 0,2.2969 0.5313,3.0547 0.5312,0.7579 1.3281,0.7579 0.7812,0 1.3203,-0.7579 0.5391,-0.7578 0.5391,-3.0547 0,-2.2968 -0.5391,-3.0468 -0.5391,-0.75 -1.3359,-0.75 -0.7813,0 -1.2657,0.6562 Q 5.1787,7.125 5.1787,9.4062 Z"
       style="stroke:none" />
  </g>
  <g
     id="g147"
     style="font-size:15px;font-family:SansSerif;color-interpolation:linearRGB;fill:#262626;stroke:#262626;color-rendering:optimizeQuality;image-rendering:optimizeQuality;text-rendering:geometricPrecision"
     transform="translate(227.0677,379.33335)">
    <path
       inkscape:connector-curvature="0"
       id="path145"
       d="M 4.2188,0 0.0625,-10.7344 h 1.5469 l 2.7812,7.7969 Q 4.7344,-2 4.9531,-1.1719 q 0.25,-0.8906 0.5781,-1.7656 l 2.9063,-7.7969 H 9.8906 L 5.6875,0 Z"
       style="stroke:none" />
  </g>
  <g
     id="g151"
     style="font-size:11px;font-family:SansSerif;color-interpolation:linearRGB;fill:#262626;stroke:#262626;color-rendering:optimizeQuality;image-rendering:optimizeQuality;text-rendering:geometricPrecision"
     transform="translate(238.0677,386.33335)">
    <path
       inkscape:connector-curvature="0"
       id="path149"
       d="M 4.4219,0 V -0.7188 Q 3.8906,0.125 2.8281,0.125 2.1562,0.125 1.5781,-0.25 1,-0.625 0.6875,-1.2969 0.375,-1.9688 0.375,-2.8438 q 0,-0.8593 0.2891,-1.5546 0.289,-0.6954 0.8515,-1.0625 0.5625,-0.3672 1.2656,-0.3672 0.5157,0 0.9219,0.2187 0.4063,0.2188 0.6563,0.5625 V -7.875 H 5.3281 V 0 Z M 1.375,-2.8438 q 0,1.0938 0.4609,1.6329 0.461,0.539 1.086,0.539 0.6406,0 1.0781,-0.5156 0.4375,-0.5156 0.4375,-1.5781 0,-1.1719 -0.4453,-1.7188 -0.4453,-0.5468 -1.1172,-0.5468 -0.6406,0 -1.0703,0.5234 -0.4297,0.5234 -0.4297,1.664 z m 9.1958,0.75 0.9375,0.125 q -0.1406,0.9844 -0.7891,1.5391 -0.6484,0.5547 -1.5703,0.5547 -1.1718,0 -1.8828,-0.7656 -0.7109,-0.7656 -0.7109,-2.1875 0,-0.9219 0.3047,-1.6172 0.3047,-0.6953 0.9297,-1.0391 0.625,-0.3437 1.3593,-0.3437 0.9219,0 1.5157,0.4687 0.5937,0.4688 0.7656,1.3282 l -0.9531,0.1406 q -0.125,-0.5625 -0.4688,-0.8516 -0.3437,-0.289 -0.8281,-0.289 -0.7188,0 -1.1797,0.5234 -0.4609,0.5234 -0.4609,1.6484 0,1.1563 0.4375,1.6719 0.4375,0.5156 1.1562,0.5156 0.5625,0 0.9453,-0.3437 0.3828,-0.3438 0.4922,-1.0782 z"
       style="stroke:none" />
  </g>
  <g
     id="g155"
     style="font-size:15px;font-family:SansSerif;color-interpolation:linearRGB;fill:#262626;stroke:#262626;color-rendering:optimizeQuality;image-rendering:optimizeQuality;text-rendering:geometricPrecision"
     transform="translate(250.0677,379.33335)">
    <path
       inkscape:connector-curvature="0"
       id="path153"
       d="m 5.1675,-9.2188 v -1.5156 H 6.48 v 1.5156 z M 5.1675,0 V -7.7812 H 6.48 V 0 Z m 3.3169,0 v -7.7812 h 1.1875 v 1.1093 q 0.8593,-1.2812 2.4843,-1.2812 0.7032,0 1.2891,0.25 0.5859,0.25 0.8828,0.664 0.2969,0.4141 0.4063,0.9766 0.0781,0.3594 0.0781,1.2813 V 0 h -1.3281 v -4.7344 q 0,-0.7968 -0.1485,-1.1953 -0.1484,-0.3984 -0.539,-0.6406 -0.3907,-0.2422 -0.9219,-0.2422 -0.8438,0 -1.4531,0.5313 Q 9.8125,-5.75 9.8125,-4.25 V 0 Z"
       style="stroke:none" />
  </g>
  <g
     id="g159"
     style="font-size:15px;font-family:mwb_cmmi10;color-interpolation:linearRGB;fill:#262626;stroke:#262626;color-rendering:optimizeQuality;image-rendering:optimizeQuality;text-rendering:geometricPrecision"
     transform="translate(271.0677,379.33335)">
    <path
       inkscape:connector-curvature="0"
       id="path157"
       d="m 0.4219,2.8125 q 0,-0.0781 0.0156,-0.1094 l 2.2031,-8.8593 q 0.0625,-0.2032 0.2344,-0.336 0.1719,-0.1328 0.3906,-0.1328 0.1875,0 0.3203,0.1094 0.1329,0.1094 0.1329,0.2968 0,0.0469 0,0.0782 0,0.0312 -0.0157,0.0468 l -0.8906,3.5157 q -0.1406,0.625 -0.1406,1.0781 0,0.5625 0.2656,0.9141 0.2656,0.3515 0.7969,0.3515 1.0937,0 1.9218,-1.3594 0,-0.0156 0.0079,-0.0234 0.0078,-0.0078 0.0078,-0.0234 L 6.75,-5.9844 q 0.0469,-0.2031 0.2344,-0.3437 0.1875,-0.1407 0.4062,-0.1407 0.1719,0 0.3047,0.1172 0.1328,0.1172 0.1328,0.3047 0,0.0938 -0.0156,0.125 L 6.7344,-1.6094 Q 6.625,-1.1719 6.625,-0.875 q 0,0.6406 0.4375,0.6406 0.4687,0 0.7109,-0.5781 0.2422,-0.5781 0.4141,-1.3906 0.0313,-0.0938 0.125,-0.0938 h 0.1719 q 0.0625,0 0.1015,0.0469 0.0391,0.0469 0.0391,0.1094 -0.2656,1.0468 -0.5781,1.6797 -0.3125,0.6328 -1.0157,0.6328 -0.4843,0 -0.875,-0.2891 -0.3906,-0.289 -0.5,-0.7734 -0.375,0.4687 -0.875,0.7656 -0.5,0.2969 -1.0624,0.2969 -0.9376,0 -1.4688,-0.4375 L 1.4844,2.7656 Q 1.4375,2.9688 1.2656,3.1016 1.0938,3.2344 0.875,3.2344 0.6875,3.2344 0.5547,3.125 0.4219,3.0156 0.4219,2.8125 Z"
       style="stroke:none" />
  </g>
  <g
     id="g163"
     style="font-size:15px;font-family:SansSerif;color-interpolation:linearRGB;fill:#262626;stroke:#262626;color-rendering:optimizeQuality;image-rendering:optimizeQuality;text-rendering:geometricPrecision"
     transform="translate(281.0677,379.33335)">
    <path
       inkscape:connector-curvature="0"
       id="path161"
       d="M 4.2188,0 0.0625,-10.7344 h 1.5469 l 2.7812,7.7969 Q 4.7344,-2 4.9531,-1.1719 q 0.25,-0.8906 0.5781,-1.7656 l 2.9063,-7.7969 H 9.8906 L 5.6875,0 Z"
       style="stroke:none" />
  </g>
  <g
     id="g193"
     style="color-interpolation:linearRGB;fill:#262626;stroke:#262626;stroke-width:0.66670001;stroke-linejoin:round;color-rendering:optimizeQuality;image-rendering:optimizeQuality;text-rendering:geometricPrecision"
     transform="translate(-29.9323,-30.66665)">
    <line
       id="line165"
       y1="370"
       x2="73"
       x1="73"
       style="fill:none"
       y2="31" />
    <line
       id="line167"
       y1="370"
       x2="507"
       x1="507"
       style="fill:none"
       y2="31" />
    <line
       id="line169"
       y1="341.75"
       x2="77.339996"
       x1="73"
       style="fill:none"
       y2="341.75" />
    <line
       id="line171"
       y1="285.25"
       x2="77.339996"
       x1="73"
       style="fill:none"
       y2="285.25" />
    <line
       id="line173"
       y1="228.75"
       x2="77.339996"
       x1="73"
       style="fill:none"
       y2="228.75" />
    <line
       id="line175"
       y1="172.25"
       x2="77.339996"
       x1="73"
       style="fill:none"
       y2="172.25" />
    <line
       id="line177"
       y1="115.75"
       x2="77.339996"
       x1="73"
       style="fill:none"
       y2="115.75" />
    <line
       id="line179"
       y1="59.25"
       x2="77.339996"
       x1="73"
       style="fill:none"
       y2="59.25" />
    <line
       id="line181"
       y1="341.75"
       x2="502.66"
       x1="507"
       style="fill:none"
       y2="341.75" />
    <line
       id="line183"
       y1="285.25"
       x2="502.66"
       x1="507"
       style="fill:none"
       y2="285.25" />
    <line
       id="line185"
       y1="228.75"
       x2="502.66"
       x1="507"
       style="fill:none"
       y2="228.75" />
    <line
       id="line187"
       y1="172.25"
       x2="502.66"
       x1="507"
       style="fill:none"
       y2="172.25" />
    <line
       id="line189"
       y1="115.75"
       x2="502.66"
       x1="507"
       style="fill:none"
       y2="115.75" />
    <line
       id="line191"
       y1="59.25"
       x2="502.66"
       x1="507"
       style="fill:none"
       y2="59.25" />
  </g>
  <g
     id="g197"
     style="font-size:13px;font-family:SansSerif;color-interpolation:linearRGB;fill:#262626;stroke:#262626;color-rendering:optimizeQuality;image-rendering:optimizeQuality;text-rendering:geometricPrecision"
     transform="translate(37.7344,311.08335)">
    <path
       inkscape:connector-curvature="0"
       id="path195"
       d="m -7.4531,0.9062 q 0,-1.6406 0.3359,-2.6484 0.336,-1.0078 1.0078,-1.5547 0.6719,-0.5469 1.6875,-0.5469 0.75,0 1.3125,0.3047 0.5625,0.3047 0.9297,0.8672 0.3672,0.5625 0.5781,1.3828 0.211,0.8203 0.211,2.1953 0,1.6407 -0.336,2.6485 -0.3359,1.0078 -1.0078,1.5547 -0.6718,0.5468 -1.6875,0.5468 -1.3437,0 -2.125,-0.9687 -0.9062,-1.1563 -0.9062,-3.7813 z m 1.1719,0 q 0,2.2969 0.5312,3.0547 0.5312,0.7579 1.3281,0.7579 0.7813,0 1.3203,-0.7579 0.5391,-0.7578 0.5391,-3.0547 0,-2.2968 -0.5391,-3.0468 -0.539,-0.75 -1.3359,-0.75 -0.7813,0 -1.2656,0.6562 -0.5781,0.8594 -0.5781,3.1406 z"
       style="stroke:none" />
  </g>
  <g
     id="g201"
     style="font-size:13px;font-family:SansSerif;color-interpolation:linearRGB;fill:#262626;stroke:#262626;color-rendering:optimizeQuality;image-rendering:optimizeQuality;text-rendering:geometricPrecision"
     transform="translate(37.7344,254.58335)">
    <path
       inkscape:connector-curvature="0"
       id="path199"
       d="m -18.4531,0.9062 q 0,-1.6406 0.3359,-2.6484 0.336,-1.0078 1.0078,-1.5547 0.6719,-0.5469 1.6875,-0.5469 0.75,0 1.3125,0.3047 0.5625,0.3047 0.9297,0.8672 0.3672,0.5625 0.5781,1.3828 0.211,0.8203 0.211,2.1953 0,1.6407 -0.336,2.6485 -0.3359,1.0078 -1.0078,1.5547 -0.6718,0.5468 -1.6875,0.5468 -1.3437,0 -2.125,-0.9687 -0.9062,-1.1563 -0.9062,-3.7813 z m 1.1719,0 q 0,2.2969 0.5312,3.0547 0.5312,0.7579 1.3281,0.7579 0.7813,0 1.3203,-0.7579 0.5391,-0.7578 0.5391,-3.0547 0,-2.2968 -0.5391,-3.0468 -0.539,-0.75 -1.3359,-0.75 -0.7813,0 -1.2656,0.6562 -0.5781,0.8594 -0.5781,3.1406 z M -10.5825,5.5 V 4.2031 h 1.2969 V 5.5 Z M -1.6113,4.4062 V 5.5 h -6.1563 q -0.0156,-0.4062 0.1406,-0.7969 0.2344,-0.625 0.75,-1.2343 0.5157,-0.6094 1.5,-1.4063 1.5157,-1.25 2.0469,-1.9766 0.5313,-0.7265 0.5313,-1.3671 0,-0.6876 -0.4844,-1.1485 -0.4844,-0.4609 -1.2656,-0.4609 -0.8282,0 -1.3203,0.4922 -0.4922,0.4922 -0.5079,1.3672 l -1.1718,-0.125 q 0.125,-1.3126 0.9062,-2 0.7813,-0.6876 2.1094,-0.6876 1.3437,0 2.125,0.7422 0.7812,0.7422 0.7812,1.836 0,0.5625 -0.2265,1.1015 -0.2266,0.5391 -0.7578,1.1407 -0.5313,0.6015 -1.7657,1.6328 -1.0312,0.8594 -1.3203,1.1718 -0.289,0.3126 -0.4765,0.625 z"
       style="stroke:none" />
  </g>
  <g
     id="g205"
     style="font-size:13px;font-family:SansSerif;color-interpolation:linearRGB;fill:#262626;stroke:#262626;color-rendering:optimizeQuality;image-rendering:optimizeQuality;text-rendering:geometricPrecision"
     transform="translate(37.7344,198.08335)">
    <path
       inkscape:connector-curvature="0"
       id="path203"
       d="m -18.4531,0.9062 q 0,-1.6406 0.3359,-2.6484 0.336,-1.0078 1.0078,-1.5547 0.6719,-0.5469 1.6875,-0.5469 0.75,0 1.3125,0.3047 0.5625,0.3047 0.9297,0.8672 0.3672,0.5625 0.5781,1.3828 0.211,0.8203 0.211,2.1953 0,1.6407 -0.336,2.6485 -0.3359,1.0078 -1.0078,1.5547 -0.6718,0.5468 -1.6875,0.5468 -1.3437,0 -2.125,-0.9687 -0.9062,-1.1563 -0.9062,-3.7813 z m 1.1719,0 q 0,2.2969 0.5312,3.0547 0.5312,0.7579 1.3281,0.7579 0.7813,0 1.3203,-0.7579 0.5391,-0.7578 0.5391,-3.0547 0,-2.2968 -0.5391,-3.0468 -0.539,-0.75 -1.3359,-0.75 -0.7813,0 -1.2656,0.6562 -0.5781,0.8594 -0.5781,3.1406 z M -10.5825,5.5 V 4.2031 h 1.2969 V 5.5 Z m 6.6274,0 V 3.2656 H -7.9863 V 2.2188 l 4.2343,-6.0313 h 0.9375 v 6.0313 h 1.2657 V 3.2656 H -2.8145 V 5.5 Z m 0,-3.2812 V -1.9688 L -6.877,2.2188 Z"
       style="stroke:none" />
  </g>
  <g
     id="g209"
     style="font-size:13px;font-family:SansSerif;color-interpolation:linearRGB;fill:#262626;stroke:#262626;color-rendering:optimizeQuality;image-rendering:optimizeQuality;text-rendering:geometricPrecision"
     transform="translate(37.7344,141.58335)">
    <path
       inkscape:connector-curvature="0"
       id="path207"
       d="m -18.4531,0.9062 q 0,-1.6406 0.3359,-2.6484 0.336,-1.0078 1.0078,-1.5547 0.6719,-0.5469 1.6875,-0.5469 0.75,0 1.3125,0.3047 0.5625,0.3047 0.9297,0.8672 0.3672,0.5625 0.5781,1.3828 0.211,0.8203 0.211,2.1953 0,1.6407 -0.336,2.6485 -0.3359,1.0078 -1.0078,1.5547 -0.6718,0.5468 -1.6875,0.5468 -1.3437,0 -2.125,-0.9687 -0.9062,-1.1563 -0.9062,-3.7813 z m 1.1719,0 q 0,2.2969 0.5312,3.0547 0.5312,0.7579 1.3281,0.7579 0.7813,0 1.3203,-0.7579 0.5391,-0.7578 0.5391,-3.0547 0,-2.2968 -0.5391,-3.0468 -0.539,-0.75 -1.3359,-0.75 -0.7813,0 -1.2656,0.6562 -0.5781,0.8594 -0.5781,3.1406 z M -10.5825,5.5 V 4.2031 h 1.2969 V 5.5 Z m 8.893,-7.0312 -1.1406,0.0937 q -0.1406,-0.6719 -0.4219,-0.9844 -0.4687,-0.4843 -1.1406,-0.4843 -0.5469,0 -0.9687,0.3124 -0.5313,0.3907 -0.8438,1.1407 -0.3125,0.75 -0.3281,2.1562 0.4062,-0.625 1.0078,-0.9297 0.6016,-0.3046 1.2578,-0.3046 1.1406,0 1.9453,0.8359 0.8047,0.8359 0.8047,2.1797 0,0.875 -0.3828,1.625 -0.3828,0.75 -1.0391,1.1484 -0.6562,0.3984 -1.5,0.3984 -1.4218,0 -2.3281,-1.0468 -0.9062,-1.0469 -0.9062,-3.4688 0,-2.6875 1,-3.9218 0.875,-1.0626 2.3437,-1.0626 1.0938,0 1.7969,0.6172 0.7031,0.6172 0.8437,1.6954 z m -4.6718,4.0156 q 0,0.5937 0.25,1.1328 0.25,0.539 0.7031,0.8203 0.4531,0.2813 0.9531,0.2813 0.7188,0 1.2422,-0.586 0.5234,-0.5859 0.5234,-1.5859 0,-0.9688 -0.5156,-1.5235 -0.5156,-0.5546 -1.2969,-0.5546 -0.7812,0 -1.3203,0.5546 -0.539,0.5547 -0.539,1.461 z"
       style="stroke:none" />
  </g>
  <g
     id="g213"
     style="font-size:13px;font-family:SansSerif;color-interpolation:linearRGB;fill:#262626;stroke:#262626;color-rendering:optimizeQuality;image-rendering:optimizeQuality;text-rendering:geometricPrecision"
     transform="translate(37.7344,85.08335)">
    <path
       inkscape:connector-curvature="0"
       id="path211"
       d="m -18.4531,0.9062 q 0,-1.6406 0.3359,-2.6484 0.336,-1.0078 1.0078,-1.5547 0.6719,-0.5469 1.6875,-0.5469 0.75,0 1.3125,0.3047 0.5625,0.3047 0.9297,0.8672 0.3672,0.5625 0.5781,1.3828 0.211,0.8203 0.211,2.1953 0,1.6407 -0.336,2.6485 -0.3359,1.0078 -1.0078,1.5547 -0.6718,0.5468 -1.6875,0.5468 -1.3437,0 -2.125,-0.9687 -0.9062,-1.1563 -0.9062,-3.7813 z m 1.1719,0 q 0,2.2969 0.5312,3.0547 0.5312,0.7579 1.3281,0.7579 0.7813,0 1.3203,-0.7579 0.5391,-0.7578 0.5391,-3.0547 0,-2.2968 -0.5391,-3.0468 -0.539,-0.75 -1.3359,-0.75 -0.7813,0 -1.2656,0.6562 -0.5781,0.8594 -0.5781,3.1406 z M -10.5825,5.5 V 4.2031 h 1.2969 V 5.5 Z M -5.8613,0.4531 Q -6.5645,0.1875 -6.9082,-0.2891 -7.252,-0.7656 -7.252,-1.4375 q 0,-1.0156 0.7266,-1.7109 0.7266,-0.6954 1.9453,-0.6954 1.2188,0 1.961,0.711 0.7421,0.7109 0.7421,1.7266 0,0.6406 -0.3437,1.1171 -0.3438,0.4766 -1.0313,0.7422 0.8594,0.2813 1.3047,0.9063 0.4453,0.625 0.4453,1.4844 0,1.1874 -0.8437,2 -0.8438,0.8124 -2.2188,0.8124 -1.375,0 -2.2187,-0.8124 -0.8438,-0.8126 -0.8438,-2.0313 0,-0.9063 0.461,-1.5234 0.4609,-0.6172 1.3047,-0.836 z m -0.2344,-1.9375 q 0,0.6563 0.4297,1.0782 0.4297,0.4218 1.1015,0.4218 0.6719,0 1.0938,-0.414 0.4219,-0.4141 0.4219,-1.0235 0,-0.625 -0.4375,-1.0547 -0.4375,-0.4296 -1.0782,-0.4296 -0.6562,0 -1.0937,0.4218 -0.4375,0.4219 -0.4375,1 z m -0.3594,4.2969 q 0,0.4844 0.2344,0.9453 0.2344,0.461 0.6875,0.711 0.4531,0.25 0.9844,0.25 0.8125,0 1.3437,-0.5235 0.5313,-0.5234 0.5313,-1.3359 0,-0.8282 -0.5469,-1.3672 -0.5469,-0.5391 -1.375,-0.5391 -0.7969,0 -1.3281,0.5313 -0.5313,0.5312 -0.5313,1.3281 z"
       style="stroke:none" />
  </g>
  <g
     id="g217"
     style="font-size:13px;font-family:SansSerif;color-interpolation:linearRGB;fill:#262626;stroke:#262626;color-rendering:optimizeQuality;image-rendering:optimizeQuality;text-rendering:geometricPrecision"
     transform="translate(37.7344,28.58335)">
    <path
       inkscape:connector-curvature="0"
       id="path215"
       d="m -3.1562,5.5 h -1.1407 v -7.2812 q -0.4219,0.3906 -1.0859,0.789 -0.6641,0.3984 -1.1953,0.586 v -1.1094 q 0.9531,-0.4375 1.6719,-1.0782 0.7187,-0.6406 1.0156,-1.25 h 0.7344 z"
       style="stroke:none" />
  </g>
  <g
     id="g221"
     style="font-size:15px;font-family:SansSerif;color-interpolation:linearRGB;fill:#262626;stroke:#262626;color-rendering:optimizeQuality;image-rendering:optimizeQuality;text-rendering:geometricPrecision"
     transform="rotate(-90,92.283775,77.549375)">
    <path
       inkscape:connector-curvature="0"
       id="path219"
       d="m -46.125,-5.1719 0.1875,1.1563 q -0.5625,0.125 -1,0.125 -0.7187,0 -1.1172,-0.2344 -0.3984,-0.2344 -0.5547,-0.6016 -0.1562,-0.3672 -0.1562,-1.5546 V -10.75 h -0.9688 v -1.0312 h 0.9688 v -1.9219 l 1.3125,-0.7969 v 2.7188 h 1.3281 v 1.0312 h -1.3281 v 4.5469 q 0,0.5625 0.0703,0.7265 0.0703,0.1641 0.2266,0.2578 0.1562,0.0938 0.4374,0.0938 0.2344,0 0.5938,-0.0469 z M -44.8638,-4 v -7.7812 h 1.1875 v 1.1874 q 0.4532,-0.8281 0.8438,-1.0937 0.3906,-0.2656 0.8437,-0.2656 0.6719,0 1.3594,0.4219 l -0.4531,1.2187 q -0.4844,-0.2813 -0.9688,-0.2813 -0.4375,0 -0.7812,0.2579 -0.3438,0.2578 -0.4844,0.7265 -0.2187,0.7032 -0.2187,1.5313 V -4 Z m 10.0889,-0.9531 q -0.7344,0.6093 -1.4063,0.8672 -0.6718,0.2578 -1.4531,0.2578 -1.2812,0 -1.9687,-0.625 -0.6875,-0.625 -0.6875,-1.5938 0,-0.5781 0.2578,-1.0469 0.2578,-0.4687 0.6797,-0.7578 0.4218,-0.289 0.9531,-0.4296 0.375,-0.1094 1.1719,-0.2032 1.5937,-0.1875 2.3437,-0.4531 0.0156,-0.2656 0.0156,-0.3437 0,-0.8126 -0.375,-1.1407 -0.5156,-0.4375 -1.5,-0.4375 -0.9375,0 -1.3828,0.3203 -0.4453,0.3203 -0.6484,1.1485 l -1.2969,-0.1719 q 0.1719,-0.8281 0.5781,-1.3359 0.4063,-0.5078 1.1719,-0.7813 0.7656,-0.2734 1.7656,-0.2734 1,0 1.6172,0.2343 0.6172,0.2344 0.9141,0.586 0.2969,0.3516 0.4062,0.8984 0.0625,0.3438 0.0625,1.2188 v 1.75 q 0,1.8437 0.086,2.3281 0.0859,0.4844 0.3359,0.9375 h -1.375 q -0.2031,-0.4062 -0.2656,-0.9531 z m -0.1094,-2.9531 q -0.7187,0.2968 -2.1562,0.5 -0.8125,0.125 -1.1485,0.2656 -0.3359,0.1406 -0.5156,0.4218 -0.1797,0.2813 -0.1797,0.625 0,0.5313 0.3985,0.8829 0.3984,0.3515 1.164,0.3515 0.7656,0 1.3594,-0.3359 0.5937,-0.3359 0.875,-0.9141 0.2031,-0.4375 0.2031,-1.3125 z M -31.5107,-4 v -7.7812 h 1.1875 v 1.1093 q 0.8593,-1.2812 2.4843,-1.2812 0.7032,0 1.2891,0.25 0.5859,0.25 0.8828,0.664 0.2969,0.4141 0.4063,0.9766 0.0781,0.3594 0.0781,1.2813 V -4 h -1.3281 v -4.7344 q 0,-0.7968 -0.1485,-1.1953 -0.1484,-0.3984 -0.539,-0.6406 -0.3907,-0.2422 -0.9219,-0.2422 -0.8438,0 -1.4531,0.5313 -0.6094,0.5312 -0.6094,2.0312 V -4 Z m 7.8266,-2.3281 1.2969,-0.2031 q 0.1094,0.7812 0.6094,1.2031 0.5,0.4219 1.4062,0.4219 0.9063,0 1.3438,-0.3672 0.4375,-0.3672 0.4375,-0.8672 0,-0.4532 -0.3907,-0.7032 -0.2656,-0.1874 -1.3437,-0.4531 -1.4531,-0.3593 -2.0078,-0.6328 -0.5547,-0.2734 -0.8438,-0.7422 -0.289,-0.4687 -0.289,-1.0469 0,-0.5156 0.2343,-0.9609 0.2344,-0.4453 0.6407,-0.7265 0.3125,-0.2344 0.8437,-0.3907 0.5313,-0.1562 1.1406,-0.1562 0.9063,0 1.6016,0.2656 0.6953,0.2656 1.0234,0.7109 0.3282,0.4454 0.4532,1.211 l -1.2813,0.1718 q -0.0937,-0.6093 -0.5156,-0.9453 -0.4219,-0.3359 -1.1875,-0.3359 -0.9063,0 -1.2969,0.3047 -0.3906,0.3047 -0.3906,0.7109 0,0.25 0.1562,0.4532 0.1719,0.2187 0.5157,0.3593 0.1875,0.0625 1.1562,0.3281 1.4063,0.375 1.961,0.6094 0.5546,0.2344 0.8671,0.6953 0.3125,0.461 0.3125,1.1329 0,0.6562 -0.3828,1.2343 -0.3828,0.5781 -1.1093,0.8985 -0.7266,0.3203 -1.6485,0.3203 -1.5156,0 -2.3047,-0.625 -0.789,-0.625 -1.0078,-1.875 z M -15.6685,-4 v -7.7812 h 1.1875 v 1.0937 q 0.3594,-0.5781 0.9688,-0.9219 0.6094,-0.3437 1.3906,-0.3437 0.8594,0 1.4141,0.3593 0.5547,0.3594 0.7734,1 0.9219,-1.3593 2.4063,-1.3593 1.1562,0 1.7812,0.6406 0.625,0.6406 0.625,1.9687 V -4 h -1.3125 v -4.9062 q 0,-0.7813 -0.125,-1.1329 -0.125,-0.3515 -0.4687,-0.5625 -0.3438,-0.2109 -0.7969,-0.2109 -0.8125,0 -1.3594,0.5469 -0.5469,0.5468 -0.5469,1.75 V -4 h -1.3125 v -5.0469 q 0,-0.8906 -0.3203,-1.3281 -0.3203,-0.4375 -1.0547,-0.4375 -0.5625,0 -1.0312,0.2969 -0.4688,0.2968 -0.6797,0.8594 -0.2109,0.5624 -0.2109,1.625 V -4 Z m 12.5108,-9.2188 v -1.5156 h 1.3125 v 1.5156 z m 0,9.2188 v -7.7812 h 1.3125 V -4 Z m 2.8013,-2.3281 1.2968,-0.2031 q 0.1094,0.7812 0.6094,1.2031 0.5,0.4219 1.4063,0.4219 0.9062,0 1.3437,-0.3672 0.4375,-0.3672 0.4375,-0.8672 0,-0.4532 -0.3906,-0.7032 Q 4.0811,-7.0312 3.0029,-7.2969 1.5498,-7.6562 0.9951,-7.9297 0.4404,-8.2031 0.1514,-8.6719 q -0.2891,-0.4687 -0.2891,-1.0469 0,-0.5156 0.2344,-0.9609 0.2344,-0.4453 0.6406,-0.7265 0.3125,-0.2344 0.8438,-0.3907 0.5312,-0.1562 1.1406,-0.1562 0.9062,0 1.6015,0.2656 0.6954,0.2656 1.0235,0.7109 0.3281,0.4454 0.4531,1.211 l -1.2812,0.1718 q -0.0938,-0.6093 -0.5157,-0.9453 -0.4218,-0.3359 -1.1875,-0.3359 -0.9062,0 -1.2968,0.3047 -0.3907,0.3047 -0.3907,0.7109 0,0.25 0.1563,0.4532 0.1719,0.2187 0.5156,0.3593 0.1875,0.0625 1.1563,0.3281 1.4062,0.375 1.9609,0.6094 0.5547,0.2344 0.8672,0.6953 0.3125,0.461 0.3125,1.1329 0,0.6562 -0.3828,1.2343 -0.3828,0.5781 -1.1094,0.8985 -0.7266,0.3203 -1.6484,0.3203 -1.5157,0 -2.3047,-0.625 -0.7891,-0.625 -1.0078,-1.875 z m 7.5,0 1.2968,-0.2031 q 0.1094,0.7812 0.6094,1.2031 0.5,0.4219 1.4063,0.4219 0.9062,0 1.3437,-0.3672 0.4375,-0.3672 0.4375,-0.8672 0,-0.4532 -0.3906,-0.7032 Q 11.5811,-7.0312 10.5029,-7.2969 9.0498,-7.6562 8.4951,-7.9297 7.9404,-8.2031 7.6514,-8.6719 7.3623,-9.1406 7.3623,-9.7188 q 0,-0.5156 0.2344,-0.9609 0.2344,-0.4453 0.6406,-0.7265 0.3125,-0.2344 0.8438,-0.3907 0.5312,-0.1562 1.1406,-0.1562 0.9062,0 1.6015,0.2656 0.6954,0.2656 1.0235,0.7109 0.3281,0.4454 0.4531,1.211 l -1.2812,0.1718 q -0.0938,-0.6093 -0.5157,-0.9453 -0.4218,-0.3359 -1.1875,-0.3359 -0.9062,0 -1.2968,0.3047 -0.3907,0.3047 -0.3907,0.7109 0,0.25 0.1563,0.4532 0.1719,0.2187 0.5156,0.3593 0.1875,0.0625 1.1563,0.3281 1.4062,0.375 1.9609,0.6094 0.5547,0.2344 0.8672,0.6953 0.3125,0.461 0.3125,1.1329 0,0.6562 -0.3828,1.2343 -0.3828,0.5781 -1.1094,0.8985 -0.7266,0.3203 -1.6484,0.3203 -1.5157,0 -2.3047,-0.625 -0.7891,-0.625 -1.0078,-1.875 z m 8.0312,-6.8907 v -1.5156 h 1.3125 v 1.5156 z m 0,9.2188 v -7.7812 h 1.3125 V -4 Z m 2.8325,-3.8906 q 0,-2.1563 1.2031,-3.2032 1,-0.8593 2.4375,-0.8593 1.6094,0 2.625,1.0469 1.0157,1.0468 1.0157,2.9062 0,1.5 -0.4453,2.3594 -0.4454,0.8594 -1.3125,1.3359 -0.8672,0.4766 -1.8829,0.4766 -1.625,0 -2.6328,-1.0469 -1.0078,-1.0469 -1.0078,-3.0156 z m 1.3594,0 q 0,1.5 0.6484,2.2422 0.6485,0.7422 1.6328,0.7422 0.9844,0 1.6407,-0.75 0.6562,-0.75 0.6562,-2.2813 0,-1.4375 -0.6562,-2.1797 -0.6563,-0.7422 -1.6407,-0.7422 -0.9843,0 -1.6328,0.7344 -0.6484,0.7344 -0.6484,2.2344 z M 26.834,-4 v -7.7812 h 1.1875 v 1.1093 q 0.8594,-1.2812 2.4844,-1.2812 0.7031,0 1.289,0.25 0.586,0.25 0.8828,0.664 0.2969,0.4141 0.4063,0.9766 0.0781,0.3594 0.0781,1.2813 V -4 H 31.834 v -4.7344 q 0,-0.7968 -0.1485,-1.1953 -0.1484,-0.3984 -0.539,-0.6406 -0.3906,-0.2422 -0.9219,-0.2422 -0.8437,0 -1.4531,0.5313 Q 28.1621,-9.75 28.1621,-8.25 V -4 Z m 12.6816,0 v -10.7344 h 3.7032 q 1.25,0 1.9062,0.1563 0.9219,0.2031 1.5781,0.7656 0.8438,0.7187 1.2657,1.8359 0.4218,1.1172 0.4218,2.5547 0,1.2188 -0.2812,2.1641 -0.2813,0.9453 -0.7344,1.5625 -0.4531,0.6172 -0.9844,0.9765 -0.5312,0.3594 -1.2812,0.5391 Q 44.3594,-4 43.3906,-4 Z m 1.4219,-1.2656 h 2.2969 q 1.0625,0 1.664,-0.1953 0.6016,-0.1953 0.961,-0.5547 0.5,-0.5156 0.7812,-1.3672 0.2813,-0.8516 0.2813,-2.0703 0,-1.6875 -0.5469,-2.586 -0.5469,-0.8984 -1.3438,-1.2109 -0.5781,-0.2188 -1.8437,-0.2188 h -2.25 z"
       style="stroke:none" />
  </g>
  <g
     id="g345"
     style="color-interpolation:linearRGB;stroke-width:0.66670001;stroke-linecap:butt;stroke-linejoin:round;color-rendering:optimizeQuality;image-rendering:optimizeQuality;text-rendering:geometricPrecision"
     transform="translate(-29.9323,-30.66665)">
    <path
       inkscape:connector-curvature="0"
       id="path223"
       style="fill:none;fill-rule:evenodd"
       d="m 83.548,59.25 h 10.3226 10.3226 10.3226 10.3226 10.3226 10.3226 10.3226 10.3226 10.3226 10.3226 10.3226 10.3226 10.3226 10.3226 10.3226 10.3226 10.3226 10.3226 10.3226 10.3226 10.3226 10.3226 10.3226 10.3226 10.3226 10.3226 10.3226 10.3226 10.3226 10.3226 10.3226 10.3226 10.3226 10.3226 10.3226 10.3226 10.3226 10.3226 10.3226 10.3226" />
    <path
       inkscape:connector-curvature="0"
       id="path225"
       style="fill:none;fill-rule:evenodd"
       d="m 83.548,66.2826 10.3226,-4.3921 10.3226,-2.7548 10.3226,0.1664 10.3226,-1.9907 10.3226,8.731 10.3226,-4.309 10.3226,-1.3643 10.3226,-0.2568 10.3226,-0.6784 10.3226,0.3259 10.3226,3.2708 10.3226,7.4372 10.3226,-5.6916 10.3226,-4.6586 10.3226,4.9822 10.3226,-5.224 10.3226,0.3034 10.3226,-5.6567 10.3226,5.2305 10.3226,-3.1439 10.3226,0.0292 10.3226,-5.4667 10.3226,7.4272 10.3226,4.9674 10.3226,-3.017 10.3226,-1.25 10.3226,0.3055 10.3226,-7.8247 10.3226,3.64 10.3226,7.2801 10.3226,1.2975 10.3226,-7.5113 10.3226,-2.1221 10.3226,12.7587 10.3226,-6.343 10.3226,-8.9253 10.3226,10.8054 10.3226,-0.3736 10.3226,-5.6655 10.3226,7.7499" />
    <path
       inkscape:connector-curvature="0"
       id="path227"
       style="fill:none;fill-rule:evenodd"
       d="m 83.548,60.3284 10.3226,-9.8304 10.3226,2.6867 10.3226,7.589 10.3226,-1.0195 10.3226,-4.068 10.3226,-2.7624 10.3226,5.1119 10.3226,2.3657 10.3226,5.3749 10.3226,-3.4182 10.3226,2.3458 10.3226,2.1664 10.3226,-4.5514 10.3226,-5.7423 10.3226,0.7319 10.3226,3.2579 10.3226,0.1142 10.3226,-12.3341 10.3226,11.2464 10.3226,3.0754 10.3226,-3.8532 10.3226,-3.8759 10.3226,5.051 10.3226,-5.338 10.3226,6.7022 10.3226,-7.8555 10.3226,2.7264 10.3226,-8.1484 10.3226,8.2227 10.3226,2.5382 10.3226,1.3129 10.3226,-5.902 10.3226,-4.1484 10.3226,8.2571 10.3226,-1.2504 10.3226,-0.6827 10.3226,-4.6438 10.3226,9.8214 10.3226,-3.014 10.3226,-0.7128" />
    <path
       inkscape:connector-curvature="0"
       id="path229"
       style="fill:none;fill-rule:evenodd"
       d="m 83.548,65.8049 10.3226,-9.8381 10.3226,-0.838 10.3226,7.7955 10.3226,-0.1466 10.3226,-5.1618 10.3226,-3.079 10.3226,4.5788 10.3226,0.8925 10.3226,-5.3132 10.3226,5.8542 10.3226,0.5171 10.3226,2.8401 10.3226,-2.8813 10.3226,-0.3395 10.3226,-3.7775 10.3226,2.9439 10.3226,-1.9097 10.3226,1.4112 10.3226,1.6171 10.3226,1.2962 10.3226,-6.1277 10.3226,0.6169 10.3226,10.0821 10.3226,-4.352 10.3226,-5.7534 10.3226,-0.0291 10.3226,-1.097 10.3226,-0.9927 10.3226,0.7754 10.3226,0.1669 10.3226,6.7551 10.3226,-0.5305 10.3226,-10.1035 10.3226,8.1833 10.3226,2.3769 10.3226,-5.9457 10.3226,-0.1118 10.3226,-0.1447 10.3226,3.7244 10.3226,-0.4475" />
    <path
       inkscape:connector-curvature="0"
       id="path231"
       style="fill:none;fill-rule:evenodd"
       d="m 83.548,62.8685 10.3226,-7.1015 10.3226,2.4885 10.3226,-2.2244 10.3226,3.9667 10.3226,1.5623 10.3226,-3.4748 10.3226,-3.0637 10.3226,15.4042 10.3226,-9.2216 10.3226,0.5653 10.3226,2.6078 10.3226,-1.7134 10.3226,1.3607 10.3226,-6.9727 10.3226,1.4827 10.3226,3.9938 10.3226,-2.9567 10.3226,-1.3581 10.3226,-9.7104 10.3226,6.3483 10.3226,2.328 10.3226,-1.1522 10.3226,7.1481 10.3226,-0.7422 10.3226,-3.8865 10.3226,-4.3417 10.3226,-0.7738 10.3226,1.1653 10.3226,-0.4712 10.3226,6.1799 10.3226,-6.7844 10.3226,5.8055 10.3226,0.2531 10.3226,1.2589 10.3226,1.6325 10.3226,-2.2948 10.3226,-5.2141 10.3226,2.4249 10.3226,0.145 10.3226,1.2134" />
    <path
       inkscape:connector-curvature="0"
       id="path233"
       style="fill:none;fill-rule:evenodd"
       d="m 83.548,63.9547 10.3226,-12.237 10.3226,-0.2758 10.3226,9.3258 10.3226,-1.5748 10.3226,-3.1493 10.3226,1.067 10.3226,5.5705 10.3226,-5.1711 10.3226,-0.9504 10.3226,4.9056 10.3226,1.0415 10.3226,-3.1982 10.3226,1.2187 10.3226,-6.222 10.3226,9.9635 10.3226,-0.6282 10.3226,-1.3775 10.3226,-7.0166 10.3226,5.3283 10.3226,-8.1269 10.3226,-0.7527 10.3226,-1.9528 10.3226,11.0881 10.3226,-3.05 10.3226,-3.4253 10.3226,-0.5787 10.3226,-0.5368 10.3226,-2.3544 10.3226,1.0396 10.3226,3.838 10.3226,3.8256 10.3226,-2.6 10.3226,-2.914 10.3226,8.6559 10.3226,-6.7562 10.3226,0.2953 10.3226,-6.2827 10.3226,5.3078 10.3226,2.3597 10.3226,-4.1204" />
    <path
       inkscape:connector-curvature="0"
       id="path235"
       style="fill:none;fill-rule:evenodd"
       d="m 83.548,62.8248 10.3226,-5.7635 10.3226,-0.4682 10.3226,-1.0891 10.3226,8.948 10.3226,-11.283 10.3226,1.4892 10.3226,9.4028 10.3226,-4.9716 10.3226,-3.7147 10.3226,4.6877 10.3226,4.8969 10.3226,0.5657 10.3226,-0.7174 10.3226,-9.7082 10.3226,2.1857 10.3226,12.549 10.3226,-6.8118 10.3226,-10.8126 10.3226,7.113 L 290,52.757 l 10.3226,0.2665 10.3226,-1.1636 10.3226,4.0721 10.3226,6.7275 10.3226,0.0815 10.3226,-11.9136 10.3226,2.5543 10.3226,-0.7076 10.3226,5.4932 10.3226,0.1783 10.3226,-0.416 10.3226,-5.8689 10.3226,7.6196 10.3226,1.612 10.3226,-4.8089 10.3226,-0.8348 10.3226,-5.8828 10.3226,9.8989 10.3226,-0.8435 10.3226,2.3317" />
    <path
       inkscape:connector-curvature="0"
       id="path237"
       style="fill:none;fill-rule:evenodd"
       d="m 83.548,66.0895 10.3226,-9.4247 10.3226,-1.1269 10.3226,1.4625 10.3226,6.7509 10.3226,-4.5231 10.3226,-4.8695 10.3226,6.3928 10.3226,3.6392 10.3226,-3.3018 10.3226,-3.1422 10.3226,3.1955 10.3226,3.4407 10.3226,-2.0148 10.3226,-5.3343 10.3226,3.2179 10.3226,6.8307 10.3226,-7.1337 10.3226,-5.8091 10.3226,5.2442 10.3226,-1.1025 10.3226,-0.4602 10.3226,-5.5078 10.3226,4.9584 10.3226,1.8259 10.3226,1.1703 10.3226,-3.9271 10.3226,-3.6353 10.3226,7.3482 10.3226,-5.9094 10.3226,2.1159 10.3226,0.55 10.3226,-2.8362 10.3226,-0.6187 10.3226,6.7078 10.3226,-1.574 10.3226,-3.0644 10.3226,-5.9882 10.3226,11.2128 10.3226,-2.2106 10.3226,1.628" />
    <path
       inkscape:connector-curvature="0"
       id="path239"
       style="fill:none;fill-rule:evenodd"
       d="m 83.548,67.5554 10.3226,-13.1952 10.3226,7.3953 10.3226,-7.0703 10.3226,6.6557 10.3226,-3.0705 10.3226,2.7681 10.3226,-2.1521 10.3226,3.0144 10.3226,-5.4587 10.3226,3.3839 10.3226,3.6711 10.3226,-2.5539 10.3226,4.3024 10.3226,-10.7804 10.3226,2.1086 10.3226,9.7019 10.3226,-4.7622 L 269.3548,50.332 279.6774,63.0735 290,53.995 l 10.3226,1.5808 10.3226,1.0615 10.3226,0.3094 10.3226,-1.7144 10.3226,7.555 10.3226,-1.7892 10.3226,-4.994 10.3226,-1.7192 10.3226,-0.7455 10.3226,7.7499 10.3226,-2.9217 10.3226,1.0061 10.3226,-1.2822 10.3226,8.4284 10.3226,-2.5927 10.3226,-7.8358 10.3226,-2.8241 10.3226,7.7936 10.3226,4.7587 10.3226,-4.0243" />
    <path
       inkscape:connector-curvature="0"
       id="path241"
       style="fill:none;fill-rule:evenodd"
       d="m 83.548,77.0171 10.3226,-6.3797 10.3226,4.9669 10.3226,-1.9693 10.3226,2.0272 10.3226,-2.9098 10.3226,-4.7392 10.3226,5.9361 10.3226,2.0322 10.3226,3.3414 10.3226,-0.8288 10.3226,-1.377 10.3226,5.8903 10.3226,-7.9203 10.3226,-5.6818 10.3226,4.6615 10.3226,0.3788 10.3226,-0.2374 10.3226,-2.3606 10.3226,-2.8768 10.3226,0.7254 10.3226,-5.9422 10.3226,6.8808 10.3226,0.8527 10.3226,3.71 10.3226,-3.1925 10.3226,1.4502 10.3226,-6.5565 10.3226,-1.4677 10.3226,5.3269 10.3226,6.5149 10.3226,-2.9873 10.3226,-0.8886 10.3226,-2.3446 10.3226,5.3449 10.3226,-3.0901 10.3226,-4.6545 10.3226,-3.9603 10.3226,9.8142 10.3226,1.896 10.3226,-0.7518" />
    <path
       inkscape:connector-curvature="0"
       id="path243"
       style="fill:none;fill-rule:evenodd"
       d="m 83.548,79.895 10.3226,-11.2269 10.3226,4.6024 10.3226,4.6429 10.3226,-8.1892 10.3226,2.6948 10.3226,-0.989 10.3226,3.1098 10.3226,4.499 10.3226,3.0221 10.3226,-2.2296 10.3226,5.41 10.3226,-2.7824 10.3226,2.5196 10.3226,-9.1889 10.3226,3.6669 10.3226,-0.1836 10.3226,-1.6509 10.3226,0.089 10.3226,-6.503 10.3226,4.2365 10.3226,1.455 10.3226,-2.2299 10.3226,3.7651 10.3226,2.6809 10.3226,-1.1874 10.3226,-1.4128 10.3226,-9.5774 10.3226,2.24 10.3226,3.8999 10.3226,0.5984 10.3226,7.4908 10.3226,-13.9372 10.3226,1.8388 10.3226,13.0606 10.3226,-8.6439 10.3226,0.0601 10.3226,-2.2641 10.3226,4.0494 10.3226,-5.2377 10.3226,5.2826" />
    <path
       inkscape:connector-curvature="0"
       id="path245"
       style="fill:none;fill-rule:evenodd"
       d="m 83.548,90.1099 10.3226,-8.7125 10.3226,-6.8388 10.3226,-0.9227 10.3226,7.3726 10.3226,-0.2957 10.3226,7.1603 10.3226,-6.0018 10.3226,-5.2584 10.3226,8.9935 10.3226,-7.279 10.3226,2.9402 10.3226,7.4685 10.3226,-4.4385 10.3226,-10.8572 10.3226,7.76 10.3226,2.4601 10.3226,-2.438 10.3226,-2.3308 10.3226,3.4966 10.3226,-5.0936 10.3226,-0.331 10.3226,1.7405 10.3226,3.0015 10.3226,2.9702 10.3226,0.5936 10.3226,-1.3579 10.3226,-5.7386 10.3226,6.0217 10.3226,-6.9023 10.3226,2.1183 10.3226,6.4439 10.3226,-5.1323 10.3226,-0.2281 10.3226,2.2008 10.3226,-5.3822 10.3226,0.8355 10.3226,0.5376 10.3226,6.6266 10.3226,-3.3249 10.3226,1.2594" />
    <path
       inkscape:connector-curvature="0"
       id="path247"
       style="fill:none;fill-rule:evenodd"
       d="m 83.548,88.8499 10.3226,-12.8228 10.3226,6.5063 10.3226,-2.3447 10.3226,7.2725 10.3226,2.212 10.3226,-1.8969 10.3226,-9.2549 10.3226,1.5989 10.3226,1.8869 10.3226,9.1028 10.3226,-7.084 10.3226,2.5184 10.3226,-1.2599 10.3226,-5.7855 10.3226,4.8658 10.3226,5.249 10.3226,-4.2841 10.3226,-5.3696 10.3226,5.9211 10.3226,-4.105 10.3226,3.2988 10.3226,-2.5107 10.3226,4.4318 10.3226,1.1035 10.3226,-2.4253 10.3226,-4.7227 10.3226,-4.9847 10.3226,9.4005 10.3226,-4.2382 10.3226,1.2176 10.3226,2.7163 10.3226,-0.5625 10.3226,-4.1927 10.3226,-0.144 10.3226,2.2062 10.3226,-2.2529 10.3226,8.3565 10.3226,-5.195 10.3226,-0.4668 10.3226,5.3793" />
    <path
       inkscape:connector-curvature="0"
       id="path249"
       style="fill:none;fill-rule:evenodd"
       d="m 83.548,93.6067 10.3226,-5.5983 10.3226,-1.9975 10.3226,3.4786 10.3226,-8.0957 10.3226,12.8059 10.3226,-6.4614 10.3226,-1.6222 10.3226,10.7492 10.3226,-11.352 10.3226,7.5969 10.3226,-1.7779 10.3226,-0.4183 10.3226,-1.7585 10.3226,2.2252 10.3226,-6.7282 10.3226,6.8219 10.3226,-1.4946 10.3226,-5.8443 10.3226,-9.3635 10.3226,3.1961 10.3226,2.1012 10.3226,-2.0993 10.3226,6.2793 10.3226,5.5697 10.3226,-2.9759 10.3226,6.8841 10.3226,-0.3185 10.3226,-11.2659 10.3226,6.5579 10.3226,-0.5173 10.3226,2.0796 10.3226,1.5134 10.3226,-6.2235 10.3226,7.7221 10.3226,-3.8351 10.3226,-8.5513 10.3226,5.7974 10.3226,4.4883 10.3226,-1.1312 10.3226,1.9178" />
    <path
       inkscape:connector-curvature="0"
       id="path251"
       style="fill:none;fill-rule:evenodd"
       d="m 83.548,101.3547 10.3226,-12.0707 10.3226,-3.5183 10.3226,2.5347 10.3226,13.0447 10.3226,-5.2022 10.3226,2.0165 10.3226,-2.9999 10.3226,-2.3379 10.3226,7.1353 10.3226,-7.1867 10.3226,-1.6198 10.3226,4.7119 10.3226,-2.8537 10.3226,0.1148 10.3226,-8.1074 10.3226,12.7308 10.3226,-6.0992 10.3226,-8.9492 10.3226,-0.7656 10.3226,-5.323 10.3226,3.3139 10.3226,-0.0852 10.3226,9.2182 10.3226,-1.9734 10.3226,7.3769 10.3226,-9.3834 10.3226,6.2793 10.3226,-8.8827 10.3226,7.9003 10.3226,10.642 10.3226,-4.5046 10.3226,2.0953 10.3226,-11.3771 10.3226,10.4648 10.3226,-7.9194 10.3226,-0.0285 10.3226,4.7831 10.3226,4.4766 10.3226,-2.4479 10.3226,-7.2676" />
    <path
       inkscape:connector-curvature="0"
       id="path253"
       style="fill:none;fill-rule:evenodd"
       d="m 83.548,100.6134 10.3226,-2.2911 10.3226,-4.2682 10.3226,3.8641 10.3226,3.2635 10.3226,-4.3326 10.3226,-0.5409 10.3226,2.7402 10.3226,-0.871 10.3226,-3.8001 10.3226,8.1688 10.3226,-0.7829 10.3226,5.3643 10.3226,-10.2426 10.3226,-2.6028 10.3226,2.1098 10.3226,6.6361 10.3226,-7.6587 10.3226,1.7385 10.3226,-2.891 10.3226,1.7559 10.3226,3.0711 10.3226,-2.7037 10.3226,-4.1297 10.3226,11.0238 10.3226,-2.1294 10.3226,-8.7757 10.3226,4.4163 10.3226,-7.7247 10.3226,5.3066 10.3226,0.4967 10.3226,8.7656 10.3226,-5.0802 10.3226,-4.7391 10.3226,5.3594 10.3226,-1.4746 10.3226,-3.0487 10.3226,1.4907 10.3226,4.0943 10.3226,2.1913 10.3226,-1.8963" />
    <path
       inkscape:connector-curvature="0"
       id="path255"
       style="fill:none;fill-rule:evenodd"
       d="m 83.548,107.9941 10.3226,-8.4042 10.3226,-2.0366 10.3226,5.3071 10.3226,-1.0603 10.3226,6.8903 10.3226,-6.8641 10.3226,3.0825 10.3226,-1.1506 10.3226,-3.1798 10.3226,-1.7617 10.3226,5.9718 10.3226,7.5503 10.3226,-6.308 10.3226,-7.6107 10.3226,-5.4691 10.3226,8.5292 10.3226,2.2418 10.3226,-14.8579 10.3226,10.3843 10.3226,-9.1149 10.3226,13.3119 10.3226,-1.0808 10.3226,-7.7202 10.3226,5.37 10.3226,-2.908 10.3226,4.7982 10.3226,-1.3816 10.3226,-3.3562 10.3226,3.7463 10.3226,2.5995 10.3226,3.0849 10.3226,-7.9159 10.3226,1.9875 10.3226,3.872 10.3226,-2.2427 10.3226,-4.6191 10.3226,13.1843 10.3226,-8.3355 10.3226,1.5352 10.3226,0.7967" />
    <path
       inkscape:connector-curvature="0"
       id="path257"
       style="fill:none;fill-rule:evenodd"
       d="m 83.548,106.6588 10.3226,-3.9135 10.3226,2.6895 10.3226,0.3787 10.3226,3.5358 10.3226,-3.6261 10.3226,1.5247 10.3226,-0.8669 10.3226,1.0281 10.3226,3.5799 10.3226,-3.3921 10.3226,1.655 10.3226,3.7012 10.3226,-5.9017 10.3226,-4.9676 10.3226,1.5877 10.3226,1.6109 10.3226,1.2228 10.3226,-3.9694 10.3226,9.2289 10.3226,-6.8093 10.3226,0.4335 10.3226,-4.9807 10.3226,0.8535 10.3226,4.5589 10.3226,-3.8218 10.3226,2.6298 10.3226,5.3459 10.3226,-4.5321 10.3226,-1.8472 10.3226,0.1301 10.3226,7.5011 10.3226,-6.783 10.3226,0.2433 10.3226,1.0584 10.3226,1.6387 10.3226,-0.3573 10.3226,2.5602 10.3226,4.9946 10.3226,-4.082 10.3226,-4.0063" />
    <path
       inkscape:connector-curvature="0"
       id="path259"
       style="fill:none;fill-rule:evenodd"
       d="m 83.548,114.3367 10.3226,-4.9485 10.3226,-5.8227 10.3226,7.2152 10.3226,-1.6678 10.3226,0.5684 10.3226,2.0155 10.3226,-4.892 10.3226,8.6642 10.3226,-4.8701 10.3226,-3.6472 10.3226,5.2025 10.3226,3.2399 10.3226,0.6773 10.3226,-9.276 10.3226,-7.2414 10.3226,9.8727 10.3226,-2.6672 10.3226,0.9711 10.3226,-6.5107 10.3226,3.9395 10.3226,-5.9652 10.3226,1.7069 10.3226,10.628 10.3226,1.0666 10.3226,-0.3999 10.3226,-2.1813 10.3226,0.0669 10.3226,-9.611 10.3226,5.2111 10.3226,5.4026 10.3226,4.4983 10.3226,3.0293 10.3226,-9.875 10.3226,2.1435 10.3226,0.2592 10.3226,-1.9627 10.3226,-2.3557 10.3226,5.0302 10.3226,0.8998 10.3226,-2.0205" />
    <path
       inkscape:connector-curvature="0"
       id="path261"
       style="fill:none;fill-rule:evenodd"
       d="m 83.548,122.0388 10.3226,-14.0148 10.3226,6.7058 10.3226,-2.8912 10.3226,-0.6905 10.3226,3.0585 10.3226,4.8229 10.3226,-3.1778 10.3226,2.5891 10.3226,-6.0122 10.3226,2.9254 10.3226,1.4356 10.3226,5.963 10.3226,-3.565 10.3226,-7.9497 10.3226,5.4304 10.3226,-3.6365 10.3226,2.2971 10.3226,-12.0071 10.3226,-1.9742 10.3226,0.6412 10.3226,-0.3111 10.3226,1.3723 10.3226,9.7083 10.3226,5.6548 10.3226,-5.1674 10.3226,-2.0627 10.3226,4.1931 10.3226,-3.2839 10.3226,-7.569 10.3226,12.7284 10.3226,6.3653 10.3226,-11.0965 10.3226,5.4172 10.3226,1.5103 10.3226,-6.861 10.3226,-0.8821 10.3226,-0.6506 10.3226,9.8488 10.3226,-4.0978 10.3226,4.3565" />
    <path
       inkscape:connector-curvature="0"
       id="path263"
       style="fill:none;fill-rule:evenodd"
       d="m 83.548,123.8251 10.3226,-15.7028 10.3226,8.3021 10.3226,3.2494 10.3226,-3.6601 10.3226,3.6365 10.3226,4.5739 10.3226,1.943 10.3226,-5.5565 10.3226,-1.5005 10.3226,1.4886 10.3226,10.7724 10.3226,-6.2965 10.3226,1.2927 10.3226,-7.0286 10.3226,2.5278 10.3226,-4.3478 10.3226,5.1353 10.3226,-4.9938 10.3226,5.4825 10.3226,-7.2186 10.3226,5.8003 10.3226,-4.3412 10.3226,4.9952 10.3226,-1.3284 10.3226,3.055 10.3226,-6.522 10.3226,5.1507 10.3226,-2.7636 10.3226,-3.4858 10.3226,8.8908 10.3226,1.0348 10.3226,-6.1588 10.3226,-0.176 10.3226,-0.1897 10.3226,1.733 10.3226,-5.4057 10.3226,1.3824 10.3226,2.0414 10.3226,6.7193 10.3226,-6.5421" />
    <path
       inkscape:connector-curvature="0"
       id="path265"
       style="fill:none;fill-rule:evenodd"
       d="m 83.548,121.9372 10.3226,-3.9466 10.3226,1.8909 10.3226,-0.3033 10.3226,1.4593 10.3226,3.071 10.3226,3.2423 10.3226,-5.8435 10.3226,8.9606 10.3226,-2.0004 10.3226,-2.9011 10.3226,4.1421 10.3226,-2.0237 10.3226,-0.701 10.3226,-0.9157 10.3226,-3.5107 10.3226,1.1758 10.3226,0.6859 10.3226,-5.9537 10.3226,10.5848 10.3226,-1.8983 10.3226,-8.2724 10.3226,1.8826 10.3226,3.7194 10.3226,-1.2725 10.3226,2.7327 10.3226,3.3931 10.3226,-1.5274 10.3226,-8.6746 10.3226,5.067 10.3226,6.0313 10.3226,1.7405 10.3226,-9.1822 10.3226,-4.5581 10.3226,4.4091 10.3226,3.2274 10.3226,-6.815 10.3226,7.944 10.3226,-0.6659 10.3226,4.1179 10.3226,-5.0187" />
    <path
       inkscape:connector-curvature="0"
       id="path267"
       style="fill:none;fill-rule:evenodd"
       d="m 83.548,127.8046 10.3226,-4.574 10.3226,-0.6948 10.3226,-2.5978 10.3226,0.4511 10.3226,4.7987 10.3226,5.658 10.3226,0.1398 10.3226,-3.2151 10.3226,0.4926 10.3226,-1.5726 10.3226,5.2517 10.3226,1.6802 10.3226,1.6793 10.3226,-4.4893 10.3226,-0.5726 10.3226,2.3347 10.3226,2.6533 10.3226,-3.6394 10.3226,-3.134 10.3226,-0.0907 10.3226,3.3475 10.3226,0.694 10.3226,-3.7271 10.3226,8.506 10.3226,0.0918 10.3226,-4.1362 10.3226,-9.076 10.3226,4.2215 10.3226,0.7504 10.3226,4.4392 10.3226,3.9029 10.3226,-14.9193 10.3226,2.133 10.3226,4.2887 10.3226,-3.4402 10.3226,1.2403 10.3226,3.0135 10.3226,-2.348 10.3226,1.261 10.3226,-3.4611" />
    <path
       inkscape:connector-curvature="0"
       id="path269"
       style="fill:none;fill-rule:evenodd"
       d="m 83.548,134.27 10.3226,-8.4218 10.3226,-5.8135 10.3226,8.435 10.3226,0.8474 10.3226,-2.2125 10.3226,7.0729 10.3226,-2.9544 10.3226,3.5427 10.3226,6.5453 10.3226,-12.3697 10.3226,3.7397 10.3226,8.2046 10.3226,-8.8249 10.3226,-4.2007 10.3226,-0.2197 10.3226,2.5573 10.3226,6.8973 10.3226,-5.8876 10.3226,-0.6208 10.3226,-3.7957 10.3226,3.365 10.3226,-4.4601 10.3226,4.3119 10.3226,1.0012 10.3226,-2.3723 10.3226,-0.3251 10.3226,-3.0041 10.3226,3.5652 10.3226,-8.8766 10.3226,10.0698 10.3226,9.6042 10.3226,-12.0883 10.3226,-2.6492 10.3226,6.261 10.3226,3.8295 10.3226,-6.5069 10.3226,-7.448 10.3226,3.6635 10.3226,7.1651 10.3226,-6.3872" />
    <path
       inkscape:connector-curvature="0"
       id="path271"
       style="fill:none;fill-rule:evenodd"
       d="m 83.548,132.7327 10.3226,-1.9639 10.3226,-2.625 10.3226,11.0728 10.3226,-4.9996 10.3226,-7.0311 10.3226,7.7813 10.3226,2.5177 10.3226,-6.4187 10.3226,3.4924 10.3226,-6.6949 10.3226,8.8959 10.3226,-2.1772 10.3226,-0.2211 10.3226,2.84 10.3226,-1.9205 10.3226,2.9488 10.3226,0.6618 10.3226,-5.4837 10.3226,0.7956 10.3226,-0.7301 10.3226,-0.0861 10.3226,-3.8074 10.3226,10.7204 10.3226,-6.6168 10.3226,2.6399 10.3226,-8.2248 10.3226,1.3869 10.3226,-7.7884 10.3226,6.1734 10.3226,10.8212 10.3226,-3.3861 10.3226,-6.2024 10.3226,-2.8463 10.3226,4.8423 10.3226,5.173 10.3226,-0.0149 10.3226,-6.3104 10.3226,8.8288 10.3226,-3.4039 10.3226,-6.4001" />
    <path
       inkscape:connector-curvature="0"
       id="path273"
       style="fill:none;fill-rule:evenodd"
       d="m 83.548,141.436 10.3226,-5.0044 10.3226,-7.3085 10.3226,7.584 10.3226,-0.569 10.3226,-1.3378 10.3226,4.26 10.3226,0.7535 10.3226,1.4082 10.3226,0.2321 10.3226,-3.7398 10.3226,2.6711 10.3226,3.6693 10.3226,-5.4714 10.3226,-4.8288 10.3226,3.0588 10.3226,-1.9812 10.3226,0.5859 10.3226,-1.6103 10.3226,-1.5584 10.3226,-2.9718 10.3226,3.3546 10.3226,-0.8537 10.3226,3.8733 10.3226,0.7491 10.3226,-1.2828 10.3226,1.4983 10.3226,1.1344 10.3226,-2.7455 10.3226,6.3821 10.3226,-3.8654 10.3226,-0.3574 10.3226,-0.9198 10.3226,0.4183 10.3226,2.2326 10.3226,-0.3407 10.3226,2.6737 10.3226,-11.0428 10.3226,10.0505 10.3226,-3.1618 10.3226,0.5815" />
    <path
       inkscape:connector-curvature="0"
       id="path275"
       style="fill:none;fill-rule:evenodd"
       d="m 83.548,151.1769 10.3226,-10.2267 10.3226,3.6175 10.3226,-1.5814 10.3226,1.404 10.3226,-0.5773 10.3226,5.8032 10.3226,-1.7869 10.3226,-5.7164 10.3226,7.8459 10.3226,-6.0921 10.3226,5.4295 10.3226,1.8531 10.3226,-6.4474 10.3226,-5.3329 10.3226,11.2507 10.3226,5.2628 10.3226,-6.1572 10.3226,-3.2787 10.3226,-1.1805 10.3226,5.0288 10.3226,-2.2423 10.3226,-7.4475 10.3226,10.0647 10.3226,-2.3044 10.3226,-1.187 10.3226,-2.9785 10.3226,3.9228 10.3226,-3.6497 10.3226,-0.0918 10.3226,2.7851 10.3226,0.8794 10.3226,-2.8595 10.3226,-0.0735 10.3226,2.5378 10.3226,-1.3342 10.3226,-2.1727 10.3226,-1.0555 10.3226,1.8492 10.3226,-0.7045 10.3226,-2.0603" />
    <path
       inkscape:connector-curvature="0"
       id="path277"
       style="fill:none;fill-rule:evenodd"
       d="m 83.548,151.9107 10.3226,-9.8107 10.3226,2.1818 10.3226,-5.3017 10.3226,2.3421 10.3226,-0.0739 10.3226,8.2442 10.3226,-5.3665 10.3226,13.6123 10.3226,-10.0418 10.3226,-4.6369 10.3226,6.2367 10.3226,-1.868 10.3226,4.2556 10.3226,-9.8461 10.3226,5.9858 10.3226,10.5103 10.3226,-7.8699 10.3226,-10.7084 10.3226,6.1391 10.3226,5.3597 10.3226,-8.2665 10.3226,-2.7338 10.3226,1.8899 10.3226,3.1714 10.3226,2.1664 10.3226,-0.1606 10.3226,-0.3463 10.3226,-0.1101 10.3226,1.6516 10.3226,0.7101 10.3226,0.153 10.3226,3.0745 10.3226,-4.8719 10.3226,5.1208 10.3226,-3.824 10.3226,-3.5665 10.3226,-1.0419 10.3226,1.8422 10.3226,1.4223 10.3226,1.9767" />
    <path
       inkscape:connector-curvature="0"
       id="path279"
       style="fill:none;fill-rule:evenodd"
       d="m 83.548,152.6934 10.3226,-5.1838 10.3226,-4.877 10.3226,11.2469 10.3226,-5.9498 10.3226,6.8978 10.3226,-2.2241 10.3226,0.2556 10.3226,-6.5541 10.3226,-0.1429 10.3226,1.8464 10.3226,-0.3062 10.3226,3.4314 10.3226,-1.9036 10.3226,-4.4684 10.3226,5.701 10.3226,-7.1907 10.3226,-0.6078 10.3226,3.0456 10.3226,9.6539 10.3226,2.4143 10.3226,-8.3576 10.3226,-2.4161 10.3226,1.7348 10.3226,1.2358 10.3226,-6.5731 10.3226,0.1704 10.3226,2.1398 10.3226,4.569 10.3226,-9.2315 10.3226,8.3559 10.3226,6.7124 10.3226,-4.4313 10.3226,0.8888 10.3226,-0.2906 10.3226,-3.8471 10.3226,0.9283 10.3226,1.7127 10.3226,2.9597 10.3226,-1.8832 10.3226,-1.9182" />
    <path
       inkscape:connector-curvature="0"
       id="path281"
       style="fill:none;fill-rule:evenodd"
       d="m 83.548,157.4182 10.3226,-3.8061 10.3226,-0.2423 10.3226,3.4363 10.3226,-0.491 10.3226,-4.1687 10.3226,8.1537 10.3226,-5.9216 10.3226,1.594 10.3226,0.6108 10.3226,1.1093 10.3226,2.8687 10.3226,-0.9135 10.3226,3.2169 10.3226,-11.6412 10.3226,8.8549 10.3226,2.8795 10.3226,-0.003 10.3226,-0.5894 10.3226,-7.1842 10.3226,7.416 10.3226,-5.125 10.3226,-5.749 10.3226,9.2877 10.3226,-2.0221 10.3226,2.1065 10.3226,-1.1247 10.3226,2.3927 10.3226,-3.4849 10.3226,1.2752 10.3226,-6.1104 10.3226,4.6684 10.3226,-3.2783 10.3226,1.3871 10.3226,-3.9825 10.3226,11.1213 10.3226,-10.023 10.3226,-3.1285 10.3226,6.6945 10.3226,1.4556 10.3226,0.8239" />
    <path
       inkscape:connector-curvature="0"
       id="path283"
       style="fill:none;fill-rule:evenodd"
       d="m 83.548,164.3743 10.3226,-3.7413 10.3226,-3.1116 10.3226,16.3644 10.3226,-13.7883 10.3226,6.4252 10.3226,1.1232 10.3226,2.7827 10.3226,-1.4651 10.3226,-3.5492 10.3226,1.713 10.3226,2.1543 10.3226,-7.0805 10.3226,4.8011 10.3226,-3.5242 10.3226,2.6986 10.3226,-1.8117 10.3226,-2.8855 10.3226,-0.9785 10.3226,-0.8186 10.3226,-1.2679 10.3226,2.397 10.3226,-3.4777 10.3226,-1.8422 10.3226,5.4746 10.3226,3.6285 10.3226,0.2105 10.3226,-3.7589 10.3226,7.4605 10.3226,-1.817 10.3226,-0.8695 10.3226,1.2716 10.3226,-4.4801 10.3226,-5.65 10.3226,9.9256 10.3226,-2.1299 10.3226,-4.7661 10.3226,6.0675 10.3226,2.0686 10.3226,-2.1882 10.3226,-2.8187" />
    <path
       inkscape:connector-curvature="0"
       id="path285"
       style="fill:none;fill-rule:evenodd"
       d="m 83.548,170.5674 10.3226,-11.3455 10.3226,10.8695 10.3226,-9.2911 10.3226,9.1595 10.3226,-4.3348 10.3226,1.2707 10.3226,-1.5169 10.3226,3.0826 10.3226,-2.6602 10.3226,0.676 10.3226,-2.8583 10.3226,3.9064 10.3226,5.1994 10.3226,-10.252 10.3226,9.6259 10.3226,2.5531 10.3226,-5.6947 10.3226,-9.6178 10.3226,4.9994 10.3226,-3.4396 10.3226,-2.7139 10.3226,1.0045 10.3226,-1.484 10.3226,6.608 10.3226,2.9742 10.3226,-5.7151 10.3226,0.5213 10.3226,1.5212 10.3226,3.6707 10.3226,-1.698 10.3226,0.8415 10.3226,-6.1413 10.3226,2.2477 10.3226,9.0287 10.3226,-5.8358 10.3226,4.4499 10.3226,-5.7874 10.3226,1.717 10.3226,-10.0824 10.3226,8.3892" />
    <path
       inkscape:connector-curvature="0"
       id="path287"
       style="fill:none;fill-rule:evenodd"
       d="m 83.548,171.7323 10.3226,-4.3248 10.3226,-4.4478 10.3226,0.9024 10.3226,3.5553 10.3226,7.241 10.3226,-5.1579 10.3226,4.8411 10.3226,-3.9709 10.3226,-5.7826 10.3226,2.5934 10.3226,3.5342 10.3226,-2.8976 10.3226,6.354 10.3226,-12.77 10.3226,8.9351 10.3226,3.2799 10.3226,-5.751 10.3226,-2.3174 10.3226,14.7423 10.3226,-9.908 10.3226,-3.2377 10.3226,-4.8035 10.3226,6.5937 10.3226,4.4476 10.3226,-11.4202 10.3226,5.6336 10.3226,-1.2937 10.3226,3.916 10.3226,-1.7055 10.3226,-1.5482 10.3226,-1.3442 10.3226,-0.9666 10.3226,7.4639 10.3226,2.0438 10.3226,-7.0484 10.3226,-0.7679 10.3226,2.0838 10.3226,-2.3324 10.3226,7.2074 10.3226,-2.2399" />
    <path
       inkscape:connector-curvature="0"
       id="path289"
       style="fill:none;fill-rule:evenodd"
       d="m 83.548,174.5405 10.3226,2.861 10.3226,-10.6088 10.3226,7.1855 10.3226,-1.9709 10.3226,5.0135 10.3226,4.1293 10.3226,-5.3511 10.3226,-3.4753 10.3226,-0.002 10.3226,6.4407 10.3226,2.5944 10.3226,-2.6947 10.3226,4.4213 10.3226,-8.5229 10.3226,-0.1094 10.3226,7.5014 10.3226,-1.8789 10.3226,0.9331 10.3226,2.4423 10.3226,0.4258 10.3226,3.1604 10.3226,-8.6877 10.3226,-7.5578 10.3226,10.9922 10.3226,-0.1403 10.3226,-4.2014 10.3226,1.6857 10.3226,-2.1679 10.3226,-5.386 10.3226,2.5424 10.3226,-0.2165 10.3226,3.5863 10.3226,-4.4739 10.3226,-1.582 10.3226,1.9698 10.3226,-0.5311 10.3226,2.385 10.3226,-2.0093 10.3226,3.4624 10.3226,-0.8039" />
    <path
       inkscape:connector-curvature="0"
       id="path291"
       style="fill:none;fill-rule:evenodd"
       d="m 83.548,190.2055 10.3226,-7.3533 10.3226,-3.8073 10.3226,4.2465 10.3226,3.9483 10.3226,-0.8717 10.3226,6.6045 10.3226,1.5294 10.3226,-3.2869 10.3226,2.4306 10.3226,-6.8048 10.3226,6.7261 10.3226,7.7294 10.3226,-4.7458 10.3226,-2.0364 10.3226,4.135 10.3226,-1.3303 10.3226,1.6276 10.3226,-2.8594 10.3226,1.8062 10.3226,-5.67 10.3226,-2.9743 10.3226,8.8895 10.3226,-6.1192 10.3226,1.8367 10.3226,3.4911 10.3226,-3.1377 10.3226,3.8132 10.3226,-4.3675 10.3226,-2.426 10.3226,6.6724 10.3226,-5.6157 10.3226,-2.1819 10.3226,-3.3576 10.3226,3.3241 10.3226,-4.0451 10.3226,4.9953 10.3226,-3.2871 10.3226,-3.0712 10.3226,6.9084 10.3226,-5.5003" />
    <path
       inkscape:connector-curvature="0"
       id="path293"
       style="fill:none;fill-rule:evenodd"
       d="m 83.548,196.1435 10.3226,-6.5765 10.3226,0.908 10.3226,4.9065 10.3226,-9.2878 10.3226,10.888 10.3226,-0.8395 10.3226,-0.344 10.3226,-4.2307 10.3226,12.7875 10.3226,-9.9632 10.3226,2.0173 10.3226,-0.8016 10.3226,-5.7158 10.3226,5.7021 10.3226,-0.1516 10.3226,0.0961 10.3226,-0.2821 10.3226,-1.0803 10.3226,1.1722 10.3226,-0.097 10.3226,0.4738 10.3226,2.9299 10.3226,-4.3032 10.3226,3.2007 10.3226,0.0282 10.3226,-8.1152 10.3226,2.3923 10.3226,2.7694 10.3226,-0.6986 10.3226,0.1579 10.3226,0.6079 10.3226,0.6646 10.3226,-3.0048 10.3226,5.5033 10.3226,-9.4619 10.3226,6.9527 10.3226,-6.6902 10.3226,2.7727 10.3226,4.443 10.3226,-1.1979" />
    <path
       inkscape:connector-curvature="0"
       id="path295"
       style="fill:none;fill-rule:evenodd"
       d="m 83.548,189.6127 10.3226,2.153 10.3226,-2.82 10.3226,1.339 10.3226,2.3616 10.3226,9.7726 10.3226,-3.3555 10.3226,1.4662 10.3226,-6.4183 10.3226,1.6814 10.3226,-2.5201 10.3226,3.4514 10.3226,1.333 10.3226,0.577 10.3226,-7.3199 10.3226,9.8809 10.3226,-3.5582 10.3226,6.575 10.3226,-7.9991 10.3226,8.4725 10.3226,-8.2843 10.3226,-1.4455 10.3226,1.6389 10.3226,0.1472 10.3226,4.2575 10.3226,-4.379 10.3226,-1.3654 10.3226,-1.6347 10.3226,6.8781 10.3226,-1.6376 10.3226,-3.2628 10.3226,2.3635 10.3226,2.4414 10.3226,0.1137 10.3226,-3.9269 10.3226,-5.9068 10.3226,10.9342 10.3226,-6.593 10.3226,3.482 10.3226,-5.0932 10.3226,5.2886" />
    <path
       inkscape:connector-curvature="0"
       id="path297"
       style="fill:none;fill-rule:evenodd"
       d="m 83.548,191.3868 10.3226,1.2406 10.3226,-1.653 10.3226,-0.2451 10.3226,6.4693 10.3226,-1.0426 10.3226,12.4665 10.3226,-8.7766 10.3226,4.9218 10.3226,0.7914 10.3226,-8.0147 10.3226,6.7524 10.3226,-2.4084 10.3226,-0.287 10.3226,-6.2671 10.3226,2.9531 10.3226,3.3849 10.3226,1.0042 10.3226,-8.6021 10.3226,7.8394 10.3226,-4.0818 10.3226,4.5092 10.3226,-6.1206 10.3226,1.449 10.3226,7.0905 10.3226,0.2408 10.3226,-4.9759 10.3226,-0.6617 10.3226,4.8208 10.3226,-1.9529 10.3226,-5.9809 10.3226,6.4074 10.3226,-5.1041 10.3226,3.6269 10.3226,-4.3611 10.3226,2.9424 10.3226,-3.7047 10.3226,0.0896 10.3226,1.1554 10.3226,-1.5836 10.3226,0.7786" />
    <path
       inkscape:connector-curvature="0"
       id="path299"
       style="fill:none;fill-rule:evenodd"
       d="m 83.548,203.5787 10.3226,-5.2707 10.3226,-8.3183 10.3226,3.1782 10.3226,5.107 10.3226,5.742 10.3226,-2.0554 10.3226,-0.672 10.3226,-0.4199 10.3226,2.268 10.3226,-5.8781 10.3226,-0.3339 10.3226,4.4877 10.3226,-1.1251 10.3226,-7.4951 10.3226,8.8852 10.3226,-1.5689 10.3226,-0.8168 10.3226,-2.9787 10.3226,-0.6065 10.3226,4.4604 10.3226,0.6723 10.3226,-8.1621 10.3226,3.6787 10.3226,4.0678 10.3226,-2.8128 10.3226,-4.0485 10.3226,2.821 10.3226,4.6715 10.3226,-1.6136 10.3226,0.5001 10.3226,-0.2831 10.3226,-3.6707 10.3226,-3.4299 10.3226,8.2258 10.3226,-0.5414 10.3226,-4.4658 10.3226,1.3045 10.3226,7.9021 10.3226,-5.6414 10.3226,-0.7267" />
    <path
       inkscape:connector-curvature="0"
       id="path301"
       style="fill:none;fill-rule:evenodd"
       d="m 83.548,194.0341 10.3226,5.2366 10.3226,-4.8747 10.3226,10.4607 10.3226,-6.2111 10.3226,-1.8698 10.3226,4.4697 10.3226,-2.4606 10.3226,8.2907 10.3226,-8.324 10.3226,-2.4274 10.3226,4.6301 10.3226,4.9773 10.3226,-6.2797 10.3226,-3.7698 10.3226,8.379 10.3226,-4.9136 10.3226,-0.1629 10.3226,1.6749 10.3226,3.3399 10.3226,5.802 10.3226,0.606 10.3226,-10.9644 10.3226,0.1195 10.3226,-2.7508 10.3226,4.2944 10.3226,-2.3276 10.3226,2.4621 10.3226,-0.4138 10.3226,-7.2311 10.3226,5.6928 10.3226,-2.0584 10.3226,10.3904 10.3226,-8.3023 10.3226,3.0032 10.3226,-2.0617 10.3226,-2.0663 10.3226,-0.6408 10.3226,10.6533 10.3226,-4.9726 10.3226,-5.6341" />
    <path
       inkscape:connector-curvature="0"
       id="path303"
       style="fill:none;fill-rule:evenodd"
       d="m 83.548,201.2483 10.3226,-5.5851 10.3226,-0.1115 10.3226,6.8336 10.3226,-2.2866 10.3226,3.6123 10.3226,-3.7567 10.3226,4.4631 10.3226,-5.7051 10.3226,3.9531 10.3226,-3.3391 10.3226,-0.2529 10.3226,1.6015 10.3226,1.8462 10.3226,-6.6662 10.3226,1.0539 10.3226,-1.4865 10.3226,4.1012 10.3226,-5.8724 10.3226,-1.2656 10.3226,1.508 10.3226,0.4702 10.3226,-5.0221 10.3226,10.1119 10.3226,-0.5758 10.3226,1.5882 10.3226,-1.6288 10.3226,-2.006 10.3226,2.3237 10.3226,-2.5235 10.3226,2.6999 10.3226,1.2493 10.3226,3.6103 10.3226,-5.1182 10.3226,1.6835 10.3226,-3.2478 10.3226,4.7755 10.3226,-6.1308 10.3226,6.4985 10.3226,-0.6517 10.3226,2.3202" />
    <path
       inkscape:connector-curvature="0"
       id="path305"
       style="fill:none;fill-rule:evenodd"
       d="m 83.548,200.8951 10.3226,-0.186 10.3226,-0.1236 10.3226,0.7266 10.3226,-3.7283 10.3226,5.891 10.3226,-0.0991 10.3226,1.807 10.3226,2.8812 10.3226,-1.4608 10.3226,-9.7967 10.3226,1.57 10.3226,3.0856 10.3226,-3.4538 10.3226,-3.004 10.3226,4.7996 10.3226,0.2411 10.3226,-6.2483 10.3226,1.1386 10.3226,3.6106 10.3226,-9.1432 10.3226,6.0625 10.3226,-2.8535 10.3226,3.9159 10.3226,1.1101 10.3226,1.7239 10.3226,-8.7986 10.3226,10.1311 10.3226,-3.2333 10.3226,6.6512 10.3226,-6.8157 10.3226,11.7817 10.3226,-8.1685 10.3226,-1.4399 10.3226,-0.617 10.3226,7.3087 10.3226,-8.6606 10.3226,1.7728 10.3226,6.3015 10.3226,-4.0219 10.3226,-3.4574" />
    <path
       inkscape:connector-curvature="0"
       id="path307"
       style="fill:none;fill-rule:evenodd"
       d="m 83.548,210.1248 10.3226,0.8221 10.3226,-2.7579 10.3226,-3.6477 10.3226,-0.002 10.3226,4.2097 10.3226,1.6261 10.3226,-5.9588 10.3226,3.3962 10.3226,-0.8064 10.3226,-8.7329 10.3226,1.6724 10.3226,7.8023 10.3226,-4.3439 10.3226,-5.3729 10.3226,6.0755 10.3226,-8.5981 10.3226,-0.4733 10.3226,-1.4054 10.3226,-2.2002 10.3226,6.2594 10.3226,3.4552 10.3226,-7.3145 10.3226,6.3544 10.3226,2.5084 10.3226,6.4854 10.3226,-11.8203 10.3226,5.0073 10.3226,-0.9045 10.3226,-2.844 10.3226,4.0161 10.3226,2.0511 10.3226,9.5752 10.3226,-14.0546 10.3226,6.3882 10.3226,-0.619 10.3226,-3.2214 10.3226,4.3051 10.3226,-0.9673 10.3226,3.651 10.3226,-2.1929" />
    <path
       inkscape:connector-curvature="0"
       id="path309"
       style="fill:none;fill-rule:evenodd"
       d="m 83.548,217.1576 10.3226,-6.0488 10.3226,-0.8491 10.3226,1.9175 10.3226,-3.5962 10.3226,7.1145 10.3226,-2.2626 10.3226,-4.142 10.3226,5.0203 10.3226,-2.1976 10.3226,-8.8156 10.3226,6.775 10.3226,-1.7932 10.3226,-3.6895 10.3226,-5.0956 10.3226,7.1019 10.3226,-4.2396 10.3226,2.1291 10.3226,-4.8027 10.3226,6.6927 10.3226,-5.1378 10.3226,0.0515 10.3226,4.1 10.3226,-0.9157 10.3226,4.3504 10.3226,-0.9557 10.3226,-9.5598 10.3226,-3.7778 10.3226,13.643 10.3226,3.663 10.3226,-6.0883 10.3226,1.8026 10.3226,-0.5372 10.3226,0.988 10.3226,1.6788 10.3226,-5.7442 10.3226,7.1888 10.3226,-5.5908 10.3226,1.1197 10.3226,7.3318 10.3226,-1.0898" />
    <path
       inkscape:connector-curvature="0"
       id="path311"
       style="fill:none;fill-rule:evenodd"
       d="m 83.548,220.7558 10.3226,-3.3066 10.3226,-1.0839 10.3226,-6.9073 10.3226,4.7039 10.3226,7.6025 10.3226,-2.1946 10.3226,-7.3469 10.3226,9.8672 10.3226,-11.317 10.3226,-3.7823 10.3226,8.4438 10.3226,-4.6929 10.3226,-3.3579 10.3226,-2.1616 10.3226,5.9743 10.3226,-6.9838 10.3226,-4.1089 10.3226,0.3387 10.3226,-3.4845 10.3226,6.4748 10.3226,2.4754 10.3226,-5.6769 10.3226,-4.1937 10.3226,7.6659 10.3226,0.7731 10.3226,-1.6126 10.3226,0.4332 10.3226,-4.1739 10.3226,7.2024 10.3226,8.5789 10.3226,0.3986 10.3226,-1.5794 10.3226,-4.4334 10.3226,3.154 10.3226,2.0301 10.3226,-3.4237 10.3226,0.2962 10.3226,6.4957 10.3226,-0.2983 10.3226,-1.2431" />
    <path
       inkscape:connector-curvature="0"
       id="path313"
       style="fill:none;fill-rule:evenodd"
       d="m 83.548,224.1782 10.3226,0.3843 10.3226,-9.4484 10.3226,6.2506 10.3226,-2.0934 10.3226,-5.6335 10.3226,3.8398 10.3226,-0.0305 10.3226,-1.1161 10.3226,-1.9244 10.3226,-7.3516 10.3226,7.685 10.3226,3.0091 10.3226,-7.446 10.3226,5.7627 10.3226,4.6246 10.3226,6.9368 10.3226,-4.5177 10.3226,11.8097 10.3226,28.7491 10.3226,20.6166 10.3226,-13.7675 10.3226,-27.9416 10.3226,-16.6211 10.3226,-9.113 10.3226,4.5707 10.3226,-6.9773 10.3226,7.8532 10.3226,-8.4059 10.3226,0.4976 10.3226,-3.8228 10.3226,6.5833 10.3226,4.3284 10.3226,-7.9179 10.3226,1.1549 10.3226,3.0195 10.3226,2.8195 10.3226,2.3142 10.3226,-1.4867 10.3226,1.9603 10.3226,-3.9742" />
    <path
       inkscape:connector-curvature="0"
       id="path315"
       style="fill:none;fill-rule:evenodd"
       d="m 83.548,224.0948 10.3226,0.1791 10.3226,-4.5087 10.3226,0.5559 10.3226,-0.7796 10.3226,5.3638 10.3226,-0.4191 10.3226,-6.6138 10.3226,7.9753 10.3226,-5.7803 10.3226,-9.3525 10.3226,-2.6565 10.3226,3.2999 10.3226,-1.5264 10.3226,-4.8828 10.3226,13.9645 10.3226,-3.1492 10.3226,-0.4179 10.3226,-0.0557 10.3226,7.3605 10.3226,12.7052 10.3226,-0.9468 10.3226,-15.4241 10.3226,-2.6069 10.3226,2.5223 10.3226,-7.1674 10.3226,-5.5354 10.3226,0.5295 10.3226,-1.952 10.3226,1.829 10.3226,10.5839 10.3226,-2.4484 10.3226,-0.2912 10.3226,4.822 10.3226,-5.1667 10.3226,1.6215 10.3226,9.4343 10.3226,-8.6485 10.3226,21.5534 10.3226,-16.0518 10.3226,-0.6314" />
    <path
       inkscape:connector-curvature="0"
       id="path317"
       style="fill:none;fill-rule:evenodd"
       d="m 83.548,224.6249 10.3226,4.8443 10.3226,-6.337 10.3226,3.6257 10.3226,-4.999 10.3226,5.3754 10.3226,-4.4323 10.3226,-3.8095 10.3226,-0.4671 10.3226,2.5098 10.3226,-9.8926 10.3226,2.0382 10.3226,-3.1972 10.3226,-0.1166 10.3226,-3.4256 10.3226,12.1648 10.3226,-1.2696 10.3226,6.1583 10.3226,-4.6895 10.3226,25.5895 10.3226,21.0136 10.3226,-20.9751 10.3226,-23.317 10.3226,-11.64 10.3226,8.5551 10.3226,-8.7622 10.3226,-4.2666 10.3226,3.2274 10.3226,-2.7591 10.3226,9.6386 10.3226,-3.3567 10.3226,4.0988 10.3226,-2.0992 10.3226,0.212 10.3226,7.9179 10.3226,-2.6414 10.3226,-1.6561 10.3226,-2.0838 10.3226,3.749 10.3226,1.2329 10.3226,3.0464" />
    <path
       inkscape:connector-curvature="0"
       id="path319"
       style="fill:none;fill-rule:evenodd"
       d="m 83.548,232.6981 10.3226,1.7829 10.3226,-5.8296 10.3226,4.2009 10.3226,-2.5454 10.3226,-1.4112 10.3226,5.3792 10.3226,-1.1305 10.3226,-9.7893 10.3226,13.1953 10.3226,-13.8506 10.3226,-2.5961 10.3226,-3.2771 10.3226,6.4677 10.3226,-0.8076 10.3226,7.5565 10.3226,4.2866 10.3226,-1.5506 10.3226,7.7376 10.3226,22.306 10.3226,21.0376 10.3226,-17.6903 10.3226,-23.5399 10.3226,-9.2056 10.3226,-4.1799 10.3226,4.8763 10.3226,-16.2783 10.3226,-0.3161 10.3226,-1.3375 10.3226,4.6929 10.3226,1.1279 10.3226,3.6098 10.3226,0.4417 10.3226,0.1416 10.3226,6.9231 10.3226,-3.2504 10.3226,-3.2596 10.3226,0.1274 10.3226,7.7827 10.3226,-2.1799 10.3226,1.865" />
    <path
       inkscape:connector-curvature="0"
       id="path321"
       style="fill:none;fill-rule:evenodd"
       d="m 83.548,246.8932 10.3226,-7.9078 10.3226,-5.9061 10.3226,3.8864 10.3226,-3.0714 10.3226,4.5942 10.3226,-5.1423 10.3226,3.6909 10.3226,-4.4241 10.3226,0.9831 10.3226,-4.8597 10.3226,11.6575 10.3226,-0.2256 10.3226,3.4204 10.3226,0.4509 10.3226,15.9198 10.3226,12.2678 10.3226,-0.8664 10.3226,27.4549 10.3226,23.8801 10.3226,11.6018 10.3226,-3.9638 10.3226,-32.5897 10.3226,-26.6783 10.3226,-9.6398 10.3226,9.4694 10.3226,-20.0433 10.3226,-9.6283 10.3226,-0.8 10.3226,-6.5244 10.3226,-2.4386 10.3226,-2.7984 10.3226,0.0939 10.3226,-0.8705 10.3226,4.0615 10.3226,2.7069 10.3226,0.9593 10.3226,-7.4475 10.3226,8.6702 10.3226,3.9467 10.3226,0.4688" />
    <path
       inkscape:connector-curvature="0"
       id="path323"
       style="fill:none;fill-rule:evenodd"
       d="m 83.548,241.4808 10.3226,-4.3083 10.3226,-3.0147 10.3226,3.2675 10.3226,-3.3817 10.3226,0.7814 10.3226,3.6782 10.3226,6.9797 10.3226,0.1422 10.3226,1.1031 10.3226,-1.5477 10.3226,10.7909 10.3226,5.2592 10.3226,-1.0173 10.3226,2.6125 10.3226,16.795 10.3226,-2.3098 10.3226,7.0207 10.3226,26.3458 10.3226,24.6549 10.3226,1.2814 10.3226,4.6793 10.3226,-13.667 10.3226,-31.3654 10.3226,-16.7858 10.3226,-2.3009 10.3226,-19.8351 10.3226,-18.037 10.3226,0.464 10.3226,-9.4359 10.3226,3.1086 10.3226,0.9182 10.3226,2.2479 10.3226,-1.0909 10.3226,2.7158 10.3226,0.423 10.3226,5.8074 10.3226,-1.1825 10.3226,4.4128 10.3226,-0.9167 10.3226,-0.9725" />
    <path
       inkscape:connector-curvature="0"
       id="path325"
       style="fill:none;fill-rule:evenodd"
       d="m 83.548,226.3788 10.3226,3.7919 10.3226,-4.0025 10.3226,8.9268 10.3226,9.3761 10.3226,9.0765 10.3226,11.4157 10.3226,-2.4339 10.3226,0.9674 10.3226,7.5652 10.3226,-12.9655 10.3226,2.158 10.3226,1.305 10.3226,2.6439 10.3226,3.2726 10.3226,42.302 10.3226,21.9756 10.3226,4.9069 10.3226,-2.2185 10.3226,7.9225 10.3226,-2.632 10.3226,3.8015 10.3226,5.7458 10.3226,-10.9353 10.3226,-2.5921 10.3226,-22.9861 10.3226,-33.6448 10.3226,-8.8452 10.3226,4.8221 10.3226,-7.8478 10.3226,4.9756 10.3226,-0.8033 10.3226,-0.1279 10.3226,-9.7734 10.3226,-0.5023 10.3226,-14.5322 10.3226,-2.2139 10.3226,-18.4491 10.3226,-1.9107 10.3226,-1.6542 10.3226,-7.2675" />
    <path
       inkscape:connector-curvature="0"
       id="path327"
       style="fill:none;fill-rule:evenodd"
       d="m 83.548,237.0857 10.3226,10.0158 10.3226,-1.8468 10.3226,17.4321 10.3226,3.0243 10.3226,2.7035 10.3226,5.2907 10.3226,1.2865 10.3226,3.6041 10.3226,-7.3464 10.3226,-11.4996 10.3226,6.0052 10.3226,-4.5861 10.3226,17.3186 10.3226,15.8528 10.3226,33.2573 10.3226,9.1624 10.3226,10.2364 10.3226,-14.777 10.3226,12.1148 10.3226,-0.0439 10.3226,-0.5599 10.3226,-1.8705 10.3226,-1.0405 10.3226,0.8417 10.3226,-9.6092 10.3226,-21.8225 10.3226,-21.9735 10.3226,-8.9327 10.3226,-1.7323 10.3226,18.0257 10.3226,-23.3141 10.3226,-3.2948 10.3226,3.6493 10.3226,-3.2525 10.3226,-6.6333 10.3226,-5.446 10.3226,-3.0905 10.3226,-2.5275 10.3226,-10.8005 10.3226,-6.9117" />
    <path
       inkscape:connector-curvature="0"
       id="path329"
       style="fill:none;fill-rule:evenodd"
       d="m 83.548,240.5535 10.3226,17.9886 10.3226,-2.3631 10.3226,9.0981 10.3226,1.3817 10.3226,1.6376 10.3226,10.5405 10.3226,-4.4466 10.3226,7.5126 10.3226,3.9368 10.3226,-11.6181 10.3226,1.0243 10.3226,6.3983 10.3226,3.7555 10.3226,-23.7946 10.3226,24.7161 10.3226,7.1883 10.3226,26.3104 10.3226,13.0365 10.3226,9.5293 10.3226,-6.2121 10.3226,3.2748 10.3226,4.4275 10.3226,-12.5052 10.3226,-8.5155 10.3226,-9.2133 10.3226,-20.2026 10.3226,-20.1268 10.3226,-10.0831 10.3226,-13.812 10.3226,-7.5378 10.3226,4.8989 10.3226,-11.2512 10.3226,-3.8221 10.3226,0.8452 10.3226,-8.7579 10.3226,8.6713 10.3226,-1.7393 10.3226,9.02 10.3226,-3.7428 10.3226,1.228" />
    <path
       inkscape:connector-curvature="0"
       id="path331"
       style="fill:none;fill-rule:evenodd"
       d="m 83.548,265.3732 10.3226,2.8939 10.3226,-6.7305 10.3226,9.4466 10.3226,4.9689 10.3226,-1.1387 10.3226,10.8842 10.3226,-10.0857 10.3226,4.1277 10.3226,-4.4162 10.3226,-16.3285 10.3226,2.3144 10.3226,-9.2155 10.3226,-3.1538 10.3226,1.104 10.3226,6.1098 10.3226,0.7814 10.3226,2.514 10.3226,-12.2865 10.3226,1.6864 10.3226,16.8263 10.3226,-10.9287 10.3226,-6.179 10.3226,-3.2969 10.3226,9.1771 10.3226,8.7268 10.3226,-11.7406 10.3226,-9.6975 10.3226,17.1307 10.3226,-4.2709 10.3226,5.4724 10.3226,10e-4 10.3226,-0.7778 10.3226,13.185 10.3226,-9.8454 10.3226,-1.2384 10.3226,0.9693 10.3226,-3.7773 10.3226,5.3473 10.3226,-2.622 10.3226,-9.2666" />
    <path
       inkscape:connector-curvature="0"
       id="path333"
       style="fill:none;fill-rule:evenodd"
       d="m 83.548,278.7894 10.3226,16.6941 10.3226,-3.6636 10.3226,2.5039 10.3226,-6.9612 10.3226,-0.5725 10.3226,10.1942 10.3226,-14.1216 10.3226,3.5241 10.3226,-3.9057 10.3226,-4.8246 10.3226,7.5477 10.3226,0.885 10.3226,11.7381 10.3226,18.6501 10.3226,22.5974 10.3226,6.431 10.3226,-3.2444 10.3226,2.6341 10.3226,-6.8939 10.3226,4.9229 10.3226,2.2566 10.3226,-6.2298 10.3226,6.195 10.3226,-5.2049 10.3226,11.5379 10.3226,-12.678 10.3226,-9.0156 10.3226,3.2365 10.3226,-15.2061 10.3226,-8.0095 10.3226,-0.225 10.3226,-18.8482 10.3226,-5.6587 10.3226,-8.4542 10.3226,-1.315 10.3226,1.1074 10.3226,-8.3227 10.3226,-0.4293 10.3226,-10.539 10.3226,-4.7204" />
    <path
       inkscape:connector-curvature="0"
       id="path335"
       style="fill:none;fill-rule:evenodd"
       d="m 83.548,260.4128 10.3226,1.3858 10.3226,7.0965 10.3226,1.7684 10.3226,2.8617 10.3226,-5.8204 10.3226,6.0304 10.3226,-8.762 10.3226,1.6861 10.3226,1.234 10.3226,-4.3493 10.3226,10.6928 10.3226,17.344 10.3226,23.2507 10.3226,5.6384 10.3226,19.7629 10.3226,-4.6242 10.3226,4.4918 10.3226,3.6599 10.3226,3.0714 10.3226,-8.4254 10.3226,5.494 10.3226,2.0675 10.3226,-12.3875 10.3226,10.2899 10.3226,-3.4483 10.3226,-23.8802 10.3226,-25.4491 10.3226,-6.3206 10.3226,-13.406 10.3226,2.8206 10.3226,-0.1276 10.3226,6.0497 10.3226,4.5308 10.3226,-3.1507 10.3226,-0.3966 10.3226,9.904 10.3226,-4.7753 10.3226,-0.0776 10.3226,-1.5979 10.3226,-5.2153" />
    <path
       inkscape:connector-curvature="0"
       id="path337"
       style="fill:none;fill-rule:evenodd"
       d="m 83.548,274.5684 10.3226,15.4771 10.3226,-7.7034 10.3226,0.5122 10.3226,4.6734 10.3226,5.9486 10.3226,15.1469 10.3226,14.1463 10.3226,11.8058 10.3226,4.3871 10.3226,-5.8824 10.3226,10.338 10.3226,-1.2633 10.3226,-0.0127 10.3226,-5.1327 10.3226,18.7532 10.3226,-10.7022 10.3226,-0.3245 10.3226,-3.9959 10.3226,1.9471 10.3226,-12.3246 10.3226,7.3508 10.3226,9.0131 10.3226,-11.2846 10.3226,3.4703 10.3226,5.2202 10.3226,-1.5686 10.3226,-5.5793 10.3226,11.2954 10.3226,-7.6992 10.3226,-18.0887 10.3226,-18.8838 10.3226,-7.2602 10.3226,-8.8681 10.3226,0.1516 10.3226,10.6592 10.3226,2.9262 10.3226,7.9764 10.3226,-0.147 10.3226,3.9585 10.3226,-4.9918" />
    <path
       inkscape:connector-curvature="0"
       id="path339"
       style="fill:none;fill-rule:evenodd"
       d="m 83.548,336.8253 10.3226,7.7674 10.3226,-14.3673 10.3226,7.5598 10.3226,10.0652 10.3226,-4.1975 10.3226,6.7387 10.3226,-5.7451 10.3226,3.6456 10.3226,-3.5344 10.3226,-7.8647 10.3226,8.4107 10.3226,-5.407 10.3226,0.4779 10.3226,-1.4317 10.3226,11.6498 10.3226,-8.211 10.3226,2.3806 10.3226,-4.7914 10.3226,3.8503 10.3226,-1.7885 10.3226,3.3882 10.3226,-3.636 10.3226,-7.3362 10.3226,7.9969 10.3226,-0.9282 10.3226,0.6826 10.3226,-5.9335 10.3226,17.6903 10.3226,-19.0971 10.3226,5.1392 10.3226,-1.2116 10.3226,-1.9742 10.3226,8.6875 10.3226,-5.0485 10.3226,1.2945 10.3226,2.8596 10.3226,-1.1792 10.3226,-5.227 10.3226,1.3008 10.3226,-0.0256" />
    <path
       inkscape:connector-curvature="0"
       id="path341"
       style="fill:none;fill-rule:evenodd"
       d="m 83.548,338.1808 10.3226,7.0857 10.3226,-6.9021 10.3226,2.088 10.3226,4.3414 10.3226,-3.9052 10.3226,12.0266 10.3226,-12.4674 10.3226,2.9443 10.3226,3.2793 10.3226,-10.4276 10.3226,3.4722 10.3226,4.5232 10.3226,-5.7838 10.3226,5.7814 10.3226,5.9173 10.3226,-4.803 10.3226,-3.6036 10.3226,-2.5308 10.3226,-4.144 10.3226,-0.409 10.3226,10.3519 10.3226,2.2785 10.3226,-17.0519 10.3226,15.2311 10.3226,1.0144 10.3226,-3.3649 10.3226,-11.6264 10.3226,13.0345 10.3226,-10.6124 10.3226,13.5429 10.3226,-5.895 10.3226,-3.5171 10.3226,2.4348 10.3226,-7.038 10.3226,7.9225 10.3226,3.1572 10.3226,-3.5182 10.3226,3.3166 10.3226,5.0631 10.3226,-6.2231" />
    <path
       inkscape:connector-curvature="0"
       id="path343"
       style="fill:none;fill-rule:evenodd"
       d="m 83.548,341.75 h 10.3226 10.3226 10.3226 10.3226 10.3226 10.3226 10.3226 10.3226 10.3226 10.3226 10.3226 10.3226 10.3226 10.3226 10.3226 10.3226 10.3226 10.3226 10.3226 10.3226 10.3226 10.3226 10.3226 10.3226 10.3226 10.3226 10.3226 10.3226 10.3226 10.3226 10.3226 10.3226 10.3226 10.3226 10.3226 10.3226 10.3226 10.3226 10.3226 10.3226" />
  </g>
</svg>
