<?xml version="1.0" encoding="UTF-8" standalone="no"?>
<svg
   xmlns:dc="http://purl.org/dc/elements/1.1/"
   xmlns:cc="http://creativecommons.org/ns#"
   xmlns:rdf="http://www.w3.org/1999/02/22-rdf-syntax-ns#"
   xmlns:svg="http://www.w3.org/2000/svg"
   xmlns="http://www.w3.org/2000/svg"
   xmlns:sodipodi="http://sodipodi.sourceforge.net/DTD/sodipodi-0.dtd"
   xmlns:inkscape="http://www.inkscape.org/namespaces/inkscape"
   style="font-style:normal;font-weight:normal;font-size:12px;font-family:Dialog;color-interpolation:auto;fill:#000000;fill-opacity:1;stroke:#000000;stroke-width:1;stroke-linecap:square;stroke-linejoin:miter;stroke-miterlimit:10;stroke-dasharray:none;stroke-dashoffset:0;stroke-opacity:1;color-rendering:auto;image-rendering:auto;shape-rendering:auto;text-rendering:auto"
   width="489.99121"
   height="389.96881"
   version="1.1"
   id="svg523"
   sodipodi:docname="nu_4_3_RF_noise_vs_Vdc_for_Vqpc_m1_7.svg"
   inkscape:version="0.92.3 (2405546, 2018-03-11)">
  <metadata
     id="metadata527">
    <rdf:RDF>
      <cc:Work
         rdf:about="">
        <dc:format>image/svg+xml</dc:format>
        <dc:type
           rdf:resource="http://purl.org/dc/dcmitype/StillImage" />
      </cc:Work>
    </rdf:RDF>
  </metadata>
  <sodipodi:namedview
     pagecolor="#ffffff"
     bordercolor="#666666"
     borderopacity="1"
     objecttolerance="10"
     gridtolerance="10"
     guidetolerance="10"
     inkscape:pageopacity="0"
     inkscape:pageshadow="2"
     inkscape:window-width="1920"
     inkscape:window-height="1017"
     id="namedview525"
     showgrid="false"
     inkscape:zoom="1.5893067"
     inkscape:cx="168.71851"
     inkscape:cy="207.125"
     inkscape:window-x="1592"
     inkscape:window-y="-8"
     inkscape:window-maximized="1"
     inkscape:current-layer="svg523" />
  <!--Generated by the Batik Graphics2D SVG Generator-->
  <defs
     id="genericDefs">
    <defs
       id="defs1">
      <clipPath
         id="clipPath1"
         clipPathUnits="userSpaceOnUse">
        <path
           id="path3"
           d="M 0,0 H 560 V 420 H 0 Z"
           inkscape:connector-curvature="0" />
      </clipPath>
    </defs>
  </defs>
  <g
     id="g65"
     style="color-interpolation:linearRGB;fill:#1a1a1a;fill-opacity:0.25100002;stroke:#1a1a1a;stroke-width:0.66670001;stroke-linecap:butt;stroke-linejoin:bevel;stroke-miterlimit:1;stroke-dasharray:1, 3;stroke-opacity:0.25100002;color-rendering:optimizeQuality;image-rendering:optimizeQuality;text-rendering:geometricPrecision"
     transform="translate(-27.0781,-27.1562)">
    <line
       id="line17"
       y1="370"
       x2="87.466698"
       x1="87.466698"
       style="fill:none"
       y2="31" />
    <line
       id="line19"
       y1="370"
       x2="101.9333"
       x1="101.9333"
       style="fill:none"
       y2="31" />
    <line
       id="line21"
       y1="370"
       x2="116.4"
       x1="116.4"
       style="fill:none"
       y2="31" />
    <line
       id="line23"
       y1="370"
       x2="130.8667"
       x1="130.8667"
       style="fill:none"
       y2="31" />
    <line
       id="line25"
       y1="370"
       x2="159.8"
       x1="159.8"
       style="fill:none"
       y2="31" />
    <line
       id="line27"
       y1="370"
       x2="174.26669"
       x1="174.26669"
       style="fill:none"
       y2="31" />
    <line
       id="line29"
       y1="370"
       x2="188.73331"
       x1="188.73331"
       style="fill:none"
       y2="31" />
    <line
       id="line31"
       y1="370"
       x2="203.2"
       x1="203.2"
       style="fill:none"
       y2="31" />
    <line
       id="line33"
       y1="370"
       x2="232.1333"
       x1="232.1333"
       style="fill:none"
       y2="31" />
    <line
       id="line35"
       y1="370"
       x2="246.60001"
       x1="246.60001"
       style="fill:none"
       y2="31" />
    <line
       id="line37"
       y1="370"
       x2="261.06671"
       x1="261.06671"
       style="fill:none"
       y2="31" />
    <line
       id="line39"
       y1="370"
       x2="275.53329"
       x1="275.53329"
       style="fill:none"
       y2="31" />
    <line
       id="line41"
       y1="370"
       x2="304.46671"
       x1="304.46671"
       style="fill:none"
       y2="31" />
    <line
       id="line43"
       y1="370"
       x2="318.93329"
       x1="318.93329"
       style="fill:none"
       y2="31" />
    <line
       id="line45"
       y1="370"
       x2="333.39999"
       x1="333.39999"
       style="fill:none"
       y2="31" />
    <line
       id="line47"
       y1="370"
       x2="347.8667"
       x1="347.8667"
       style="fill:none"
       y2="31" />
    <line
       id="line49"
       y1="370"
       x2="376.79999"
       x1="376.79999"
       style="fill:none"
       y2="31" />
    <line
       id="line51"
       y1="370"
       x2="391.26669"
       x1="391.26669"
       style="fill:none"
       y2="31" />
    <line
       id="line53"
       y1="370"
       x2="405.73331"
       x1="405.73331"
       style="fill:none"
       y2="31" />
    <line
       id="line55"
       y1="370"
       x2="420.20001"
       x1="420.20001"
       style="fill:none"
       y2="31" />
    <line
       id="line57"
       y1="370"
       x2="449.1333"
       x1="449.1333"
       style="fill:none"
       y2="31" />
    <line
       id="line59"
       y1="370"
       x2="463.60001"
       x1="463.60001"
       style="fill:none"
       y2="31" />
    <line
       id="line61"
       y1="370"
       x2="478.06671"
       x1="478.06671"
       style="fill:none"
       y2="31" />
    <line
       id="line63"
       y1="370"
       x2="492.53329"
       x1="492.53329"
       style="fill:none"
       y2="31" />
  </g>
  <g
     id="g81"
     style="color-interpolation:linearRGB;fill:#262626;fill-opacity:0.14900004;stroke:#262626;stroke-width:0.66670001;stroke-linecap:butt;stroke-linejoin:round;stroke-opacity:0.14900004;color-rendering:optimizeQuality;image-rendering:optimizeQuality;text-rendering:geometricPrecision"
     transform="translate(-27.0781,-27.1562)">
    <line
       id="line67"
       y1="370"
       x2="73"
       x1="73"
       style="fill:none"
       y2="31" />
    <line
       id="line69"
       y1="370"
       x2="145.3333"
       x1="145.3333"
       style="fill:none"
       y2="31" />
    <line
       id="line71"
       y1="370"
       x2="217.6667"
       x1="217.6667"
       style="fill:none"
       y2="31" />
    <line
       id="line73"
       y1="370"
       x2="290"
       x1="290"
       style="fill:none"
       y2="31" />
    <line
       id="line75"
       y1="370"
       x2="362.33331"
       x1="362.33331"
       style="fill:none"
       y2="31" />
    <line
       id="line77"
       y1="370"
       x2="434.66669"
       x1="434.66669"
       style="fill:none"
       y2="31" />
    <line
       id="line79"
       y1="370"
       x2="507"
       x1="507"
       style="fill:none"
       y2="31" />
  </g>
  <g
     id="g119"
     style="color-interpolation:linearRGB;fill:#1a1a1a;fill-opacity:0.25100002;stroke:#1a1a1a;stroke-width:0.66670001;stroke-linecap:butt;stroke-linejoin:bevel;stroke-miterlimit:1;stroke-dasharray:1, 3;stroke-opacity:0.25100002;color-rendering:optimizeQuality;image-rendering:optimizeQuality;text-rendering:geometricPrecision"
     transform="translate(-27.0781,-27.1562)">
    <line
       id="line83"
       y1="355.875"
       x2="73"
       x1="507"
       style="fill:none"
       y2="355.875" />
    <line
       id="line85"
       y1="341.75"
       x2="73"
       x1="507"
       style="fill:none"
       y2="341.75" />
    <line
       id="line87"
       y1="327.625"
       x2="73"
       x1="507"
       style="fill:none"
       y2="327.625" />
    <line
       id="line89"
       y1="299.375"
       x2="73"
       x1="507"
       style="fill:none"
       y2="299.375" />
    <line
       id="line91"
       y1="285.25"
       x2="73"
       x1="507"
       style="fill:none"
       y2="285.25" />
    <line
       id="line93"
       y1="271.125"
       x2="73"
       x1="507"
       style="fill:none"
       y2="271.125" />
    <line
       id="line95"
       y1="242.875"
       x2="73"
       x1="507"
       style="fill:none"
       y2="242.875" />
    <line
       id="line97"
       y1="228.75"
       x2="73"
       x1="507"
       style="fill:none"
       y2="228.75" />
    <line
       id="line99"
       y1="214.625"
       x2="73"
       x1="507"
       style="fill:none"
       y2="214.625" />
    <line
       id="line101"
       y1="186.375"
       x2="73"
       x1="507"
       style="fill:none"
       y2="186.375" />
    <line
       id="line103"
       y1="172.25"
       x2="73"
       x1="507"
       style="fill:none"
       y2="172.25" />
    <line
       id="line105"
       y1="158.125"
       x2="73"
       x1="507"
       style="fill:none"
       y2="158.125" />
    <line
       id="line107"
       y1="129.875"
       x2="73"
       x1="507"
       style="fill:none"
       y2="129.875" />
    <line
       id="line109"
       y1="115.75"
       x2="73"
       x1="507"
       style="fill:none"
       y2="115.75" />
    <line
       id="line111"
       y1="101.625"
       x2="73"
       x1="507"
       style="fill:none"
       y2="101.625" />
    <line
       id="line113"
       y1="73.375"
       x2="73"
       x1="507"
       style="fill:none"
       y2="73.375" />
    <line
       id="line115"
       y1="59.25"
       x2="73"
       x1="507"
       style="fill:none"
       y2="59.25" />
    <line
       id="line117"
       y1="45.125"
       x2="73"
       x1="507"
       style="fill:none"
       y2="45.125" />
  </g>
  <g
     id="g167"
     style="color-interpolation:linearRGB;fill:#262626;fill-opacity:0.14900004;stroke:#262626;stroke-width:0.66670001;stroke-linecap:butt;stroke-linejoin:round;stroke-opacity:0.14900004;color-rendering:optimizeQuality;image-rendering:optimizeQuality;text-rendering:geometricPrecision"
     transform="translate(-27.0781,-27.1562)">
    <line
       id="line121"
       y1="370"
       x2="73"
       x1="507"
       style="fill:none"
       y2="370" />
    <line
       id="line123"
       y1="313.5"
       x2="73"
       x1="507"
       style="fill:none"
       y2="313.5" />
    <line
       id="line125"
       y1="257"
       x2="73"
       x1="507"
       style="fill:none"
       y2="257" />
    <line
       id="line127"
       y1="200.5"
       x2="73"
       x1="507"
       style="fill:none"
       y2="200.5" />
    <line
       id="line129"
       y1="144"
       x2="73"
       x1="507"
       style="fill:none"
       y2="144" />
    <line
       id="line131"
       y1="87.5"
       x2="73"
       x1="507"
       style="fill:none"
       y2="87.5" />
    <line
       id="line133"
       y1="31"
       x2="73"
       x1="507"
       style="fill:none"
       y2="31" />
    <line
       id="line135"
       y2="370"
       style="fill:none;fill-opacity:1;stroke-linecap:square;stroke-opacity:1"
       y1="370"
       x2="507"
       x1="73" />
    <line
       id="line137"
       y2="31"
       style="fill:none;fill-opacity:1;stroke-linecap:square;stroke-opacity:1"
       y1="31"
       x2="507"
       x1="73" />
    <line
       id="line139"
       y2="365.66"
       style="fill:none;fill-opacity:1;stroke-linecap:square;stroke-opacity:1"
       y1="370"
       x2="73"
       x1="73" />
    <line
       id="line141"
       y2="365.66"
       style="fill:none;fill-opacity:1;stroke-linecap:square;stroke-opacity:1"
       y1="370"
       x2="145.3333"
       x1="145.3333" />
    <line
       id="line143"
       y2="365.66"
       style="fill:none;fill-opacity:1;stroke-linecap:square;stroke-opacity:1"
       y1="370"
       x2="217.6667"
       x1="217.6667" />
    <line
       id="line145"
       y2="365.66"
       style="fill:none;fill-opacity:1;stroke-linecap:square;stroke-opacity:1"
       y1="370"
       x2="290"
       x1="290" />
    <line
       id="line147"
       y2="365.66"
       style="fill:none;fill-opacity:1;stroke-linecap:square;stroke-opacity:1"
       y1="370"
       x2="362.33331"
       x1="362.33331" />
    <line
       id="line149"
       y2="365.66"
       style="fill:none;fill-opacity:1;stroke-linecap:square;stroke-opacity:1"
       y1="370"
       x2="434.66669"
       x1="434.66669" />
    <line
       id="line151"
       y2="365.66"
       style="fill:none;fill-opacity:1;stroke-linecap:square;stroke-opacity:1"
       y1="370"
       x2="507"
       x1="507" />
    <line
       id="line153"
       y2="35.34"
       style="fill:none;fill-opacity:1;stroke-linecap:square;stroke-opacity:1"
       y1="31"
       x2="73"
       x1="73" />
    <line
       id="line155"
       y2="35.34"
       style="fill:none;fill-opacity:1;stroke-linecap:square;stroke-opacity:1"
       y1="31"
       x2="145.3333"
       x1="145.3333" />
    <line
       id="line157"
       y2="35.34"
       style="fill:none;fill-opacity:1;stroke-linecap:square;stroke-opacity:1"
       y1="31"
       x2="217.6667"
       x1="217.6667" />
    <line
       id="line159"
       y2="35.34"
       style="fill:none;fill-opacity:1;stroke-linecap:square;stroke-opacity:1"
       y1="31"
       x2="290"
       x1="290" />
    <line
       id="line161"
       y2="35.34"
       style="fill:none;fill-opacity:1;stroke-linecap:square;stroke-opacity:1"
       y1="31"
       x2="362.33331"
       x1="362.33331" />
    <line
       id="line163"
       y2="35.34"
       style="fill:none;fill-opacity:1;stroke-linecap:square;stroke-opacity:1"
       y1="31"
       x2="434.66669"
       x1="434.66669" />
    <line
       id="line165"
       y2="35.34"
       style="fill:none;fill-opacity:1;stroke-linecap:square;stroke-opacity:1"
       y1="31"
       x2="507"
       x1="507" />
  </g>
  <g
     id="g171"
     style="font-size:13px;font-family:SansSerif;color-interpolation:linearRGB;fill:#262626;stroke:#262626;color-rendering:optimizeQuality;image-rendering:optimizeQuality;text-rendering:geometricPrecision"
     transform="translate(45.9219,348.1771)">
    <path
       inkscape:connector-curvature="0"
       id="path169"
       d="m -13.0938,11.2031 v -1.1406 h 3.5157 v 1.1406 z m 4.4698,0.3438 1.1406,-0.1563 q 0.2031,0.9688 0.6719,1.3985 0.4687,0.4297 1.1562,0.4297 0.7969,0 1.3516,-0.5547 0.5547,-0.5547 0.5547,-1.3829 0,-0.7968 -0.5078,-1.3046 -0.5078,-0.5078 -1.3047,-0.5078 -0.3281,0 -0.8125,0.125 l 0.125,-1 q 0.125,0.0156 0.1875,0.0156 0.7344,0 1.3203,-0.3828 0.5859,-0.3828 0.5859,-1.1797 0,-0.625 -0.4297,-1.0391 -0.4296,-0.414 -1.1015,-0.414 -0.6719,0 -1.1094,0.4218 -0.4375,0.4219 -0.5781,1.25 L -8.5146,7.0625 q 0.2187,-1.1406 0.9609,-1.7734 0.7422,-0.6329 1.8359,-0.6329 0.7657,0 1.4063,0.3282 0.6406,0.3281 0.9844,0.8906 0.3437,0.5625 0.3437,1.2031 0,0.5938 -0.3281,1.0938 -0.3281,0.5 -0.9531,0.7812 0.8125,0.2031 1.2734,0.7969 0.4609,0.5938 0.4609,1.5 0,1.2188 -0.8906,2.0703 -0.8906,0.8516 -2.25,0.8516 -1.2187,0 -2.0312,-0.7344 -0.8125,-0.7344 -0.9219,-1.8906 z m 7.23,-2.1407 q 0,-1.6406 0.3359,-2.6484 0.3359,-1.0078 1.0078,-1.5547 0.6719,-0.5469 1.6875,-0.5469 0.75,0 1.3125,0.3047 0.5625,0.3047 0.9297,0.8672 0.3672,0.5625 0.5781,1.3828 0.211,0.8203 0.211,2.1953 0,1.6407 -0.336,2.6485 -0.3359,1.0078 -1.0078,1.5547 -0.6719,0.5468 -1.6875,0.5468 -1.3437,0 -2.125,-0.9687 Q -1.394,12.0312 -1.394,9.4062 Z m 1.1718,0 q 0,2.2969 0.5313,3.0547 0.5312,0.7579 1.3281,0.7579 0.7813,0 1.3203,-0.7579 0.5391,-0.7578 0.5391,-3.0547 0,-2.2968 -0.5391,-3.0468 -0.539,-0.75 -1.3359,-0.75 -0.7813,0 -1.2656,0.6562 -0.5782,0.8594 -0.5782,3.1406 z m 6.0581,0 q 0,-1.6406 0.336,-2.6484 Q 6.5078,5.75 7.1797,5.2031 7.8516,4.6562 8.8672,4.6562 q 0.75,0 1.3125,0.3047 0.5625,0.3047 0.9297,0.8672 0.3672,0.5625 0.5781,1.3828 0.2109,0.8203 0.2109,2.1953 0,1.6407 -0.3359,2.6485 -0.3359,1.0078 -1.0078,1.5547 -0.6719,0.5468 -1.6875,0.5468 -1.3438,0 -2.125,-0.9687 Q 5.8359,12.0312 5.8359,9.4062 Z m 1.1719,0 q 0,2.2969 0.5313,3.0547 0.5312,0.7579 1.3281,0.7579 0.7812,0 1.3203,-0.7579 0.5391,-0.7578 0.5391,-3.0547 0,-2.2968 -0.5391,-3.0468 -0.5391,-0.75 -1.3359,-0.75 -0.7813,0 -1.2657,0.6562 Q 7.0078,7.125 7.0078,9.4062 Z"
       style="stroke:none" />
  </g>
  <g
     id="g175"
     style="font-size:13px;font-family:SansSerif;color-interpolation:linearRGB;fill:#262626;stroke:#262626;color-rendering:optimizeQuality;image-rendering:optimizeQuality;text-rendering:geometricPrecision"
     transform="translate(118.2552,348.1771)">
    <path
       inkscape:connector-curvature="0"
       id="path173"
       d="m -13.0938,11.2031 v -1.1406 h 3.5157 v 1.1406 z M -2.624,12.9062 V 14 h -6.1563 q -0.0156,-0.4062 0.1407,-0.7969 0.2343,-0.625 0.75,-1.2343 0.5156,-0.6094 1.5,-1.4063 1.5156,-1.25 2.0468,-1.9766 0.5313,-0.7265 0.5313,-1.3671 0,-0.6876 -0.4844,-1.1485 -0.4844,-0.4609 -1.2656,-0.4609 -0.8281,0 -1.3203,0.4922 -0.4922,0.4922 -0.5078,1.3672 l -1.1719,-0.125 q 0.125,-1.3126 0.9062,-2 0.7813,-0.6876 2.1094,-0.6876 1.3438,0 2.125,0.7422 0.7813,0.7422 0.7813,1.836 0,0.5625 -0.2266,1.1015 -0.2266,0.5391 -0.7578,1.1407 -0.5313,0.6015 -1.7656,1.6328 -1.0313,0.8594 -1.3204,1.1718 -0.289,0.3126 -0.4765,0.625 z m 1.23,-3.5 q 0,-1.6406 0.3359,-2.6484 0.3359,-1.0078 1.0078,-1.5547 0.6719,-0.5469 1.6875,-0.5469 0.75,0 1.3125,0.3047 0.5625,0.3047 0.9297,0.8672 0.3672,0.5625 0.5781,1.3828 0.211,0.8203 0.211,2.1953 0,1.6407 -0.336,2.6485 -0.3359,1.0078 -1.0078,1.5547 -0.6719,0.5468 -1.6875,0.5468 -1.3437,0 -2.125,-0.9687 Q -1.394,12.0312 -1.394,9.4062 Z m 1.1718,0 q 0,2.2969 0.5313,3.0547 0.5312,0.7579 1.3281,0.7579 0.7813,0 1.3203,-0.7579 0.5391,-0.7578 0.5391,-3.0547 0,-2.2968 -0.5391,-3.0468 -0.539,-0.75 -1.3359,-0.75 -0.7813,0 -1.2656,0.6562 -0.5782,0.8594 -0.5782,3.1406 z m 6.0581,0 q 0,-1.6406 0.336,-2.6484 Q 6.5078,5.75 7.1797,5.2031 7.8516,4.6562 8.8672,4.6562 q 0.75,0 1.3125,0.3047 0.5625,0.3047 0.9297,0.8672 0.3672,0.5625 0.5781,1.3828 0.2109,0.8203 0.2109,2.1953 0,1.6407 -0.3359,2.6485 -0.3359,1.0078 -1.0078,1.5547 -0.6719,0.5468 -1.6875,0.5468 -1.3438,0 -2.125,-0.9687 Q 5.8359,12.0312 5.8359,9.4062 Z m 1.1719,0 q 0,2.2969 0.5313,3.0547 0.5312,0.7579 1.3281,0.7579 0.7812,0 1.3203,-0.7579 0.5391,-0.7578 0.5391,-3.0547 0,-2.2968 -0.5391,-3.0468 -0.5391,-0.75 -1.3359,-0.75 -0.7813,0 -1.2657,0.6562 Q 7.0078,7.125 7.0078,9.4062 Z"
       style="stroke:none" />
  </g>
  <g
     id="g179"
     style="font-size:13px;font-family:SansSerif;color-interpolation:linearRGB;fill:#262626;stroke:#262626;color-rendering:optimizeQuality;image-rendering:optimizeQuality;text-rendering:geometricPrecision"
     transform="translate(190.5886,348.1771)">
    <path
       inkscape:connector-curvature="0"
       id="path177"
       d="m -13.0938,11.2031 v -1.1406 h 3.5157 v 1.1406 z M -4.3271,14 H -5.4678 V 6.7188 q -0.4218,0.3906 -1.0859,0.789 -0.6641,0.3984 -1.1953,0.586 V 6.9844 q 0.9531,-0.4375 1.6719,-1.0782 0.7187,-0.6406 1.0156,-1.25 h 0.7344 z M -1.394,9.4062 q 0,-1.6406 0.3359,-2.6484 0.3359,-1.0078 1.0078,-1.5547 0.6719,-0.5469 1.6875,-0.5469 0.75,0 1.3125,0.3047 0.5625,0.3047 0.9297,0.8672 0.3672,0.5625 0.5781,1.3828 0.211,0.8203 0.211,2.1953 0,1.6407 -0.336,2.6485 -0.3359,1.0078 -1.0078,1.5547 -0.6719,0.5468 -1.6875,0.5468 -1.3437,0 -2.125,-0.9687 Q -1.394,12.0312 -1.394,9.4062 Z m 1.1718,0 q 0,2.2969 0.5313,3.0547 0.5312,0.7579 1.3281,0.7579 0.7813,0 1.3203,-0.7579 0.5391,-0.7578 0.5391,-3.0547 0,-2.2968 -0.5391,-3.0468 -0.539,-0.75 -1.3359,-0.75 -0.7813,0 -1.2656,0.6562 -0.5782,0.8594 -0.5782,3.1406 z m 6.0581,0 q 0,-1.6406 0.336,-2.6484 Q 6.5078,5.75 7.1797,5.2031 7.8516,4.6562 8.8672,4.6562 q 0.75,0 1.3125,0.3047 0.5625,0.3047 0.9297,0.8672 0.3672,0.5625 0.5781,1.3828 0.2109,0.8203 0.2109,2.1953 0,1.6407 -0.3359,2.6485 -0.3359,1.0078 -1.0078,1.5547 -0.6719,0.5468 -1.6875,0.5468 -1.3438,0 -2.125,-0.9687 Q 5.8359,12.0312 5.8359,9.4062 Z m 1.1719,0 q 0,2.2969 0.5313,3.0547 0.5312,0.7579 1.3281,0.7579 0.7812,0 1.3203,-0.7579 0.5391,-0.7578 0.5391,-3.0547 0,-2.2968 -0.5391,-3.0468 -0.5391,-0.75 -1.3359,-0.75 -0.7813,0 -1.2657,0.6562 Q 7.0078,7.125 7.0078,9.4062 Z"
       style="stroke:none" />
  </g>
  <g
     id="g183"
     style="font-size:13px;font-family:SansSerif;color-interpolation:linearRGB;fill:#262626;stroke:#262626;color-rendering:optimizeQuality;image-rendering:optimizeQuality;text-rendering:geometricPrecision"
     transform="translate(262.9219,348.1771)">
    <path
       inkscape:connector-curvature="0"
       id="path181"
       d="m -3.4531,9.4062 q 0,-1.6406 0.3359,-2.6484 0.336,-1.0078 1.0078,-1.5547 0.6719,-0.5469 1.6875,-0.5469 0.75,0 1.3125,0.3047 0.5625,0.3047 0.9297,0.8672 0.3672,0.5625 0.5781,1.3828 0.211,0.8203 0.211,2.1953 0,1.6407 -0.336,2.6485 -0.3359,1.0078 -1.0078,1.5547 -0.6718,0.5468 -1.6875,0.5468 -1.3437,0 -2.125,-0.9687 -0.9062,-1.1563 -0.9062,-3.7813 z m 1.1719,0 q 0,2.2969 0.5312,3.0547 0.5312,0.7579 1.3281,0.7579 0.7813,0 1.3203,-0.7579 0.5391,-0.7578 0.5391,-3.0547 0,-2.2968 -0.5391,-3.0468 -0.539,-0.75 -1.3359,-0.75 -0.7813,0 -1.2656,0.6562 -0.5781,0.8594 -0.5781,3.1406 z"
       style="stroke:none" />
  </g>
  <g
     id="g187"
     style="font-size:13px;font-family:SansSerif;color-interpolation:linearRGB;fill:#262626;stroke:#262626;color-rendering:optimizeQuality;image-rendering:optimizeQuality;text-rendering:geometricPrecision"
     transform="translate(335.2552,348.1771)">
    <path
       inkscape:connector-curvature="0"
       id="path185"
       d="M -6.1562,14 H -7.2969 V 6.7188 q -0.4219,0.3906 -1.0859,0.789 -0.6641,0.3984 -1.1953,0.586 V 6.9844 q 0.9531,-0.4375 1.6719,-1.0782 0.7187,-0.6406 1.0156,-1.25 h 0.7344 z m 2.9331,-4.5938 q 0,-1.6406 0.3359,-2.6484 0.3359,-1.0078 1.0078,-1.5547 0.6719,-0.5469 1.6875,-0.5469 0.75,0 1.3125,0.3047 0.5625,0.3047 0.9297,0.8672 0.3672,0.5625 0.5781,1.3828 0.211,0.8203 0.211,2.1953 0,1.6407 -0.336,2.6485 -0.3359,1.0078 -1.0078,1.5547 -0.6719,0.5468 -1.6875,0.5468 -1.3437,0 -2.125,-0.9687 -0.9062,-1.1563 -0.9062,-3.7813 z m 1.1718,0 q 0,2.2969 0.5313,3.0547 0.5312,0.7579 1.3281,0.7579 0.7813,0 1.3203,-0.7579 0.5391,-0.7578 0.5391,-3.0547 0,-2.2968 -0.5391,-3.0468 -0.539,-0.75 -1.3359,-0.75 -0.7813,0 -1.2656,0.6562 -0.5782,0.8594 -0.5782,3.1406 z m 6.0581,0 q 0,-1.6406 0.336,-2.6484 Q 4.6787,5.75 5.3506,5.2031 6.0225,4.6562 7.0381,4.6562 q 0.75,0 1.3125,0.3047 0.5625,0.3047 0.9297,0.8672 0.3672,0.5625 0.5781,1.3828 0.2109,0.8203 0.2109,2.1953 0,1.6407 -0.3359,2.6485 -0.3359,1.0078 -1.0078,1.5547 -0.6719,0.5468 -1.6875,0.5468 -1.3438,0 -2.125,-0.9687 Q 4.0068,12.0312 4.0068,9.4062 Z m 1.1719,0 q 0,2.2969 0.5313,3.0547 0.5312,0.7579 1.3281,0.7579 0.7812,0 1.3203,-0.7579 0.5391,-0.7578 0.5391,-3.0547 0,-2.2968 -0.5391,-3.0468 -0.5391,-0.75 -1.3359,-0.75 -0.7813,0 -1.2657,0.6562 Q 5.1787,7.125 5.1787,9.4062 Z"
       style="stroke:none" />
  </g>
  <g
     id="g191"
     style="font-size:13px;font-family:SansSerif;color-interpolation:linearRGB;fill:#262626;stroke:#262626;color-rendering:optimizeQuality;image-rendering:optimizeQuality;text-rendering:geometricPrecision"
     transform="translate(407.5886,348.1771)">
    <path
       inkscape:connector-curvature="0"
       id="path189"
       d="M -4.4531,12.9062 V 14 h -6.1563 q -0.0156,-0.4062 0.1406,-0.7969 0.2344,-0.625 0.75,-1.2343 0.5157,-0.6094 1.5,-1.4063 1.5157,-1.25 2.0469,-1.9766 0.5313,-0.7265 0.5313,-1.3671 0,-0.6876 -0.4844,-1.1485 -0.4844,-0.4609 -1.2656,-0.4609 -0.8282,0 -1.3203,0.4922 -0.4922,0.4922 -0.5079,1.3672 l -1.1718,-0.125 q 0.125,-1.3126 0.9062,-2 0.7813,-0.6876 2.1094,-0.6876 1.3438,0 2.125,0.7422 0.7812,0.7422 0.7812,1.836 0,0.5625 -0.2265,1.1015 -0.2266,0.5391 -0.7578,1.1407 -0.5313,0.6015 -1.7657,1.6328 -1.0312,0.8594 -1.3203,1.1718 -0.289,0.3126 -0.4765,0.625 z m 1.23,-3.5 q 0,-1.6406 0.3359,-2.6484 0.3359,-1.0078 1.0078,-1.5547 0.6719,-0.5469 1.6875,-0.5469 0.75,0 1.3125,0.3047 0.5625,0.3047 0.9297,0.8672 0.3672,0.5625 0.5781,1.3828 0.211,0.8203 0.211,2.1953 0,1.6407 -0.336,2.6485 -0.3359,1.0078 -1.0078,1.5547 -0.6719,0.5468 -1.6875,0.5468 -1.3437,0 -2.125,-0.9687 -0.9062,-1.1563 -0.9062,-3.7813 z m 1.1718,0 q 0,2.2969 0.5313,3.0547 0.5312,0.7579 1.3281,0.7579 0.7813,0 1.3203,-0.7579 0.5391,-0.7578 0.5391,-3.0547 0,-2.2968 -0.5391,-3.0468 -0.539,-0.75 -1.3359,-0.75 -0.7813,0 -1.2656,0.6562 -0.5782,0.8594 -0.5782,3.1406 z m 6.0581,0 q 0,-1.6406 0.336,-2.6484 Q 4.6787,5.75 5.3506,5.2031 6.0225,4.6562 7.0381,4.6562 q 0.75,0 1.3125,0.3047 0.5625,0.3047 0.9297,0.8672 0.3672,0.5625 0.5781,1.3828 0.2109,0.8203 0.2109,2.1953 0,1.6407 -0.3359,2.6485 -0.3359,1.0078 -1.0078,1.5547 -0.6719,0.5468 -1.6875,0.5468 -1.3438,0 -2.125,-0.9687 Q 4.0068,12.0312 4.0068,9.4062 Z m 1.1719,0 q 0,2.2969 0.5313,3.0547 0.5312,0.7579 1.3281,0.7579 0.7812,0 1.3203,-0.7579 0.5391,-0.7578 0.5391,-3.0547 0,-2.2968 -0.5391,-3.0468 -0.5391,-0.75 -1.3359,-0.75 -0.7813,0 -1.2657,0.6562 Q 5.1787,7.125 5.1787,9.4062 Z"
       style="stroke:none" />
  </g>
  <g
     id="g195"
     style="font-size:13px;font-family:SansSerif;color-interpolation:linearRGB;fill:#262626;stroke:#262626;color-rendering:optimizeQuality;image-rendering:optimizeQuality;text-rendering:geometricPrecision"
     transform="translate(479.9219,348.1771)">
    <path
       inkscape:connector-curvature="0"
       id="path193"
       d="m -10.4531,11.5469 1.1406,-0.1563 q 0.2031,0.9688 0.6719,1.3985 0.4687,0.4297 1.1562,0.4297 0.7969,0 1.3516,-0.5547 0.5547,-0.5547 0.5547,-1.3829 0,-0.7968 -0.5078,-1.3046 -0.5079,-0.5078 -1.3047,-0.5078 -0.3282,0 -0.8125,0.125 l 0.125,-1 q 0.125,0.0156 0.1875,0.0156 0.7344,0 1.3203,-0.3828 0.5859,-0.3828 0.5859,-1.1797 0,-0.625 -0.4297,-1.0391 -0.4297,-0.414 -1.1015,-0.414 -0.6719,0 -1.1094,0.4218 -0.4375,0.4219 -0.5781,1.25 l -1.1407,-0.2031 q 0.2188,-1.1406 0.961,-1.7734 0.7422,-0.6329 1.8359,-0.6329 0.7657,0 1.4063,0.3282 0.6406,0.3281 0.9844,0.8906 0.3437,0.5625 0.3437,1.2031 0,0.5938 -0.3281,1.0938 -0.3282,0.5 -0.9532,0.7812 0.8126,0.2031 1.2735,0.7969 0.4609,0.5938 0.4609,1.5 0,1.2188 -0.8906,2.0703 -0.8906,0.8516 -2.25,0.8516 -1.2188,0 -2.0312,-0.7344 -0.8126,-0.7344 -0.9219,-1.8906 z m 7.23,-2.1407 q 0,-1.6406 0.3359,-2.6484 0.3359,-1.0078 1.0078,-1.5547 0.6719,-0.5469 1.6875,-0.5469 0.75,0 1.3125,0.3047 0.5625,0.3047 0.9297,0.8672 0.3672,0.5625 0.5781,1.3828 0.211,0.8203 0.211,2.1953 0,1.6407 -0.336,2.6485 -0.3359,1.0078 -1.0078,1.5547 -0.6719,0.5468 -1.6875,0.5468 -1.3437,0 -2.125,-0.9687 -0.9062,-1.1563 -0.9062,-3.7813 z m 1.1718,0 q 0,2.2969 0.5313,3.0547 0.5312,0.7579 1.3281,0.7579 0.7813,0 1.3203,-0.7579 0.5391,-0.7578 0.5391,-3.0547 0,-2.2968 -0.5391,-3.0468 -0.539,-0.75 -1.3359,-0.75 -0.7813,0 -1.2656,0.6562 -0.5782,0.8594 -0.5782,3.1406 z m 6.0581,0 q 0,-1.6406 0.336,-2.6484 Q 4.6787,5.75 5.3506,5.2031 6.0225,4.6562 7.0381,4.6562 q 0.75,0 1.3125,0.3047 0.5625,0.3047 0.9297,0.8672 0.3672,0.5625 0.5781,1.3828 0.2109,0.8203 0.2109,2.1953 0,1.6407 -0.3359,2.6485 -0.3359,1.0078 -1.0078,1.5547 -0.6719,0.5468 -1.6875,0.5468 -1.3438,0 -2.125,-0.9687 Q 4.0068,12.0312 4.0068,9.4062 Z m 1.1719,0 q 0,2.2969 0.5313,3.0547 0.5312,0.7579 1.3281,0.7579 0.7812,0 1.3203,-0.7579 0.5391,-0.7578 0.5391,-3.0547 0,-2.2968 -0.5391,-3.0468 -0.5391,-0.75 -1.3359,-0.75 -0.7813,0 -1.2657,0.6562 Q 5.1787,7.125 5.1787,9.4062 Z"
       style="stroke:none" />
  </g>
  <g
     id="g199"
     style="font-size:15px;font-family:SansSerif;color-interpolation:linearRGB;fill:#262626;stroke:#262626;color-rendering:optimizeQuality;image-rendering:optimizeQuality;text-rendering:geometricPrecision"
     transform="translate(229.9219,382.8438)">
    <path
       inkscape:connector-curvature="0"
       id="path197"
       d="M 4.2188,0 0.0625,-10.7344 h 1.5469 l 2.7812,7.7969 Q 4.7344,-2 4.9531,-1.1719 q 0.25,-0.8906 0.5781,-1.7656 l 2.9063,-7.7969 H 9.8906 L 5.6875,0 Z"
       style="stroke:none" />
  </g>
  <g
     id="g203"
     style="font-size:11px;font-family:SansSerif;color-interpolation:linearRGB;fill:#262626;stroke:#262626;color-rendering:optimizeQuality;image-rendering:optimizeQuality;text-rendering:geometricPrecision"
     transform="translate(240.9219,389.8438)">
    <path
       inkscape:connector-curvature="0"
       id="path201"
       d="M 4.4219,0 V -0.7188 Q 3.8906,0.125 2.8281,0.125 2.1562,0.125 1.5781,-0.25 1,-0.625 0.6875,-1.2969 0.375,-1.9688 0.375,-2.8438 q 0,-0.8593 0.2891,-1.5546 0.289,-0.6954 0.8515,-1.0625 0.5625,-0.3672 1.2656,-0.3672 0.5157,0 0.9219,0.2187 0.4063,0.2188 0.6563,0.5625 V -7.875 H 5.3281 V 0 Z M 1.375,-2.8438 q 0,1.0938 0.4609,1.6329 0.461,0.539 1.086,0.539 0.6406,0 1.0781,-0.5156 0.4375,-0.5156 0.4375,-1.5781 0,-1.1719 -0.4453,-1.7188 -0.4453,-0.5468 -1.1172,-0.5468 -0.6406,0 -1.0703,0.5234 -0.4297,0.5234 -0.4297,1.664 z m 9.1958,0.75 0.9375,0.125 q -0.1406,0.9844 -0.7891,1.5391 -0.6484,0.5547 -1.5703,0.5547 -1.1718,0 -1.8828,-0.7656 -0.7109,-0.7656 -0.7109,-2.1875 0,-0.9219 0.3047,-1.6172 0.3047,-0.6953 0.9297,-1.0391 0.625,-0.3437 1.3593,-0.3437 0.9219,0 1.5157,0.4687 0.5937,0.4688 0.7656,1.3282 l -0.9531,0.1406 q -0.125,-0.5625 -0.4688,-0.8516 -0.3437,-0.289 -0.8281,-0.289 -0.7188,0 -1.1797,0.5234 -0.4609,0.5234 -0.4609,1.6484 0,1.1563 0.4375,1.6719 0.4375,0.5156 1.1562,0.5156 0.5625,0 0.9453,-0.3437 0.3828,-0.3438 0.4922,-1.0782 z"
       style="stroke:none" />
  </g>
  <g
     id="g207"
     style="font-size:15px;font-family:SansSerif;color-interpolation:linearRGB;fill:#262626;stroke:#262626;color-rendering:optimizeQuality;image-rendering:optimizeQuality;text-rendering:geometricPrecision"
     transform="translate(252.9219,382.8438)">
    <path
       inkscape:connector-curvature="0"
       id="path205"
       d="m 5.1675,-9.2188 v -1.5156 H 6.48 v 1.5156 z M 5.1675,0 V -7.7812 H 6.48 V 0 Z m 3.3169,0 v -7.7812 h 1.1875 v 1.1093 q 0.8593,-1.2812 2.4843,-1.2812 0.7032,0 1.2891,0.25 0.5859,0.25 0.8828,0.664 0.2969,0.4141 0.4063,0.9766 0.0781,0.3594 0.0781,1.2813 V 0 h -1.3281 v -4.7344 q 0,-0.7968 -0.1485,-1.1953 -0.1484,-0.3984 -0.539,-0.6406 -0.3907,-0.2422 -0.9219,-0.2422 -0.8438,0 -1.4531,0.5313 Q 9.8125,-5.75 9.8125,-4.25 V 0 Z"
       style="stroke:none" />
  </g>
  <g
     id="g211"
     style="font-size:15px;font-family:mwb_cmmi10;color-interpolation:linearRGB;fill:#262626;stroke:#262626;color-rendering:optimizeQuality;image-rendering:optimizeQuality;text-rendering:geometricPrecision"
     transform="translate(273.9219,382.8438)">
    <path
       inkscape:connector-curvature="0"
       id="path209"
       d="m 0.4219,2.8125 q 0,-0.0781 0.0156,-0.1094 l 2.2031,-8.8593 q 0.0625,-0.2032 0.2344,-0.336 0.1719,-0.1328 0.3906,-0.1328 0.1875,0 0.3203,0.1094 0.1329,0.1094 0.1329,0.2968 0,0.0469 0,0.0782 0,0.0312 -0.0157,0.0468 l -0.8906,3.5157 q -0.1406,0.625 -0.1406,1.0781 0,0.5625 0.2656,0.9141 0.2656,0.3515 0.7969,0.3515 1.0937,0 1.9218,-1.3594 0,-0.0156 0.0079,-0.0234 0.0078,-0.0078 0.0078,-0.0234 L 6.75,-5.9844 q 0.0469,-0.2031 0.2344,-0.3437 0.1875,-0.1407 0.4062,-0.1407 0.1719,0 0.3047,0.1172 0.1328,0.1172 0.1328,0.3047 0,0.0938 -0.0156,0.125 L 6.7344,-1.6094 Q 6.625,-1.1719 6.625,-0.875 q 0,0.6406 0.4375,0.6406 0.4687,0 0.7109,-0.5781 0.2422,-0.5781 0.4141,-1.3906 0.0313,-0.0938 0.125,-0.0938 h 0.1719 q 0.0625,0 0.1015,0.0469 0.0391,0.0469 0.0391,0.1094 -0.2656,1.0468 -0.5781,1.6797 -0.3125,0.6328 -1.0157,0.6328 -0.4843,0 -0.875,-0.2891 -0.3906,-0.289 -0.5,-0.7734 -0.375,0.4687 -0.875,0.7656 -0.5,0.2969 -1.0624,0.2969 -0.9376,0 -1.4688,-0.4375 L 1.4844,2.7656 Q 1.4375,2.9688 1.2656,3.1016 1.0938,3.2344 0.875,3.2344 0.6875,3.2344 0.5547,3.125 0.4219,3.0156 0.4219,2.8125 Z"
       style="stroke:none" />
  </g>
  <g
     id="g215"
     style="font-size:15px;font-family:SansSerif;color-interpolation:linearRGB;fill:#262626;stroke:#262626;color-rendering:optimizeQuality;image-rendering:optimizeQuality;text-rendering:geometricPrecision"
     transform="translate(283.9219,382.8438)">
    <path
       inkscape:connector-curvature="0"
       id="path213"
       d="M 4.2188,0 0.0625,-10.7344 h 1.5469 l 2.7812,7.7969 Q 4.7344,-2 4.9531,-1.1719 q 0.25,-0.8906 0.5781,-1.7656 l 2.9063,-7.7969 H 9.8906 L 5.6875,0 Z"
       style="stroke:none" />
  </g>
  <g
     id="g249"
     style="color-interpolation:linearRGB;fill:#262626;stroke:#262626;stroke-width:0.66670001;stroke-linejoin:round;color-rendering:optimizeQuality;image-rendering:optimizeQuality;text-rendering:geometricPrecision"
     transform="translate(-27.0781,-27.1562)">
    <line
       id="line217"
       y1="370"
       x2="73"
       x1="73"
       style="fill:none"
       y2="31" />
    <line
       id="line219"
       y1="370"
       x2="507"
       x1="507"
       style="fill:none"
       y2="31" />
    <line
       id="line221"
       y1="370"
       x2="77.339996"
       x1="73"
       style="fill:none"
       y2="370" />
    <line
       id="line223"
       y1="313.5"
       x2="77.339996"
       x1="73"
       style="fill:none"
       y2="313.5" />
    <line
       id="line225"
       y1="257"
       x2="77.339996"
       x1="73"
       style="fill:none"
       y2="257" />
    <line
       id="line227"
       y1="200.5"
       x2="77.339996"
       x1="73"
       style="fill:none"
       y2="200.5" />
    <line
       id="line229"
       y1="144"
       x2="77.339996"
       x1="73"
       style="fill:none"
       y2="144" />
    <line
       id="line231"
       y1="87.5"
       x2="77.339996"
       x1="73"
       style="fill:none"
       y2="87.5" />
    <line
       id="line233"
       y1="31"
       x2="77.339996"
       x1="73"
       style="fill:none"
       y2="31" />
    <line
       id="line235"
       y1="370"
       x2="502.66"
       x1="507"
       style="fill:none"
       y2="370" />
    <line
       id="line237"
       y1="313.5"
       x2="502.66"
       x1="507"
       style="fill:none"
       y2="313.5" />
    <line
       id="line239"
       y1="257"
       x2="502.66"
       x1="507"
       style="fill:none"
       y2="257" />
    <line
       id="line241"
       y1="200.5"
       x2="502.66"
       x1="507"
       style="fill:none"
       y2="200.5" />
    <line
       id="line243"
       y1="144"
       x2="502.66"
       x1="507"
       style="fill:none"
       y2="144" />
    <line
       id="line245"
       y1="87.5"
       x2="502.66"
       x1="507"
       style="fill:none"
       y2="87.5" />
    <line
       id="line247"
       y1="31"
       x2="502.66"
       x1="507"
       style="fill:none"
       y2="31" />
  </g>
  <g
     id="g253"
     style="font-size:13px;font-family:SansSerif;color-interpolation:linearRGB;fill:#262626;stroke:#262626;color-rendering:optimizeQuality;image-rendering:optimizeQuality;text-rendering:geometricPrecision"
     transform="translate(40.5886,342.8438)">
    <path
       inkscape:connector-curvature="0"
       id="path251"
       d="M -18.5938,2.7031 V 1.5625 h 3.5157 v 1.1406 z m 4.4698,0.3594 1.1875,-0.1094 q 0.1406,0.8907 0.625,1.3281 0.4844,0.4376 1.1719,0.4376 0.8281,0 1.3984,-0.625 0.5703,-0.625 0.5703,-1.6407 0,-0.9843 -0.5469,-1.5469 -0.5468,-0.5624 -1.4375,-0.5624 -0.5625,0 -1.0078,0.25 -0.4453,0.25 -0.6953,0.6406 l -1.0625,-0.1406 0.8906,-4.7657 h 4.625 v 1.0781 h -3.7031 l -0.5,2.5 q 0.8281,-0.5781 1.75,-0.5781 1.2188,0 2.0547,0.8438 0.8359,0.8437 0.8359,2.1719 0,1.2656 -0.7343,2.1874 -0.8907,1.125 -2.4375,1.125 -1.2657,0 -2.0704,-0.7109 -0.8046,-0.7109 -0.914,-1.8828 z m 7.23,-2.1563 q 0,-1.6406 0.3359,-2.6484 0.3359,-1.0078 1.0078,-1.5547 0.6719,-0.5469 1.6875,-0.5469 0.75,0 1.3125,0.3047 0.5625,0.3047 0.9297,0.8672 0.3672,0.5625 0.5781,1.3828 0.211,0.8203 0.211,2.1953 0,1.6407 -0.336,2.6485 -0.3359,1.0078 -1.0078,1.5547 -0.6719,0.5468 -1.6875,0.5468 -1.3437,0 -2.125,-0.9687 Q -6.894,3.5312 -6.894,0.9062 Z m 1.1718,0 q 0,2.2969 0.5313,3.0547 0.5312,0.7579 1.3281,0.7579 0.7813,0 1.3203,-0.7579 0.5391,-0.7578 0.5391,-3.0547 0,-2.2968 -0.5391,-3.0468 -0.539,-0.75 -1.3359,-0.75 -0.7813,0 -1.2656,0.6562 -0.5782,0.8594 -0.5782,3.1406 z"
       style="stroke:none" />
  </g>
  <g
     id="g257"
     style="font-size:13px;font-family:SansSerif;color-interpolation:linearRGB;fill:#262626;stroke:#262626;color-rendering:optimizeQuality;image-rendering:optimizeQuality;text-rendering:geometricPrecision"
     transform="translate(40.5886,286.3438)">
    <path
       inkscape:connector-curvature="0"
       id="path255"
       d="m -7.4531,0.9062 q 0,-1.6406 0.3359,-2.6484 0.336,-1.0078 1.0078,-1.5547 0.6719,-0.5469 1.6875,-0.5469 0.75,0 1.3125,0.3047 0.5625,0.3047 0.9297,0.8672 0.3672,0.5625 0.5781,1.3828 0.211,0.8203 0.211,2.1953 0,1.6407 -0.336,2.6485 -0.3359,1.0078 -1.0078,1.5547 -0.6718,0.5468 -1.6875,0.5468 -1.3437,0 -2.125,-0.9687 -0.9062,-1.1563 -0.9062,-3.7813 z m 1.1719,0 q 0,2.2969 0.5312,3.0547 0.5312,0.7579 1.3281,0.7579 0.7813,0 1.3203,-0.7579 0.5391,-0.7578 0.5391,-3.0547 0,-2.2968 -0.5391,-3.0468 -0.539,-0.75 -1.3359,-0.75 -0.7813,0 -1.2656,0.6562 -0.5781,0.8594 -0.5781,3.1406 z"
       style="stroke:none" />
  </g>
  <g
     id="g261"
     style="font-size:13px;font-family:SansSerif;color-interpolation:linearRGB;fill:#262626;stroke:#262626;color-rendering:optimizeQuality;image-rendering:optimizeQuality;text-rendering:geometricPrecision"
     transform="translate(40.5886,229.8438)">
    <path
       inkscape:connector-curvature="0"
       id="path259"
       d="m -14.4531,3.0625 1.1875,-0.1094 q 0.1406,0.8907 0.625,1.3281 0.4844,0.4376 1.1718,0.4376 0.8282,0 1.3985,-0.625 Q -9.5,3.4688 -9.5,2.4531 q 0,-0.9843 -0.5469,-1.5469 -0.5469,-0.5624 -1.4375,-0.5624 -0.5625,0 -1.0078,0.25 -0.4453,0.25 -0.6953,0.6406 l -1.0625,-0.1406 0.8906,-4.7657 h 4.625 v 1.0781 h -3.7031 l -0.5,2.5 q 0.8281,-0.5781 1.75,-0.5781 1.2187,0 2.0547,0.8438 0.8359,0.8437 0.8359,2.1719 0,1.2656 -0.7343,2.1874 -0.8907,1.125 -2.4376,1.125 -1.2656,0 -2.0703,-0.7109 -0.8047,-0.7109 -0.914,-1.8828 z m 7.23,-2.1563 q 0,-1.6406 0.3359,-2.6484 0.3359,-1.0078 1.0078,-1.5547 0.6719,-0.5469 1.6875,-0.5469 0.75,0 1.3125,0.3047 0.5625,0.3047 0.9297,0.8672 0.3672,0.5625 0.5781,1.3828 0.211,0.8203 0.211,2.1953 0,1.6407 -0.336,2.6485 -0.3359,1.0078 -1.0078,1.5547 -0.6719,0.5468 -1.6875,0.5468 -1.3437,0 -2.125,-0.9687 -0.9062,-1.1563 -0.9062,-3.7813 z m 1.1718,0 q 0,2.2969 0.5313,3.0547 0.5312,0.7579 1.3281,0.7579 0.7813,0 1.3203,-0.7579 0.5391,-0.7578 0.5391,-3.0547 0,-2.2968 -0.5391,-3.0468 -0.539,-0.75 -1.3359,-0.75 -0.7813,0 -1.2656,0.6562 -0.5782,0.8594 -0.5782,3.1406 z"
       style="stroke:none" />
  </g>
  <g
     id="g265"
     style="font-size:13px;font-family:SansSerif;color-interpolation:linearRGB;fill:#262626;stroke:#262626;color-rendering:optimizeQuality;image-rendering:optimizeQuality;text-rendering:geometricPrecision"
     transform="translate(40.5886,173.3438)">
    <path
       inkscape:connector-curvature="0"
       id="path263"
       d="m -17.1562,5.5 h -1.1407 v -7.2812 q -0.4219,0.3906 -1.0859,0.789 -0.6641,0.3984 -1.1953,0.586 v -1.1094 q 0.9531,-0.4375 1.6719,-1.0782 0.7187,-0.6406 1.0156,-1.25 h 0.7344 z m 2.9331,-4.5938 q 0,-1.6406 0.3359,-2.6484 0.3359,-1.0078 1.0078,-1.5547 0.6719,-0.5469 1.6875,-0.5469 0.75,0 1.3125,0.3047 0.5625,0.3047 0.9297,0.8672 0.3672,0.5625 0.5781,1.3828 0.211,0.8203 0.211,2.1953 0,1.6407 -0.336,2.6485 -0.3359,1.0078 -1.0078,1.5547 -0.6719,0.5468 -1.6875,0.5468 -1.3437,0 -2.125,-0.9687 -0.9062,-1.1563 -0.9062,-3.7813 z m 1.1718,0 q 0,2.2969 0.5313,3.0547 0.5312,0.7579 1.3281,0.7579 0.7813,0 1.3203,-0.7579 0.5391,-0.7578 0.5391,-3.0547 0,-2.2968 -0.5391,-3.0468 -0.539,-0.75 -1.3359,-0.75 -0.7813,0 -1.2656,0.6562 -0.5782,0.8594 -0.5782,3.1406 z m 6.0581,0 q 0,-1.6406 0.336,-2.6484 0.3359,-1.0078 1.0078,-1.5547 0.6719,-0.5469 1.6875,-0.5469 0.75,0 1.3125,0.3047 0.5625,0.3047 0.9297,0.8672 0.3672,0.5625 0.5781,1.3828 0.2109,0.8203 0.2109,2.1953 0,1.6407 -0.3359,2.6485 -0.3359,1.0078 -1.0078,1.5547 -0.6719,0.5468 -1.6875,0.5468 -1.3438,0 -2.125,-0.9687 -0.9063,-1.1563 -0.9063,-3.7813 z m 1.1719,0 q 0,2.2969 0.5313,3.0547 0.5312,0.7579 1.3281,0.7579 0.7812,0 1.3203,-0.7579 0.5391,-0.7578 0.5391,-3.0547 0,-2.2968 -0.5391,-3.0468 -0.5391,-0.75 -1.3359,-0.75 -0.7813,0 -1.2657,0.6562 -0.5781,0.8594 -0.5781,3.1406 z"
       style="stroke:none" />
  </g>
  <g
     id="g269"
     style="font-size:13px;font-family:SansSerif;color-interpolation:linearRGB;fill:#262626;stroke:#262626;color-rendering:optimizeQuality;image-rendering:optimizeQuality;text-rendering:geometricPrecision"
     transform="translate(40.5886,116.8438)">
    <path
       inkscape:connector-curvature="0"
       id="path267"
       d="m -17.1562,5.5 h -1.1407 v -7.2812 q -0.4219,0.3906 -1.0859,0.789 -0.6641,0.3984 -1.1953,0.586 v -1.1094 q 0.9531,-0.4375 1.6719,-1.0782 0.7187,-0.6406 1.0156,-1.25 h 0.7344 z m 2.9331,-2.4375 1.1875,-0.1094 q 0.1406,0.8907 0.625,1.3281 0.4843,0.4376 1.1718,0.4376 0.8282,0 1.3985,-0.625 0.5703,-0.625 0.5703,-1.6407 0,-0.9843 -0.5469,-1.5469 -0.5469,-0.5624 -1.4375,-0.5624 -0.5625,0 -1.0078,0.25 -0.4453,0.25 -0.6953,0.6406 l -1.0625,-0.1406 0.8906,-4.7657 h 4.625 v 1.0781 h -3.7031 l -0.5,2.5 q 0.8281,-0.5781 1.75,-0.5781 1.2187,0 2.0547,0.8438 0.8359,0.8437 0.8359,2.1719 0,1.2656 -0.7344,2.1874 -0.8906,1.125 -2.4375,1.125 -1.2656,0 -2.0703,-0.7109 -0.8047,-0.7109 -0.914,-1.8828 z m 7.2299,-2.1563 q 0,-1.6406 0.336,-2.6484 0.3359,-1.0078 1.0078,-1.5547 0.6719,-0.5469 1.6875,-0.5469 0.75,0 1.3125,0.3047 0.5625,0.3047 0.9297,0.8672 0.3672,0.5625 0.5781,1.3828 0.2109,0.8203 0.2109,2.1953 0,1.6407 -0.3359,2.6485 -0.3359,1.0078 -1.0078,1.5547 -0.6719,0.5468 -1.6875,0.5468 -1.3438,0 -2.125,-0.9687 -0.9063,-1.1563 -0.9063,-3.7813 z m 1.1719,0 q 0,2.2969 0.5313,3.0547 0.5312,0.7579 1.3281,0.7579 0.7812,0 1.3203,-0.7579 0.5391,-0.7578 0.5391,-3.0547 0,-2.2968 -0.5391,-3.0468 -0.5391,-0.75 -1.3359,-0.75 -0.7813,0 -1.2657,0.6562 -0.5781,0.8594 -0.5781,3.1406 z"
       style="stroke:none" />
  </g>
  <g
     id="g273"
     style="font-size:13px;font-family:SansSerif;color-interpolation:linearRGB;fill:#262626;stroke:#262626;color-rendering:optimizeQuality;image-rendering:optimizeQuality;text-rendering:geometricPrecision"
     transform="translate(40.5886,60.3438)">
    <path
       inkscape:connector-curvature="0"
       id="path271"
       d="M -15.4531,4.4062 V 5.5 h -6.1563 q -0.0156,-0.4062 0.1406,-0.7969 0.2344,-0.625 0.75,-1.2343 0.5157,-0.6094 1.5,-1.4063 1.5157,-1.25 2.0469,-1.9766 0.5313,-0.7265 0.5313,-1.3671 0,-0.6876 -0.4844,-1.1485 -0.4844,-0.4609 -1.2656,-0.4609 -0.8282,0 -1.3203,0.4922 -0.4922,0.4922 -0.5079,1.3672 l -1.1718,-0.125 q 0.125,-1.3126 0.9062,-2 0.7813,-0.6876 2.1094,-0.6876 1.3438,0 2.125,0.7422 0.7812,0.7422 0.7812,1.836 0,0.5625 -0.2265,1.1015 -0.2266,0.5391 -0.7578,1.1407 -0.5313,0.6015 -1.7657,1.6328 -1.0312,0.8594 -1.3203,1.1718 -0.289,0.3126 -0.4765,0.625 z m 1.23,-3.5 q 0,-1.6406 0.3359,-2.6484 0.3359,-1.0078 1.0078,-1.5547 0.6719,-0.5469 1.6875,-0.5469 0.75,0 1.3125,0.3047 0.5625,0.3047 0.9297,0.8672 0.3672,0.5625 0.5781,1.3828 0.211,0.8203 0.211,2.1953 0,1.6407 -0.336,2.6485 -0.3359,1.0078 -1.0078,1.5547 -0.6719,0.5468 -1.6875,0.5468 -1.3437,0 -2.125,-0.9687 -0.9062,-1.1563 -0.9062,-3.7813 z m 1.1718,0 q 0,2.2969 0.5313,3.0547 0.5312,0.7579 1.3281,0.7579 0.7813,0 1.3203,-0.7579 0.5391,-0.7578 0.5391,-3.0547 0,-2.2968 -0.5391,-3.0468 -0.539,-0.75 -1.3359,-0.75 -0.7813,0 -1.2656,0.6562 -0.5782,0.8594 -0.5782,3.1406 z m 6.0581,0 q 0,-1.6406 0.336,-2.6484 0.3359,-1.0078 1.0078,-1.5547 0.6719,-0.5469 1.6875,-0.5469 0.75,0 1.3125,0.3047 0.5625,0.3047 0.9297,0.8672 0.3672,0.5625 0.5781,1.3828 0.2109,0.8203 0.2109,2.1953 0,1.6407 -0.3359,2.6485 -0.3359,1.0078 -1.0078,1.5547 -0.6719,0.5468 -1.6875,0.5468 -1.3438,0 -2.125,-0.9687 -0.9063,-1.1563 -0.9063,-3.7813 z m 1.1719,0 q 0,2.2969 0.5313,3.0547 0.5312,0.7579 1.3281,0.7579 0.7812,0 1.3203,-0.7579 0.5391,-0.7578 0.5391,-3.0547 0,-2.2968 -0.5391,-3.0468 -0.5391,-0.75 -1.3359,-0.75 -0.7813,0 -1.2657,0.6562 -0.5781,0.8594 -0.5781,3.1406 z"
       style="stroke:none" />
  </g>
  <g
     id="g277"
     style="font-size:13px;font-family:SansSerif;color-interpolation:linearRGB;fill:#262626;stroke:#262626;color-rendering:optimizeQuality;image-rendering:optimizeQuality;text-rendering:geometricPrecision"
     transform="translate(40.5886,3.8438)">
    <path
       inkscape:connector-curvature="0"
       id="path275"
       d="M -15.4531,4.4062 V 5.5 h -6.1563 q -0.0156,-0.4062 0.1406,-0.7969 0.2344,-0.625 0.75,-1.2343 0.5157,-0.6094 1.5,-1.4063 1.5157,-1.25 2.0469,-1.9766 0.5313,-0.7265 0.5313,-1.3671 0,-0.6876 -0.4844,-1.1485 -0.4844,-0.4609 -1.2656,-0.4609 -0.8282,0 -1.3203,0.4922 -0.4922,0.4922 -0.5079,1.3672 l -1.1718,-0.125 q 0.125,-1.3126 0.9062,-2 0.7813,-0.6876 2.1094,-0.6876 1.3438,0 2.125,0.7422 0.7812,0.7422 0.7812,1.836 0,0.5625 -0.2265,1.1015 -0.2266,0.5391 -0.7578,1.1407 -0.5313,0.6015 -1.7657,1.6328 -1.0312,0.8594 -1.3203,1.1718 -0.289,0.3126 -0.4765,0.625 z m 1.23,-1.3437 1.1875,-0.1094 q 0.1406,0.8907 0.625,1.3281 0.4843,0.4376 1.1718,0.4376 0.8282,0 1.3985,-0.625 0.5703,-0.625 0.5703,-1.6407 0,-0.9843 -0.5469,-1.5469 -0.5469,-0.5624 -1.4375,-0.5624 -0.5625,0 -1.0078,0.25 -0.4453,0.25 -0.6953,0.6406 l -1.0625,-0.1406 0.8906,-4.7657 h 4.625 v 1.0781 h -3.7031 l -0.5,2.5 q 0.8281,-0.5781 1.75,-0.5781 1.2187,0 2.0547,0.8438 0.8359,0.8437 0.8359,2.1719 0,1.2656 -0.7344,2.1874 -0.8906,1.125 -2.4375,1.125 -1.2656,0 -2.0703,-0.7109 -0.8047,-0.7109 -0.914,-1.8828 z m 7.2299,-2.1563 q 0,-1.6406 0.336,-2.6484 0.3359,-1.0078 1.0078,-1.5547 0.6719,-0.5469 1.6875,-0.5469 0.75,0 1.3125,0.3047 0.5625,0.3047 0.9297,0.8672 0.3672,0.5625 0.5781,1.3828 0.2109,0.8203 0.2109,2.1953 0,1.6407 -0.3359,2.6485 -0.3359,1.0078 -1.0078,1.5547 -0.6719,0.5468 -1.6875,0.5468 -1.3438,0 -2.125,-0.9687 -0.9063,-1.1563 -0.9063,-3.7813 z m 1.1719,0 q 0,2.2969 0.5313,3.0547 0.5312,0.7579 1.3281,0.7579 0.7812,0 1.3203,-0.7579 0.5391,-0.7578 0.5391,-3.0547 0,-2.2968 -0.5391,-3.0468 -0.5391,-0.75 -1.3359,-0.75 -0.7813,0 -1.2657,0.6562 -0.5781,0.8594 -0.5781,3.1406 z"
       style="stroke:none" />
  </g>
  <g
     id="g281"
     style="font-size:15px;font-family:mwb_cmr10;color-interpolation:linearRGB;fill:#262626;stroke:#262626;color-rendering:optimizeQuality;image-rendering:optimizeQuality;text-rendering:geometricPrecision"
     transform="rotate(-90,109.38285,98.46095)">
    <path
       inkscape:connector-curvature="0"
       id="path279"
       d="m 0.8125,0 q -0.125,0 -0.125,-0.125 0.0156,0 0.0156,-0.0078 0,-0.0078 0,-0.0391 l 5.1563,-10.4062 q 0.0781,-0.1563 0.2812,-0.1563 h 0.2032 q 0.2031,0 0.2656,0.1563 l 5.1718,10.4062 q 0,0.0157 0.0079,0.0313 0.0078,0.0156 0.0078,0.0156 0,0.125 -0.125,0.125 z M 1.7969,-1.2031 H 9.7031 L 5.75,-9.1562 Z"
       style="stroke:none" />
  </g>
  <g
     id="g285"
     style="font-size:15px;font-family:SansSerif;color-interpolation:linearRGB;fill:#262626;stroke:#262626;color-rendering:optimizeQuality;image-rendering:optimizeQuality;text-rendering:geometricPrecision"
     transform="rotate(-90,102.88285,91.96095)">
    <path
       inkscape:connector-curvature="0"
       id="path283"
       d="m 4.8394,-3.4531 1.3437,-0.1094 q 0.0938,0.7969 0.4453,1.3125 0.3516,0.5156 1.0781,0.8359 0.7266,0.3203 1.6485,0.3203 0.8125,0 1.4375,-0.2421 0.625,-0.2422 0.9297,-0.6641 0.3047,-0.4219 0.3047,-0.9219 0,-0.5 -0.2969,-0.875 -0.2969,-0.375 -0.9688,-0.6406 -0.4375,-0.1563 -1.914,-0.5156 -1.4766,-0.3594 -2.0703,-0.6719 -0.7657,-0.4062 -1.1485,-1 -0.3828,-0.5938 -0.3828,-1.3438 0,-0.8124 0.4609,-1.5156 0.461,-0.7031 1.3516,-1.0703 0.8906,-0.3672 1.9688,-0.3672 1.2031,0 2.1093,0.3828 0.9063,0.3829 1.3985,1.1329 0.4922,0.75 0.539,1.6874 l -1.375,0.1094 q -0.1093,-1.0156 -0.7422,-1.539 -0.6328,-0.5235 -1.8671,-0.5235 -1.2813,0 -1.875,0.4766 -0.5938,0.4765 -0.5938,1.1328 0,0.5781 0.4219,0.9531 0.4062,0.375 2.1406,0.7656 1.7344,0.3907 2.375,0.6876 0.9375,0.4374 1.3828,1.1015 0.4453,0.6641 0.4453,1.5235 0,0.8593 -0.4922,1.6171 -0.4921,0.7579 -1.4062,1.1797 Q 10.5737,0.1875 9.4175,0.1875 7.9644,0.1875 6.98,-0.2422 5.9956,-0.6719 5.4331,-1.5234 4.8706,-2.375 4.8394,-3.4531 Z m 14.5004,-5.7657 v -1.5156 h 1.3125 v 1.5156 z m 0,9.2188 v -7.7812 h 1.3125 V 0 Z m 3.3169,0 v -7.7812 h 1.1875 v 1.1093 q 0.8594,-1.2812 2.4844,-1.2812 0.7031,0 1.2891,0.25 0.5859,0.25 0.8828,0.664 0.2969,0.4141 0.4062,0.9766 0.0782,0.3594 0.0782,1.2813 V 0 h -1.3282 v -4.7344 q 0,-0.7968 -0.1484,-1.1953 -0.1484,-0.3984 -0.5391,-0.6406 -0.3906,-0.2422 -0.9218,-0.2422 -0.8438,0 -1.4532,0.5313 Q 23.9849,-5.75 23.9849,-4.25 V 0 Z"
       style="stroke:none" />
  </g>
  <g
     id="g289"
     style="font-size:15px;font-family:mwb_cmmi10;color-interpolation:linearRGB;fill:#262626;stroke:#262626;color-rendering:optimizeQuality;image-rendering:optimizeQuality;text-rendering:geometricPrecision"
     transform="rotate(-90,85.38285,74.46095)">
    <path
       inkscape:connector-curvature="0"
       id="path287"
       d="m 0.4219,2.8125 q 0,-0.0781 0.0156,-0.1094 l 2.2031,-8.8593 q 0.0625,-0.2032 0.2344,-0.336 0.1719,-0.1328 0.3906,-0.1328 0.1875,0 0.3203,0.1094 0.1329,0.1094 0.1329,0.2968 0,0.0469 0,0.0782 0,0.0312 -0.0157,0.0468 l -0.8906,3.5157 q -0.1406,0.625 -0.1406,1.0781 0,0.5625 0.2656,0.9141 0.2656,0.3515 0.7969,0.3515 1.0937,0 1.9218,-1.3594 0,-0.0156 0.0079,-0.0234 0.0078,-0.0078 0.0078,-0.0234 L 6.75,-5.9844 q 0.0469,-0.2031 0.2344,-0.3437 0.1875,-0.1407 0.4062,-0.1407 0.1719,0 0.3047,0.1172 0.1328,0.1172 0.1328,0.3047 0,0.0938 -0.0156,0.125 L 6.7344,-1.6094 Q 6.625,-1.1719 6.625,-0.875 q 0,0.6406 0.4375,0.6406 0.4687,0 0.7109,-0.5781 0.2422,-0.5781 0.4141,-1.3906 0.0313,-0.0938 0.125,-0.0938 h 0.1719 q 0.0625,0 0.1015,0.0469 0.0391,0.0469 0.0391,0.1094 -0.2656,1.0468 -0.5781,1.6797 -0.3125,0.6328 -1.0157,0.6328 -0.4843,0 -0.875,-0.2891 -0.3906,-0.289 -0.5,-0.7734 -0.375,0.4687 -0.875,0.7656 -0.5,0.2969 -1.0624,0.2969 -0.9376,0 -1.4688,-0.4375 L 1.4844,2.7656 Q 1.4375,2.9688 1.2656,3.1016 1.0938,3.2344 0.875,3.2344 0.6875,3.2344 0.5547,3.125 0.4219,3.0156 0.4219,2.8125 Z"
       style="stroke:none" />
  </g>
  <g
     id="g293"
     style="font-size:15px;font-family:SansSerif;color-interpolation:linearRGB;fill:#262626;stroke:#262626;color-rendering:optimizeQuality;image-rendering:optimizeQuality;text-rendering:geometricPrecision"
     transform="rotate(-90,80.38285,69.46095)">
    <path
       inkscape:connector-curvature="0"
       id="path291"
       d="M 4.2188,0 0.0625,-10.7344 h 1.5469 l 2.7812,7.7969 Q 4.7344,-2 4.9531,-1.1719 q 0.25,-0.8906 0.5781,-1.7656 l 2.9063,-7.7969 H 9.8906 L 5.6875,0 Z"
       style="stroke:none" />
  </g>
  <g
     id="g371"
     style="color-interpolation:linearRGB;fill:#ff0000;stroke:#ff0000;stroke-width:0.66670001;stroke-linecap:butt;stroke-linejoin:round;color-rendering:optimizeQuality;image-rendering:optimizeQuality;text-rendering:geometricPrecision"
     transform="translate(-27.0781,-27.1562)">
    <line
       id="line295"
       y1="118.6885"
       x2="83.547997"
       x1="83.547997"
       style="fill:none"
       y2="82.1334" />
    <line
       id="line297"
       y1="133.02969"
       x2="117.9567"
       x1="117.9567"
       style="fill:none"
       y2="101.0876" />
    <line
       id="line299"
       y1="191.88"
       x2="152.3653"
       x1="152.3653"
       style="fill:none"
       y2="162.46989" />
    <line
       id="line301"
       y1="269.81259"
       x2="186.774"
       x1="186.774"
       style="fill:none"
       y2="240.2594" />
    <line
       id="line303"
       y1="311.91391"
       x2="221.18269"
       x1="221.18269"
       style="fill:none"
       y2="283.9285" />
    <line
       id="line305"
       y1="370.03391"
       x2="255.59129"
       x1="255.59129"
       style="fill:none"
       y2="341.09229" />
    <line
       id="line307"
       y1="317.18619"
       x2="290"
       x1="290"
       style="fill:none"
       y2="284.5174" />
    <line
       id="line309"
       y1="316.32159"
       x2="324.40869"
       x1="324.40869"
       style="fill:none"
       y2="285.72101" />
    <line
       id="line311"
       y1="292.30981"
       x2="358.81729"
       x1="358.81729"
       style="fill:none"
       y2="257.4942" />
    <line
       id="line313"
       y1="229.42261"
       x2="393.22601"
       x1="393.22601"
       style="fill:none"
       y2="200.25841" />
    <line
       id="line315"
       y1="197.24609"
       x2="427.6347"
       x1="427.6347"
       style="fill:none"
       y2="166.43469" />
    <line
       id="line317"
       y1="142.7097"
       x2="462.0433"
       x1="462.0433"
       style="fill:none"
       y2="107.4492" />
    <line
       id="line319"
       y1="79.724503"
       x2="496.452"
       x1="496.452"
       style="fill:none"
       y2="49.0275" />
    <line
       id="line321"
       y1="118.6885"
       x2="87.677101"
       x1="79.418999"
       style="fill:none"
       y2="118.6885" />
    <line
       id="line323"
       y1="133.02969"
       x2="122.0857"
       x1="113.8276"
       style="fill:none"
       y2="133.02969" />
    <line
       id="line325"
       y1="191.88"
       x2="156.4944"
       x1="148.2363"
       style="fill:none"
       y2="191.88" />
    <line
       id="line327"
       y1="269.81259"
       x2="190.903"
       x1="182.645"
       style="fill:none"
       y2="269.81259" />
    <line
       id="line329"
       y1="311.91391"
       x2="225.31171"
       x1="217.0536"
       style="fill:none"
       y2="311.91391" />
    <line
       id="line331"
       y1="317.18619"
       x2="294.129"
       x1="285.871"
       style="fill:none"
       y2="317.18619" />
    <line
       id="line333"
       y1="316.32159"
       x2="328.53769"
       x1="320.2796"
       style="fill:none"
       y2="316.32159" />
    <line
       id="line335"
       y1="292.30981"
       x2="362.94641"
       x1="354.68829"
       style="fill:none"
       y2="292.30981" />
    <line
       id="line337"
       y1="229.42261"
       x2="397.35501"
       x1="389.09698"
       style="fill:none"
       y2="229.42261" />
    <line
       id="line339"
       y1="197.24609"
       x2="431.7637"
       x1="423.50562"
       style="fill:none"
       y2="197.24609" />
    <line
       id="line341"
       y1="142.7097"
       x2="466.17239"
       x1="457.91431"
       style="fill:none"
       y2="142.7097" />
    <line
       id="line343"
       y1="79.724503"
       x2="500.58099"
       x1="492.32291"
       style="fill:none"
       y2="79.724503" />
    <line
       id="line345"
       y1="82.1334"
       x2="87.677101"
       x1="79.418999"
       style="fill:none"
       y2="82.1334" />
    <line
       id="line347"
       y1="101.0876"
       x2="122.0857"
       x1="113.8276"
       style="fill:none"
       y2="101.0876" />
    <line
       id="line349"
       y1="162.46989"
       x2="156.4944"
       x1="148.2363"
       style="fill:none"
       y2="162.46989" />
    <line
       id="line351"
       y1="240.2594"
       x2="190.903"
       x1="182.645"
       style="fill:none"
       y2="240.2594" />
    <line
       id="line353"
       y1="283.9285"
       x2="225.31171"
       x1="217.0536"
       style="fill:none"
       y2="283.9285" />
    <line
       id="line355"
       y1="341.09229"
       x2="259.7204"
       x1="251.4623"
       style="fill:none"
       y2="341.09229" />
    <line
       id="line357"
       y1="284.5174"
       x2="294.129"
       x1="285.871"
       style="fill:none"
       y2="284.5174" />
    <line
       id="line359"
       y1="285.72101"
       x2="328.53769"
       x1="320.2796"
       style="fill:none"
       y2="285.72101" />
    <line
       id="line361"
       y1="257.4942"
       x2="362.94641"
       x1="354.68829"
       style="fill:none"
       y2="257.4942" />
    <line
       id="line363"
       y1="200.25841"
       x2="397.35501"
       x1="389.09698"
       style="fill:none"
       y2="200.25841" />
    <line
       id="line365"
       y1="166.43469"
       x2="431.7637"
       x1="423.50562"
       style="fill:none"
       y2="166.43469" />
    <line
       id="line367"
       y1="107.4492"
       x2="466.17239"
       x1="457.91431"
       style="fill:none"
       y2="107.4492" />
    <line
       id="line369"
       y1="49.0275"
       x2="500.58099"
       x1="492.32291"
       style="fill:none"
       y2="49.0275" />
  </g>
  <g
     id="g375"
     style="color-interpolation:sRGB;fill:#ff0000;stroke:#ff0000;color-rendering:optimizeSpeed;image-rendering:optimizeSpeed;shape-rendering:crispEdges;text-rendering:optimizeSpeed"
     transform="translate(-27.0781,-27.1562)">
    <path
       inkscape:connector-curvature="0"
       id="path373"
       d="M 87.5,100.5 86.3284,97.6716 83.5,96.5 80.6716,97.6716 79.5,100.5 l 1.1716,2.8284 2.8284,1.1716 2.8284,-1.1716 z"
       style="stroke:none" />
  </g>
  <g
     id="g379"
     style="color-interpolation:linearRGB;fill:#ff0000;stroke:#ff0000;stroke-linecap:butt;stroke-linejoin:round;color-rendering:optimizeQuality;image-rendering:optimizeQuality;text-rendering:geometricPrecision"
     transform="translate(-27.0781,-27.1562)">
    <path
       inkscape:connector-curvature="0"
       id="path377"
       style="fill:none;fill-rule:evenodd"
       d="m 87.5,100.5 -0.7639,-2.3511 -2,-1.4531 h -2.4722 l -2,1.4531 -0.7639,2.3511 0.7639,2.3511 2,1.4531 h 2.4722 l 2,-1.4531 z" />
  </g>
  <g
     id="g383"
     style="color-interpolation:sRGB;fill:#ff0000;stroke:#ff0000;color-rendering:optimizeSpeed;image-rendering:optimizeSpeed;shape-rendering:crispEdges;text-rendering:optimizeSpeed"
     transform="translate(-27.0781,-27.1562)">
    <path
       inkscape:connector-curvature="0"
       id="path381"
       d="m 121.5,117.5 -1.1716,-2.8284 -2.8284,-1.1716 -2.8284,1.1716 -1.1716,2.8284 1.1716,2.8284 2.8284,1.1716 2.8284,-1.1716 z"
       style="stroke:none" />
  </g>
  <g
     id="g387"
     style="color-interpolation:linearRGB;fill:#ff0000;stroke:#ff0000;stroke-linecap:butt;stroke-linejoin:round;color-rendering:optimizeQuality;image-rendering:optimizeQuality;text-rendering:geometricPrecision"
     transform="translate(-27.0781,-27.1562)">
    <path
       inkscape:connector-curvature="0"
       id="path385"
       style="fill:none;fill-rule:evenodd"
       d="m 121.5,117.5 -0.7639,-2.3511 -2,-1.4531 h -2.4722 l -2,1.4531 -0.7639,2.3511 0.7639,2.3511 2,1.4531 h 2.4722 l 2,-1.4531 z" />
  </g>
  <g
     id="g391"
     style="color-interpolation:sRGB;fill:#ff0000;stroke:#ff0000;color-rendering:optimizeSpeed;image-rendering:optimizeSpeed;shape-rendering:crispEdges;text-rendering:optimizeSpeed"
     transform="translate(-27.0781,-27.1562)">
    <path
       inkscape:connector-curvature="0"
       id="path389"
       d="m 156.5,177.5 -1.1716,-2.8284 -2.8284,-1.1716 -2.8284,1.1716 -1.1716,2.8284 1.1716,2.8284 2.8284,1.1716 2.8284,-1.1716 z"
       style="stroke:none" />
  </g>
  <g
     id="g395"
     style="color-interpolation:linearRGB;fill:#ff0000;stroke:#ff0000;stroke-linecap:butt;stroke-linejoin:round;color-rendering:optimizeQuality;image-rendering:optimizeQuality;text-rendering:geometricPrecision"
     transform="translate(-27.0781,-27.1562)">
    <path
       inkscape:connector-curvature="0"
       id="path393"
       style="fill:none;fill-rule:evenodd"
       d="m 156.5,177.5 -0.7639,-2.3511 -2,-1.4531 h -2.4722 l -2,1.4531 -0.7639,2.3511 0.7639,2.3511 2,1.4531 h 2.4722 l 2,-1.4531 z" />
  </g>
  <g
     id="g399"
     style="color-interpolation:sRGB;fill:#ff0000;stroke:#ff0000;color-rendering:optimizeSpeed;image-rendering:optimizeSpeed;shape-rendering:crispEdges;text-rendering:optimizeSpeed"
     transform="translate(-27.0781,-27.1562)">
    <path
       inkscape:connector-curvature="0"
       id="path397"
       d="m 190.5,255.5 -1.1716,-2.8284 -2.8284,-1.1716 -2.8284,1.1716 -1.1716,2.8284 1.1716,2.8284 2.8284,1.1716 2.8284,-1.1716 z"
       style="stroke:none" />
  </g>
  <g
     id="g403"
     style="color-interpolation:linearRGB;fill:#ff0000;stroke:#ff0000;stroke-linecap:butt;stroke-linejoin:round;color-rendering:optimizeQuality;image-rendering:optimizeQuality;text-rendering:geometricPrecision"
     transform="translate(-27.0781,-27.1562)">
    <path
       inkscape:connector-curvature="0"
       id="path401"
       style="fill:none;fill-rule:evenodd"
       d="m 190.5,255.5 -0.7639,-2.3511 -2,-1.4531 h -2.4722 l -2,1.4531 -0.7639,2.3511 0.7639,2.3511 2,1.4531 h 2.4722 l 2,-1.4531 z" />
  </g>
  <g
     id="g407"
     style="color-interpolation:sRGB;fill:#ff0000;stroke:#ff0000;color-rendering:optimizeSpeed;image-rendering:optimizeSpeed;shape-rendering:crispEdges;text-rendering:optimizeSpeed"
     transform="translate(-27.0781,-27.1562)">
    <path
       inkscape:connector-curvature="0"
       id="path405"
       d="m 225.5,297.5 -1.1716,-2.8284 -2.8284,-1.1716 -2.8284,1.1716 -1.1716,2.8284 1.1716,2.8284 2.8284,1.1716 2.8284,-1.1716 z"
       style="stroke:none" />
  </g>
  <g
     id="g411"
     style="color-interpolation:linearRGB;fill:#ff0000;stroke:#ff0000;stroke-linecap:butt;stroke-linejoin:round;color-rendering:optimizeQuality;image-rendering:optimizeQuality;text-rendering:geometricPrecision"
     transform="translate(-27.0781,-27.1562)">
    <path
       inkscape:connector-curvature="0"
       id="path409"
       style="fill:none;fill-rule:evenodd"
       d="m 225.5,297.5 -0.7639,-2.3511 -2,-1.4531 h -2.4722 l -2,1.4531 -0.7639,2.3511 0.7639,2.3511 2,1.4531 h 2.4722 l 2,-1.4531 z" />
  </g>
  <g
     id="g415"
     style="color-interpolation:sRGB;fill:#ff0000;stroke:#ff0000;color-rendering:optimizeSpeed;image-rendering:optimizeSpeed;shape-rendering:crispEdges;text-rendering:optimizeSpeed"
     transform="translate(-27.0781,-27.1562)">
    <path
       inkscape:connector-curvature="0"
       id="path413"
       d="m 259.5,357.5 -1.1716,-2.8284 -2.8284,-1.1716 -2.8284,1.1716 -1.1716,2.8284 1.1716,2.8284 2.8284,1.1716 2.8284,-1.1716 z"
       style="stroke:none" />
  </g>
  <g
     id="g419"
     style="color-interpolation:linearRGB;fill:#ff0000;stroke:#ff0000;stroke-linecap:butt;stroke-linejoin:round;color-rendering:optimizeQuality;image-rendering:optimizeQuality;text-rendering:geometricPrecision"
     transform="translate(-27.0781,-27.1562)">
    <path
       inkscape:connector-curvature="0"
       id="path417"
       style="fill:none;fill-rule:evenodd"
       d="m 259.5,357.5 -0.7639,-2.3511 -2,-1.4531 h -2.4722 l -2,1.4531 -0.7639,2.3511 0.7639,2.3511 2,1.4531 h 2.4722 l 2,-1.4531 z" />
  </g>
  <g
     id="g423"
     style="color-interpolation:sRGB;fill:#ff0000;stroke:#ff0000;color-rendering:optimizeSpeed;image-rendering:optimizeSpeed;shape-rendering:crispEdges;text-rendering:optimizeSpeed"
     transform="translate(-27.0781,-27.1562)">
    <path
       inkscape:connector-curvature="0"
       id="path421"
       d="m 294.5,300.5 -1.1716,-2.8284 -2.8284,-1.1716 -2.8284,1.1716 -1.1716,2.8284 1.1716,2.8284 2.8284,1.1716 2.8284,-1.1716 z"
       style="stroke:none" />
  </g>
  <g
     id="g427"
     style="color-interpolation:linearRGB;fill:#ff0000;stroke:#ff0000;stroke-linecap:butt;stroke-linejoin:round;color-rendering:optimizeQuality;image-rendering:optimizeQuality;text-rendering:geometricPrecision"
     transform="translate(-27.0781,-27.1562)">
    <path
       inkscape:connector-curvature="0"
       id="path425"
       style="fill:none;fill-rule:evenodd"
       d="m 294.5,300.5 -0.7639,-2.3511 -2,-1.4531 h -2.4722 l -2,1.4531 -0.7639,2.3511 0.7639,2.3511 2,1.4531 h 2.4722 l 2,-1.4531 z" />
  </g>
  <g
     id="g431"
     style="color-interpolation:sRGB;fill:#ff0000;stroke:#ff0000;color-rendering:optimizeSpeed;image-rendering:optimizeSpeed;shape-rendering:crispEdges;text-rendering:optimizeSpeed"
     transform="translate(-27.0781,-27.1562)">
    <path
       inkscape:connector-curvature="0"
       id="path429"
       d="m 328.5,301.5 -1.1716,-2.8284 -2.8284,-1.1716 -2.8284,1.1716 -1.1716,2.8284 1.1716,2.8284 2.8284,1.1716 2.8284,-1.1716 z"
       style="stroke:none" />
  </g>
  <g
     id="g435"
     style="color-interpolation:linearRGB;fill:#ff0000;stroke:#ff0000;stroke-linecap:butt;stroke-linejoin:round;color-rendering:optimizeQuality;image-rendering:optimizeQuality;text-rendering:geometricPrecision"
     transform="translate(-27.0781,-27.1562)">
    <path
       inkscape:connector-curvature="0"
       id="path433"
       style="fill:none;fill-rule:evenodd"
       d="m 328.5,301.5 -0.7639,-2.3511 -2,-1.4531 h -2.4722 l -2,1.4531 -0.7639,2.3511 0.7639,2.3511 2,1.4531 h 2.4722 l 2,-1.4531 z" />
  </g>
  <g
     id="g439"
     style="color-interpolation:sRGB;fill:#ff0000;stroke:#ff0000;color-rendering:optimizeSpeed;image-rendering:optimizeSpeed;shape-rendering:crispEdges;text-rendering:optimizeSpeed"
     transform="translate(-27.0781,-27.1562)">
    <path
       inkscape:connector-curvature="0"
       id="path437"
       d="m 362.5,274.5 -1.1716,-2.8284 -2.8284,-1.1716 -2.8284,1.1716 -1.1716,2.8284 1.1716,2.8284 2.8284,1.1716 2.8284,-1.1716 z"
       style="stroke:none" />
  </g>
  <g
     id="g443"
     style="color-interpolation:linearRGB;fill:#ff0000;stroke:#ff0000;stroke-linecap:butt;stroke-linejoin:round;color-rendering:optimizeQuality;image-rendering:optimizeQuality;text-rendering:geometricPrecision"
     transform="translate(-27.0781,-27.1562)">
    <path
       inkscape:connector-curvature="0"
       id="path441"
       style="fill:none;fill-rule:evenodd"
       d="m 362.5,274.5 -0.7639,-2.3511 -2,-1.4531 h -2.4722 l -2,1.4531 -0.7639,2.3511 0.7639,2.3511 2,1.4531 h 2.4722 l 2,-1.4531 z" />
  </g>
  <g
     id="g447"
     style="color-interpolation:sRGB;fill:#ff0000;stroke:#ff0000;color-rendering:optimizeSpeed;image-rendering:optimizeSpeed;shape-rendering:crispEdges;text-rendering:optimizeSpeed"
     transform="translate(-27.0781,-27.1562)">
    <path
       inkscape:connector-curvature="0"
       id="path445"
       d="m 397.5,214.5 -1.1716,-2.8284 -2.8284,-1.1716 -2.8284,1.1716 -1.1716,2.8284 1.1716,2.8284 2.8284,1.1716 2.8284,-1.1716 z"
       style="stroke:none" />
  </g>
  <g
     id="g451"
     style="color-interpolation:linearRGB;fill:#ff0000;stroke:#ff0000;stroke-linecap:butt;stroke-linejoin:round;color-rendering:optimizeQuality;image-rendering:optimizeQuality;text-rendering:geometricPrecision"
     transform="translate(-27.0781,-27.1562)">
    <path
       inkscape:connector-curvature="0"
       id="path449"
       style="fill:none;fill-rule:evenodd"
       d="m 397.5,214.5 -0.7639,-2.3511 -2,-1.4531 h -2.4722 l -2,1.4531 -0.7639,2.3511 0.7639,2.3511 2,1.4531 h 2.4722 l 2,-1.4531 z" />
  </g>
  <g
     id="g455"
     style="color-interpolation:sRGB;fill:#ff0000;stroke:#ff0000;color-rendering:optimizeSpeed;image-rendering:optimizeSpeed;shape-rendering:crispEdges;text-rendering:optimizeSpeed"
     transform="translate(-27.0781,-27.1562)">
    <path
       inkscape:connector-curvature="0"
       id="path453"
       d="m 431.5,181.5 -1.1716,-2.8284 -2.8284,-1.1716 -2.8284,1.1716 -1.1716,2.8284 1.1716,2.8284 2.8284,1.1716 2.8284,-1.1716 z"
       style="stroke:none" />
  </g>
  <g
     id="g459"
     style="color-interpolation:linearRGB;fill:#ff0000;stroke:#ff0000;stroke-linecap:butt;stroke-linejoin:round;color-rendering:optimizeQuality;image-rendering:optimizeQuality;text-rendering:geometricPrecision"
     transform="translate(-27.0781,-27.1562)">
    <path
       inkscape:connector-curvature="0"
       id="path457"
       style="fill:none;fill-rule:evenodd"
       d="m 431.5,181.5 -0.7639,-2.3511 -2,-1.4531 h -2.4722 l -2,1.4531 -0.7639,2.3511 0.7639,2.3511 2,1.4531 h 2.4722 l 2,-1.4531 z" />
  </g>
  <g
     id="g463"
     style="color-interpolation:sRGB;fill:#ff0000;stroke:#ff0000;color-rendering:optimizeSpeed;image-rendering:optimizeSpeed;shape-rendering:crispEdges;text-rendering:optimizeSpeed"
     transform="translate(-27.0781,-27.1562)">
    <path
       inkscape:connector-curvature="0"
       id="path461"
       d="m 466.5,125.5 -1.1716,-2.8284 -2.8284,-1.1716 -2.8284,1.1716 -1.1716,2.8284 1.1716,2.8284 2.8284,1.1716 2.8284,-1.1716 z"
       style="stroke:none" />
  </g>
  <g
     id="g467"
     style="color-interpolation:linearRGB;fill:#ff0000;stroke:#ff0000;stroke-linecap:butt;stroke-linejoin:round;color-rendering:optimizeQuality;image-rendering:optimizeQuality;text-rendering:geometricPrecision"
     transform="translate(-27.0781,-27.1562)">
    <path
       inkscape:connector-curvature="0"
       id="path465"
       style="fill:none;fill-rule:evenodd"
       d="m 466.5,125.5 -0.7639,-2.3511 -2,-1.4531 h -2.4722 l -2,1.4531 -0.7639,2.3511 0.7639,2.3511 2,1.4531 h 2.4722 l 2,-1.4531 z" />
  </g>
  <g
     id="g471"
     style="color-interpolation:sRGB;fill:#ff0000;stroke:#ff0000;color-rendering:optimizeSpeed;image-rendering:optimizeSpeed;shape-rendering:crispEdges;text-rendering:optimizeSpeed"
     transform="translate(-27.0781,-27.1562)">
    <path
       inkscape:connector-curvature="0"
       id="path469"
       d="M 500.5,64.5 499.3284,61.6716 496.5,60.5 493.6716,61.6716 492.5,64.5 l 1.1716,2.8284 2.8284,1.1716 2.8284,-1.1716 z"
       style="stroke:none" />
  </g>
  <g
     id="g483"
     style="color-interpolation:linearRGB;fill:#ff0000;stroke:#ff0000;stroke-linecap:butt;stroke-linejoin:round;color-rendering:optimizeQuality;image-rendering:optimizeQuality;text-rendering:geometricPrecision"
     transform="translate(-27.0781,-27.1562)">
    <path
       inkscape:connector-curvature="0"
       id="path473"
       style="fill:none;fill-rule:evenodd"
       d="m 500.5,64.5 -0.7639,-2.3511 -2,-1.4531 h -2.4722 l -2,1.4531 -0.7639,2.3511 0.7639,2.3511 2,1.4531 h 2.4722 l 2,-1.4531 z" />
    <path
       inkscape:connector-curvature="0"
       id="path475"
       style="fill:none;fill-rule:evenodd;stroke:#0000ff;stroke-width:2.66669989"
       d="m 72.9566,58.8843 5.0304,7.8584 6.9513,10.859 6.9512,10.8586 6.9513,10.8583 6.9512,10.8574 6.9512,10.8563 6.9513,10.8543 6.9512,10.8511 6.9513,10.8458 6.9512,10.8371 6.9513,10.8234 6.9512,10.8014 6.9513,10.7666 6.9512,10.7127 6.9512,10.6297 6.9513,10.5047 6.9512,10.3204 6.9513,10.0554 6.9512,9.6859 6.9513,9.1897 6.9512,8.5507 6.9513,7.7672 6.9512,6.8571 6.9513,5.86 6.9512,4.8324 6.9513,3.8354 6.9512,2.9224 6.9513,2.1264 6.9512,1.4568 6.9512,0.9005 6.9513,0.4281 h 6.9512 l 6.9513,-0.4281 6.9512,-0.9005 6.9512,-1.4568 6.9513,-2.1264 6.9512,-2.9224 6.9513,-3.8354 6.9512,-4.8324 6.9513,-5.86 6.9512,-6.8571 6.9513,-7.7672 6.9512,-8.5507 6.9513,-9.1897 6.9512,-9.6859 6.9513,-10.0554 6.9512,-10.3204 6.9513,-10.5047 6.9512,-10.6297" />
    <path
       inkscape:connector-curvature="0"
       id="path477"
       style="fill:none;fill-rule:evenodd;stroke:#0000ff;stroke-width:2.66669989"
       d="m 404.6956,218.1544 6.9512,-10.6297 6.9513,-10.7127 6.9512,-10.7666 6.9512,-10.8014 6.9513,-10.8234 6.9512,-10.8371 6.9513,-10.8458 6.9512,-10.8511 6.9512,-10.8543 6.9513,-10.8563 6.9512,-10.8574 6.9513,-10.8583 6.9512,-10.8586 6.9513,-10.859 5.0304,-7.8584" />
    <path
       inkscape:connector-curvature="0"
       id="path479"
       style="fill:none;fill-rule:evenodd;stroke:#008000;stroke-width:2.66669989"
       d="m 88.389,30.9661 3.5005,5.4686 6.9513,10.8593 6.9512,10.8593 6.9512,10.8593 6.9513,10.8594 6.9512,10.8593 6.9513,10.8593 6.9512,10.8593 6.9513,10.8593 6.9512,10.8593 6.9513,10.8594 6.9512,10.8593 6.9512,10.8593 6.9513,10.8593 6.9512,10.8593 6.9513,10.8593 6.9512,10.8593 6.9513,10.8591 6.9512,10.8585 6.9513,10.8562 6.9512,10.8478 6.9513,10.8183 6.9512,10.721 6.9513,10.4279 6.9512,9.6651 6.9513,8.0786 6.9512,5.6643 6.9512,3.1315 6.9513,1.2496 h 6.9512 l 6.9513,-1.2496 6.9512,-3.1315 6.9512,-5.6643 6.9513,-8.0786 6.9512,-9.6651 6.9513,-10.4279 6.9512,-10.721 6.9513,-10.8183 6.9512,-10.8478 6.9513,-10.8562 6.9512,-10.8585 6.9513,-10.8591 6.9512,-10.8593 6.9513,-10.8593 6.9512,-10.8593 6.9513,-10.8593 6.9512,-10.8593 6.9513,-10.8593 6.9512,-10.8594" />
    <path
       inkscape:connector-curvature="0"
       id="path481"
       style="fill:none;fill-rule:evenodd;stroke:#008000;stroke-width:2.66669989"
       d="m 418.5981,145.0279 6.9512,-10.8594 6.9512,-10.8593 6.9513,-10.8593 6.9512,-10.8593 6.9513,-10.8593 6.9512,-10.8593 6.9512,-10.8594 6.9513,-10.8593 6.9512,-10.8593 6.9513,-10.8593 3.5005,-5.4686" />
  </g>
  <g
     id="g487"
     style="color-interpolation:sRGB;fill:#ffffff;stroke:#ffffff;color-rendering:optimizeSpeed;image-rendering:optimizeSpeed;shape-rendering:crispEdges;text-rendering:optimizeSpeed"
     transform="translate(-27.0781,-27.1562)">
    <path
       inkscape:connector-curvature="0"
       id="path485"
       d="M 161,104 V 49 h 130 v 55 z"
       style="stroke:none" />
  </g>
  <g
     id="g491"
     style="font-family:SansSerif;color-interpolation:linearRGB;color-rendering:optimizeQuality;image-rendering:optimizeQuality;text-rendering:geometricPrecision"
     transform="translate(185.9219,32.5755)">
    <path
       inkscape:connector-curvature="0"
       id="path489"
       d="M 4.8281,5 V 4.2188 q -0.5937,0.9218 -1.7343,0.9218 -0.75,0 -1.375,-0.414 Q 1.0938,4.3125 0.75,3.5781 0.4062,2.8438 0.4062,1.8906 q 0,-0.9218 0.3126,-1.6875 0.3124,-0.7656 0.9374,-1.164 0.625,-0.3985 1.3907,-0.3985 0.5625,0 1,0.2344 0.4375,0.2344 0.7187,0.6094 V -3.5938 H 5.8125 V 5 Z M 1.5,1.8906 q 0,1.2032 0.5,1.7891 0.5,0.5859 1.1875,0.5859 0.6875,0 1.1719,-0.5625 0.4844,-0.5625 0.4844,-1.7187 0,-1.2813 -0.4922,-1.875 -0.4922,-0.5938 -1.211,-0.5938 -0.7031,0 -1.1718,0.5703 Q 1.5,0.6562 1.5,1.8906 Z m 10.0332,2.3438 q -0.5937,0.5 -1.1328,0.7031 -0.5391,0.2031 -1.1641,0.2031 -1.0312,0 -1.5781,-0.5 -0.5469,-0.5 -0.5469,-1.2812 0,-0.4532 0.2032,-0.836 Q 7.5176,2.1406 7.8613,1.9141 8.2051,1.6875 8.627,1.5781 8.9238,1.4844 9.5645,1.4062 q 1.2656,-0.1406 1.875,-0.3593 0,-0.2188 0,-0.2657 0,-0.6562 -0.2969,-0.9218 -0.4063,-0.3438 -1.2031,-0.3438 -0.7344,0 -1.0938,0.2578 Q 8.4863,0.0312 8.3145,0.6875 L 7.2832,0.5469 q 0.1406,-0.6563 0.4688,-1.0625 0.3281,-0.4063 0.9375,-0.625 0.6093,-0.2188 1.4062,-0.2188 0.7969,0 1.2969,0.1875 0.5,0.1875 0.7344,0.4688 0.2343,0.2812 0.3281,0.7187 0.0469,0.2656 0.0469,0.9688 v 1.4062 q 0,1.4688 0.0703,1.8594 0.0703,0.3906 0.2734,0.75 H 11.7363 Q 11.5801,4.6719 11.5332,4.2344 Z M 11.4395,1.875 Q 10.8613,2.1094 9.7207,2.2812 9.0645,2.375 8.7988,2.4922 8.5332,2.6094 8.3848,2.8281 q -0.1485,0.2188 -0.1485,0.5 0,0.4219 0.3203,0.7031 0.3204,0.2813 0.9297,0.2813 0.6094,0 1.086,-0.2656 0.4765,-0.2657 0.6953,-0.7344 0.1719,-0.3594 0.1719,-1.0469 z m 5.0019,2.1875 0.1563,0.9219 q -0.4532,0.0937 -0.7969,0.0937 -0.5781,0 -0.8906,-0.1797 Q 14.5977,4.7188 14.4648,4.4219 14.332,4.125 14.332,3.1719 v -3.5781 h -0.7656 v -0.8126 h 0.7656 v -1.5468 l 1.0469,-0.625 v 2.1718 h 1.0625 v 0.8126 h -1.0625 v 3.6406 q 0,0.4531 0.0547,0.5781 0.0547,0.125 0.1797,0.2031 0.125,0.0782 0.3594,0.0782 0.1875,0 0.4687,-0.0313 z m 5.0996,0.1719 q -0.5937,0.5 -1.1328,0.7031 -0.5391,0.2031 -1.1641,0.2031 -1.0312,0 -1.5781,-0.5 -0.5469,-0.5 -0.5469,-1.2812 0,-0.4532 0.2032,-0.836 0.2031,-0.3828 0.5468,-0.6093 0.3438,-0.2266 0.7657,-0.336 0.2968,-0.0937 0.9375,-0.1719 1.2656,-0.1406 1.875,-0.3593 0,-0.2188 0,-0.2657 0,-0.6562 -0.2969,-0.9218 -0.4063,-0.3438 -1.2031,-0.3438 -0.7344,0 -1.0938,0.2578 -0.3594,0.2578 -0.5312,0.9141 L 17.291,0.5469 q 0.1406,-0.6563 0.4688,-1.0625 0.3281,-0.4063 0.9375,-0.625 0.6093,-0.2188 1.4062,-0.2188 0.7969,0 1.2969,0.1875 0.5,0.1875 0.7344,0.4688 0.2343,0.2812 0.3281,0.7187 0.0469,0.2656 0.0469,0.9688 v 1.4062 q 0,1.4688 0.0703,1.8594 0.0703,0.3906 0.2734,0.75 H 21.7441 Q 21.5879,4.6719 21.541,4.2344 Z M 21.4473,1.875 q -0.5782,0.2344 -1.7188,0.4062 -0.6562,0.0938 -0.9219,0.211 -0.2656,0.1172 -0.414,0.3359 -0.1485,0.2188 -0.1485,0.5 0,0.4219 0.3204,0.7031 0.3203,0.2813 0.9296,0.2813 0.6094,0 1.086,-0.2656 0.4765,-0.2657 0.6953,-0.7344 0.1719,-0.3594 0.1719,-1.0469 z m 6.039,5.5156 v -8.6094 h 0.9532 v 0.7969 q 0.3437,-0.4687 0.7734,-0.7031 0.4297,-0.2344 1.0391,-0.2344 0.7968,0 1.4062,0.4063 0.6094,0.4062 0.9141,1.1562 0.3047,0.75 0.3047,1.6407 0,0.9531 -0.336,1.7187 -0.3359,0.7656 -0.9922,1.1719 -0.6562,0.4062 -1.375,0.4062 -0.5312,0 -0.9531,-0.2265 -0.4219,-0.2266 -0.6875,-0.5547 v 3.0312 z m 0.9532,-5.4687 q 0,1.2031 0.4843,1.7734 0.4844,0.5703 1.1719,0.5703 0.7031,0 1.2031,-0.5937 0.5,-0.5938 0.5,-1.8438 0,-1.1875 -0.4843,-1.7734 -0.4844,-0.5859 -1.1719,-0.5859 -0.6719,0 -1.1875,0.625 -0.5156,0.625 -0.5156,1.8281 z m 5.33,-0.0313 q 0,-1.7344 0.9532,-2.5625 0.7968,-0.6875 1.9531,-0.6875 1.2812,0 2.1015,0.836 0.8204,0.8359 0.8204,2.3203 0,1.2031 -0.3594,1.8906 -0.3594,0.6875 -1.0547,1.0703 -0.6953,0.3828 -1.5078,0.3828 -1.2969,0 -2.1016,-0.8359 -0.8047,-0.8359 -0.8047,-2.4141 z m 1.0782,0 q 0,1.1875 0.5234,1.7813 0.5234,0.5937 1.3047,0.5937 0.7969,0 1.3125,-0.5937 0.5156,-0.5938 0.5156,-1.8125 0,-1.1563 -0.5234,-1.75 -0.5235,-0.5938 -1.3047,-0.5938 -0.7813,0 -1.3047,0.586 -0.5234,0.5859 -0.5234,1.789 z M 40.834,-2.375 v -1.2188 h 1.0625 v 1.2188 z m 0,7.375 v -6.2188 h 1.0625 V 5 Z M 43.5,5 v -6.2188 h 0.9375 v 0.875 q 0.6875,-1.0156 1.9844,-1.0156 0.5625,0 1.039,0.2032 0.4766,0.2031 0.711,0.5312 0.2343,0.3281 0.3281,0.7656 0.0469,0.2969 0.0469,1.0313 V 5 H 47.5 V 1.2188 Q 47.5,0.5625 47.375,0.25 47.25,-0.0625 46.9375,-0.2578 46.625,-0.4531 46.2031,-0.4531 q -0.6719,0 -1.164,0.4297 -0.4922,0.4296 -0.4922,1.6172 V 5 Z m 8.9707,-0.9375 0.1563,0.9219 q -0.4532,0.0937 -0.7969,0.0937 -0.5781,0 -0.8906,-0.1797 Q 50.627,4.7188 50.4941,4.4219 50.3613,4.125 50.3613,3.1719 v -3.5781 h -0.7656 v -0.8126 h 0.7656 v -1.5468 l 1.0469,-0.625 v 2.1718 h 1.0625 v 0.8126 h -1.0625 v 3.6406 q 0,0.4531 0.0547,0.5781 0.0547,0.125 0.1797,0.2031 0.125,0.0782 0.3594,0.0782 0.1875,0 0.4687,-0.0313 z m 0.6152,-0.9219 1.0313,-0.1562 q 0.0937,0.625 0.4922,0.9531 0.3984,0.3281 1.1328,0.3281 0.7187,0 1.0703,-0.289 0.3516,-0.2891 0.3516,-0.6954 0,-0.3593 -0.3125,-0.5624 Q 56.6328,2.5781 55.7734,2.3594 54.6172,2.0625 54.1719,1.8516 53.7266,1.6406 53.4922,1.2656 53.2578,0.8906 53.2578,0.4219 q 0,-0.4063 0.1875,-0.7657 0.1875,-0.3593 0.5156,-0.5937 0.25,-0.1719 0.6719,-0.2969 0.4219,-0.125 0.9219,-0.125 0.7187,0 1.2734,0.211 0.5547,0.2109 0.8203,0.5703 0.2657,0.3593 0.3594,0.9531 L 56.9766,0.5156 Q 56.9141,0.0469 56.5781,-0.2266 56.2422,-0.5 55.6172,-0.5 q -0.7188,0 -1.0313,0.2422 -0.3125,0.2422 -0.3125,0.5703 0,0.2031 0.125,0.3594 0.1407,0.1719 0.4063,0.2812 0.1562,0.0625 0.9375,0.2657 1.125,0.3124 1.5625,0.5 0.4375,0.1874 0.6875,0.5468 0.25,0.3594 0.25,0.9063 0,0.5312 -0.3047,0.9922 -0.3047,0.4609 -0.8828,0.7187 -0.5781,0.2578 -1.3125,0.2578 -1.2188,0 -1.8516,-0.5078 Q 53.2578,4.125 53.0859,3.1406 Z"
       style="stroke:none" />
  </g>
  <g
     id="g495"
     style="color-interpolation:sRGB;fill:#ff0000;stroke:#ff0000;color-rendering:optimizeSpeed;image-rendering:optimizeSpeed;shape-rendering:crispEdges;text-rendering:optimizeSpeed"
     transform="translate(-27.0781,-27.1562)">
    <path
       inkscape:connector-curvature="0"
       id="path493"
       d="M 193.5,59.5 192.3284,56.6716 189.5,55.5 186.6716,56.6716 185.5,59.5 l 1.1716,2.8284 2.8284,1.1716 2.8284,-1.1716 z"
       style="stroke:none" />
  </g>
  <g
     id="g499"
     style="color-interpolation:linearRGB;fill:#ff0000;stroke:#ff0000;stroke-linecap:butt;stroke-linejoin:round;color-rendering:optimizeQuality;image-rendering:optimizeQuality;text-rendering:geometricPrecision"
     transform="translate(-27.0781,-27.1562)">
    <path
       inkscape:connector-curvature="0"
       id="path497"
       style="fill:none;fill-rule:evenodd"
       d="m 193.5,59.5 -0.7639,-2.3511 -2,-1.4531 h -2.4722 l -2,1.4531 -0.7639,2.3511 0.7639,2.3511 2,1.4531 h 2.4722 l 2,-1.4531 z" />
  </g>
  <g
     id="g503"
     style="font-family:SansSerif;color-interpolation:linearRGB;color-rendering:optimizeQuality;image-rendering:optimizeQuality;text-rendering:geometricPrecision"
     transform="translate(185.9219,49.3438)">
    <path
       inkscape:connector-curvature="0"
       id="path501"
       d="m 0.7969,5 v -6.2188 h 0.9375 v 0.875 Q 2.0312,-0.8125 2.5156,-1.0859 3,-1.3594 3.625,-1.3594 q 0.6875,0 1.1328,0.2813 0.4453,0.2812 0.6172,0.7969 0.75,-1.0782 1.9219,-1.0782 0.9375,0 1.4297,0.5078 0.4922,0.5078 0.4922,1.586 V 5 H 8.1719 V 1.0781 q 0,-0.625 -0.1016,-0.9062 -0.1015,-0.2813 -0.3672,-0.4531 -0.2656,-0.1719 -0.6406,-0.1719 -0.6563,0 -1.0859,0.4375 Q 5.5469,0.4219 5.5469,1.3906 V 5 H 4.4844 V 0.9531 q 0,-0.7031 -0.2578,-1.0547 -0.2578,-0.3515 -0.836,-0.3515 -0.4531,0 -0.8281,0.2343 Q 2.1875,0.0156 2.0156,0.4688 1.8438,0.9219 1.8438,1.7656 V 5 Z m 9.6054,-3.1094 q 0,-1.7344 0.9532,-2.5625 0.7968,-0.6875 1.9531,-0.6875 1.2812,0 2.1016,0.836 0.8203,0.8359 0.8203,2.3203 0,1.2031 -0.3594,1.8906 -0.3594,0.6875 -1.0547,1.0703 -0.6953,0.3828 -1.5078,0.3828 -1.2969,0 -2.1016,-0.8359 -0.8047,-0.8359 -0.8047,-2.4141 z m 1.0782,0 q 0,1.1875 0.5234,1.7813 0.5234,0.5937 1.3047,0.5937 0.7969,0 1.3125,-0.5937 0.5156,-0.5938 0.5156,-1.8125 0,-1.1563 -0.5234,-1.75 -0.5235,-0.5938 -1.3047,-0.5938 -0.7813,0 -1.3047,0.586 -0.5234,0.5859 -0.5234,1.789 z M 21.498,5 V 4.2188 q -0.5937,0.9218 -1.7343,0.9218 -0.75,0 -1.375,-0.414 -0.625,-0.4141 -0.9688,-1.1485 -0.3437,-0.7343 -0.3437,-1.6875 0,-0.9218 0.3125,-1.6875 0.3125,-0.7656 0.9375,-1.164 0.625,-0.3985 1.3906,-0.3985 0.5625,0 1,0.2344 0.4375,0.2344 0.7187,0.6094 v -3.0782 h 1.0469 V 5 Z M 18.1699,1.8906 q 0,1.2032 0.5,1.7891 0.5,0.5859 1.1875,0.5859 0.6875,0 1.1719,-0.5625 0.4844,-0.5625 0.4844,-1.7187 0,-1.2813 -0.4922,-1.875 -0.4922,-0.5938 -1.211,-0.5938 -0.7031,0 -1.1718,0.5703 -0.4688,0.5703 -0.4688,1.8047 z M 28.3906,3 29.4844,3.125 q -0.25,0.9531 -0.9532,1.4844 -0.7031,0.5312 -1.7812,0.5312 -1.3594,0 -2.1641,-0.8437 -0.8047,-0.8438 -0.8047,-2.3594 0,-1.5625 0.8126,-2.4297 0.8124,-0.8672 2.0937,-0.8672 1.25,0 2.0391,0.8438 0.789,0.8437 0.789,2.3906 0,0.0938 0,0.2812 H 24.875 q 0.0625,1.0313 0.5781,1.5704 0.5157,0.539 1.2969,0.539 0.5781,0 0.9922,-0.3047 Q 28.1562,3.6562 28.3906,3 Z M 24.9375,1.2969 h 3.4687 Q 28.3438,0.5 28.0156,0.1094 27.5,-0.5 26.7031,-0.5 q -0.7343,0 -1.2265,0.4844 -0.4922,0.4844 -0.5391,1.3125 z M 30.7832,5 v -8.5938 h 1.0625 V 5 Z m 10,2.3906 V 4.3438 q -0.25,0.3437 -0.6953,0.5703 -0.4453,0.2265 -0.9453,0.2265 -1.1094,0 -1.9063,-0.8828 -0.7968,-0.8828 -0.7968,-2.4297 0,-0.9375 0.3281,-1.6797 0.3281,-0.7422 0.9453,-1.125 0.6172,-0.3828 1.3516,-0.3828 1.1562,0 1.8125,0.9688 v -0.8282 h 0.9531 V 7.3906 Z M 37.5176,1.875 q 0,1.2031 0.5078,1.7969 0.5078,0.5937 1.2109,0.5937 0.6719,0 1.1563,-0.5703 0.4844,-0.5703 0.4844,-1.7265 0,-1.25 -0.5079,-1.875 -0.5078,-0.625 -1.2109,-0.625 -0.6719,0 -1.1562,0.5859 -0.4844,0.5859 -0.4844,1.8203 z m 14.8515,-1.9219 h -5.6718 v -0.9843 h 5.6718 z m 0,2.6094 H 46.6973 V 1.5781 h 5.6718 z M 61.4141,3 62.5078,3.125 q -0.25,0.9531 -0.9531,1.4844 -0.7031,0.5312 -1.7813,0.5312 -1.3593,0 -2.164,-0.8437 -0.8047,-0.8438 -0.8047,-2.3594 0,-1.5625 0.8125,-2.4297 0.8125,-0.8672 2.0937,-0.8672 1.25,0 2.0391,0.8438 0.7891,0.8437 0.7891,2.3906 0,0.0938 0,0.2812 h -4.6407 q 0.0625,1.0313 0.5782,1.5704 0.5156,0.539 1.2968,0.539 0.5782,0 0.9922,-0.3047 Q 61.1797,3.6562 61.4141,3 Z M 57.9609,1.2969 h 3.4688 Q 61.3672,0.5 61.0391,0.1094 60.5234,-0.5 59.7266,-0.5 58.9922,-0.5 58.5,-0.0156 58.0078,0.4688 57.9609,1.2969 Z m 5.0801,3.8437 2.4844,-8.875 h 0.8437 l -2.4843,8.875 z m 3.834,-2.4062 1.0625,-0.1406 q 0.1719,0.8906 0.6094,1.289 0.4375,0.3984 1.0625,0.3984 0.75,0 1.2656,-0.5156 0.5156,-0.5156 0.5156,-1.2812 0,-0.7188 -0.4765,-1.1953 -0.4766,-0.4766 -1.211,-0.4766 -0.2969,0 -0.75,0.125 L 69.0781,0 q 0.1094,0.0156 0.1719,0.0156 0.6719,0 1.2109,-0.3515 Q 71,-0.6875 71,-1.4219 71,-2 70.6094,-2.3828 q -0.3906,-0.3828 -1.0156,-0.3828 -0.6094,0 -1.0235,0.3906 -0.4141,0.3906 -0.5234,1.1562 l -1.0625,-0.1874 q 0.1875,-1.0469 0.875,-1.6329 0.6875,-0.5859 1.7031,-0.5859 0.7031,0 1.2969,0.3047 0.5937,0.3047 0.9062,0.8203 0.3125,0.5156 0.3125,1.1094 0,0.5468 -0.2969,1.0078 -0.2968,0.4609 -0.875,0.7266 0.75,0.1718 1.1719,0.7265 Q 72.5,1.625 72.5,2.4688 q 0,1.125 -0.8203,1.9062 -0.8203,0.7812 -2.0703,0.7812 -1.125,0 -1.875,-0.6796 -0.75,-0.6797 -0.8594,-1.7422 z"
       style="stroke:none" />
  </g>
  <g
     id="g507"
     style="color-interpolation:linearRGB;fill:#0000ff;stroke:#0000ff;stroke-width:2.66669989;stroke-linecap:butt;stroke-linejoin:round;color-rendering:optimizeQuality;image-rendering:optimizeQuality;text-rendering:geometricPrecision"
     transform="translate(-27.0781,-27.1562)">
    <line
       id="line505"
       y1="76.5"
       x2="209"
       x1="169"
       style="fill:none"
       y2="76.5" />
  </g>
  <g
     id="g511"
     style="font-family:SansSerif;color-interpolation:linearRGB;color-rendering:optimizeQuality;image-rendering:optimizeQuality;text-rendering:geometricPrecision"
     transform="translate(185.9219,66.1121)">
    <path
       inkscape:connector-curvature="0"
       id="path509"
       d="m 0.7969,5 v -6.2188 h 0.9375 v 0.875 Q 2.0312,-0.8125 2.5156,-1.0859 3,-1.3594 3.625,-1.3594 q 0.6875,0 1.1328,0.2813 0.4453,0.2812 0.6172,0.7969 0.75,-1.0782 1.9219,-1.0782 0.9375,0 1.4297,0.5078 0.4922,0.5078 0.4922,1.586 V 5 H 8.1719 V 1.0781 q 0,-0.625 -0.1016,-0.9062 -0.1015,-0.2813 -0.3672,-0.4531 -0.2656,-0.1719 -0.6406,-0.1719 -0.6563,0 -1.0859,0.4375 Q 5.5469,0.4219 5.5469,1.3906 V 5 H 4.4844 V 0.9531 q 0,-0.7031 -0.2578,-1.0547 -0.2578,-0.3515 -0.836,-0.3515 -0.4531,0 -0.8281,0.2343 Q 2.1875,0.0156 2.0156,0.4688 1.8438,0.9219 1.8438,1.7656 V 5 Z m 9.6054,-3.1094 q 0,-1.7344 0.9532,-2.5625 0.7968,-0.6875 1.9531,-0.6875 1.2812,0 2.1016,0.836 0.8203,0.8359 0.8203,2.3203 0,1.2031 -0.3594,1.8906 -0.3594,0.6875 -1.0547,1.0703 -0.6953,0.3828 -1.5078,0.3828 -1.2969,0 -2.1016,-0.8359 -0.8047,-0.8359 -0.8047,-2.4141 z m 1.0782,0 q 0,1.1875 0.5234,1.7813 0.5234,0.5937 1.3047,0.5937 0.7969,0 1.3125,-0.5937 0.5156,-0.5938 0.5156,-1.8125 0,-1.1563 -0.5234,-1.75 -0.5235,-0.5938 -1.3047,-0.5938 -0.7813,0 -1.3047,0.586 -0.5234,0.5859 -0.5234,1.789 z M 21.498,5 V 4.2188 q -0.5937,0.9218 -1.7343,0.9218 -0.75,0 -1.375,-0.414 -0.625,-0.4141 -0.9688,-1.1485 -0.3437,-0.7343 -0.3437,-1.6875 0,-0.9218 0.3125,-1.6875 0.3125,-0.7656 0.9375,-1.164 0.625,-0.3985 1.3906,-0.3985 0.5625,0 1,0.2344 0.4375,0.2344 0.7187,0.6094 v -3.0782 h 1.0469 V 5 Z M 18.1699,1.8906 q 0,1.2032 0.5,1.7891 0.5,0.5859 1.1875,0.5859 0.6875,0 1.1719,-0.5625 0.4844,-0.5625 0.4844,-1.7187 0,-1.2813 -0.4922,-1.875 -0.4922,-0.5938 -1.211,-0.5938 -0.7031,0 -1.1718,0.5703 -0.4688,0.5703 -0.4688,1.8047 z M 28.3906,3 29.4844,3.125 q -0.25,0.9531 -0.9532,1.4844 -0.7031,0.5312 -1.7812,0.5312 -1.3594,0 -2.1641,-0.8437 -0.8047,-0.8438 -0.8047,-2.3594 0,-1.5625 0.8126,-2.4297 0.8124,-0.8672 2.0937,-0.8672 1.25,0 2.0391,0.8438 0.789,0.8437 0.789,2.3906 0,0.0938 0,0.2812 H 24.875 q 0.0625,1.0313 0.5781,1.5704 0.5157,0.539 1.2969,0.539 0.5781,0 0.9922,-0.3047 Q 28.1562,3.6562 28.3906,3 Z M 24.9375,1.2969 h 3.4687 Q 28.3438,0.5 28.0156,0.1094 27.5,-0.5 26.7031,-0.5 q -0.7343,0 -1.2265,0.4844 -0.4922,0.4844 -0.5391,1.3125 z M 30.7832,5 v -8.5938 h 1.0625 V 5 Z m 10,2.3906 V 4.3438 q -0.25,0.3437 -0.6953,0.5703 -0.4453,0.2265 -0.9453,0.2265 -1.1094,0 -1.9063,-0.8828 -0.7968,-0.8828 -0.7968,-2.4297 0,-0.9375 0.3281,-1.6797 0.3281,-0.7422 0.9453,-1.125 0.6172,-0.3828 1.3516,-0.3828 1.1562,0 1.8125,0.9688 v -0.8282 h 0.9531 V 7.3906 Z M 37.5176,1.875 q 0,1.2031 0.5078,1.7969 0.5078,0.5937 1.2109,0.5937 0.6719,0 1.1563,-0.5703 0.4844,-0.5703 0.4844,-1.7265 0,-1.25 -0.5079,-1.875 -0.5078,-0.625 -1.2109,-0.625 -0.6719,0 -1.1562,0.5859 -0.4844,0.5859 -0.4844,1.8203 z m 14.8515,-1.9219 h -5.6718 v -0.9843 h 5.6718 z m 0,2.6094 H 46.6973 V 1.5781 h 5.6718 z M 61.4141,3 62.5078,3.125 q -0.25,0.9531 -0.9531,1.4844 -0.7031,0.5312 -1.7813,0.5312 -1.3593,0 -2.164,-0.8437 -0.8047,-0.8438 -0.8047,-2.3594 0,-1.5625 0.8125,-2.4297 0.8125,-0.8672 2.0937,-0.8672 1.25,0 2.0391,0.8438 0.7891,0.8437 0.7891,2.3906 0,0.0938 0,0.2812 h -4.6407 q 0.0625,1.0313 0.5782,1.5704 0.5156,0.539 1.2968,0.539 0.5782,0 0.9922,-0.3047 Q 61.1797,3.6562 61.4141,3 Z M 57.9609,1.2969 h 3.4688 Q 61.3672,0.5 61.0391,0.1094 60.5234,-0.5 59.7266,-0.5 58.9922,-0.5 58.5,-0.0156 58.0078,0.4688 57.9609,1.2969 Z"
       style="stroke:none" />
  </g>
  <g
     id="g515"
     style="color-interpolation:linearRGB;fill:#008000;stroke:#008000;stroke-width:2.66669989;stroke-linecap:butt;stroke-linejoin:round;color-rendering:optimizeQuality;image-rendering:optimizeQuality;text-rendering:geometricPrecision"
     transform="translate(-27.0781,-27.1562)">
    <line
       id="line513"
       y1="93.268303"
       x2="209"
       x1="169"
       style="fill:none"
       y2="93.268303" />
  </g>
  <g
     id="g519"
     style="color-interpolation:linearRGB;fill:#262626;stroke:#262626;stroke-width:0.66670001;stroke-linecap:butt;color-rendering:optimizeQuality;image-rendering:optimizeQuality;text-rendering:geometricPrecision"
     transform="translate(-27.0781,-27.1562)">
    <path
       inkscape:connector-curvature="0"
       id="path517"
       style="fill:none;fill-rule:evenodd"
       d="M 161,104 V 49 h 130 v 55 z" />
  </g>
</svg>
